<?xml version="1.0" standalone="no"?>
<!DOCTYPE svg PUBLIC "-//W3C//DTD SVG 1.1//EN" "http://www.w3.org/Graphics/SVG/1.1/DTD/svg11.dtd" >
<svg>
<metadata>
Created by FontForge 20090622 at Fri Aug  9 01:00:43 2019
 By deploy user
Copyright &#194;&#169; 2018 by Lucas Descroix. All rights reserved.
</metadata>
<defs>
<font id="Syne-Italic" horiz-adv-x="596" >
  <font-face 
    font-family="Syne"
    font-weight="400"
    font-style="italic"
    font-stretch="normal"
    units-per-em="1000"
    panose-1="0 0 5 0 0 0 0 0 0 0"
    ascent="800"
    descent="-200"
    x-height="512"
    cap-height="650"
    bbox="-585 -493 1265.16 920"
    underline-thickness="75"
    underline-position="-76"
    slope="-9"
    unicode-range="U+0020-U+FB02"
  />
<missing-glyph horiz-adv-x="459" 
d="M384 383q11 0 16 -6t5 -20q0 -19 -6.5 -29.5t-21.5 -20t-55 -31.5v0q15 0 23 -10.5t6 -25.5q-4 -23 -20 -42t-43 -43q-25 -21 -29 -29l-37 24q-42 -20 -64 -20q-10 0 -16 2q-11 3 -18.5 16t-7.5 28q0 13 5 26q-2 -1 -7 -1q-12 0 -26 6t-15 6q-22 9 -22 36q0 20 14 43
t38 38q7 5 8 5q-10 10 -10 27q0 16 9.5 33.5t26.5 29.5q5 3 19.5 13.5t30 17.5t29.5 7q5 0 11 -2l-7 -42q31 10 37 11q12 2 14 2q19 0 44 -17q0 -1 12 -8.5t12 -27.5q0 -5 -1 -7q33 11 46 11zM100 277l-7 3z" />
    <glyph glyph-name="c_t" unicode="ct" horiz-adv-x="657" 
d="M677.5 709.5q7.5 -15.5 7.5 -35.5q0 -36 -20 -50l-93 -43l-4.5 -13.5t-7.5 -17.5q-21 -51 -46 -102h47h46q6 0 19 0.5t23 -0.5l11 -30q-3 0 -13 5l-1 -34l-39 -1h-46h-76q-58 -117 -80 -207q-5 -21 -11 -57t-8 -58q18 3 45.5 22t43.5 33l32 29q8 7 11 11t4 4l-1 -10
q0 -9 4 -16t11 -7l39 23q0 -33 -31 -63q-10 -10 -19 -17.5t-13 -12.5q-38 -34 -73 -55t-56 -21q-13 0 -19.5 4t-19.5 17q-5 5 -8.5 20t-3.5 29q0 24 8 74t13 69q22 94 74 206l-14 43h35q42 86 50 104q-64 -19 -131 -19q-20 0 -62 5q-18 3 -31 3q-6 0 -9 0.5t-4 0.5
q-3 0 -4 -3.5t-2 -6.5h-1v-3q2 0 7 1.5t9 1.5q3 0 11 -3q25 -13 37 -27l3 -38q0 -2 4 -26q4 -6 7 -9l-5 -1q1 -6 2 -15t1 -20q0 -22 -7 -31q-6 -6 -12 -6q-8 0 -12.5 6.5t-10.5 19.5l-12 15v-4v4l-14 16l-21 26l-86 -46q-75 -101 -75 -203q0 -32 10 -71l5 -21t7 -23
q-2 3 5 -5q4 1 22 3t41 9.5t46 20.5q2 1 18 13q3 2 20.5 15.5t25.5 13.5v-80q5 0 -11.5 -12.5t-25.5 -18.5q-27 -15 -74.5 -28.5t-77.5 -13.5q-17 0 -22 5l-2 21q0 2 -5.5 9.5t-9.5 19.5q-5 14 -14 52q-12 44 -12 91q0 63 22.5 129.5t63.5 121.5q34 46 90 71q-2 7 -2 20
q0 19 4 28q12 32 28.5 46.5t41.5 14.5q11 0 37 -4q34 -4 56 -4q70 0 140 23q11 3 26 8q15 40 38 65t58 25q13 0 28 -5q13 -4 20.5 -19.5z" />
    <glyph glyph-name="f_f" unicode="ff" horiz-adv-x="626" 
d="M696 738.5q10 -4.5 13 -4.5v-90q-12 0 -20.5 5t-13.5 5q-12 2 -43 5.5t-55 3.5l-12 -1q-8 -19 -25 -53q-28 -56 -35 -78q-4 -12 -14 -47l97 7l4 -75q-26 -2 -56.5 -4t-64.5 -4q-31 -113 -42 -180l-14 -87q-4 -28 -8 -92q-3 -55 -7.5 -95.5t-15.5 -77.5q-28 -93 -87 -93
q-19 0 -36 7.5t-45 26.5q-31 21 -43 38.5t-12 47.5h54q0 10 2 10t10 -7t19 -15l17 -11.5t19 -12t15 -4.5q24 0 35 38q9 32 13 63t8 88q4 60 8 91q2 9 4 29q3 19 5 36t5 34q10 59 40 163q-22 -1 -68 -1q-43 0 -131 2q-20 0 -29 1q-3 -20 -7 -58q-13 -137 -27 -217l-6 -43
q-6 -43 -11.5 -70.5t-14.5 -53.5q-19 -55 -50 -111t-47 -64q-3 -1 -9.5 -3.5t-15.5 -2.5q-29 0 -60 20t-51.5 51t-20.5 61h54q0 -4 16 -17t34.5 -24t27.5 -11q5 0 4 -1q13 6 36 56t31 76q9 25 13.5 50t9.5 61q5 30 7 41q14 81 27 216l5 45h-46l-1 75h56q7 66 14.5 107
t25.5 75q9 18 21.5 26t33.5 8q26 0 66 -14t70 -33q5 -2 18 -8.5t25 -18.5t12 -25h-54l-29 -24q-16 9 -49 21t-59 12q-6 0 -8.5 1.5t-2.5 6.5t3 17q-14 -35 -19.5 -59.5t-13.5 -92.5q7 -1 21 -1q86 -2 130 -2q57 0 82 1q4 0 6 1q12 52 20 77q13 42 49 114l27 57q6 15 15 19.5
t32 4.5q26 0 60.5 -4.5t42.5 -4.5q6 -1 16 -5.5z" />
    <glyph glyph-name="f_f_i" unicode="ffi" horiz-adv-x="875" 
d="M533 594q-27 -52 -45 -125q48 1 142 5q22 0 38 1t27 2q66 4 97 4q4 0 6 -1.5t4 -3.5l4 -4q5 -5 5 -15q0 -16 -20 -66h1h-1q-3 -8 -8 -19t-9 -23q-10 -28 -26 -67q-23 -56 -29 -80q-8 -34 -12 -103q-5 -53 -5 -57q18 9 65 56l15 15l35 -69l-18 -17q-33 -32 -60 -52
t-51 -20q-10 0 -15 2q-11 5 -18 26t-7 46q0 36 5 76q4 79 14 119q11 44 40 113q14 35 16 41l23 16l-29 3q-45 7 -76 7q-34 0 -59.5 -1t-43.5 -2q-42 -2 -64 -2q-11 -75 -18 -194q-1 -14 -5.5 -73t-12.5 -109l-3 -30q-5 -48 -12 -80.5t-23 -57.5q-22 -35 -39.5 -49t-41.5 -14
q-15 0 -30.5 5.5t-48.5 19.5q-15 6 -25.5 14.5t-32.5 30.5l36 53q9 -9 17 -14t24 -12q4 -2 23.5 -10t34.5 -8q12 0 20 5t15 16q13 19 18.5 45.5t10.5 70.5q2 10 4 28q9 68 16 170q2 19 6.5 80t11.5 112q-33 -1 -100 -1q-75 0 -110 1q-7 -97 -14 -159.5t-22 -133.5
q-8 -37 -15 -62q-8 -30 -10 -38l-5 -26q-7 -42 -16.5 -76t-25.5 -57q-13 -20 -17 -23.5t-26 -15.5q-17 -10 -27 -13t-24 -3q-36 0 -68 27t-55 76l49 38q10 -23 31.5 -42t42.5 -19q16 0 26 5q8 5 16.5 8.5t7.5 2.5q13 20 19.5 44t12.5 59l6 34l15 59q8 28 11 42q15 69 22 129
t12 146q-42 2 -62 4l3 69l64 -3q4 70 11 120q7 45 16 64.5t27 26t56 6.5t59 -7q29 -12 42 -19l19 -9q20 -9 34 -20.5t42 -37.5q12 28 19 41q32 62 69 90.5t89 28.5q28 0 67 -9q88 -22 114 -55q19 -27 19 -51q0 -41 -53 -68l-46 83l-151 30zM431 468q10 53 23 90l-26 -34
l-23 21q-10 10 -15 13.5t-23 11.5q-30 16 -55 24l-50 3q-13 0 -20 10.5t-8 10.5q-2 0 -10 -43q-7 -49 -10 -107q33 -1 105 -1q74 0 112 1z" />
    <glyph glyph-name="f_m" unicode="fm" horiz-adv-x="1282" 
d="M1246 148q-41 -61 -49 -69q-51 -46 -88 -70q-26 -17 -39 -23.5t-24 -6.5q-20 0 -32.5 19t-14.5 48q-2 18 -2 32q0 40 2.5 63t7.5 55l5 33q7 45 7 96l-1 50q-1 29 -13 42q-18 -22 -39 -67q-96 -211 -149 -315q-9 -66 -20 -71l-8 -2q-7 0 -11.5 5.5t-5.5 6.5q-23 20 -23 46
q0 5 2 15q-12 -5 -13 -5q-4 0 4.5 11t17.5 26t11 30q13 100 13 185q0 69 -8 122q-1 7 -10 18q-19 -22 -37 -47l-70 -100l-116 -165l-27 -41q-17 -22 -25 -36t-10 -25q0 -4 -1 -6q-6 -14 -20 -14q-15 0 -29.5 15.5t-14.5 33.5q0 32 20 59q6 30 10 46q10 42 26 124
q16 80 25 119l16 60q-55 -1 -86 -2.5t-38 -1.5q-11 -1 -31 -1q-18 0 -52 2t-52 2q-31 0 -62 -3l-2 -28q-10 -104 -14 -181l-2 -50q-2 -73 -7 -123t-20 -95l-8 -23q-6 -24 -14 -39q-15 -32 -47.5 -87.5t-37.5 -57.5q-26 -10 -34 -10q-29 0 -54.5 17.5t-52.5 44.5
q-13 13 -16 15l27 77q16 -9 34 -31q14 -17 27 -25t35 -8q4 0 8 1.5t6 2.5l57 100q6 13 11 29t8 23q13 40 17.5 83.5t6.5 110.5l2 49q3 71 15 199l-60 -6l-5 59l71 8l3 44l1 23q3 101 16 123q8 13 19 17.5t35 4.5l29 -1q31 1 55 -6t46.5 -16l30.5 -12q6 -2 16.5 -4.5t20 -7
t19.5 -14.5l-38 -64q6 -6 -5 -4t-33 10q-40 16 -59.5 22t-48.5 6l-33 1h-14q-2 -30 -2 -51q0 -25 -1 -34l-3 -32q29 3 57 3q19 0 53 -2t51 -2q19 0 27 1q10 0 66.5 2t89.5 2q24 0 30 -2q18 -6 18 -14q0 -4 -7 -21t-12 -33q-14 -46 -20 -71q-14 -61 -27 -125l-12 -60l118 168
l55 79q33 46 58 75l10 14t13.5 16t12.5 6q15 0 30.5 -37.5t21.5 -83.5q8 -66 8 -134q0 -45 -2 -69q18 36 81 175q10 20 22 48l26 54.5t14.5 24.5t13.5 2q31 -8 54 -48t25 -90l1 -54q0 -60 -7 -108q-8 -41 -11.5 -70t-3.5 -69l1 -8q14 5 28 14q43 28 80 62l28 38t20 28z" />
    <glyph glyph-name="f_n" unicode="fn" horiz-adv-x="876" 
d="M839 147q-27 -82 -130 -146q-7 -4 -25 -12.5t-19 -9.5l-1 42l-41 13q24 33 53 44q3 8 4.5 15t3.5 13l16 64l12 44q13 46 19 75.5t6 57.5q0 31 -9 56t-28 50q-1 2 -5 9l-5 -7q-19 -32 -41.5 -54.5l-27.5 -27.5q-27 -30 -52.5 -64.5l-48.5 -67.5l-20 -30l-14 -69l-8 -39
q-10 -58 -24.5 -103t-42.5 -45q-16 0 -32 18.5t-26.5 45.5t-10.5 52q0 53 40 99q45 52 72 91q7 30 16 58q-3 33 -3 89l24 -27l25 74q-27 -6 -92 -8q-90 -5 -144 -5q-20 0 -60 4q-34 4 -52 5l-22 -85q-5 -27 -20 -125q-22 -162 -48.5 -271.5t-78.5 -170.5q-3 -5 -12 -5
q-14 0 -34 9t-31 20q-16 17 -26 43l7 -2v90l44 -57q2 -1 7 -5t7 -7l-3 -29q34 41 57.5 113t38.5 157.5t38 244.5q4 41 10 75q-10 -1 -30 -1v60q12 0 40 2q34 165 112 202q13 6 18 7t20 1q19 0 49 -4t54 -10l114 -47l-24 -81q-54 26 -104 41q-16 3 -43 7t-46 4
q-32 0 -39.5 -0.5l-7.5 -0.5l-31 -116q26 -2 39 -4q38 -4 57 -4q54 0 141 5q25 1 69 6q26 2 30 2q13 0 21.5 -4.5t20.5 -16.5q14 -14 14 -32q0 -10 -4 -21l-5 -15l2 2q21 27 54 53q3 2 10.5 8.5t10.5 12.5l4 12.5t16 26.5t27 14q6 0 8.5 -1l7.5 -3q10 -4 22 -22l14 -21
q22 -29 35 -72.5t13 -88.5q0 -40 -7.5 -76.5t-22.5 -89.5l-9 -33q-4 -16 -5 -23q33 28 41 50zM521 468v1v-1zM689.5 465.5l0.5 -0.5q0 1 -2 1q1 0 1.5 -0.5zM424 113l-2 -2q-13 -15 -19.5 -24t-6.5 -16q0 -18 12 -23q8 16 16 65z" />
    <glyph glyph-name="f_o" unicode="fo" horiz-adv-x="718" 
d="M706 366q0 -25 -4.5 -48.5t-14.5 -65.5l-4 -19q-8 -31 -22 -72.5t-26 -66.5q-21 -44 -40 -64.5t-47.5 -27.5t-81.5 -7q-7 0 -16 -1t-21 -1q-25 0 -38 9.5t-20 32.5q-8 30 -8 67q0 50 18.5 109.5t48.5 133.5l14 37q3 9 10 27t13 29l-22 1q-50 5 -90 5h-150
q-8 -42 -20 -125q-15 -102 -22 -142q-3 -12 -10 -46q-23 -113 -29 -164q-6 -61 -22.5 -98.5t-42.5 -60.5q-17 -15 -24 -18.5t-21 -3.5q-35 0 -73 25t-52 51l51 28q2 -6 31.5 -20t42.5 -14q4 0 7.5 0.5t2.5 -0.5q21 18 31.5 45t15.5 76q5 51 16 107.5t14 70.5l9 40
q8 43 23 145q11 75 16 104q-3 1 -10 1l-8 -4l-39 58q8 7 15 9t27 2l26 -1q11 71 20 115.5t20 62.5q8 12 20 15t45 4l23 1l47 1q34 0 58 -6t46 -21l-29 -75q-8 5 -29.5 8.5t-45.5 3.5l-46 -1q-14 0 -32.5 -3t-21.5 -1q-10 -36 -20 -104h140q31 0 91 -2t89 -2q27 0 39 1
q10 1 28 1q34 0 54 -17t37 -60q13 -32 13 -64zM647.5 324.5q4.5 23.5 4.5 41.5q0 6 -1.5 10.5t-4.5 11t-4 9.5l-6 18t-11.5 17t-22.5 5q-17 0 -27 -1q-12 -1 -40 -1h-17l8 -9q-11 -8 -13 -10.5t-2 -9.5q0 -21 -17 -61q-77 -166 -77 -243q0 -21 6 -43q2 11 2 16t0.5 6.5
t3.5 1.5q10 0 19.5 1t17.5 1q47 0 67.5 3t31 12.5t21.5 32.5q14 30 23.5 54t20.5 66q13 48 17.5 71.5z" />
    <glyph glyph-name="f_r" unicode="fr" horiz-adv-x="737" 
d="M722 486q17 0 33 -2l-5 -89q-6 0 -20 2t-26 2q-39 0 -57 -20q-30 -37 -52.5 -75t-55.5 -101q-17 -34 -38 -69q-13 -21 -28 -39t-39 -43q-31 -33 -43 -49q-4 -5 -4 4l-1 9q-21 -50 -34 -50q-9 0 -14 11.5t-5 29.5q0 20 14 49l6 44q16 63 33 158q18 98 29 142q6 24 8 30
q-12 -1 -24 -1t-22 -1q-23 -1 -39.5 -0.5t-27.5 0.5q-13 1 -40 1q-25 0 -34 -1l-29 -2l-12 -76q-2 -12 -13 -67q-8 -38 -12 -64l-8 -74q-4 -52 -8 -78l-9 -60l-4 -21q-4 -25 -16.5 -66.5t-30.5 -77.5q-12 -25 -35 -41.5t-45 -16.5q-12 0 -20 4q-19 10 -36 25.5t-44 43.5
l-23 23l39 64l14 -15q21 -22 37 -35.5t37 -24.5q-5 3 3 8t17.5 7.5t7.5 -2.5q34 72 42 123q11 56 13 74q6 52 8 78q4 50 8 74q3 29 15 83l10 52q7 44 8 53q-9 -1 -33 -3t-44 -2l-1 77q25 0 54.5 3t37.5 4q6 28 15 61q5 13 8 35q8 36 13.5 55.5t12.5 26.5q16 17 48 24.5
t83 7.5q31 0 53 -5q21 -6 52 -23l18 -9l-24 -81l-25 13q-10 5 -16.5 7.5t-18.5 5.5q-4 2 -39 2q-3 0 -48 -3t-45 -2q-2 -3 -9 -35q-6 -31 -11 -48q-4 -11 -7 -26q2 1 7 1q12 1 38 1q27 0 41 -1q11 0 27 -0.5t37 0.5q18 2 51 2q44 0 60 -7.5t16 -30.5q0 -9 -2.5 -15t-6 -9
t-2.5 0q-11 -29 -23 -71q-11 -34 -18 -69t-16 -88q-8 -50 -13 -75q24 27 42 54q22 32 56 98q30 56 48 86t40 56q40 50 116 50z" />
    <glyph glyph-name="f_u" unicode="fu" horiz-adv-x="820" 
d="M758 360q-8 -23 -39 -102l-48 -128q18 15 32 34.5t39 60.5l46 -45q-27 -49 -52.5 -84.5t-56.5 -56.5q-20 -15 -40 -26l-1 -8l1 8q-28 -15 -41 -15q-17 0 -13 22q15 89 59 207q-52 -68 -108 -121.5t-106 -75.5q-51 -23 -106 -23q-15 0 -22 1t-9 8.5t-2 11.5l-1 10
q0 25 17 59v1v0q4 7 10 21q12 23 14 29q38 123 101 254q4 9 14 27q9 15 11 21q-8 2 -16 2q-34 0 -72 -5q-160 -15 -201 -18q-7 -52 -37 -221l-11 -59q-8 -46 -25 -113l-13 -57q-3 -11 -5.5 -26.5t-3.5 -23.5q-4 -34 -9.5 -58t-16.5 -46q-5 -11 -12.5 -15.5t-20.5 -4.5
q-26 0 -54.5 13t-47.5 32.5t-19 38.5q10 11 49 11q20 0 70 -5q6 21 7 43q5 39 10 60q15 63 17 72q3 14 10 44t11 51q4 26 23 121q20 96 26 140q-19 -1 -52 -1l10 60q33 0 50 1l4 44l3 50q3 58 8.5 86t22.5 33q48 14 84 14t67 -11t76 -38l-28 -77q-60 36 -115 36
q-31 0 -69 -11q9 3 9 -29q0 -29 -4 -53q-4 -28 -5 -41q49 4 70 7q22 3 56 5q42 2 69 5q26 4 73 6l38 1q18 0 22 -5t5 -23q4 -72 -13.5 -99.5t-18.5 -29.5q-29 -60 -44.5 -99t-46.5 -125l-6 -20l-4 -9q20 3 31 9q52 23 107 75t100 111t71 106l19 36.5t18 36.5q6 32 11 43
q8 23 23 23t28 -22.5t13 -47.5q0 -13 -4 -22q0 -20 -5 -31t-15 -19q-12 -33 -16 -41zM0 -133l6 13q-7 -13 -6 -13z" />
    <glyph glyph-name="f_y" unicode="fy" horiz-adv-x="834" 
d="M828 501l-15 -209q-2 -18 -7.5 -35.5t-6.5 -22.5q-8 -24 -10 -35l-5 -36q-8 -50 -14.5 -78.5t-19.5 -52.5q-18 -31 -49 -60q-2 -7 -6 -11t-9 -3q-23 -21 -32 -31q-48 -58 -77 -89.5t-68.5 -62t-81.5 -42.5q-24 -7 -76 -9q-19 0 -28 -1l-24 -2q-36 -4 -54 -4q-8 0 -26 2
l7 79l19 -1q19 0 53 4q9 0 21 2q13 1 37 1q6 0 25.5 1t30.5 4q50 15 90 52t90 99l21 25q18 21 35 38v2q0 31 -4 83q-2 15 -4 52q-5 69 -13 112.5t-31 81.5l-15 27q-3 6 -15 27.5t-29 41.5q5 -12 -15.5 -16.5t-52.5 -4.5q-29 0 -41 2q-54 2 -94 2q-37 0 -111 -2l-6 -93
l-2 -51q-1 -51 -3.5 -86.5t-10.5 -70.5q-16 -76 -35 -144.5t-53.5 -132t-80.5 -63.5q-18 0 -36.5 10.5t-33 21.5l-18.5 14q-22 16 -29.5 22.5t-22.5 26.5l43 56q5 -6 40 -32q6 -5 17 -15t21 -17t19 -7q28 0 51 50.5t36.5 103.5t28.5 125q11 52 13 142l2 53l5 84
q-34 -4 -51 -4v70q11 0 28.5 1.5l28.5 2.5l4 49v-2q0 30 5 63q0 9 2 25q1 9 2 17t1 15v-1l-1 11q0 12 5 20.5t12 9.5q29 4 60 4q72 0 126 -22q10 -4 30 -16q21 -13 41 -21l-19 -84q-6 2 -31 16q-32 17 -42 21q-37 16 -105 16l-26 -1q0 -8 -2 -22l-4 -49q1 5 1 1t-1 -11
l-3 -36q35 2 105 2q52 0 98 -3h23q7 0 33.5 -0.5t46 -3t26.5 -6.5q40 -20 81 -90q28 -46 37.5 -98t14.5 -132l3 -53q2 -14 4 -44l1 3q13 22 18 43t10 55q1 8 2.5 18.5l3.5 23.5q4 24 17 64q6 21 7 25l14 196h54z" />
    <glyph glyph-name="fi" unicode="fi" horiz-adv-x="585" 
d="M585 656l-15 -28v-50q-50 0 -76 25t-29 55q-15 3 -33 3q-25 0 -52 -6.5l-35 -8.5q-13 -2 -20.5 -5.5t-14.5 -8.5t-14 -9q-34 -17 -41 -17q-5 0 -5 7q0 5 3 14q-12 -31 -16 -56t-8 -74q111 0 191 -5l33 2q21 3 42 3q13 0 25 -3q5 -2 8 -10t3 -12q2 -10 2 -21q0 -19 -5 -38
t-13 -45q-1 -4 -3 -9t-3 -11q-10 -38 -36 -117q-16 -45 -27 -83q-3 -14 -11 -32l-10 -30q3 -1 10.5 -2.5t14.5 -1.5q21 0 38 17l38 -64q-21 -21 -47 -33t-50 -12q-23 0 -39.5 11.5t-23.5 34.5q-2 12 -2 19q0 28 11 62.5t20 55.5q8 31 35 113l27 86q12 39 17 54
q-38 -4 -50 -4q-85 5 -205 5h-1q-20 -106 -42 -248l-8 -50q-6 -37 -17 -81l-10 -45q-1 -12 -5 -31q-6 -39 -10 -59q-11 -43 -19 -64.5t-17 -32.5q-19 -22 -30 -22q-15 0 -51 12q-26 8 -44.5 18.5t-51.5 35.5q-7 6 -15.5 31t-8.5 39h54v4l2 -2q22 -16 38 -24t43 -16
q15 -7 30 -8q8 13 17 51q5 17 11 58l4 25q5 30 14 65q8 32 12 60q4 18 5.5 32t3.5 24q27 168 39 228h-55l-7 70h74q0 7 2 23q5 48 10.5 78t16.5 55q7 16 11.5 20.5t24.5 13.5l32 16l20 11q27 18 43 20q56 13 98 13q46 0 79 -17q25 -12 38 -21.5t23 -23.5q7 -10 13 -29z
M59 -116h1h-1z" />
    <glyph glyph-name="s_h" unicode="sh" horiz-adv-x="821" 
d="M783.5 323.5q10.5 -32.5 10.5 -59.5q0 -31 -12.5 -65t-42.5 -94q-10 -20 -20 -48q-10 -27 -18.5 -38t-27.5 -11q-14 0 -44 6q-12 2 -22 9t-14 17l45 31q-5 12 -4.5 17t5.5 4l24 -4q13 18 31 53q32 64 41 86t9 37t-8.5 37t-34.5 74l-34 40q-15 -28 -12 -24
q-82 -140 -130 -212l-34 -50q-4 -5 -23 -32.5t-29 -47.5q-9 -40 -28.5 -62t-37.5 -22q-12 0 -19.5 10t-7.5 28q0 41 35 98l2 93q14 52 22.5 101t19.5 130l5 41q7 50 27 112q-84 -20 -174 -22q18 -31 34 -48q80 -80 53.5 -53t-13.5 4.5t13 -47.5q0 -36 -11 -56.5t-27 -20.5
q-14 0 -28 14t-24 41l-3 3q1 -1 -1 -1q-4 0 -11 6q-1 0 -14.5 2t-21.5 2q-11 0 -16 -1q0 -14 1 -20l34 -142q-5 -75 -18 -123q-18 -61 -48 -93.5t-69 -32.5q-35 0 -65 23.5t-59 71.5l42 42l82 -57q23 0 41 18t28 51q13 44 13 100q0 22 -3.5 37t-10.5 33q-12 31 -16 60
q-2 14 -2 36q0 62 18 68q24 9 48 9q20 0 33 -4q-27 36 -51 77h-2h2q-20 33 -20 47l18 33l14 -1h1q32 2 50 2q104 0 213 30l1 4q3 8 6 21q19 66 44 111.5t72 45.5q9 0 17 -2t19 -7q17 -7 29 -33.5t12 -54.5q0 -21 -7.5 -47t-17.5 -36q-27 -28 -47 -39t-75 -28l-22 -7
q-16 -45 -25 -76.5t-13 -62.5l-6 -45q-12 -89 -20 -137t-22 -99q-1 -2 -1 -11q38 38 53 61q62 92 128 207q7 14 26 48t23 36q1 1 3 1q4 0 5.5 -4.5t1.5 -5.5q13 -19 31 -35l11 -11.5t17.5 -22t15.5 -27.5q27 -54 37.5 -86.5zM548 684q28 9 47 17.5t30 21.5l-15 45
q-38 0 -62 -84zM325 421l0.5 -0.5l0.5 -0.5z" />
    <glyph glyph-name="s_t" unicode="st" horiz-adv-x="620" 
d="M611 436.5q9 -12.5 9 -33.5l-28 -14h-47h-76l-10 -26q-8 -23 -26 -67q-29 -72 -44 -119.5t-16 -87.5q35 24 44 33t9 15q0 7 14 19l54 44l31 -30q17 0 17 -9q0 -6 -6.5 -15t-8.5 -9q8 7 -52 -42q-6 -14 -34 -40t-53 -43q-10 -7 -21.5 -8t-13.5 -2q-4 -3 -8 -3q-7 0 -13 14
q-13 34 -13 75q0 53 18 110.5t50 137.5q19 47 21 54q-10 -1 -32 -1v60h53q21 64 36 99l7 63l-67 -10l-139 5h-21.5t-25.5 -3t-19 -11l-6.5 -4.5t-4 -1.5t0.5 4q-2 -10 -2 -12q0 -22 30 -48h18q29 0 51.5 -14.5t35 -36.5t12.5 -44q0 -13 -4 -22l-64 -26l-19 19l-33 34l-8 7
q-32 -4 -44 -22q-13 -19 -13 -47q0 -21 5 -43t16 -60q13 -47 16 -63q2 -18 2 -31q0 -50 -20.5 -97.5t-52.5 -72.5q-14 -11 -31 -11q-21 0 -44 12.5t-38 31.5t-15 37l32 17q8 -5 15.5 -11t13 -8t16.5 -1h11q7 0 7.5 -1.5t-1.5 -2.5q53 41 53 107q0 10 -2 18q-1 8 -5 22t-6 20
q-12 40 -19 72.5t-7 64.5q0 25 6.5 51t15.5 40q18 28 35 40q-19 33 -19 69q0 25 5 38q8 24 26 38q28 23 43 27.5t58 3.5l139 -5q53 2 76 8v0v1q4 1 26.5 9t45.5 8q19 0 34 -9q21 -13 21 -32q0 -12 -11 -23t-32 -17v0v0l-1 -1q-7 -2 -17 -24t-24 -60l-8 -23q-16 -37 -26 -68
h56h47q10 0 19 -12.5zM565 625v0v0zM267 387v0v0z" />
    <glyph glyph-name="z_y" unicode="&#x7a;y" horiz-adv-x="976" 
d="M155 31q-6 3 -14 8t-18 10l-105 -86q-15 0 -24.5 13t-9.5 33q0 28 18 55t46.5 44t56.5 17h9q21 22 71 65l21 18q38 33 79.5 75.5t67.5 76.5l-23 5q-30 6 -69 35q-40 30 -72 60q-18 16 -26.5 20.5t-25.5 4.5l-24 -97h-54v23q0 8 -0.5 20.5t0.5 28.5q2 44 23 70.5t55 26.5
q24 0 55 -16q24 -13 64 -51q25 -23 38 -33q22 -17 46 -22q28 -5 53 -7l40 70q9 12 30.5 21.5t35.5 9.5q11 0 18.5 -6t13.5 -19q5 -8 5 -25q0 -13 -4.5 -29.5t-8.5 -23.5q-16 -34 -43.5 -51t-68.5 -19q-8 -12 -26 -36q-76 -107 -143 -166q-10 -9 -30 -25l-36 -32l26 -16
q79 -41 126 -41q40 0 52 25l20 38h54q0 -25 -12.5 -46.5t-13.5 -23.5q-31 -65 -100 -65q-60 0 -151 50q-8 3 -22 13zM960 377q0 -105 -26 -176q-21 -58 -36.5 -75.5t-15.5 -18.5q-3 -4 -20 -33t-27 -42q-35 -42 -77.5 -75.5t-101.5 -71.5l-27 -18q-82 -55 -129 -79
t-100.5 -33.5t-143.5 -9.5q-74 0 -134 28l23 66q45 -22 111 -22q85 0 131.5 7.5t90.5 29t120 73.5l35 22q67 45 82 57v1h1q29 21 54 45v62q13 40 13 88t-14 102q-8 29 -26.5 60t-39.5 51.5t-36 20.5h-4q-9 -3 -17.5 -14t-9.5 -13q-8 -12 -13 -17q-5 -6 -22 -37
q-3 -5 -7 -12.5t-4 -4.5l-54 20q0 32 22.5 55.5l24.5 25.5q5 6 16.5 22t24 28t25.5 16q11 3 18 3q27 0 58.5 -26.5t57.5 -69.5t38 -89q16 -59 16 -121q0 -29 -5 -62q2 2 4 6l47 79q23 65 23 152q0 34 -1 52q0 5 -2 12.5l-3 11.5q-9 29 -9 51h54q0 -9 5 -24q8 -23 9 -47
q1 -21 1 -56z" />
    <glyph glyph-name="periodcentered" unicode="&#x2d;&#x2d;" horiz-adv-x="223" 
d="M85 255q-14 14 -28 40l63 57q-2 6 12.5 -9t26.5 -41.5t12 -62.5h-72q0 2 -14 16z" />
    <glyph glyph-name=".notdef" horiz-adv-x="459" 
d="M384 383q11 0 16 -6t5 -20q0 -19 -6.5 -29.5t-21.5 -20t-55 -31.5v0q15 0 23 -10.5t6 -25.5q-4 -23 -20 -42t-43 -43q-25 -21 -29 -29l-37 24q-42 -20 -64 -20q-10 0 -16 2q-11 3 -18.5 16t-7.5 28q0 13 5 26q-2 -1 -7 -1q-12 0 -26 6t-15 6q-22 9 -22 36q0 20 14 43
t38 38q7 5 8 5q-10 10 -10 27q0 16 9.5 33.5t26.5 29.5q5 3 19.5 13.5t30 17.5t29.5 7q5 0 11 -2l-7 -42q31 10 37 11q12 2 14 2q19 0 44 -17q0 -1 12 -8.5t12 -27.5q0 -5 -1 -7q33 11 46 11zM100 277l-7 3z" />
    <glyph glyph-name="space" unicode=" " horiz-adv-x="250" 
 />
    <glyph glyph-name="A" unicode="A" horiz-adv-x="592" 
d="M538 34q6 -15 6 -24q0 -14 -11 -24q-22 -21 -41 -21q-18 0 -29.5 14.5t-11.5 36.5q0 14 7 24q-15 31 -45 110l-24 60v-6q-9 0 -18 -1.5t-19 -2.5q-9 -1 -28 -1q-23 0 -34 1l-32 1q-11 0 -25 -2q-6 -1 -25 -5q-35 -7 -51 -7q-13 0 -25 1t-22 1l-12 -32l-53.5 -137.5
t-20.5 -38.5l-44 54q2 2 26 65t32 82q23 65 49 152q34 109 61 179t71 136l15 -12v0l65 19q5 -20 14.5 -44l19.5 -47q3 -7 7.5 -16.5t8.5 -20.5q16 -39 28 -88q13 -43 22 -69l37 -95l39 -97q30 -78 48 -113q9 -17 15 -32zM366 266q-20 50 -29 76q-8 20 -24 75q-12 47 -25 80
l-14 31l-21 49q-32 -55 -53.5 -113t-49.5 -151l-18 -56q18 4 25 4t27 -0.5t40 2.5q22 2 34 2l35 -1q11 -1 31 -1h21z" />
    <glyph glyph-name="Aacute" unicode="&#xc1;" horiz-adv-x="592" 
d="M538 34q6 -15 6 -24q0 -14 -11 -24q-22 -21 -41 -21q-18 0 -29.5 14.5t-11.5 36.5q0 14 7 24q-15 31 -45 110l-24 60v-6q-9 0 -18 -1.5t-19 -2.5q-9 -1 -28 -1q-23 0 -34 1l-32 1q-11 0 -25 -2q-6 -1 -25 -5q-35 -7 -51 -7q-13 0 -25 1t-22 1l-12 -32l-53.5 -137.5
t-20.5 -38.5l-44 54q2 2 26 65t32 82q23 65 49 152q34 109 61 179t71 136l15 -12v0l65 19q5 -20 14.5 -44l19.5 -47q3 -7 7.5 -16.5t8.5 -20.5q16 -39 28 -88q13 -43 22 -69l37 -95l39 -97q30 -78 48 -113q9 -17 15 -32zM366 266q-20 50 -29 76q-8 20 -24 75q-12 47 -25 80
l-14 31l-21 49q-32 -55 -53.5 -113t-49.5 -151l-18 -56q18 4 25 4t27 -0.5t40 2.5q22 2 34 2l35 -1q11 -1 31 -1h21zM396 770q6 0 -5 -6t-25 -11q-11 -4 -30 -14q-39 -18 -65.5 -27.5t-55.5 -9.5v60q17 0 34.5 6.5t49.5 21.5q13 7 41 19q4 2 20.5 11.5t35.5 9.5v-60z" />
    <glyph glyph-name="Abreve" unicode="&#x102;" horiz-adv-x="592" 
d="M538 34q6 -15 6 -24q0 -14 -11 -24q-22 -21 -41 -21q-18 0 -29.5 14.5t-11.5 36.5q0 14 7 24q-15 31 -45 110l-24 60v-6q-9 0 -18 -1.5t-19 -2.5q-9 -1 -28 -1q-23 0 -34 1l-32 1q-11 0 -25 -2q-6 -1 -25 -5q-35 -7 -51 -7q-13 0 -25 1t-22 1l-12 -32l-53.5 -137.5
t-20.5 -38.5l-44 54q2 2 26 65t32 82q23 65 49 152q34 109 61 179t71 136l15 -12v0l65 19q5 -20 14.5 -44l19.5 -47q3 -7 7.5 -16.5t8.5 -20.5q16 -39 28 -88q13 -43 22 -69l37 -95l39 -97q30 -78 48 -113q9 -17 15 -32zM366 266q-20 50 -29 76q-8 20 -24 75q-12 47 -25 80
l-14 31l-21 49q-32 -55 -53.5 -113t-49.5 -151l-18 -56q18 4 25 4t27 -0.5t40 2.5q22 2 34 2l35 -1q11 -1 31 -1h21zM405 794q-7 -44 -45.5 -67.5t-102.5 -31.5q-8 -1 -23 -1q-67 0 -96 53q0 1 -9 15t-9 38h54q0 2 11 -18q6 -11 27 -19.5t45 -8.5q35 0 61 14t36 36z" />
    <glyph glyph-name="Acircumflex" unicode="&#xc2;" horiz-adv-x="592" 
d="M538 34q6 -15 6 -24q0 -14 -11 -24q-22 -21 -41 -21q-18 0 -29.5 14.5t-11.5 36.5q0 14 7 24q-15 31 -45 110l-24 60v-6q-9 0 -18 -1.5t-19 -2.5q-9 -1 -28 -1q-23 0 -34 1l-32 1q-11 0 -25 -2q-6 -1 -25 -5q-35 -7 -51 -7q-13 0 -25 1t-22 1l-12 -32l-53.5 -137.5
t-20.5 -38.5l-44 54q2 2 26 65t32 82q23 65 49 152q34 109 61 179t71 136l15 -12v0l65 19q5 -20 14.5 -44l19.5 -47q3 -7 7.5 -16.5t8.5 -20.5q16 -39 28 -88q13 -43 22 -69l37 -95l39 -97q30 -78 48 -113q9 -17 15 -32zM366 266q-20 50 -29 76q-8 20 -24 75q-12 47 -25 80
l-14 31l-21 49q-32 -55 -53.5 -113t-49.5 -151l-18 -56q18 4 25 4t27 -0.5t40 2.5q22 2 34 2l35 -1q11 -1 31 -1h21zM349 747v-52q-25 0 -87 64q-34 -34 -55 -48t-37 -14q-10 0 -22 6l25 44q-8 4 -8 9q0 6 19 20q29 24 41 35q16 16 17 18q10 13 19 13t16 -9z" />
    <glyph glyph-name="Adieresis" unicode="&#xc4;" horiz-adv-x="592" 
d="M538 34q6 -15 6 -24q0 -14 -11 -24q-22 -21 -41 -21q-18 0 -29.5 14.5t-11.5 36.5q0 14 7 24q-15 31 -45 110l-24 60v-6q-9 0 -18 -1.5t-19 -2.5q-9 -1 -28 -1q-23 0 -34 1l-32 1q-11 0 -25 -2q-6 -1 -25 -5q-35 -7 -51 -7q-13 0 -25 1t-22 1l-12 -32l-53.5 -137.5
t-20.5 -38.5l-44 54q2 2 26 65t32 82q23 65 49 152q34 109 61 179t71 136l15 -12v0l65 19q5 -20 14.5 -44l19.5 -47q3 -7 7.5 -16.5t8.5 -20.5q16 -39 28 -88q13 -43 22 -69l37 -95l39 -97q30 -78 48 -113q9 -17 15 -32zM366 266q-20 50 -29 76q-8 20 -24 75q-12 47 -25 80
l-14 31l-21 49q-32 -55 -53.5 -113t-49.5 -151l-18 -56q18 4 25 4t27 -0.5t40 2.5q22 2 34 2l35 -1q11 -1 31 -1h21zM208.5 792.5q14.5 -12.5 14.5 -36.5l-57 -47l-26 -1v96l26 1q28 0 42.5 -12.5zM385 738l-10 -25q0 -11 -3 -11q-2 0 -9.5 10.5t-11.5 11.5q1 -1 -14.5 -3
t-24.5 -3v79q6 0 18 2.5t21 2.5t14 -1q17 -5 24.5 -13.5t7.5 -24.5l-16 -35zM378 712q0 1 -3 1l6 15q-3 -10 -3 -16z" />
    <glyph glyph-name="Agrave" unicode="&#xc0;" horiz-adv-x="592" 
d="M538 34q6 -15 6 -24q0 -14 -11 -24q-22 -21 -41 -21q-18 0 -29.5 14.5t-11.5 36.5q0 14 7 24q-15 31 -45 110l-24 60v-6q-9 0 -18 -1.5t-19 -2.5q-9 -1 -28 -1q-23 0 -34 1l-32 1q-11 0 -25 -2q-6 -1 -25 -5q-35 -7 -51 -7q-13 0 -25 1t-22 1l-12 -32l-53.5 -137.5
t-20.5 -38.5l-44 54q2 2 26 65t32 82q23 65 49 152q34 109 61 179t71 136l15 -12v0l65 19q5 -20 14.5 -44l19.5 -47q3 -7 7.5 -16.5t8.5 -20.5q16 -39 28 -88q13 -43 22 -69l37 -95l39 -97q30 -78 48 -113q9 -17 15 -32zM366 266q-20 50 -29 76q-8 20 -24 75q-12 47 -25 80
l-14 31l-21 49q-32 -55 -53.5 -113t-49.5 -151l-18 -56q18 4 25 4t27 -0.5t40 2.5q22 2 34 2l35 -1q11 -1 31 -1h21zM160 841q27 -25 59 -48.5t50 -30.5q7 -3 23 -7q24 -7 43 -15l-32 -54q-8 4 -32 11q-4 1 -11 3t-16 6q-29 11 -68.5 39.5t-64.5 53.5z" />
    <glyph glyph-name="Amacron" unicode="&#x100;" horiz-adv-x="592" 
d="M538 34q6 -15 6 -24q0 -14 -11 -24q-22 -21 -41 -21q-18 0 -29.5 14.5t-11.5 36.5q0 14 7 24q-15 31 -45 110l-24 60v-6q-9 0 -18 -1.5t-19 -2.5q-9 -1 -28 -1q-23 0 -34 1l-32 1q-11 0 -25 -2q-6 -1 -25 -5q-35 -7 -51 -7q-13 0 -25 1t-22 1l-12 -32l-53.5 -137.5
t-20.5 -38.5l-44 54q2 2 26 65t32 82q23 65 49 152q34 109 61 179t71 136l15 -12v0l65 19q5 -20 14.5 -44l19.5 -47q3 -7 7.5 -16.5t8.5 -20.5q16 -39 28 -88q13 -43 22 -69l37 -95l39 -97q30 -78 48 -113q9 -17 15 -32zM366 266q-20 50 -29 76q-8 20 -24 75q-12 47 -25 80
l-14 31l-21 49q-32 -55 -53.5 -113t-49.5 -151l-18 -56q18 4 25 4t27 -0.5t40 2.5q22 2 34 2l35 -1q11 -1 31 -1h21zM380 720q-31 -4 -66 -4q-25 0 -44 1t-32 2q-52 4 -84 4v62q49 -6 94 -6q25 0 77 2q42 2 65 2z" />
    <glyph glyph-name="Aogonek" unicode="&#x104;" horiz-adv-x="592" 
d="M583 -184q-8 -6 -21 -17t-25 -17t-25 -6q-22 0 -55 22q-48 32 -55 72q-2 18 -2 30q0 40 13.5 71.5t38.5 51.5q2 11 6 17q-15 31 -45 110l-24 60v-6q-9 0 -18 -1.5t-19 -2.5q-9 -1 -28 -1q-23 0 -34 1l-32 1q-11 0 -25 -2q-6 -1 -25 -5q-35 -7 -51 -7q-13 0 -25 1t-22 1
l-12 -32l-53.5 -137.5t-20.5 -38.5l-44 54q2 2 26 65t32 82q23 65 49 152q34 109 61 179t71 136l15 -12v0l65 19q5 -20 14.5 -44l19.5 -47q3 -7 7.5 -16.5t8.5 -20.5q16 -39 28 -88q13 -43 22 -69l37 -95l39 -97q30 -78 48 -113q9 -17 15 -32t6 -24q0 -14 -11 -24
q-22 -21 -41 -21q-11 0 -20 6q-18 -33 -18 -71q0 -11 1 -17q16 -15 32 -25q8 -6 16.5 -8.5t13.5 -0.5t13.5 9.5t20.5 15.5zM366 266q-20 50 -29 76q-8 20 -24 75q-12 47 -25 80l-14 31l-21 49q-32 -55 -53.5 -113t-49.5 -151l-18 -56q18 4 25 4t27 -0.5t40 2.5q22 2 34 2
l35 -1q11 -1 31 -1h21z" />
    <glyph glyph-name="Aring" unicode="&#xc5;" horiz-adv-x="592" 
d="M538 34q6 -15 6 -24q0 -14 -11 -24q-22 -21 -41 -21q-18 0 -29.5 14.5t-11.5 36.5q0 14 7 24q-15 31 -45 110l-24 60v-6q-9 0 -18 -1.5t-19 -2.5q-9 -1 -28 -1q-23 0 -34 1l-32 1q-11 0 -25 -2q-6 -1 -25 -5q-35 -7 -51 -7q-13 0 -25 1t-22 1l-12 -32l-53.5 -137.5
t-20.5 -38.5l-44 54q2 2 26 65t32 82q23 65 49 152q34 109 61 179t71 136l15 -12v0l65 19q5 -20 14.5 -44l19.5 -47q3 -7 7.5 -16.5t8.5 -20.5q16 -39 28 -88q13 -43 22 -69l37 -95l39 -97q30 -78 48 -113q9 -17 15 -32zM366 266q-20 50 -29 76q-8 20 -24 75q-12 47 -25 80
l-14 31l-21 49q-32 -55 -53.5 -113t-49.5 -151l-18 -56q18 4 25 4t27 -0.5t40 2.5q22 2 34 2l35 -1q11 -1 31 -1h21zM387 845.5q7 -13.5 7 -38.5q0 -33 -16.5 -60t-42.5 -43t-54 -16l-7 40l-5 -32q-47 8 -77 34.5t-30 71.5q0 56 35 87t90 31q26 0 44 -11t37 -34
q12 -16 19 -29.5zM319 771q21 19 21 36q0 7 -7.5 19l-10.5 17q-6 9 -14 13t-21 4q-30 0 -50.5 -17t-20.5 -41q0 -17 17.5 -29.5t44.5 -17.5l-1 -7q21 4 42 23z" />
    <glyph glyph-name="Atilde" unicode="&#xc3;" horiz-adv-x="592" 
d="M538 34q6 -15 6 -24q0 -14 -11 -24q-22 -21 -41 -21q-18 0 -29.5 14.5t-11.5 36.5q0 14 7 24q-15 31 -45 110l-24 60v-6q-9 0 -18 -1.5t-19 -2.5q-9 -1 -28 -1q-23 0 -34 1l-32 1q-11 0 -25 -2q-6 -1 -25 -5q-35 -7 -51 -7q-13 0 -25 1t-22 1l-12 -32l-53.5 -137.5
t-20.5 -38.5l-44 54q2 2 26 65t32 82q23 65 49 152q34 109 61 179t71 136l15 -12v0l65 19q5 -20 14.5 -44l19.5 -47q3 -7 7.5 -16.5t8.5 -20.5q16 -39 28 -88q13 -43 22 -69l37 -95l39 -97q30 -78 48 -113q9 -17 15 -32zM366 266q-20 50 -29 76q-8 20 -24 75q-12 47 -25 80
l-14 31l-21 49q-32 -55 -53.5 -113t-49.5 -151l-18 -56q18 4 25 4t27 -0.5t40 2.5q22 2 34 2l35 -1q11 -1 31 -1h21zM438 754.5q-5 -8.5 -21 -17.5q-18 -10 -36 -19t-31 -13q-30 -9 -57 -9q-17 0 -26 2q-18 3 -31 9.5t-32 18.5q-15 10 -25 15t-22 5q-18 0 -31 -14l-10 -10
l1 13h-54q0 15 6.5 25t17.5 23q35 35 70 35q18 0 34 -7t41 -21q30 -19 44 -21q4 -1 17 -1q22 0 40 5q23 8 58 27l52 -19q0 -18 -5 -26.5z" />
    <glyph glyph-name="AE" unicode="&#xc6;" horiz-adv-x="773" 
d="M366 565l5 15l-17 -34h46q0 -111 1 -161l138 -1q100 -2 146 -2v-74q-47 0 -147 2l-137 1q1 -42 1 -133q0 -27 -6 -73l-4 -32q24 1 64 1q95 0 160 17q15 3 32 3q13 0 37 -2q20 -2 28 -2v-78q-10 0 -34 2q-22 2 -31 2q-12 0 -15 -1q-78 -19 -177 -19l-71 -1q-23 0 -33 3
t-19 13q-11 11 -14 21.5t-0.5 16.5t2.5 -2q0 28 6 74q4 28 5 41q-21 0 -38 5t-22 6q-22 6 -61 6l-44 -1q-32 -2 -46 -2v5q-29 -42 -49.5 -94t-26.5 -87l-69 13q9 49 36 113.5t53 102.5q5 8 17 21.5t14 17.5q80 150 191 305q2 3 13 28t20 34q11 11 27 11q41 0 77 6
q54 10 145 10q23 0 69 -2q42 -2 61 -2l34 1v-80q-22 0 -76 2l-88 1q-82 0 -133 -8q-24 -5 -70 -9zM313.5 230q12.5 -7 18.5 -8q0 72 -1 141.5t-1 142.5q-47 -65 -84.5 -124t-77.5 -134l43 1q46 0 79 -9q11 -3 23.5 -10z" />
    <glyph glyph-name="B" unicode="B" horiz-adv-x="624" 
d="M570.5 278q24.5 -41 24.5 -95q0 -12 -2 -32q-4 -26 -19.5 -53t-35.5 -46.5t-34 -24.5q-58 -21 -104.5 -29.5t-131.5 -8.5h-43q-11 1 -36 1v66q26 0 36 -1h43q77 0 119.5 7.5t86.5 23.5q14 6 36 34.5t24 42.5q1 7 1 20q0 42 -25.5 70.5t-70.5 40.5q-8 2 -16 2
q-20 -5 -64 -11q-30 -3 -61 -3q-14 0 -31.5 -1.5t-25.5 -1.5q-34 -4 -54 -4v60q20 0 56 4q27 3 55 3q32 0 54 3q6 0 16 2v18q13 0 20 1l26 1q10 0 15 -1q38 21 50 71q1 4 -1 15.5t-3 18.5q-7 57 -37 84q-8 8 -54 18q-40 10 -55.5 12t-56.5 2q-20 0 -33.5 -1.5t-19.5 -2.5
l-22 -3q-10 -2 -23 -2q0 -27 2 -79q2 -74 2 -109l-1 -76q-1 -25 -1 -75q0 -45 1 -68q1 -17 5 -56q6 -62 6 -94h-60q0 25 -6 83q-1 20 -5 62q-1 22 -1 73t1 77l1 74q0 34 -2 106q-2 50 -2 77q-65 -8 -65 -20h-60q0 59 54.5 77t96 19.5t49.5 2.5l24 3q35 5 59 5
q43 0 61.5 -1.5t64.5 -7.5q15 -2 38 -10t43 -28q21 -19 35.5 -54t19.5 -78q0 -1 2.5 -13.5t2.5 -28.5q0 -13 -2 -20q-10 -49 -34 -77q43 -23 67.5 -64z" />
    <glyph glyph-name="C" unicode="C" horiz-adv-x="565" 
d="M520 127q0 -16 -10.5 -36l-12.5 -24q-42 -78 -159 -78q-31 0 -55 2q-23 0 -42 2t-28 12q-10 11 -24 37q-13 23 -18 30q-57 75 -78.5 137t-21.5 138q0 78 26 144q12 33 56.5 73t95.5 68t80 28q17 0 37 -6t50 -17q7 -3 25.5 -9.5t34 -16t25.5 -22.5l-48 -48l-58 21
q-6 2 -12.5 5.5t-11.5 5.5q-32 17 -42 17q-26 0 -65 -23t-71.5 -54t-39.5 -50q-22 -55 -22 -116q0 -66 19 -120.5t73 -124.5q15 -20 21.5 -33t12.5 -20q-5 12 -5 13q0 2 3.5 2t11 -1.5t21.5 -2.5l50 -1q39 0 68 10t38 26q6 12 10 21t5 9t1 -8z" />
    <glyph glyph-name="Cacute" unicode="&#x106;" horiz-adv-x="565" 
d="M520 127q0 -16 -10.5 -36l-12.5 -24q-42 -78 -159 -78q-31 0 -55 2q-23 0 -42 2t-28 12q-10 11 -24 37q-13 23 -18 30q-57 75 -78.5 137t-21.5 138q0 78 26 144q12 33 56.5 73t95.5 68t80 28q17 0 37 -6t50 -17q7 -3 25.5 -9.5t34 -16t25.5 -22.5l-48 -48l-58 21
q-6 2 -12.5 5.5t-11.5 5.5q-32 17 -42 17q-26 0 -65 -23t-71.5 -54t-39.5 -50q-22 -55 -22 -116q0 -66 19 -120.5t73 -124.5q15 -20 21.5 -33t12.5 -20q-5 12 -5 13q0 2 3.5 2t11 -1.5t21.5 -2.5l50 -1q39 0 68 10t38 26q6 12 10 21t5 9t1 -8zM480 790q6 0 -5 -6t-25 -11
q-11 -4 -30 -14q-39 -18 -65.5 -27.5t-55.5 -9.5v60q17 0 34.5 6.5t49.5 21.5q13 7 41 19q4 2 20.5 11.5t35.5 9.5v-60z" />
    <glyph glyph-name="Ccaron" unicode="&#x10c;" horiz-adv-x="565" 
d="M520 127q0 -16 -10.5 -36l-12.5 -24q-42 -78 -159 -78q-31 0 -55 2q-23 0 -42 2t-28 12q-10 11 -24 37q-13 23 -18 30q-57 75 -78.5 137t-21.5 138q0 78 26 144q12 33 56.5 73t95.5 68t80 28q17 0 37 -6t50 -17q7 -3 25.5 -9.5t34 -16t25.5 -22.5l-48 -48l-58 21
q-6 2 -12.5 5.5t-11.5 5.5q-32 17 -42 17q-26 0 -65 -23t-71.5 -54t-39.5 -50q-22 -55 -22 -116q0 -66 19 -120.5t73 -124.5q15 -20 21.5 -33t12.5 -20q-5 12 -5 13q0 2 3.5 2t11 -1.5t21.5 -2.5l50 -1q39 0 68 10t38 26q6 12 10 21t5 9t1 -8zM428 814l-72 -86
q-7 -10 -16 -10q-8 0 -19 14l-6.5 6.5t-10.5 11.5q-20 19 -41 34q-8 7 -13.5 12.5t-5.5 8.5q0 5 8 8l-25 45q16 6 22 6q16 0 36.5 -14t55.5 -48q62 64 87 64v-52z" />
    <glyph glyph-name="Ccedilla" unicode="&#xc7;" horiz-adv-x="565" 
d="M520 127q0 -16 -10.5 -36l-12.5 -24q-42 -78 -159 -78h-20q-4 -19 -10 -32l-1 -3q2 1 8 1q42 0 60.5 -19.5t18.5 -57.5q0 -20 -5 -38q-9 -31 -51 -47t-105 -16q-21 0 -35 6q-18 8 -26 14t-14 21l50 20l12 -3l-2 1q1 1 5.5 0.5t9.5 -0.5q16 3 51.5 8.5t52.5 7.5q3 11 3 26
q0 7 -8 12t-17 5q-13 0 -25 -2q-19 -5 -34 11.5t-15 41.5q0 11 5 26l9 20q-32 2 -42 13t-24 37q-13 23 -18 30q-57 75 -78.5 137t-21.5 138q0 78 26 144q12 33 56.5 73t95.5 68t80 28q17 0 37 -6t50 -17q7 -3 25.5 -9.5t34 -16t25.5 -22.5l-48 -48l-58 21q-6 2 -12.5 5.5
t-11.5 5.5q-32 17 -42 17q-26 0 -65 -23t-71.5 -54t-39.5 -50q-22 -55 -22 -116q0 -66 19 -120.5t73 -124.5q15 -20 21.5 -33t12.5 -20q-5 12 -5 13q0 2 3.5 2t11 -1.5t21.5 -2.5l50 -1q39 0 68 10t38 26q6 12 10 21t5 9t1 -8z" />
    <glyph glyph-name="Cdotaccent" unicode="&#x10a;" horiz-adv-x="565" 
d="M520 127q0 -16 -10.5 -36l-12.5 -24q-42 -78 -159 -78q-31 0 -55 2q-23 0 -42 2t-28 12q-10 11 -24 37q-13 23 -18 30q-57 75 -78.5 137t-21.5 138q0 78 26 144q12 33 56.5 73t95.5 68t80 28q17 0 37 -6t50 -17q7 -3 25.5 -9.5t34 -16t25.5 -22.5l-48 -48l-58 21
q-6 2 -12.5 5.5t-11.5 5.5q-32 17 -42 17q-26 0 -65 -23t-71.5 -54t-39.5 -50q-22 -55 -22 -116q0 -66 19 -120.5t73 -124.5q15 -20 21.5 -33t12.5 -20q-5 12 -5 13q0 2 3.5 2t11 -1.5t21.5 -2.5l50 -1q39 0 68 10t38 26q6 12 10 21t5 9t1 -8zM295 739l-1 21q0 26 13 43
t43 32l57 -86q6 3 14 11q0 -3 1 -8t1 -13h-128z" />
    <glyph glyph-name="D" unicode="D" horiz-adv-x="655" 
d="M494.5 604.5q58.5 -46.5 90 -117t31.5 -138.5q0 -45 -7 -74q-19 -79 -65.5 -148t-97.5 -90q-45 -18 -78 -25t-82 -9q-37 0 -56 -1q-52 0 -77 -2q-2 -2 -5 -2q-7 0 -11 11q-4 9 -4 54q0 33 1 53l1 46l-1 39q0 46 3 92q2 60 2 90q0 49 -5 111q-4 54 -4 81h-19l-36 54
q13 10 44.5 14.5t86.5 4.5q34 0 54.5 -1t29.5 -1q23 -1 31 2q18 3 38 3q77 0 135.5 -46.5zM556 349q0 60 -27 113.5t-72.5 86t-97.5 32.5q-6 0 -28.5 -3t-43.5 -2q-9 0 -28.5 1t-52.5 1l-16 -1q0 -23 4 -75q5 -95 5 -119q0 -33 -2 -95q-3 -43 -3 -87l1 -38q0 -18 -1 -42.5
t-1 -48.5h35q37 0 55 1q90 7 141 28q40 16 76 73t50 119q6 22 6 56z" />
    <glyph glyph-name="Eth" unicode="&#xd0;" horiz-adv-x="655" 
d="M494.5 604.5q58.5 -46.5 90 -117t31.5 -138.5q0 -45 -7 -74q-19 -79 -65.5 -148t-97.5 -90q-45 -18 -78 -25t-82 -9q-37 0 -56 -1q-52 0 -77 -2q-2 -2 -5 -2q-7 0 -11 11q-4 9 -4 54q0 33 1 53l1 46l-1 39q0 34 1 60t2 43q-10 -4 -24 -7q-11 -2 -35 -2l-41 1v62l41 -1
q20 0 26 1q7 1 18 5.5t17 6.5v13q0 49 -5 111q-4 54 -4 81h-19l-36 54q13 10 44.5 14.5t86.5 4.5q34 0 54.5 -1t29.5 -1q23 -1 31 2q18 3 38 3q77 0 135.5 -46.5zM556 349q0 60 -27 113.5t-72.5 86t-97.5 32.5q-6 0 -28.5 -3t-43.5 -2q-9 0 -28.5 1t-52.5 1l-16 -1
q0 -23 4 -75q5 -95 5 -119v-7q32 -6 46 -7h30l81 1v-62l-81 -1h-32q-5 0 -45 6q-1 -8 -1 -25q-3 -43 -3 -87l1 -38q0 -18 -1 -42.5t-1 -48.5h35q37 0 55 1q90 7 141 28q40 16 76 73t50 119q6 22 6 56z" />
    <glyph glyph-name="Dcaron" unicode="&#x10e;" horiz-adv-x="655" 
d="M494.5 604.5q58.5 -46.5 90 -117t31.5 -138.5q0 -45 -7 -74q-19 -79 -65.5 -148t-97.5 -90q-45 -18 -78 -25t-82 -9q-37 0 -56 -1q-52 0 -77 -2q-2 -2 -5 -2q-7 0 -11 11q-4 9 -4 54q0 33 1 53l1 46l-1 39q0 46 3 92q2 60 2 90q0 49 -5 111q-4 54 -4 81h-19l-36 54
q13 10 44.5 14.5t86.5 4.5q34 0 54.5 -1t29.5 -1q23 -1 31 2q18 3 38 3q77 0 135.5 -46.5zM556 349q0 60 -27 113.5t-72.5 86t-97.5 32.5q-6 0 -28.5 -3t-43.5 -2q-9 0 -28.5 1t-52.5 1l-16 -1q0 -23 4 -75q5 -95 5 -119q0 -33 -2 -95q-3 -43 -3 -87l1 -38q0 -18 -1 -42.5
t-1 -48.5h35q37 0 55 1q90 7 141 28q40 16 76 73t50 119q6 22 6 56zM406 814l-72 -86q-7 -10 -16 -10q-8 0 -19 14l-6.5 6.5t-10.5 11.5q-20 19 -41 34q-8 7 -13.5 12.5t-5.5 8.5q0 5 8 8l-25 45q16 6 22 6q16 0 36.5 -14t55.5 -48q62 64 87 64v-52z" />
    <glyph glyph-name="Dcroat" unicode="&#x110;" horiz-adv-x="655" 
d="M494.5 604.5q58.5 -46.5 90 -117t31.5 -138.5q0 -45 -7 -74q-19 -79 -65.5 -148t-97.5 -90q-45 -18 -78 -25t-82 -9q-37 0 -56 -1q-52 0 -77 -2q-2 -2 -5 -2q-7 0 -11 11q-4 9 -4 54q0 33 1 53l1 46l-1 39q0 34 1 60t2 43q-10 -4 -24 -7q-11 -2 -35 -2l-41 1v62l41 -1
q20 0 26 1q7 1 18 5.5t17 6.5v13q0 49 -5 111q-4 54 -4 81h-19l-36 54q13 10 44.5 14.5t86.5 4.5q34 0 54.5 -1t29.5 -1q23 -1 31 2q18 3 38 3q77 0 135.5 -46.5zM556 349q0 60 -27 113.5t-72.5 86t-97.5 32.5q-6 0 -28.5 -3t-43.5 -2q-9 0 -28.5 1t-52.5 1l-16 -1
q0 -23 4 -75q5 -95 5 -119v-7q32 -6 46 -7h30l81 1v-62l-81 -1h-32q-5 0 -45 6q-1 -8 -1 -25q-3 -43 -3 -87l1 -38q0 -18 -1 -42.5t-1 -48.5h35q37 0 55 1q90 7 141 28q40 16 76 73t50 119q6 22 6 56z" />
    <glyph glyph-name="E" unicode="E" horiz-adv-x="574" 
d="M516 28q0 -16 -18.5 -19t-79.5 -3l-81 -2q-25 -1 -62.5 -2t-81.5 -1q-92 0 -119 15q-4 3 -6.5 5.5t-2.5 6.5q0 6 3.5 19.5t5.5 30.5q9 66 14 163q2 26 2 42q0 55 -12 165q-4 28 -6 83q0 31 -3 62l20 2v51q164 0 285 11l20 1q13 0 37 -2q20 -2 29 -2q20 0 32 5v-80
q-16 -5 -37 -5q-9 0 -31 2q-20 2 -30 2l-14 -1q-106 -9 -239 -11q1 -11 1 -32q2 -51 5 -77l8 -71q7 1 23 1q26 0 80 -4q13 -1 31.5 -2t41.5 -1l31 1q15 2 30 5.5t21 3.5t6 -7l-1 -8l30 -56q-7 -7 -24 -10.5t-56 -6.5q-24 -2 -37 -2q-25 0 -44.5 1t-32.5 2q-52 4 -76 4
q-13 0 -19 -1q1 -7 1 -23q0 -18 -2 -46q-6 -100 -13 -154q30 -2 48 -2q42 0 79 1t62 2l84 2l38 -8z" />
    <glyph glyph-name="Eacute" unicode="&#xc9;" horiz-adv-x="574" 
d="M516 28q0 -16 -18.5 -19t-79.5 -3l-81 -2q-25 -1 -62.5 -2t-81.5 -1q-92 0 -119 15q-4 3 -6.5 5.5t-2.5 6.5q0 6 3.5 19.5t5.5 30.5q9 66 14 163q2 26 2 42q0 55 -12 165q-4 28 -6 83q0 31 -3 62l20 2v51q164 0 285 11l20 1q13 0 37 -2q20 -2 29 -2q20 0 32 5v-80
q-16 -5 -37 -5q-9 0 -31 2q-20 2 -30 2l-14 -1q-106 -9 -239 -11q1 -11 1 -32q2 -51 5 -77l8 -71q7 1 23 1q26 0 80 -4q13 -1 31.5 -2t41.5 -1l31 1q15 2 30 5.5t21 3.5t6 -7l-1 -8l30 -56q-7 -7 -24 -10.5t-56 -6.5q-24 -2 -37 -2q-25 0 -44.5 1t-32.5 2q-52 4 -76 4
q-13 0 -19 -1q1 -7 1 -23q0 -18 -2 -46q-6 -100 -13 -154q30 -2 48 -2q42 0 79 1t62 2l84 2l38 -8zM424 785q6 0 -5 -6t-25 -11q-11 -4 -30 -14q-39 -18 -65.5 -27.5t-55.5 -9.5v60q17 0 34.5 6.5t49.5 21.5q13 7 41 19q4 2 20.5 11.5t35.5 9.5v-60z" />
    <glyph glyph-name="Ecaron" unicode="&#x11a;" horiz-adv-x="574" 
d="M516 28q0 -16 -18.5 -19t-79.5 -3l-81 -2q-25 -1 -62.5 -2t-81.5 -1q-92 0 -119 15q-4 3 -6.5 5.5t-2.5 6.5q0 6 3.5 19.5t5.5 30.5q9 66 14 163q2 26 2 42q0 55 -12 165q-4 28 -6 83q0 31 -3 62l20 2v51q164 0 285 11l20 1q13 0 37 -2q20 -2 29 -2q20 0 32 5v-80
q-16 -5 -37 -5q-9 0 -31 2q-20 2 -30 2l-14 -1q-106 -9 -239 -11q1 -11 1 -32q2 -51 5 -77l8 -71q7 1 23 1q26 0 80 -4q13 -1 31.5 -2t41.5 -1l31 1q15 2 30 5.5t21 3.5t6 -7l-1 -8l30 -56q-7 -7 -24 -10.5t-56 -6.5q-24 -2 -37 -2q-25 0 -44.5 1t-32.5 2q-52 4 -76 4
q-13 0 -19 -1q1 -7 1 -23q0 -18 -2 -46q-6 -100 -13 -154q30 -2 48 -2q42 0 79 1t62 2l84 2l38 -8zM372 809l-72 -86q-7 -10 -16 -10q-8 0 -19 14l-6.5 6.5t-10.5 11.5q-20 19 -41 34q-8 7 -13.5 12.5t-5.5 8.5q0 5 8 8l-25 45q16 6 22 6q16 0 36.5 -14t55.5 -48
q62 64 87 64v-52z" />
    <glyph glyph-name="Ecircumflex" unicode="&#xca;" horiz-adv-x="574" 
d="M516 28q0 -16 -18.5 -19t-79.5 -3l-81 -2q-25 -1 -62.5 -2t-81.5 -1q-92 0 -119 15q-4 3 -6.5 5.5t-2.5 6.5q0 6 3.5 19.5t5.5 30.5q9 66 14 163q2 26 2 42q0 55 -12 165q-4 28 -6 83q0 31 -3 62l20 2v51q164 0 285 11l20 1q13 0 37 -2q20 -2 29 -2q20 0 32 5v-80
q-16 -5 -37 -5q-9 0 -31 2q-20 2 -30 2l-14 -1q-106 -9 -239 -11q1 -11 1 -32q2 -51 5 -77l8 -71q7 1 23 1q26 0 80 -4q13 -1 31.5 -2t41.5 -1l31 1q15 2 30 5.5t21 3.5t6 -7l-1 -8l30 -56q-7 -7 -24 -10.5t-56 -6.5q-24 -2 -37 -2q-25 0 -44.5 1t-32.5 2q-52 4 -76 4
q-13 0 -19 -1q1 -7 1 -23q0 -18 -2 -46q-6 -100 -13 -154q30 -2 48 -2q42 0 79 1t62 2l84 2l38 -8zM376 762v-52q-25 0 -87 64q-34 -34 -55 -48t-37 -14q-10 0 -22 6l25 44q-8 4 -8 9q0 6 19 20q29 24 41 35q16 16 17 18q10 13 19 13t16 -9z" />
    <glyph glyph-name="Edieresis" unicode="&#xcb;" horiz-adv-x="574" 
d="M516 28q0 -16 -18.5 -19t-79.5 -3l-81 -2q-25 -1 -62.5 -2t-81.5 -1q-92 0 -119 15q-4 3 -6.5 5.5t-2.5 6.5q0 6 3.5 19.5t5.5 30.5q9 66 14 163q2 26 2 42q0 55 -12 165q-4 28 -6 83q0 31 -3 62l20 2v51q164 0 285 11l20 1q13 0 37 -2q20 -2 29 -2q20 0 32 5v-80
q-16 -5 -37 -5q-9 0 -31 2q-20 2 -30 2l-14 -1q-106 -9 -239 -11q1 -11 1 -32q2 -51 5 -77l8 -71q7 1 23 1q26 0 80 -4q13 -1 31.5 -2t41.5 -1l31 1q15 2 30 5.5t21 3.5t6 -7l-1 -8l30 -56q-7 -7 -24 -10.5t-56 -6.5q-24 -2 -37 -2q-25 0 -44.5 1t-32.5 2q-52 4 -76 4
q-13 0 -19 -1q1 -7 1 -23q0 -18 -2 -46q-6 -100 -13 -154q30 -2 48 -2q42 0 79 1t62 2l84 2l38 -8zM235.5 807.5q14.5 -12.5 14.5 -36.5l-57 -47l-26 -1v96l26 1q28 0 42.5 -12.5zM412 753l-10 -25q0 -11 -3 -11q-2 0 -9.5 10.5t-11.5 11.5q1 -1 -14.5 -3t-24.5 -3v79
q6 0 18 2.5t21 2.5t14 -1q17 -5 24.5 -13.5t7.5 -24.5l-16 -35zM405 727q0 1 -3 1l6 15q-3 -10 -3 -16z" />
    <glyph glyph-name="Edotaccent" unicode="&#x116;" horiz-adv-x="574" 
d="M516 28q0 -16 -18.5 -19t-79.5 -3l-81 -2q-25 -1 -62.5 -2t-81.5 -1q-92 0 -119 15q-4 3 -6.5 5.5t-2.5 6.5q0 6 3.5 19.5t5.5 30.5q9 66 14 163q2 26 2 42q0 55 -12 165q-4 28 -6 83q0 31 -3 62l20 2v51q164 0 285 11l20 1q13 0 37 -2q20 -2 29 -2q20 0 32 5v-80
q-16 -5 -37 -5q-9 0 -31 2q-20 2 -30 2l-14 -1q-106 -9 -239 -11q1 -11 1 -32q2 -51 5 -77l8 -71q7 1 23 1q26 0 80 -4q13 -1 31.5 -2t41.5 -1l31 1q15 2 30 5.5t21 3.5t6 -7l-1 -8l30 -56q-7 -7 -24 -10.5t-56 -6.5q-24 -2 -37 -2q-25 0 -44.5 1t-32.5 2q-52 4 -76 4
q-13 0 -19 -1q1 -7 1 -23q0 -18 -2 -46q-6 -100 -13 -154q30 -2 48 -2q42 0 79 1t62 2l84 2l38 -8zM239 734l-1 21q0 26 13 43t43 32l57 -86q6 3 14 11q0 -3 1 -8t1 -13h-128z" />
    <glyph glyph-name="Egrave" unicode="&#xc8;" horiz-adv-x="574" 
d="M516 28q0 -16 -18.5 -19t-79.5 -3l-81 -2q-25 -1 -62.5 -2t-81.5 -1q-92 0 -119 15q-4 3 -6.5 5.5t-2.5 6.5q0 6 3.5 19.5t5.5 30.5q9 66 14 163q2 26 2 42q0 55 -12 165q-4 28 -6 83q0 31 -3 62l20 2v51q164 0 285 11l20 1q13 0 37 -2q20 -2 29 -2q20 0 32 5v-80
q-16 -5 -37 -5q-9 0 -31 2q-20 2 -30 2l-14 -1q-106 -9 -239 -11q1 -11 1 -32q2 -51 5 -77l8 -71q7 1 23 1q26 0 80 -4q13 -1 31.5 -2t41.5 -1l31 1q15 2 30 5.5t21 3.5t6 -7l-1 -8l30 -56q-7 -7 -24 -10.5t-56 -6.5q-24 -2 -37 -2q-25 0 -44.5 1t-32.5 2q-52 4 -76 4
q-13 0 -19 -1q1 -7 1 -23q0 -18 -2 -46q-6 -100 -13 -154q30 -2 48 -2q42 0 79 1t62 2l84 2l38 -8zM187 856q27 -25 59 -48.5t50 -30.5q7 -3 23 -7q24 -7 43 -15l-32 -54q-8 4 -32 11q-4 1 -11 3t-16 6q-29 11 -68.5 39.5t-64.5 53.5z" />
    <glyph glyph-name="Emacron" unicode="&#x112;" horiz-adv-x="574" 
d="M516 28q0 -16 -18.5 -19t-79.5 -3l-81 -2q-25 -1 -62.5 -2t-81.5 -1q-92 0 -119 15q-4 3 -6.5 5.5t-2.5 6.5q0 6 3.5 19.5t5.5 30.5q9 66 14 163q2 26 2 42q0 55 -12 165q-4 28 -6 83q0 31 -3 62l20 2v51q164 0 285 11l20 1q13 0 37 -2q20 -2 29 -2q20 0 32 5v-80
q-16 -5 -37 -5q-9 0 -31 2q-20 2 -30 2l-14 -1q-106 -9 -239 -11q1 -11 1 -32q2 -51 5 -77l8 -71q7 1 23 1q26 0 80 -4q13 -1 31.5 -2t41.5 -1l31 1q15 2 30 5.5t21 3.5t6 -7l-1 -8l30 -56q-7 -7 -24 -10.5t-56 -6.5q-24 -2 -37 -2q-25 0 -44.5 1t-32.5 2q-52 4 -76 4
q-13 0 -19 -1q1 -7 1 -23q0 -18 -2 -46q-6 -100 -13 -154q30 -2 48 -2q42 0 79 1t62 2l84 2l38 -8zM407 735q-31 -4 -66 -4q-25 0 -44 1t-32 2q-52 4 -84 4v62q49 -6 94 -6q25 0 77 2q42 2 65 2z" />
    <glyph glyph-name="Eogonek" unicode="&#x118;" horiz-adv-x="574" 
d="M553 -184q-8 -6 -21 -17t-25 -17t-25 -6q-22 0 -55 22q-48 32 -55 72q-2 18 -2 30q0 65 35 106l-68 -2q-25 -1 -62.5 -2t-81.5 -1q-92 0 -119 15q-4 3 -6.5 5.5t-2.5 6.5q0 6 3.5 19.5t5.5 30.5q9 66 14 163q2 26 2 42q0 55 -12 165q-4 28 -6 83q0 31 -3 62l20 2v51
q164 0 285 11l20 1q13 0 37 -2q20 -2 29 -2q20 0 32 5v-80q-16 -5 -37 -5q-9 0 -31 2q-20 2 -30 2l-14 -1q-106 -9 -239 -11q1 -11 1 -32q2 -51 5 -77l8 -71q7 1 23 1q26 0 80 -4q13 -1 31.5 -2t41.5 -1l31 1q15 2 30 5.5t21 3.5t6 -7l-1 -8l30 -56q-7 -7 -24 -10.5
t-56 -6.5q-24 -2 -37 -2q-25 0 -44.5 1t-32.5 2q-52 4 -76 4q-13 0 -19 -1q1 -7 1 -23q0 -18 -2 -46q-6 -100 -13 -154q30 -2 48 -2q42 0 79 1t62 2l84 2l38 -8l60 -50q0 -10 -8 -14.5t-25 -6.5q-26 -7 -42.5 -39t-16.5 -68q0 -11 1 -17q16 -15 32 -25q8 -6 16.5 -8.5
t13.5 -0.5t13.5 9.5t20.5 15.5z" />
    <glyph glyph-name="F" unicode="F" horiz-adv-x="529" 
d="M140 566q-2 -30 -2 -41q0 -30 8 -94q3 -19 7 -52l71 4l84 2q66 0 117 3l5 -80q-56 -3 -122 -3l-81 -2l-71 -4v-3q-5 -85 -5 -152q0 -82 9 -141l-69 -12q-10 61 -10 151q0 68 5 150q2 37 -3 78t-6 48q-9 65 -9 108q0 15 2 43t2 41h20l-1 34q208 8 413 8v-80
q-185 0 -364 -6z" />
    <glyph glyph-name="G" unicode="G" horiz-adv-x="637" 
d="M557 272l-32 -41q-7 -55 -31 -118.5t-49 -85.5q-19 -16 -37.5 -24t-45.5 -10q-20 -2 -51 -3t-54 -1q-45 0 -67.5 7.5t-30.5 25.5q-10 20 -27 50q-24 42 -37 71t-16 58q-1 12 -5 25.5t-6 21.5q-5 16 -5 47q0 16 2 44q1 19 6.5 36.5t16.5 40.5l13 32q16 47 34.5 84t45.5 64
t75 44.5t88 17.5q45 0 90 -20.5t84 -59.5l-50 -56q-26 26 -59 41t-65 15q-26 0 -61.5 -11.5t-51.5 -27.5q-20 -19 -34.5 -47.5t-29.5 -70.5q-6 -16 -11 -27.5t-8 -19.5q-13 -28 -13 -39q-2 -30 -2 -40q0 -11 2 -25q2 -3 5 -16.5t4 -21.5q4 -33 17 -61.5t36 -67.5l18 -32
q1 0 11 -1t31 -1t50 1t48 2q17 1 26 4.5t18 11.5q18 15 38.5 78.5t20.5 96.5l15 5l-25 -1q-80 -5 -89 -14l-59 36q27 20 56.5 27.5t87.5 10.5q113 6 194 6v-60q-56 0 -81 -1zM518 222v0v0z" />
    <glyph glyph-name="Gbreve" unicode="&#x11e;" horiz-adv-x="637" 
d="M557 272l-32 -41q-7 -55 -31 -118.5t-49 -85.5q-19 -16 -37.5 -24t-45.5 -10q-20 -2 -51 -3t-54 -1q-45 0 -67.5 7.5t-30.5 25.5q-10 20 -27 50q-24 42 -37 71t-16 58q-1 12 -5 25.5t-6 21.5q-5 16 -5 47q0 16 2 44q1 19 6.5 36.5t16.5 40.5l13 32q16 47 34.5 84t45.5 64
t75 44.5t88 17.5q45 0 90 -20.5t84 -59.5l-50 -56q-26 26 -59 41t-65 15q-26 0 -61.5 -11.5t-51.5 -27.5q-20 -19 -34.5 -47.5t-29.5 -70.5q-6 -16 -11 -27.5t-8 -19.5q-13 -28 -13 -39q-2 -30 -2 -40q0 -11 2 -25q2 -3 5 -16.5t4 -21.5q4 -33 17 -61.5t36 -67.5l18 -32
q1 0 11 -1t31 -1t50 1t48 2q17 1 26 4.5t18 11.5q18 15 38.5 78.5t20.5 96.5l15 5l-25 -1q-80 -5 -89 -14l-59 36q27 20 56.5 27.5t87.5 10.5q113 6 194 6v-60q-56 0 -81 -1zM518 222v0v0zM503 814q-7 -44 -45.5 -67.5t-102.5 -31.5q-8 -1 -23 -1q-67 0 -96 53q0 1 -9 15
t-9 38h54q0 2 11 -18q6 -11 27 -19.5t45 -8.5q35 0 61 14t36 36z" />
    <glyph glyph-name="uni0122" unicode="&#x122;" horiz-adv-x="637" 
d="M557 272l-32 -41q-7 -55 -31 -118.5t-49 -85.5q-19 -16 -37.5 -24t-45.5 -10q-20 -2 -51 -3t-54 -1q-45 0 -67.5 7.5t-30.5 25.5q-10 20 -27 50q-24 42 -37 71t-16 58q-1 12 -5 25.5t-6 21.5q-5 16 -5 47q0 16 2 44q1 19 6.5 36.5t16.5 40.5l13 32q16 47 34.5 84t45.5 64
t75 44.5t88 17.5q45 0 90 -20.5t84 -59.5l-50 -56q-26 26 -59 41t-65 15q-26 0 -61.5 -11.5t-51.5 -27.5q-20 -19 -34.5 -47.5t-29.5 -70.5q-6 -16 -11 -27.5t-8 -19.5q-13 -28 -13 -39q-2 -30 -2 -40q0 -11 2 -25q2 -3 5 -16.5t4 -21.5q4 -33 17 -61.5t36 -67.5l18 -32
q1 0 11 -1t31 -1t50 1t48 2q17 1 26 4.5t18 11.5q18 15 38.5 78.5t20.5 96.5l15 5l-25 -1q-80 -5 -89 -14l-59 36q27 20 56.5 27.5t87.5 10.5q113 6 194 6v-60q-56 0 -81 -1zM518 222v0v0zM343 -189.5q-22 -29.5 -55 -53.5l-38 48q29 21 37.5 34t9.5 14l-2 3l-11 30
q-1 2 -3 7t-4.5 8t-6.5 7l45 38q10 -12 20 -39t12 -31l11 -21q7 -15 -15 -44.5z" />
    <glyph glyph-name="Gdotaccent" unicode="&#x120;" horiz-adv-x="637" 
d="M557 272l-32 -41q-7 -55 -31 -118.5t-49 -85.5q-19 -16 -37.5 -24t-45.5 -10q-20 -2 -51 -3t-54 -1q-45 0 -67.5 7.5t-30.5 25.5q-10 20 -27 50q-24 42 -37 71t-16 58q-1 12 -5 25.5t-6 21.5q-5 16 -5 47q0 16 2 44q1 19 6.5 36.5t16.5 40.5l13 32q16 47 34.5 84t45.5 64
t75 44.5t88 17.5q45 0 90 -20.5t84 -59.5l-50 -56q-26 26 -59 41t-65 15q-26 0 -61.5 -11.5t-51.5 -27.5q-20 -19 -34.5 -47.5t-29.5 -70.5q-6 -16 -11 -27.5t-8 -19.5q-13 -28 -13 -39q-2 -30 -2 -40q0 -11 2 -25q2 -3 5 -16.5t4 -21.5q4 -33 17 -61.5t36 -67.5l18 -32
q1 0 11 -1t31 -1t50 1t48 2q17 1 26 4.5t18 11.5q18 15 38.5 78.5t20.5 96.5l15 5l-25 -1q-80 -5 -89 -14l-59 36q27 20 56.5 27.5t87.5 10.5q113 6 194 6v-60q-56 0 -81 -1zM518 222v0v0zM310 739l-1 21q0 26 13 43t43 32l57 -86q6 3 14 11q0 -3 1 -8t1 -13h-128z" />
    <glyph glyph-name="H" unicode="H" horiz-adv-x="717" 
d="M621 99l1 -44q1 -8 3.5 -24.5t2.5 -30.5h-70q0 6 -2.5 23.5t-3.5 29.5q0 29 -1 43q-2 64 -4 192l-60 4q-30 3 -49 3q-51 0 -153 -6q-65 -5 -130 -6v-12q0 -41 -3 -84t-4 -56l-4 -54.5t-3 -78.5h-70q0 41 3 84t4 56q7 77 7 133q0 58 -5 131l-3 75l-1 40l1 68q2 46 2 66h70
q0 -22 -2 -68l-1 -66l1 -37q1 -41 3 -73t3 -54q65 2 129 6q102 6 156 6q22 0 55 -3l54 -4l1 66q1 36 5 103q6 82 6 122h70q0 -43 -6 -129q-4 -66 -5 -98q-1 -27 -1 -89q0 -78 4 -234z" />
    <glyph glyph-name="Hbar" unicode="&#x126;" horiz-adv-x="717" 
d="M621 99l1 -44q1 -8 3.5 -24.5t2.5 -30.5h-70q0 6 -2.5 23.5t-3.5 29.5q0 29 -1 43q-2 64 -4 192l-60 4q-30 3 -49 3q-51 0 -153 -6q-65 -5 -130 -6v-12q0 -41 -3 -84t-4 -56l-4 -54.5t-3 -78.5h-70q0 41 3 84t4 56q7 77 7 133q0 58 -5 131l-3 75l-1 40l1 68q2 46 2 66h70
q0 -22 -2 -68l-1 -66v-14q16 -2 23 -2q37 -4 55 -2q117 7 299 7h29q1 7 1 21q6 82 6 122h70q0 -43 -6 -129q-4 -66 -5 -98q-1 -27 -1 -89q0 -78 4 -234zM282 359q102 6 156 6q22 0 55 -3l54 -4l1 66q0 13 1 20h-26q-182 0 -295 -7q-24 -2 -48.5 0.5t-30.5 2.5l4 -87
q65 2 129 6z" />
    <glyph glyph-name="I" unicode="I" horiz-adv-x="255" 
d="M106 -1q0 188 -9 399q-1 12 -1 38q0 38 4 110q3 54 3 104h70q0 -36 -1 -63.5t-2 -45.5q-4 -72 -4 -105q0 -24 1 -35q9 -213 9 -402h-70z" />
    <glyph glyph-name="IJ" unicode="&#x132;" horiz-adv-x="533" 
d="M106 -1q0 188 -9 399q-1 12 -1 38q0 38 4 110q3 54 3 104h70q0 -36 -1 -63.5t-2 -45.5q-4 -72 -4 -105q0 -24 1 -35q9 -213 9 -402h-70zM235 -181q8 22 11.5 27.5t8.5 8.5q14 10 30 31q58 72 77 179q6 30 6 74q0 23 -1 40t-2 29q-3 36 -3 69l1 44q0 56 -4 170l-3 73v86
h70v-84l3 -72q3 -84 3 -171v-51q0 -27 3 -60q0 -11 1.5 -33.5t1.5 -39.5q0 -47 -7 -87q-10 -62 -34.5 -119t-56.5 -97q-29 -37 -64.5 -57t-64.5 -20q-23 0 -36.5 12.5t-13.5 35.5q0 17 9 41z" />
    <glyph glyph-name="Iacute" unicode="&#xcd;" horiz-adv-x="255" 
d="M106 -1q0 188 -9 399q-1 12 -1 38q0 38 4 110q3 54 3 104h70q0 -36 -1 -63.5t-2 -45.5q-4 -72 -4 -105q0 -24 1 -35q9 -213 9 -402h-70zM284 790q6 0 -5 -6t-25 -11q-11 -4 -30 -14q-39 -18 -65.5 -27.5t-55.5 -9.5v60q17 0 34.5 6.5t49.5 21.5q13 7 41 19q4 2 20.5 11.5
t35.5 9.5v-60z" />
    <glyph glyph-name="Icircumflex" unicode="&#xce;" horiz-adv-x="255" 
d="M106 -1q0 188 -9 399q-1 12 -1 38q0 38 4 110q3 54 3 104h70q0 -36 -1 -63.5t-2 -45.5q-4 -72 -4 -105q0 -24 1 -35q9 -213 9 -402h-70zM237 767v-52q-25 0 -87 64q-34 -34 -55 -48t-37 -14q-10 0 -22 6l25 44q-8 4 -8 9q0 6 19 20q29 24 41 35q16 16 17 18q10 13 19 13
t16 -9z" />
    <glyph glyph-name="Idieresis" unicode="&#xcf;" horiz-adv-x="255" 
d="M106 -1q0 188 -9 399q-1 12 -1 38q0 38 4 110q3 54 3 104h70q0 -36 -1 -63.5t-2 -45.5q-4 -72 -4 -105q0 -24 1 -35q9 -213 9 -402h-70zM96.5 812.5q14.5 -12.5 14.5 -36.5l-57 -47l-26 -1v96l26 1q28 0 42.5 -12.5zM273 758l-10 -25q0 -11 -3 -11q-2 0 -9.5 10.5
t-11.5 11.5q1 -1 -14.5 -3t-24.5 -3v79q6 0 18 2.5t21 2.5t14 -1q17 -5 24.5 -13.5t7.5 -24.5l-16 -35zM266 732q0 1 -3 1l6 15q-3 -10 -3 -16z" />
    <glyph glyph-name="Idotaccent" unicode="&#x130;" horiz-adv-x="255" 
d="M106 -1q0 188 -9 399q-1 12 -1 38q0 38 4 110q3 54 3 104h70q0 -36 -1 -63.5t-2 -45.5q-4 -72 -4 -105q0 -24 1 -35q9 -213 9 -402h-70zM100 739l-1 21q0 26 13 43t43 32l57 -86q6 3 14 11q0 -3 1 -8t1 -13h-128z" />
    <glyph glyph-name="Igrave" unicode="&#xcc;" horiz-adv-x="255" 
d="M106 -1q0 188 -9 399q-1 12 -1 38q0 38 4 110q3 54 3 104h70q0 -36 -1 -63.5t-2 -45.5q-4 -72 -4 -105q0 -24 1 -35q9 -213 9 -402h-70zM48 861q27 -25 59 -48.5t50 -30.5q7 -3 23 -7q24 -7 43 -15l-32 -54q-8 4 -32 11q-4 1 -11 3t-16 6q-29 11 -68.5 39.5t-64.5 53.5z
" />
    <glyph glyph-name="Imacron" unicode="&#x12a;" horiz-adv-x="255" 
d="M106 -1q0 188 -9 399q-1 12 -1 38q0 38 4 110q3 54 3 104h70q0 -36 -1 -63.5t-2 -45.5q-4 -72 -4 -105q0 -24 1 -35q9 -213 9 -402h-70zM268 740q-31 -4 -66 -4q-25 0 -44 1t-32 2q-52 4 -84 4v62q49 -6 94 -6q25 0 77 2q42 2 65 2z" />
    <glyph glyph-name="Iogonek" unicode="&#x12e;" horiz-adv-x="255" 
d="M238 -193q-8 -6 -21 -17t-24.5 -17t-24.5 -6q-23 0 -56 22q-46 31 -55 72q-2 18 -2 30q0 39 13.5 70.5t37.5 51.5q0 183 -9 385q-1 12 -1 38q0 38 4 110q3 54 3 104h70q0 -36 -1 -63.5t-2 -45.5q-4 -72 -4 -105q0 -24 1 -35q9 -213 9 -402h-4q-26 -5 -44.5 -37.5
t-18.5 -70.5q0 -5 2 -17q16 -15 31 -25q8 -6 16.5 -8.5t13.5 -0.5q6 2 15 10t19 15z" />
    <glyph glyph-name="J" unicode="J" horiz-adv-x="323" 
d="M25 -181q8 22 11.5 27.5t8.5 8.5q14 10 30 31q58 72 77 179q6 30 6 74q0 23 -1 40t-2 29q-3 36 -3 69l1 44q0 56 -4 170l-3 73v86h70v-84l3 -72q3 -84 3 -171v-51q0 -27 3 -60q0 -11 1.5 -33.5t1.5 -39.5q0 -47 -7 -87q-10 -62 -34.5 -119t-56.5 -97q-29 -37 -64.5 -57
t-64.5 -20q-23 0 -36.5 12.5t-13.5 35.5q0 17 9 41z" />
    <glyph glyph-name="K" unicode="K" horiz-adv-x="551" 
d="M396 163q27 -21 46 -42l61 -62v-80q-17 0 -42.5 20.5t-68.5 65.5q2 -2 -34 31q-33 29 -52 49q-22 25 -52 49q-1 1 -20 17l-17 14q-44 30 -62 62q-8 -192 -8 -288h-70q0 121 9 297l5 120q1 46 -6 121q-1 11 -4 46.5t-3 66.5h70q0 -42 7 -103q1 -9 4 -52t2 -82
q-2 -34 -2 -52q23 29 82 81q9 7 14.5 12.5t9.5 8.5q33 31 89 99l41 49q15 17 42 38q17 14 19 17l50 -57q-23 -21 -34 -29q-22 -19 -24 -22l-42 -49l-33 -40t-59 -64l-34 -30q-40 -36 -59 -55q8 -9 29 -25q15 -10 30 -24l31.5 -27.5t45.5 -44.5q17 -17 39 -36zM156 297l21 12
l-20 9z" />
    <glyph glyph-name="uni0136" unicode="&#x136;" horiz-adv-x="551" 
d="M396 163q27 -21 46 -42l61 -62v-80q-17 0 -42.5 20.5t-68.5 65.5q2 -2 -34 31q-33 29 -52 49q-22 25 -52 49q-1 1 -20 17l-17 14q-44 30 -62 62q-8 -192 -8 -288h-70q0 121 9 297l5 120q1 46 -6 121q-1 11 -4 46.5t-3 66.5h70q0 -42 7 -103q1 -9 4 -52t2 -82
q-2 -34 -2 -52q23 29 82 81q9 7 14.5 12.5t9.5 8.5q33 31 89 99l41 49q15 17 42 38q17 14 19 17l50 -57q-23 -21 -34 -29q-22 -19 -24 -22l-42 -49l-33 -40t-59 -64l-34 -30q-40 -36 -59 -55q8 -9 29 -25q15 -10 30 -24l31.5 -27.5t45.5 -44.5q17 -17 39 -36zM156 297l21 12
l-20 9zM344 -162q0 -21 -21.5 -56.5t-50.5 -64.5l-38 64q28 28 36.5 45t10.5 19l-2 5q-6 19 -11 39q-3 10 -6 16t-8 14l45 50q11 -17 21 -53t11 -40q0 -1 11 -28q2 -6 2 -10z" />
    <glyph glyph-name="L" unicode="L" horiz-adv-x="540" 
d="M412 64q48 2 73 2v-66q-23 0 -71 -2l-72 -1q-32 0 -65 3q-11 1 -26.5 2t-36.5 1q-17 0 -50 -5q-53 -6 -69 -5q-5 0 -8 5.5t-3 13.5l1 85q0 45 -1 60q-2 23 -2 71q0 43 -2 65q-1 23 -5 64q-8 76 -8 116q0 7 1 17t0 17l-1 37q0 43 9 86q1 7 3 11.5t2 6.5h60q0 -13 -2 -22
t-4 -13.5t-1 0.5q-5 -26 -5 -83l-1 -28q-1 -10 -1 -29q0 -40 7 -105l6 -70q2 -25 2 -71q0 -44 1 -64q2 -28 2 -66v-35q58 7 69 7q16 0 36 -1.5t30 -1.5q31 -3 62 -3z" />
    <glyph glyph-name="Lacute" unicode="&#x139;" horiz-adv-x="540" 
d="M412 64q48 2 73 2v-66q-23 0 -71 -2l-72 -1q-32 0 -65 3q-11 1 -26.5 2t-36.5 1q-17 0 -50 -5q-53 -6 -69 -5q-5 0 -8 5.5t-3 13.5l1 85q0 45 -1 60q-2 23 -2 71q0 43 -2 65q-1 23 -5 64q-8 76 -8 116q0 7 1 17t0 17l-1 37q0 43 9 86q1 7 3 11.5t2 6.5h60q0 -13 -2 -22
t-4 -13.5t-1 0.5q-5 -26 -5 -83l-1 -28q-1 -10 -1 -29q0 -40 7 -105l6 -70q2 -25 2 -71q0 -44 1 -64q2 -28 2 -66v-35q58 7 69 7q16 0 36 -1.5t30 -1.5q31 -3 62 -3zM465 663q0 -27 -32 -64.5t-73.5 -66t-67.5 -28.5v70q8 0 63.5 42t55.5 47h54z" />
    <glyph glyph-name="Lcaron" unicode="&#x13d;" horiz-adv-x="540" 
d="M412 64q48 2 73 2v-66q-23 0 -71 -2l-72 -1q-32 0 -65 3q-11 1 -26.5 2t-36.5 1q-17 0 -50 -5q-53 -6 -69 -5q-5 0 -8 5.5t-3 13.5l1 85q0 45 -1 60q-2 23 -2 71q0 43 -2 65q-1 23 -5 64q-8 76 -8 116q0 7 1 17t0 17l-1 37q0 43 9 86q1 7 3 11.5t2 6.5h60q0 -13 -2 -22
t-4 -13.5t-1 0.5q-5 -26 -5 -83l-1 -28q-1 -10 -1 -29q0 -40 7 -105l6 -70q2 -25 2 -71q0 -44 1 -64q2 -28 2 -66v-35q58 7 69 7q16 0 36 -1.5t30 -1.5q31 -3 62 -3zM298 559q12 10 20 15q9 6 17 21t11 20q6 9 27 32q14 14 19 21q21 24 29 37t16 38l48 -22
q-14 -40 -24.5 -57t-29.5 -41l-30 -34q-11 -11 -15 -16q-2 -3 -16 -26.5t-24 -30.5l-10 -10.5t-24 -9.5q-1 0 -9 25l-9 28q-8 0 4 10z" />
    <glyph glyph-name="uni013B" unicode="&#x13b;" horiz-adv-x="540" 
d="M412 64q48 2 73 2v-66q-23 0 -71 -2l-72 -1q-32 0 -65 3q-11 1 -26.5 2t-36.5 1q-17 0 -50 -5q-53 -6 -69 -5q-5 0 -8 5.5t-3 13.5l1 85q0 45 -1 60q-2 23 -2 71q0 43 -2 65q-1 23 -5 64q-8 76 -8 116q0 7 1 17t0 17l-1 37q0 43 9 86q1 7 3 11.5t2 6.5h60q0 -13 -2 -22
t-4 -13.5t-1 0.5q-5 -26 -5 -83l-1 -28q-1 -10 -1 -29q0 -40 7 -105l6 -70q2 -25 2 -71q0 -44 1 -64q2 -28 2 -66v-35q58 7 69 7q16 0 36 -1.5t30 -1.5q31 -3 62 -3zM314 -186.5q-22 -29.5 -55 -53.5l-38 48q29 21 37.5 34t9.5 14l-2 3l-11 30q-1 2 -3 7t-4.5 8t-6.5 7
l45 38q10 -12 20 -39t12 -31l11 -21q7 -15 -15 -44.5z" />
    <glyph glyph-name="Ldot" unicode="&#x13f;" horiz-adv-x="540" 
d="M412 64q48 2 73 2v-66q-23 0 -71 -2l-72 -1q-32 0 -65 3q-11 1 -26.5 2t-36.5 1q-17 0 -50 -5q-53 -6 -69 -5q-5 0 -8 5.5t-3 13.5l1 85q0 45 -1 60q-2 23 -2 71q0 43 -2 65q-1 23 -5 64q-8 76 -8 116q0 7 1 17t0 17l-1 37q0 43 9 86q1 7 3 11.5t2 6.5h60q0 -13 -2 -22
t-4 -13.5t-1 0.5q-5 -26 -5 -83l-1 -28q-1 -10 -1 -29q0 -40 7 -105l6 -70q2 -25 2 -71q0 -44 1 -64q2 -28 2 -66v-35q58 7 69 7q16 0 36 -1.5t30 -1.5q31 -3 62 -3zM300 295q-14 14 -28 40l63 57q-2 6 12.5 -9t26.5 -41.5t12 -62.5h-72q0 2 -14 16z" />
    <glyph glyph-name="Lslash" unicode="&#x141;" horiz-adv-x="540" 
d="M412 64q48 2 73 2v-66q-23 0 -71 -2l-72 -1q-32 0 -65 3q-11 1 -26.5 2t-36.5 1q-17 0 -50 -5q-53 -6 -69 -5q-5 0 -8 5.5t-3 13.5l1 85q0 45 -1 60q-2 23 -2 71q0 34 -1 52l-23 -16t-31 -18.5t-25 -6.5l-10 52q7 0 19 7.5t25 17.5q24 19 40 26l-5 51.5t-4 79.5q0 7 1 17
t0 17l-1 37q0 43 9 86q1 7 3 11.5t2 6.5h60q0 -13 -2 -22t-4 -13.5t-1 0.5q-5 -26 -5 -83l-1 -28q-1 -10 -1 -29q0 -35 8 -117q34 4 42 7l48.5 23.5t60.5 21.5l10 -52q-7 0 -46 -18.5l-43 -20.5q-16 -7 -33.5 -10t-33.5 -4v-5q2 -25 2 -71q0 -44 1 -64q2 -28 2 -66v-35
q58 7 69 7q16 0 36 -1.5t30 -1.5q31 -3 62 -3z" />
    <glyph glyph-name="M" unicode="M" horiz-adv-x="888" 
d="M815 314q0 -100 -8 -204l-2 -41q-1 -34 -4 -49t-15 -22.5t-38 -7.5v31q-10 0 -13.5 3t-3.5 12q0 3 2 23q2 17 4 55l3 61q5 78 5 139q0 58 -5 105q-8 62 -12 130q0 20 -1 31l-11.5 -22t-11.5 -21l-9 -18q-21 -37 -51 -109q-10 -27 -22 -50q-10 -23 -40 -99l-16 -42
q-17 -42 -31.5 -72t-33.5 -59l2.5 -5t4.5 -7l-26 -43q-9 -37 -36 -37q-12 0 -24 7.5t-16 13.5q-3 6 -3 15q0 7 1 14t1 15q0 5 -2 13l-1 5l-31 55q-28 50 -42 81q-36 77 -102 183q-13 18 -34 67q-13 31 -23 48l-24 42l-3 -113q-2 -47 -4 -139q-1 -27 -1 -84q0 -41 2 -139
l1 -80h-70q0 48 -1 78q-2 96 -2 141q0 57 1 85q2 94 4 141q4 134 4 199h64l31 15q6 -14 33 -60l12 -20t15 -28q9 -17 25 -51q18 -40 29 -59l39 -73l26 -47.5t37 -62.5q6 -10 33 -46q22 -27 39 -52q18 33 41 89l15 39q29 73 41 100l24 56l19.5 45.5t34.5 69.5l16 32t30 51
t32 34l84 -61v-17v-1l1 -44q4 -65 11 -125q6 -55 6 -114z" />
    <glyph glyph-name="N" unicode="N" horiz-adv-x="766" 
d="M753 -24l-22 -76l-48 16q-24 9 -52.5 41t-65.5 80q-20 26 -25 31q-25 29 -61 65q-55 57 -69 74q-33 39 -86 122l-29 44l-24 37q-62 92 -91 128q-9 13 -18.5 24.5l-18.5 22.5l-1 2q-2 -16 -2 -26q0 -52 1 -91.5t2 -65.5q3 -79 3 -160q0 -40 1 -70.5t2 -50.5q1 -21 2 -51.5
t1 -70.5h-70q0 39 -1 68.5t-2 49.5t-2 58.5t-1 66.5q0 78 -3 157q-1 26 -2 75t-1 85q0 9 3 45q2 18 2 22l110 25l14 -19l37 -46q36 -47 91 -132q18 -26 26 -39q10 -14 28 -42q19 -30 40.5 -60.5t42.5 -55.5q18 -21 57 -62q48 -48 72 -77l11 -13q-3 51 -5 153l-1 26v43
q0 66 1 99q2 66 2 98q0 13 -2 49q0 7 -1.5 31.5t0.5 42.5l69 -4q0 -15 2 -61q2 -38 2 -58q0 -34 -2 -100q-1 -33 -1 -97v-41l1 -25q1 -86 6 -172q0 -8 2 -26q4 -32 4 -53q16 -16 25 -20zM145 628v-11v11zM129 604q1 -2 3 -3l-4 5z" />
    <glyph glyph-name="Nacute" unicode="&#x143;" horiz-adv-x="766" 
d="M753 -24l-22 -76l-48 16q-24 9 -52.5 41t-65.5 80q-20 26 -25 31q-25 29 -61 65q-55 57 -69 74q-33 39 -86 122l-29 44l-24 37q-62 92 -91 128q-9 13 -18.5 24.5l-18.5 22.5l-1 2q-2 -16 -2 -26q0 -52 1 -91.5t2 -65.5q3 -79 3 -160q0 -40 1 -70.5t2 -50.5q1 -21 2 -51.5
t1 -70.5h-70q0 39 -1 68.5t-2 49.5t-2 58.5t-1 66.5q0 78 -3 157q-1 26 -2 75t-1 85q0 9 3 45q2 18 2 22l110 25l14 -19l37 -46q36 -47 91 -132q18 -26 26 -39q10 -14 28 -42q19 -30 40.5 -60.5t42.5 -55.5q18 -21 57 -62q48 -48 72 -77l11 -13q-3 51 -5 153l-1 26v43
q0 66 1 99q2 66 2 98q0 13 -2 49q0 7 -1.5 31.5t0.5 42.5l69 -4q0 -15 2 -61q2 -38 2 -58q0 -34 -2 -100q-1 -33 -1 -97v-41l1 -25q1 -86 6 -172q0 -8 2 -26q4 -32 4 -53q16 -16 25 -20zM145 628v-11v11zM129 604q1 -2 3 -3l-4 5zM529 790q6 0 -5 -6t-25 -11q-11 -4 -30 -14
q-39 -18 -65.5 -27.5t-55.5 -9.5v60q17 0 34.5 6.5t49.5 21.5q13 7 41 19q4 2 20.5 11.5t35.5 9.5v-60z" />
    <glyph glyph-name="Ncaron" unicode="&#x147;" horiz-adv-x="766" 
d="M753 -24l-22 -76l-48 16q-24 9 -52.5 41t-65.5 80q-20 26 -25 31q-25 29 -61 65q-55 57 -69 74q-33 39 -86 122l-29 44l-24 37q-62 92 -91 128q-9 13 -18.5 24.5l-18.5 22.5l-1 2q-2 -16 -2 -26q0 -52 1 -91.5t2 -65.5q3 -79 3 -160q0 -40 1 -70.5t2 -50.5q1 -21 2 -51.5
t1 -70.5h-70q0 39 -1 68.5t-2 49.5t-2 58.5t-1 66.5q0 78 -3 157q-1 26 -2 75t-1 85q0 9 3 45q2 18 2 22l110 25l14 -19l37 -46q36 -47 91 -132q18 -26 26 -39q10 -14 28 -42q19 -30 40.5 -60.5t42.5 -55.5q18 -21 57 -62q48 -48 72 -77l11 -13q-3 51 -5 153l-1 26v43
q0 66 1 99q2 66 2 98q0 13 -2 49q0 7 -1.5 31.5t0.5 42.5l69 -4q0 -15 2 -61q2 -38 2 -58q0 -34 -2 -100q-1 -33 -1 -97v-41l1 -25q1 -86 6 -172q0 -8 2 -26q4 -32 4 -53q16 -16 25 -20zM145 628v-11v11zM129 604q1 -2 3 -3l-4 5zM478 814l-72 -86q-7 -10 -16 -10
q-8 0 -19 14l-6.5 6.5t-10.5 11.5q-20 19 -41 34q-8 7 -13.5 12.5t-5.5 8.5q0 5 8 8l-25 45q16 6 22 6q16 0 36.5 -14t55.5 -48q62 64 87 64v-52z" />
    <glyph glyph-name="uni0145" unicode="&#x145;" horiz-adv-x="766" 
d="M753 -24l-22 -76l-48 16q-24 9 -52.5 41t-65.5 80q-20 26 -25 31q-25 29 -61 65q-55 57 -69 74q-33 39 -86 122l-29 44l-24 37q-62 92 -91 128q-9 13 -18.5 24.5l-18.5 22.5l-1 2q-2 -16 -2 -26q0 -52 1 -91.5t2 -65.5q3 -79 3 -160q0 -40 1 -70.5t2 -50.5q1 -21 2 -51.5
t1 -70.5h-70q0 39 -1 68.5t-2 49.5t-2 58.5t-1 66.5q0 78 -3 157q-1 26 -2 75t-1 85q0 9 3 45q2 18 2 22l110 25l14 -19l37 -46q36 -47 91 -132q18 -26 26 -39q10 -14 28 -42q19 -30 40.5 -60.5t42.5 -55.5q18 -21 57 -62q48 -48 72 -77l11 -13q-3 51 -5 153l-1 26v43
q0 66 1 99q2 66 2 98q0 13 -2 49q0 7 -1.5 31.5t0.5 42.5l69 -4q0 -15 2 -61q2 -38 2 -58q0 -34 -2 -100q-1 -33 -1 -97v-41l1 -25q1 -86 6 -172q0 -8 2 -26q4 -32 4 -53q16 -16 25 -20zM145 628v-11v11zM129 604q1 -2 3 -3l-4 5zM405 -162q0 -21 -21.5 -56.5t-50.5 -64.5
l-38 64q28 28 36.5 45t10.5 19l-2 5q-6 19 -11 39q-3 10 -6 16t-8 14l45 50q11 -17 21 -53t11 -40q0 -1 11 -28q2 -6 2 -10z" />
    <glyph glyph-name="Eng" unicode="&#x14a;" horiz-adv-x="766" 
d="M675 77v-6q0 -34 -4 -51q-3 -18 -12 -48l-6 -21q-13 -62 -39.5 -97.5t-69.5 -54.5q-12 -6 -31 -6q-23 0 -42 3q-9 1 -22 1v62l27 -2q26 -2 37 -2h9q33 14 50.5 39t27.5 72l11 40q-13 14 -84 83l-54 53t-63 65q-33 39 -86 122l-29 44l-24 37q-62 92 -91 128
q-9 13 -18.5 24.5l-18.5 22.5l-1 2q-2 -16 -2 -26q0 -52 1 -91.5t2 -65.5q3 -79 3 -160q0 -40 1 -70.5t2 -50.5q1 -21 2 -51.5t1 -70.5h-70q0 39 -1 68.5t-2 49.5t-2 58.5t-1 66.5q0 78 -3 157q-1 26 -2 75t-1 85q0 9 3 45q2 18 2 22l110 25l14 -19l37 -46q36 -47 91 -132
q18 -26 26 -39q10 -14 28 -42q19 -30 40.5 -60.5t42.5 -55.5q18 -22 71 -79l69 -74q-3 51 -5 154l-1 26v43q0 66 1 99q2 66 2 98q0 13 -2 49q0 7 -1.5 31.5t0.5 42.5l69 -4q0 -15 2 -61q2 -38 2 -58q0 -34 -2 -100q-1 -33 -1 -97v-41l1 -25q1 -86 6 -172v-14zM145 628v-11
v11zM129 604q1 -2 3 -3l-4 5z" />
    <glyph glyph-name="Ntilde" unicode="&#xd1;" horiz-adv-x="766" 
d="M753 -24l-22 -76l-48 16q-24 9 -52.5 41t-65.5 80q-20 26 -25 31q-25 29 -61 65q-55 57 -69 74q-33 39 -86 122l-29 44l-24 37q-62 92 -91 128q-9 13 -18.5 24.5l-18.5 22.5l-1 2q-2 -16 -2 -26q0 -52 1 -91.5t2 -65.5q3 -79 3 -160q0 -40 1 -70.5t2 -50.5q1 -21 2 -51.5
t1 -70.5h-70q0 39 -1 68.5t-2 49.5t-2 58.5t-1 66.5q0 78 -3 157q-1 26 -2 75t-1 85q0 9 3 45q2 18 2 22l110 25l14 -19l37 -46q36 -47 91 -132q18 -26 26 -39q10 -14 28 -42q19 -30 40.5 -60.5t42.5 -55.5q18 -21 57 -62q48 -48 72 -77l11 -13q-3 51 -5 153l-1 26v43
q0 66 1 99q2 66 2 98q0 13 -2 49q0 7 -1.5 31.5t0.5 42.5l69 -4q0 -15 2 -61q2 -38 2 -58q0 -34 -2 -100q-1 -33 -1 -97v-41l1 -25q1 -86 6 -172q0 -8 2 -26q4 -32 4 -53q16 -16 25 -20zM145 628v-11v11zM129 604q1 -2 3 -3l-4 5zM571 774.5q-5 -8.5 -21 -17.5
q-18 -10 -36 -19t-31 -13q-30 -9 -57 -9q-17 0 -26 2q-18 3 -31 9.5t-32 18.5q-15 10 -25 15t-22 5q-18 0 -31 -14l-10 -10l1 13h-54q0 15 6.5 25t17.5 23q35 35 70 35q18 0 34 -7t41 -21q30 -19 44 -21q4 -1 17 -1q22 0 40 5q23 8 58 27l52 -19q0 -18 -5 -26.5z" />
    <glyph glyph-name="O" unicode="O" horiz-adv-x="649" 
d="M608 348q0 -14 -2 -42q-3 -50 -23 -113t-55 -115.5t-79 -70.5q-18 -6 -65.5 -11t-84.5 -5q-32 0 -64.5 13.5t-71.5 43.5q-26 19 -37 43.5t-16.5 48.5l-7.5 33q-12 50 -27 145q-1 2 -5.5 14.5t-2.5 23.5q11 54 45.5 123t84 120.5t102.5 56.5q7 1 19 1q46 0 107.5 -19
t96.5 -48q32 -27 41.5 -36.5t9.5 -17.5q19 4 21 -27t2 -33q12 -64 12 -128zM538 349q0 50 -11 113l-50 67q-24 20 -74.5 34t-84.5 14h-11q-28 -2 -62 -35t-62.5 -82.5t-42.5 -99.5l4 -29q18 -106 26 -140q6 -27 10.5 -43.5t9 -22t14.5 -13.5q30 -21 52 -31t43 -10
q31 0 72.5 3.5t51.5 7.5q26 10 51 46t42 86t20 98q2 24 2 37z" />
    <glyph glyph-name="Oacute" unicode="&#xd3;" horiz-adv-x="649" 
d="M608 348q0 -14 -2 -42q-3 -50 -23 -113t-55 -115.5t-79 -70.5q-18 -6 -65.5 -11t-84.5 -5q-32 0 -64.5 13.5t-71.5 43.5q-26 19 -37 43.5t-16.5 48.5l-7.5 33q-12 50 -27 145q-1 2 -5.5 14.5t-2.5 23.5q11 54 45.5 123t84 120.5t102.5 56.5q7 1 19 1q46 0 107.5 -19
t96.5 -48q32 -27 41.5 -36.5t9.5 -17.5q19 4 21 -27t2 -33q12 -64 12 -128zM538 349q0 50 -11 113l-50 67q-24 20 -74.5 34t-84.5 14h-11q-28 -2 -62 -35t-62.5 -82.5t-42.5 -99.5l4 -29q18 -106 26 -140q6 -27 10.5 -43.5t9 -22t14.5 -13.5q30 -21 52 -31t43 -10
q31 0 72.5 3.5t51.5 7.5q26 10 51 46t42 86t20 98q2 24 2 37zM498 790q6 0 -5 -6t-25 -11q-11 -4 -30 -14q-39 -18 -65.5 -27.5t-55.5 -9.5v60q17 0 34.5 6.5t49.5 21.5q13 7 41 19q4 2 20.5 11.5t35.5 9.5v-60z" />
    <glyph glyph-name="Ocircumflex" unicode="&#xd4;" horiz-adv-x="649" 
d="M608 348q0 -14 -2 -42q-3 -50 -23 -113t-55 -115.5t-79 -70.5q-18 -6 -65.5 -11t-84.5 -5q-32 0 -64.5 13.5t-71.5 43.5q-26 19 -37 43.5t-16.5 48.5l-7.5 33q-12 50 -27 145q-1 2 -5.5 14.5t-2.5 23.5q11 54 45.5 123t84 120.5t102.5 56.5q7 1 19 1q46 0 107.5 -19
t96.5 -48q32 -27 41.5 -36.5t9.5 -17.5q19 4 21 -27t2 -33q12 -64 12 -128zM538 349q0 50 -11 113l-50 67q-24 20 -74.5 34t-84.5 14h-11q-28 -2 -62 -35t-62.5 -82.5t-42.5 -99.5l4 -29q18 -106 26 -140q6 -27 10.5 -43.5t9 -22t14.5 -13.5q30 -21 52 -31t43 -10
q31 0 72.5 3.5t51.5 7.5q26 10 51 46t42 86t20 98q2 24 2 37zM450 767v-52q-25 0 -87 64q-34 -34 -55 -48t-37 -14q-10 0 -22 6l25 44q-8 4 -8 9q0 6 19 20q29 24 41 35q16 16 17 18q10 13 19 13t16 -9z" />
    <glyph glyph-name="Odieresis" unicode="&#xd6;" horiz-adv-x="649" 
d="M608 348q0 -14 -2 -42q-3 -50 -23 -113t-55 -115.5t-79 -70.5q-18 -6 -65.5 -11t-84.5 -5q-32 0 -64.5 13.5t-71.5 43.5q-26 19 -37 43.5t-16.5 48.5l-7.5 33q-12 50 -27 145q-1 2 -5.5 14.5t-2.5 23.5q11 54 45.5 123t84 120.5t102.5 56.5q7 1 19 1q46 0 107.5 -19
t96.5 -48q32 -27 41.5 -36.5t9.5 -17.5q19 4 21 -27t2 -33q12 -64 12 -128zM538 349q0 50 -11 113l-50 67q-24 20 -74.5 34t-84.5 14h-11q-28 -2 -62 -35t-62.5 -82.5t-42.5 -99.5l4 -29q18 -106 26 -140q6 -27 10.5 -43.5t9 -22t14.5 -13.5q30 -21 52 -31t43 -10
q31 0 72.5 3.5t51.5 7.5q26 10 51 46t42 86t20 98q2 24 2 37zM309.5 812.5q14.5 -12.5 14.5 -36.5l-57 -47l-26 -1v96l26 1q28 0 42.5 -12.5zM486 758l-10 -25q0 -11 -3 -11q-2 0 -9.5 10.5t-11.5 11.5q1 -1 -14.5 -3t-24.5 -3v79q6 0 18 2.5t21 2.5t14 -1q17 -5 24.5 -13.5
t7.5 -24.5l-16 -35zM479 732q0 1 -3 1l6 15q-3 -10 -3 -16z" />
    <glyph glyph-name="Ograve" unicode="&#xd2;" horiz-adv-x="649" 
d="M608 348q0 -14 -2 -42q-3 -50 -23 -113t-55 -115.5t-79 -70.5q-18 -6 -65.5 -11t-84.5 -5q-32 0 -64.5 13.5t-71.5 43.5q-26 19 -37 43.5t-16.5 48.5l-7.5 33q-12 50 -27 145q-1 2 -5.5 14.5t-2.5 23.5q11 54 45.5 123t84 120.5t102.5 56.5q7 1 19 1q46 0 107.5 -19
t96.5 -48q32 -27 41.5 -36.5t9.5 -17.5q19 4 21 -27t2 -33q12 -64 12 -128zM538 349q0 50 -11 113l-50 67q-24 20 -74.5 34t-84.5 14h-11q-28 -2 -62 -35t-62.5 -82.5t-42.5 -99.5l4 -29q18 -106 26 -140q6 -27 10.5 -43.5t9 -22t14.5 -13.5q30 -21 52 -31t43 -10
q31 0 72.5 3.5t51.5 7.5q26 10 51 46t42 86t20 98q2 24 2 37zM261 861q27 -25 59 -48.5t50 -30.5q7 -3 23 -7q24 -7 43 -15l-32 -54q-8 4 -32 11q-4 1 -11 3t-16 6q-29 11 -68.5 39.5t-64.5 53.5z" />
    <glyph glyph-name="Ohungarumlaut" unicode="&#x150;" horiz-adv-x="649" 
d="M608 348q0 -14 -2 -42q-3 -50 -23 -113t-55 -115.5t-79 -70.5q-18 -6 -65.5 -11t-84.5 -5q-32 0 -64.5 13.5t-71.5 43.5q-26 19 -37 43.5t-16.5 48.5l-7.5 33q-12 50 -27 145q-1 2 -5.5 14.5t-2.5 23.5q11 54 45.5 123t84 120.5t102.5 56.5q7 1 19 1q46 0 107.5 -19
t96.5 -48q32 -27 41.5 -36.5t9.5 -17.5q19 4 21 -27t2 -33q12 -64 12 -128zM538 349q0 50 -11 113l-50 67q-24 20 -74.5 34t-84.5 14h-11q-28 -2 -62 -35t-62.5 -82.5t-42.5 -99.5l4 -29q18 -106 26 -140q6 -27 10.5 -43.5t9 -22t14.5 -13.5q30 -21 52 -31t43 -10
q31 0 72.5 3.5t51.5 7.5q26 10 51 46t42 86t20 98q2 24 2 37zM362 795q0 -2 -17 -13q-2 -1 -9 -3.5t-11 -6.5q-3 -3 -18 -21t-36.5 -33t-39.5 -15v72q15 0 30 19t17 21q15 13 22.5 17.5l12.5 7.5q3 2 18 15.5t28 13.5v-72q3 0 3 -2zM591 808l-20 -15q-49 -40 -79.5 -62.5
t-43.5 -22.5q-6 0 -6 8h-54q0 29 98 99l-3 2l35 30l8 -4q27 18 30 21l-1 -37z" />
    <glyph glyph-name="Omacron" unicode="&#x14c;" horiz-adv-x="649" 
d="M608 348q0 -14 -2 -42q-3 -50 -23 -113t-55 -115.5t-79 -70.5q-18 -6 -65.5 -11t-84.5 -5q-32 0 -64.5 13.5t-71.5 43.5q-26 19 -37 43.5t-16.5 48.5l-7.5 33q-12 50 -27 145q-1 2 -5.5 14.5t-2.5 23.5q11 54 45.5 123t84 120.5t102.5 56.5q7 1 19 1q46 0 107.5 -19
t96.5 -48q32 -27 41.5 -36.5t9.5 -17.5q19 4 21 -27t2 -33q12 -64 12 -128zM538 349q0 50 -11 113l-50 67q-24 20 -74.5 34t-84.5 14h-11q-28 -2 -62 -35t-62.5 -82.5t-42.5 -99.5l4 -29q18 -106 26 -140q6 -27 10.5 -43.5t9 -22t14.5 -13.5q30 -21 52 -31t43 -10
q31 0 72.5 3.5t51.5 7.5q26 10 51 46t42 86t20 98q2 24 2 37zM481 740q-31 -4 -66 -4q-25 0 -44 1t-32 2q-52 4 -84 4v62q49 -6 94 -6q25 0 77 2q42 2 65 2z" />
    <glyph glyph-name="Oslash" unicode="&#xd8;" horiz-adv-x="649" 
d="M608 348q0 -14 -2 -42q-3 -50 -23 -113t-55 -115.5t-79 -70.5q-18 -6 -65.5 -11t-84.5 -5q-49 0 -104 35q-16 -38 -29.5 -65.5t-30.5 -49.5l-44 43q29 38 57 107q-18 18 -26.5 40.5t-13 43.5t-6.5 28q-12 50 -27 145q-1 2 -5.5 14.5t-2.5 23.5q11 54 45.5 123t84 120.5
t102.5 56.5q7 1 19 1q32 0 74.5 -9.5t78.5 -26.5q30 53 30 81h54q0 -47 -34 -111l1 -1q32 -27 41.5 -36.5t9.5 -17.5q19 4 21 -27t2 -33q12 -64 12 -128zM183 142q4 10 8 17.5t7 12.5q12 21 52 78q21 26 37 54q17 30 28 54l35 64t23.5 34t14.5 17q4 7 13 26q1 3 3 7.5
t6 10.5q11 22 21 37q-28 10 -60 16.5t-53 6.5h-11q-28 -2 -62 -35t-62.5 -82.5t-42.5 -99.5l4 -29q18 -106 26 -140q11 -44 13 -49zM538 349q0 50 -11 113l-46 61q-14 -21 -23 -40q-4 -6 -10 -20q-2 -4 -6.5 -14t-9.5 -17l-22 -29q-11 -12 -14 -18q-17 -28 -37 -68
q-14 -29 -25 -48q-13 -23 -50 -76q-22 -30 -39 -57q-7 -12 -19 -38q40 -27 73 -27q31 0 72.5 3.5t51.5 7.5q26 10 51 46t42 86t20 98q2 24 2 37z" />
    <glyph glyph-name="Otilde" unicode="&#xd5;" horiz-adv-x="649" 
d="M608 348q0 -14 -2 -42q-3 -50 -23 -113t-55 -115.5t-79 -70.5q-18 -6 -65.5 -11t-84.5 -5q-32 0 -64.5 13.5t-71.5 43.5q-26 19 -37 43.5t-16.5 48.5l-7.5 33q-12 50 -27 145q-1 2 -5.5 14.5t-2.5 23.5q11 54 45.5 123t84 120.5t102.5 56.5q7 1 19 1q46 0 107.5 -19
t96.5 -48q32 -27 41.5 -36.5t9.5 -17.5q19 4 21 -27t2 -33q12 -64 12 -128zM538 349q0 50 -11 113l-50 67q-24 20 -74.5 34t-84.5 14h-11q-28 -2 -62 -35t-62.5 -82.5t-42.5 -99.5l4 -29q18 -106 26 -140q6 -27 10.5 -43.5t9 -22t14.5 -13.5q30 -21 52 -31t43 -10
q31 0 72.5 3.5t51.5 7.5q26 10 51 46t42 86t20 98q2 24 2 37zM540 774.5q-5 -8.5 -21 -17.5q-18 -10 -36 -19t-31 -13q-30 -9 -57 -9q-17 0 -26 2q-18 3 -31 9.5t-32 18.5q-15 10 -25 15t-22 5q-18 0 -31 -14l-10 -10l1 13h-54q0 15 6.5 25t17.5 23q35 35 70 35q18 0 34 -7
t41 -21q30 -19 44 -21q4 -1 17 -1q22 0 40 5q23 8 58 27l52 -19q0 -18 -5 -26.5z" />
    <glyph glyph-name="OE" unicode="&#x152;" horiz-adv-x="917" 
d="M584 -1h-170q-54 -8 -115 -8q-32 0 -64.5 13.5t-71.5 43.5q-26 19 -37 43.5t-16.5 48.5l-7.5 33q-12 50 -27 145q-1 2 -5.5 14.5t-2.5 23.5q11 54 45.5 123t84 120.5t102.5 56.5q7 1 19 1q56 0 120 -23q26 1 55 4t34 3q21 1 61 5q13 1 31.5 3t43.5 3l63 1l124 -1v-72
l-124 1q-41 0 -61 -1q-36 -1 -74 -6q-15 -2 -45 -4q15 -13 21 -20.5t6 -13.5q19 4 21 -27t2 -33q10 -58 11 -107l107 -1q35 0 81 2l3 -72q-52 -2 -84 -2l-109 1q-5 -56 -29 -123t-60 -113h68q166 0 268 6l4 -62q-106 -6 -272 -6zM256 81q22 -10 43 -10q31 0 72.5 3.5
t51.5 7.5q26 10 51 46t42 86t20 98q2 24 2 37q0 50 -11 113l-50 67q-24 20 -74.5 34t-84.5 14h-11q-28 -2 -62 -35t-62.5 -82.5t-42.5 -99.5l4 -29q18 -106 26 -140q6 -27 10.5 -43.5t9 -22t14.5 -13.5q30 -21 52 -31z" />
    <glyph glyph-name="P" unicode="P" horiz-adv-x="580" 
d="M525.5 507q10.5 -39 10.5 -82q0 -38 -18.5 -76.5t-48 -66.5t-61.5 -37q-28 -9 -74.5 -11t-106.5 -2l-9 70q63 0 105.5 1.5t63.5 7.5q28 8 53.5 44.5t25.5 69.5q0 64 -23 94q-24 33 -67 49.5t-116 16.5q-7 0 -21 -4q-12 -5 -22 -5q-38 0 -74 -8q-3 -15 -2 -31
q4 -51 8 -151q2 -75 5 -112q1 -21 1 -74v-74q0 -73 7 -119l-70 -12q-7 50 -7 131v74q0 49 -1 69q-3 37 -5 113q-4 98 -8 149l5 109l135 8q6 0 26 5q16 4 23 4q94 0 148 -20t91 -69q16 -22 26.5 -61z" />
    <glyph glyph-name="Thorn" unicode="&#xde;" horiz-adv-x="604" 
d="M537 273q0 -10 -2 -16q-5 -35 -26 -59.5t-46.5 -39t-82.5 -43.5q-27 -16 -65 -22t-84 -8l-59 -1h-9q-11 0 -19 7l27 52l-15 12q0 1 15 1l51 1q58 3 87 7t46 11q11 7 50 26q39 18 57.5 31.5t23.5 37.5l-3 16q-2 10 -9 38q-6 29 -16.5 46.5t-27.5 29.5q-11 13 -56.5 29
t-109.5 29q-8 1 -19 5q-7 2 -37.5 9.5t-57.5 7.5q-10 0 -20 -2l-5 18l-3 -14q-9 -75 -9 -160q0 -26 2 -92q6 -86 6 -128q0 -31 -3 -61q0 -12 -4 -54l7 -9q0 -4 1 -7l-78 12q2 17 4 20q3 36 6 45v39q0 48 -3 93q0 15 -2 49q-3 51 -3 101q0 95 12 163q4 29 13 73q5 23 8.5 46
t3.5 40q0 16 -2 23l67 6q3 -18 3 -37q0 -37 -13 -93l11 1q28 0 88 -14q29 -7 37 -8q72 -16 118 -33t74 -38q20 -20 36 -52t24 -68l9 -41q2 -20 2 -25z" />
    <glyph glyph-name="Q" unicode="Q" horiz-adv-x="673" 
d="M94 177q-13 42 -20 70.5t-7 59.5q0 95 24 159q24 67 63.5 116.5t81.5 62.5q14 5 53.5 9t72.5 4q27 0 39 -4q21 -5 42 -19l27 -18q12 -7 33 -26q16 -16 28 -22l-22 -49l34 29q2 -5 19 -39.5t17 -57.5q0 -7 5 -24q5 -25 5 -30q3 -40 3 -99q0 -87 -77 -208
q-29 -45 -79.5 -70.5t-111.5 -25.5q-47 0 -88 16t-70 45q-50 50 -72 121zM143 261.5q6 -23.5 18 -60.5q8 -27 21 -47.5t33 -40.5q17 -17 46.5 -27.5t62.5 -10.5q43 0 79 16.5t53 42.5q66 106 66 165q0 55 -3 94q0 4 -5 23t-5 36q0 5 -23 48l4 3q-12 8 -37 30l-19 16
l-23.5 15t-27.5 13q-1 1 -21 1q-24 0 -60 -3t-44 -5q-27 -10 -55.5 -46.5t-46.5 -84.5q-19 -54 -19 -132q0 -22 6 -45.5zM1244 -254q-25 -12 -54 -16t-67 -7h-31l-108 -1q-116 0 -177 15l-20.5 7t-26.5 8q-58 11 -98.5 21t-80.5 25h1q-18 7 -39.5 13t-30.5 9q-49 13 -76 24
l-1 1q-3 1 -22 8l-46 18l-1 1q-37 17 -77 27q-18 11 -24 11q-18 0 -32.5 -7.5t-23.5 -17.5t-9 -17q0 1 2 -5q0 -4 4 -10.5t13 -19.5l-57 -47l-12.5 19t-15.5 35q-4 16 -4 28q0 48 42 80t103 32q1 0 25 -2q22 -4 45.5 -16.5t26.5 -14.5l24 -12v0l35 -14q4 -1 31 -11h-1
q25 -10 78 -25q11 -3 27.5 -8t38.5 -13h1q34 -13 68.5 -21.5t98.5 -21.5q11 -2 26.5 -7l24.5 -8q48 -13 153 -13l115 1h29q76 6 96 17q4 2 14 8t21 7l13 -69q2 0 -21 -11z" />
    <glyph glyph-name="R" unicode="R" horiz-adv-x="633" 
d="M710 -92q-25 -9 -57 -9q-47 0 -82 22q-15 10 -32 30.5t-40 52.5l-14 18l-83.5 105.5t-56.5 84.5q-3 5 -9.5 9t-9.5 6l13 20l-10 -5q-22 -10 -50 -28q-19 -13 -25 -13q-8 0 -8 20h-59v-15q0 -31 -2 -83l-1 -81q0 -28 -7 -41.5t-24 -13.5l-39 21l3 198q0 40 -2 120
q-2 82 -2 122q0 32 2 86l1 19l-30 -5q-35 -8 -53 -8q-21 0 -30 11t-9 37l80 38q57 11 105 14q24 2 71 2q71 0 153 -9q3 0 18.5 -1t29.5 -8q53 -25 86 -87q10 -17 10 -50q0 -41 -20 -90t-45 -70q-32 -27 -95 -58l12 -16l100 -129l47 -62l17 -25q35 -51 47 -59q14 -9 43 -9
q21 0 34 5zM324 326q45 21 70 34t44 29q14 12 26.5 42.5t12.5 55.5q0 9 -2 13q-11 20 -23 31.5t-31 20.5q1 0 0.5 -0.5t-1.5 -0.5q-4 0 -25 3q-69 8 -145 8q-41 0 -61 -1q-4 -22 -4 -30q-2 -56 -2 -83q0 -40 2 -120l1 -75q9 12 26.5 21t56.5 27q10 4 30 14z" />
    <glyph glyph-name="Racute" unicode="&#x154;" horiz-adv-x="633" 
d="M710 -92q-25 -9 -57 -9q-47 0 -82 22q-15 10 -32 30.5t-40 52.5l-14 18l-83.5 105.5t-56.5 84.5q-3 5 -9.5 9t-9.5 6l13 20l-10 -5q-22 -10 -50 -28q-19 -13 -25 -13q-8 0 -8 20h-59v-15q0 -31 -2 -83l-1 -81q0 -28 -7 -41.5t-24 -13.5l-39 21l3 198q0 40 -2 120
q-2 82 -2 122q0 32 2 86l1 19l-30 -5q-35 -8 -53 -8q-21 0 -30 11t-9 37l80 38q57 11 105 14q24 2 71 2q71 0 153 -9q3 0 18.5 -1t29.5 -8q53 -25 86 -87q10 -17 10 -50q0 -41 -20 -90t-45 -70q-32 -27 -95 -58l12 -16l100 -129l47 -62l17 -25q35 -51 47 -59q14 -9 43 -9
q21 0 34 5zM324 326q45 21 70 34t44 29q14 12 26.5 42.5t12.5 55.5q0 9 -2 13q-11 20 -23 31.5t-31 20.5q1 0 0.5 -0.5t-1.5 -0.5q-4 0 -25 3q-69 8 -145 8q-41 0 -61 -1q-4 -22 -4 -30q-2 -56 -2 -83q0 -40 2 -120l1 -75q9 12 26.5 21t56.5 27q10 4 30 14zM441 790
q6 0 -5 -6t-25 -11q-11 -4 -30 -14q-39 -18 -65.5 -27.5t-55.5 -9.5v60q17 0 34.5 6.5t49.5 21.5q13 7 41 19q4 2 20.5 11.5t35.5 9.5v-60z" />
    <glyph glyph-name="Rcaron" unicode="&#x158;" horiz-adv-x="633" 
d="M710 -92q-25 -9 -57 -9q-47 0 -82 22q-15 10 -32 30.5t-40 52.5l-14 18l-83.5 105.5t-56.5 84.5q-3 5 -9.5 9t-9.5 6l13 20l-10 -5q-22 -10 -50 -28q-19 -13 -25 -13q-8 0 -8 20h-59v-15q0 -31 -2 -83l-1 -81q0 -28 -7 -41.5t-24 -13.5l-39 21l3 198q0 40 -2 120
q-2 82 -2 122q0 32 2 86l1 19l-30 -5q-35 -8 -53 -8q-21 0 -30 11t-9 37l80 38q57 11 105 14q24 2 71 2q71 0 153 -9q3 0 18.5 -1t29.5 -8q53 -25 86 -87q10 -17 10 -50q0 -41 -20 -90t-45 -70q-32 -27 -95 -58l12 -16l100 -129l47 -62l17 -25q35 -51 47 -59q14 -9 43 -9
q21 0 34 5zM324 326q45 21 70 34t44 29q14 12 26.5 42.5t12.5 55.5q0 9 -2 13q-11 20 -23 31.5t-31 20.5q1 0 0.5 -0.5t-1.5 -0.5q-4 0 -25 3q-69 8 -145 8q-41 0 -61 -1q-4 -22 -4 -30q-2 -56 -2 -83q0 -40 2 -120l1 -75q9 12 26.5 21t56.5 27q10 4 30 14zM390 814l-72 -86
q-7 -10 -16 -10q-8 0 -19 14l-6.5 6.5t-10.5 11.5q-20 19 -41 34q-8 7 -13.5 12.5t-5.5 8.5q0 5 8 8l-25 45q16 6 22 6q16 0 36.5 -14t55.5 -48q62 64 87 64v-52z" />
    <glyph glyph-name="uni0156" unicode="&#x156;" horiz-adv-x="633" 
d="M710 -92q-25 -9 -57 -9q-47 0 -82 22q-15 10 -32 30.5t-40 52.5l-14 18l-83.5 105.5t-56.5 84.5q-3 5 -9.5 9t-9.5 6l13 20l-10 -5q-22 -10 -50 -28q-19 -13 -25 -13q-8 0 -8 20h-59v-15q0 -31 -2 -83l-1 -81q0 -28 -7 -41.5t-24 -13.5l-39 21l3 198q0 40 -2 120
q-2 82 -2 122q0 32 2 86l1 19l-30 -5q-35 -8 -53 -8q-21 0 -30 11t-9 37l80 38q57 11 105 14q24 2 71 2q71 0 153 -9q3 0 18.5 -1t29.5 -8q53 -25 86 -87q10 -17 10 -50q0 -41 -20 -90t-45 -70q-32 -27 -95 -58l12 -16l100 -129l47 -62l17 -25q35 -51 47 -59q14 -9 43 -9
q21 0 34 5zM324 326q45 21 70 34t44 29q14 12 26.5 42.5t12.5 55.5q0 9 -2 13q-11 20 -23 31.5t-31 20.5q1 0 0.5 -0.5t-1.5 -0.5q-4 0 -25 3q-69 8 -145 8q-41 0 -61 -1q-4 -22 -4 -30q-2 -56 -2 -83q0 -40 2 -120l1 -75q9 12 26.5 21t56.5 27q10 4 30 14zM367 -162
q0 -21 -21.5 -56.5t-50.5 -64.5l-38 64q28 28 36.5 45t10.5 19l-2 5q-6 19 -11 39q-3 10 -6 16t-8 14l45 50q11 -17 21 -53t11 -40q0 -1 11 -28q2 -6 2 -10z" />
    <glyph glyph-name="S" unicode="S" horiz-adv-x="545" 
d="M74 192q5 -2 14.5 -14.5t11.5 -14.5q29 -26 28 -25q24 -23 42 -37t40 -22q38 -12 106 -12q33 0 54 6.5t39 21.5q15 12 25.5 32t10.5 37q0 18 -2.5 28.5t-18 28.5t-51.5 46q-16 12 -34 21t-47 20q-60 25 -100.5 52.5t-75.5 85.5q-22 38 -22 72q0 46 19 73.5t61 43.5
q72 25 131 25q43 0 80.5 -12t78.5 -39l-32 -67q-31 20 -61 29t-66 9q-55 0 -110 -20q-21 -8 -29 -12.5t-10 -10t-2 -19.5q0 -5 3 -11.5t11 -19.5q23 -38 49.5 -55.5t73.5 -36.5q38 -16 63.5 -29.5t54.5 -35.5q55 -42 75.5 -86.5t20.5 -79.5q0 -34 -17.5 -72.5t-40.5 -58.5
q-32 -26 -60 -36t-71 -10q-79 0 -126 17q-24 9 -46.5 26t-52.5 45q-20 18 -30 26l-6 15z" />
    <glyph glyph-name="Sacute" unicode="&#x15a;" horiz-adv-x="545" 
d="M74 192q5 -2 14.5 -14.5t11.5 -14.5q29 -26 28 -25q24 -23 42 -37t40 -22q38 -12 106 -12q33 0 54 6.5t39 21.5q15 12 25.5 32t10.5 37q0 18 -2.5 28.5t-18 28.5t-51.5 46q-16 12 -34 21t-47 20q-60 25 -100.5 52.5t-75.5 85.5q-22 38 -22 72q0 46 19 73.5t61 43.5
q72 25 131 25q43 0 80.5 -12t78.5 -39l-32 -67q-31 20 -61 29t-66 9q-55 0 -110 -20q-21 -8 -29 -12.5t-10 -10t-2 -19.5q0 -5 3 -11.5t11 -19.5q23 -38 49.5 -55.5t73.5 -36.5q38 -16 63.5 -29.5t54.5 -35.5q55 -42 75.5 -86.5t20.5 -79.5q0 -34 -17.5 -72.5t-40.5 -58.5
q-32 -26 -60 -36t-71 -10q-79 0 -126 17q-24 9 -46.5 26t-52.5 45q-20 18 -30 26l-6 15zM431 790q6 0 -5 -6t-25 -11q-11 -4 -30 -14q-39 -18 -65.5 -27.5t-55.5 -9.5v60q17 0 34.5 6.5t49.5 21.5q13 7 41 19q4 2 20.5 11.5t35.5 9.5v-60z" />
    <glyph glyph-name="Scaron" unicode="&#x160;" horiz-adv-x="545" 
d="M74 192q5 -2 14.5 -14.5t11.5 -14.5q29 -26 28 -25q24 -23 42 -37t40 -22q38 -12 106 -12q33 0 54 6.5t39 21.5q15 12 25.5 32t10.5 37q0 18 -2.5 28.5t-18 28.5t-51.5 46q-16 12 -34 21t-47 20q-60 25 -100.5 52.5t-75.5 85.5q-22 38 -22 72q0 46 19 73.5t61 43.5
q72 25 131 25q43 0 80.5 -12t78.5 -39l-32 -67q-31 20 -61 29t-66 9q-55 0 -110 -20q-21 -8 -29 -12.5t-10 -10t-2 -19.5q0 -5 3 -11.5t11 -19.5q23 -38 49.5 -55.5t73.5 -36.5q38 -16 63.5 -29.5t54.5 -35.5q55 -42 75.5 -86.5t20.5 -79.5q0 -34 -17.5 -72.5t-40.5 -58.5
q-32 -26 -60 -36t-71 -10q-79 0 -126 17q-24 9 -46.5 26t-52.5 45q-20 18 -30 26l-6 15zM379 814l-72 -86q-7 -10 -16 -10q-8 0 -19 14l-6.5 6.5t-10.5 11.5q-20 19 -41 34q-8 7 -13.5 12.5t-5.5 8.5q0 5 8 8l-25 45q16 6 22 6q16 0 36.5 -14t55.5 -48q62 64 87 64v-52z" />
    <glyph glyph-name="Scedilla" unicode="&#x15e;" horiz-adv-x="545" 
d="M484.5 243.5q20.5 -44.5 20.5 -79.5q0 -34 -17.5 -72.5t-40.5 -58.5q-32 -26 -60 -36t-71 -10h-10q-2 -6 -4.5 -14.5t-5.5 -15.5l-1 -3q2 1 8 1q42 0 60.5 -19.5t18.5 -57.5q0 -20 -5 -38q-9 -31 -51 -47t-105 -16q-21 0 -35 6q-18 8 -26 14t-14 21l50 20l12 -3l-2 1
q1 1 5.5 0.5t9.5 -0.5q16 3 52 8.5t52 7.5q3 11 3 26q0 7 -8 12t-17 5q-13 0 -25 -2q-19 -5 -34 11.5t-15 41.5q0 12 6 26l8 19q-31 5 -53 13q-24 9 -46.5 26t-52.5 45q-20 18 -30 26l-6 15l19 76q5 -2 14.5 -14.5t11.5 -14.5q29 -26 28 -25q24 -23 42 -37t40 -22
q38 -12 106 -12q33 0 54 6.5t39 21.5q15 12 25.5 32t10.5 37q0 18 -2.5 28.5t-18 28.5t-51.5 46q-16 12 -34 21t-47 20q-60 25 -100.5 52.5t-75.5 85.5q-22 38 -22 72q0 46 19 73.5t61 43.5q72 25 131 25q43 0 80.5 -12t78.5 -39l-32 -67q-31 20 -61 29t-66 9
q-55 0 -110 -20q-21 -8 -29 -12.5t-10 -10t-2 -19.5q0 -5 3 -11.5t11 -19.5q23 -38 49.5 -55.5t73.5 -36.5q38 -16 63.5 -29.5t54.5 -35.5q55 -42 75.5 -86.5z" />
    <glyph glyph-name="uni0218" unicode="&#x218;" horiz-adv-x="545" 
d="M74 192q5 -2 14.5 -14.5t11.5 -14.5q29 -26 28 -25q24 -23 42 -37t40 -22q38 -12 106 -12q33 0 54 6.5t39 21.5q15 12 25.5 32t10.5 37q0 18 -2.5 28.5t-18 28.5t-51.5 46q-16 12 -34 21t-47 20q-60 25 -100.5 52.5t-75.5 85.5q-22 38 -22 72q0 46 19 73.5t61 43.5
q72 25 131 25q43 0 80.5 -12t78.5 -39l-32 -67q-31 20 -61 29t-66 9q-55 0 -110 -20q-21 -8 -29 -12.5t-10 -10t-2 -19.5q0 -5 3 -11.5t11 -19.5q23 -38 49.5 -55.5t73.5 -36.5q38 -16 63.5 -29.5t54.5 -35.5q55 -42 75.5 -86.5t20.5 -79.5q0 -34 -17.5 -72.5t-40.5 -58.5
q-32 -26 -60 -36t-71 -10q-79 0 -126 17q-24 9 -46.5 26t-52.5 45q-20 18 -30 26l-6 15zM289 -189.5q-22 -29.5 -55 -53.5l-38 48q29 21 37.5 34t9.5 14l-2 3l-11 30q-1 2 -3 7t-4.5 8t-6.5 7l45 38q10 -12 20 -39t12 -31l11 -21q7 -15 -15 -44.5z" />
    <glyph glyph-name="T" unicode="T" horiz-adv-x="550" 
d="M517 573q-91 0 -189 -5q-2 -38 -6 -74q-1 -14 -3 -34t-3 -45q-5 -164 -5 -415h-70q0 253 5 418q4 58 7 86q4 40 5 60h-4q-25 -2 -75 -8q-98 -10 -146 -10v80q45 0 139 10q23 3 76 7q116 10 269 10v-80z" />
    <glyph glyph-name="Tbar" unicode="&#x166;" horiz-adv-x="550" 
d="M517 573q-91 0 -189 -5q-2 -38 -6 -74q-1 -14 -3 -34t-3 -45q-5 -164 -5 -415h-70q0 253 5 418q4 58 7 86q4 40 5 60h-4q-25 -2 -75 -8q-98 -10 -146 -10v80q45 0 139 10q23 3 76 7q116 10 269 10v-80zM428 740q-31 -4 -66 -4q-25 0 -44 1t-32 2q-52 4 -84 4v62
q49 -6 94 -6q25 0 77 2q42 2 65 2z" />
    <glyph glyph-name="Tcaron" unicode="&#x164;" horiz-adv-x="550" 
d="M517 573q-91 0 -189 -5q-2 -38 -6 -74q-1 -14 -3 -34t-3 -45q-5 -164 -5 -415h-70q0 253 5 418q4 58 7 86q4 40 5 60h-4q-25 -2 -75 -8q-98 -10 -146 -10v80q45 0 139 10q23 3 76 7q116 10 269 10v-80zM393 814l-72 -86q-7 -10 -16 -10q-8 0 -19 14l-6.5 6.5t-10.5 11.5
q-20 19 -41 34q-8 7 -13.5 12.5t-5.5 8.5q0 5 8 8l-25 45q16 6 22 6q16 0 36.5 -14t55.5 -48q62 64 87 64v-52z" />
    <glyph glyph-name="uni0162" unicode="&#x162;" horiz-adv-x="550" 
d="M292 -43l-2 -3q3 1 8 1q43 0 61.5 -19.5t18.5 -57.5q0 -20 -5 -38q-10 -31 -52 -47t-105 -16q-20 0 -35 6q-17 9 -25 15t-14 20l50 20l11 -3l-1 1q1 1 5 0.5t9 -0.5q104 17 105 16q3 11 3 26q0 6 -8.5 11.5t-17.5 5.5q-13 0 -25 -2q-19 -5 -33.5 11.5t-14.5 41.5
q0 15 5 26l13 28h-2q0 253 5 418q4 58 7 86q4 40 5 60h-4q-25 -2 -75 -8q-98 -10 -146 -10v80q45 0 139 10q23 3 76 7q116 10 269 10v-80q-91 0 -189 -5q-2 -38 -6 -74q-1 -14 -3 -34t-3 -45q-5 -164 -5 -415h-6q-8 -31 -13 -43z" />
    <glyph glyph-name="uni021A" unicode="&#x21a;" horiz-adv-x="550" 
d="M517 573q-91 0 -189 -5q-2 -38 -6 -74q-1 -14 -3 -34t-3 -45q-5 -164 -5 -415h-70q0 253 5 418q4 58 7 86q4 40 5 60h-4q-25 -2 -75 -8q-98 -10 -146 -10v80q45 0 139 10q23 3 76 7q116 10 269 10v-80zM285 -189.5q-22 -29.5 -55 -53.5l-38 48q29 21 37.5 34t9.5 14l-2 3
l-11 30q-1 2 -3 7t-4.5 8t-6.5 7l45 38q10 -12 20 -39t12 -31l11 -21q7 -15 -15 -44.5z" />
    <glyph glyph-name="U" unicode="U" horiz-adv-x="599" 
d="M525 655q10 -78 13 -163.5t3 -197.5v-55q0 -44 -5 -74.5t-21 -62.5q-18 -39 -38 -55q-31 -24 -61.5 -38t-54.5 -15q-11 -1 -33 -1q-84 0 -137.5 25.5t-81.5 80.5q-17 31 -23 68t-6 80v55q1 21 1 64l-1 141q-2 98 -2 142h70q0 -44 2 -140l1 -143q0 -45 -1 -66v-53
q0 -40 4.5 -65t16.5 -46q18 -33 57 -53t100 -20q20 0 30 1q16 1 36.5 12.5t39.5 33.5q2 3 7 9t11 18q12 24 15.5 43.5t3.5 58.5v55q0 110 -3 193t-13 158z" />
    <glyph glyph-name="Uacute" unicode="&#xda;" horiz-adv-x="599" 
d="M525 655q10 -78 13 -163.5t3 -197.5v-55q0 -44 -5 -74.5t-21 -62.5q-18 -39 -38 -55q-31 -24 -61.5 -38t-54.5 -15q-11 -1 -33 -1q-84 0 -137.5 25.5t-81.5 80.5q-17 31 -23 68t-6 80v55q1 21 1 64l-1 141q-2 98 -2 142h70q0 -44 2 -140l1 -143q0 -45 -1 -66v-53
q0 -40 4.5 -65t16.5 -46q18 -33 57 -53t100 -20q20 0 30 1q16 1 36.5 12.5t39.5 33.5q2 3 7 9t11 18q12 24 15.5 43.5t3.5 58.5v55q0 110 -3 193t-13 158zM437 770q6 0 -5 -6t-25 -11q-11 -4 -30 -14q-39 -18 -65.5 -27.5t-55.5 -9.5v60q17 0 34.5 6.5t49.5 21.5q13 7 41 19
q4 2 20.5 11.5t35.5 9.5v-60z" />
    <glyph glyph-name="Ucircumflex" unicode="&#xdb;" horiz-adv-x="599" 
d="M525 655q10 -78 13 -163.5t3 -197.5v-55q0 -44 -5 -74.5t-21 -62.5q-18 -39 -38 -55q-31 -24 -61.5 -38t-54.5 -15q-11 -1 -33 -1q-84 0 -137.5 25.5t-81.5 80.5q-17 31 -23 68t-6 80v55q1 21 1 64l-1 141q-2 98 -2 142h70q0 -44 2 -140l1 -143q0 -45 -1 -66v-53
q0 -40 4.5 -65t16.5 -46q18 -33 57 -53t100 -20q20 0 30 1q16 1 36.5 12.5t39.5 33.5q2 3 7 9t11 18q12 24 15.5 43.5t3.5 58.5v55q0 110 -3 193t-13 158zM390 747v-52q-25 0 -87 64q-34 -34 -55 -48t-37 -14q-10 0 -22 6l25 44q-8 4 -8 9q0 6 19 20q29 24 41 35
q16 16 17 18q10 13 19 13t16 -9z" />
    <glyph glyph-name="Udieresis" unicode="&#xdc;" horiz-adv-x="599" 
d="M525 655q10 -78 13 -163.5t3 -197.5v-55q0 -44 -5 -74.5t-21 -62.5q-18 -39 -38 -55q-31 -24 -61.5 -38t-54.5 -15q-11 -1 -33 -1q-84 0 -137.5 25.5t-81.5 80.5q-17 31 -23 68t-6 80v55q1 21 1 64l-1 141q-2 98 -2 142h70q0 -44 2 -140l1 -143q0 -45 -1 -66v-53
q0 -40 4.5 -65t16.5 -46q18 -33 57 -53t100 -20q20 0 30 1q16 1 36.5 12.5t39.5 33.5q2 3 7 9t11 18q12 24 15.5 43.5t3.5 58.5v55q0 110 -3 193t-13 158zM249.5 792.5q14.5 -12.5 14.5 -36.5l-57 -47l-26 -1v96l26 1q28 0 42.5 -12.5zM426 738l-10 -25q0 -11 -3 -11
q-2 0 -9.5 10.5t-11.5 11.5q1 -1 -14.5 -3t-24.5 -3v79q6 0 18 2.5t21 2.5t14 -1q17 -5 24.5 -13.5t7.5 -24.5l-16 -35zM419 712q0 1 -3 1l6 15q-3 -10 -3 -16z" />
    <glyph glyph-name="Ugrave" unicode="&#xd9;" horiz-adv-x="599" 
d="M525 655q10 -78 13 -163.5t3 -197.5v-55q0 -44 -5 -74.5t-21 -62.5q-18 -39 -38 -55q-31 -24 -61.5 -38t-54.5 -15q-11 -1 -33 -1q-84 0 -137.5 25.5t-81.5 80.5q-17 31 -23 68t-6 80v55q1 21 1 64l-1 141q-2 98 -2 142h70q0 -44 2 -140l1 -143q0 -45 -1 -66v-53
q0 -40 4.5 -65t16.5 -46q18 -33 57 -53t100 -20q20 0 30 1q16 1 36.5 12.5t39.5 33.5q2 3 7 9t11 18q12 24 15.5 43.5t3.5 58.5v55q0 110 -3 193t-13 158zM201 841q27 -25 59 -48.5t50 -30.5q7 -3 23 -7q24 -7 43 -15l-32 -54q-8 4 -32 11q-4 1 -11 3t-16 6
q-29 11 -68.5 39.5t-64.5 53.5z" />
    <glyph glyph-name="Uhungarumlaut" unicode="&#x170;" horiz-adv-x="599" 
d="M525 655q10 -78 13 -163.5t3 -197.5v-55q0 -44 -5 -74.5t-21 -62.5q-18 -39 -38 -55q-31 -24 -61.5 -38t-54.5 -15q-11 -1 -33 -1q-84 0 -137.5 25.5t-81.5 80.5q-17 31 -23 68t-6 80v55q1 21 1 64l-1 141q-2 98 -2 142h70q0 -44 2 -140l1 -143q0 -45 -1 -66v-53
q0 -40 4.5 -65t16.5 -46q18 -33 57 -53t100 -20q20 0 30 1q16 1 36.5 12.5t39.5 33.5q2 3 7 9t11 18q12 24 15.5 43.5t3.5 58.5v55q0 110 -3 193t-13 158zM302 775q0 -2 -17 -13q-2 -1 -9 -3.5t-11 -6.5q-3 -3 -18 -21t-36.5 -33t-39.5 -15v72q15 0 30 19t17 21
q15 13 22.5 17.5l12.5 7.5q3 2 18 15.5t28 13.5v-72q3 0 3 -2zM531 788l-20 -15q-49 -40 -79.5 -62.5t-43.5 -22.5q-6 0 -6 8h-54q0 29 98 99l-3 2l35 30l8 -4q27 18 30 21l-1 -37z" />
    <glyph glyph-name="Umacron" unicode="&#x16a;" horiz-adv-x="599" 
d="M525 655q10 -78 13 -163.5t3 -197.5v-55q0 -44 -5 -74.5t-21 -62.5q-18 -39 -38 -55q-31 -24 -61.5 -38t-54.5 -15q-11 -1 -33 -1q-84 0 -137.5 25.5t-81.5 80.5q-17 31 -23 68t-6 80v55q1 21 1 64l-1 141q-2 98 -2 142h70q0 -44 2 -140l1 -143q0 -45 -1 -66v-53
q0 -40 4.5 -65t16.5 -46q18 -33 57 -53t100 -20q20 0 30 1q16 1 36.5 12.5t39.5 33.5q2 3 7 9t11 18q12 24 15.5 43.5t3.5 58.5v55q0 110 -3 193t-13 158zM421 720q-31 -4 -66 -4q-25 0 -44 1t-32 2q-52 4 -84 4v62q49 -6 94 -6q25 0 77 2q42 2 65 2z" />
    <glyph glyph-name="Uogonek" unicode="&#x172;" horiz-adv-x="599" 
d="M541 239q0 -44 -5 -74.5t-21 -62.5q-18 -39 -38 -55q-42 -33 -83 -47q-20 -13 -32.5 -41.5t-12.5 -58.5q0 -5 2 -17q16 -15 31 -25q8 -6 16.5 -8.5t13.5 -0.5q6 2 15 10t19 15l32 -58q-8 -6 -21 -17t-24.5 -17t-24.5 -6q-23 0 -56 22q-46 31 -55 72q-2 18 -2 30
q0 52 26 93q-81 2 -132.5 27.5t-79.5 78.5q-17 31 -23 68t-6 80v55q1 21 1 64l-1 141q-2 98 -2 142h70q0 -44 2 -140l1 -143q0 -45 -1 -66v-53q0 -40 4.5 -65t16.5 -46q18 -33 57 -53t100 -20q20 0 30 1q16 1 36.5 12.5t39.5 33.5q2 3 7 9t11 18q12 24 15.5 43.5t3.5 58.5
v55q0 110 -3 193t-13 158l70 10q10 -78 13 -163.5t3 -197.5v-55z" />
    <glyph glyph-name="Uring" unicode="&#x16e;" horiz-adv-x="599" 
d="M525 655q10 -78 13 -163.5t3 -197.5v-55q0 -44 -5 -74.5t-21 -62.5q-18 -39 -38 -55q-31 -24 -61.5 -38t-54.5 -15q-11 -1 -33 -1q-84 0 -137.5 25.5t-81.5 80.5q-17 31 -23 68t-6 80v55q1 21 1 64l-1 141q-2 98 -2 142h70q0 -44 2 -140l1 -143q0 -45 -1 -66v-53
q0 -40 4.5 -65t16.5 -46q18 -33 57 -53t100 -20q20 0 30 1q16 1 36.5 12.5t39.5 33.5q2 3 7 9t11 18q12 24 15.5 43.5t3.5 58.5v55q0 110 -3 193t-13 158zM428 845.5q7 -13.5 7 -38.5q0 -33 -16.5 -60t-42.5 -43t-54 -16l-7 40l-5 -32q-47 8 -77 34.5t-30 71.5q0 56 35 87
t90 31q26 0 44 -11t37 -34q12 -16 19 -29.5zM360 771q21 19 21 36q0 7 -7.5 19l-10.5 17q-6 9 -14 13t-21 4q-30 0 -50.5 -17t-20.5 -41q0 -17 17.5 -29.5t44.5 -17.5l-1 -7q21 4 42 23z" />
    <glyph glyph-name="V" unicode="V" horiz-adv-x="566" 
d="M568 646q0 -9 -4.5 -19.5t-5.5 -14.5q-19 -53 -46 -109t-32 -67q-32 -66 -46 -98q-10 -24 -19 -65l-12 -44l-29.5 -90l-33.5 -104l3 -7l-6 -3l-4 -11l-10 3l-43 -24q-5 10 -9.5 23l-6.5 19l-12 34l-19 40q-20 40 -28 63q-6 15 -11 41q-2 10 -8 30q-56 185 -79 306
l-8.5 53.5t-5.5 43.5h70l12 -82q23 -113 78 -297q3 -11 5 -19.5t4 -15.5q7 -28 9 -33q4 -11 28 -61l37 116q-1 -3 11 39q13 52 23 77q11 26 27.5 61l25.5 54q46 94 69 155q5 12 6 20v-14h70z" />
    <glyph glyph-name="W" unicode="W" horiz-adv-x="920" 
d="M881 637l-27 -97l-43 -159l-30 -109l-33 -117q-23 -84 -47 -139q-11 -25 -21 -37.5t-22 -12.5q-10 0 -23 10q-14 12 -31.5 52.5t-46.5 127.5q-4 14 -14 42q-41 123 -58 183q-10 -26 -28 -78q-36 -98 -57 -148l-42 -88l-15 -30l-17 -35q-2 -4 -2 -6l-68 -10q-4 8 -4 25v11
q-5 53 -36 155l-52 182t-33 136q-6 27 -28 114q-5 14 -10 37l67 20l9 -33q23 -83 31 -122q12 -59 32.5 -134l41.5 -147l11 -37l20 -71l31 65q17 39 56 146q35 101 64 165q-16 79 -23 153l69 8q10 -106 34 -196.5t73 -237.5l15 -44l30 -89q10 26 27 85q25 84 62 226l44 158
q8 32 15 56l12 42z" />
    <glyph glyph-name="Wacute" unicode="&#x1e82;" horiz-adv-x="920" 
d="M881 637l-27 -97l-43 -159l-30 -109l-33 -117q-23 -84 -47 -139q-11 -25 -21 -37.5t-22 -12.5q-10 0 -23 10q-14 12 -31.5 52.5t-46.5 127.5q-4 14 -14 42q-41 123 -58 183q-10 -26 -28 -78q-36 -98 -57 -148l-42 -88l-15 -30l-17 -35q-2 -4 -2 -6l-68 -10q-4 8 -4 25v11
q-5 53 -36 155l-52 182t-33 136q-6 27 -28 114q-5 14 -10 37l67 20l9 -33q23 -83 31 -122q12 -59 32.5 -134l41.5 -147l11 -37l20 -71l31 65q17 39 56 146q35 101 64 165q-16 79 -23 153l69 8q10 -106 34 -196.5t73 -237.5l15 -44l30 -89q10 26 27 85q25 84 62 226l44 158
q8 32 15 56l12 42zM614 790q6 0 -5 -6t-25 -11q-11 -4 -30 -14q-39 -18 -65.5 -27.5t-55.5 -9.5v60q17 0 34.5 6.5t49.5 21.5q13 7 41 19q4 2 20.5 11.5t35.5 9.5v-60z" />
    <glyph glyph-name="Wcircumflex" unicode="&#x174;" horiz-adv-x="920" 
d="M881 637l-27 -97l-43 -159l-30 -109l-33 -117q-23 -84 -47 -139q-11 -25 -21 -37.5t-22 -12.5q-10 0 -23 10q-14 12 -31.5 52.5t-46.5 127.5q-4 14 -14 42q-41 123 -58 183q-10 -26 -28 -78q-36 -98 -57 -148l-42 -88l-15 -30l-17 -35q-2 -4 -2 -6l-68 -10q-4 8 -4 25v11
q-5 53 -36 155l-52 182t-33 136q-6 27 -28 114q-5 14 -10 37l67 20l9 -33q23 -83 31 -122q12 -59 32.5 -134l41.5 -147l11 -37l20 -71l31 65q17 39 56 146q35 101 64 165q-16 79 -23 153l69 8q10 -106 34 -196.5t73 -237.5l15 -44l30 -89q10 26 27 85q25 84 62 226l44 158
q8 32 15 56l12 42zM566 767v-52q-25 0 -87 64q-34 -34 -55 -48t-37 -14q-10 0 -22 6l25 44q-8 4 -8 9q0 6 19 20q29 24 41 35q16 16 17 18q10 13 19 13t16 -9z" />
    <glyph glyph-name="Wdieresis" unicode="&#x1e84;" horiz-adv-x="920" 
d="M881 637l-27 -97l-43 -159l-30 -109l-33 -117q-23 -84 -47 -139q-11 -25 -21 -37.5t-22 -12.5q-10 0 -23 10q-14 12 -31.5 52.5t-46.5 127.5q-4 14 -14 42q-41 123 -58 183q-10 -26 -28 -78q-36 -98 -57 -148l-42 -88l-15 -30l-17 -35q-2 -4 -2 -6l-68 -10q-4 8 -4 25v11
q-5 53 -36 155l-52 182t-33 136q-6 27 -28 114q-5 14 -10 37l67 20l9 -33q23 -83 31 -122q12 -59 32.5 -134l41.5 -147l11 -37l20 -71l31 65q17 39 56 146q35 101 64 165q-16 79 -23 153l69 8q10 -106 34 -196.5t73 -237.5l15 -44l30 -89q10 26 27 85q25 84 62 226l44 158
q8 32 15 56l12 42zM425.5 812.5q14.5 -12.5 14.5 -36.5l-57 -47l-26 -1v96l26 1q28 0 42.5 -12.5zM602 758l-10 -25q0 -11 -3 -11q-2 0 -9.5 10.5t-11.5 11.5q1 -1 -14.5 -3t-24.5 -3v79q6 0 18 2.5t21 2.5t14 -1q17 -5 24.5 -13.5t7.5 -24.5l-16 -35zM595 732q0 1 -3 1
l6 15q-3 -10 -3 -16z" />
    <glyph glyph-name="Wgrave" unicode="&#x1e80;" horiz-adv-x="920" 
d="M881 637l-27 -97l-43 -159l-30 -109l-33 -117q-23 -84 -47 -139q-11 -25 -21 -37.5t-22 -12.5q-10 0 -23 10q-14 12 -31.5 52.5t-46.5 127.5q-4 14 -14 42q-41 123 -58 183q-10 -26 -28 -78q-36 -98 -57 -148l-42 -88l-15 -30l-17 -35q-2 -4 -2 -6l-68 -10q-4 8 -4 25v11
q-5 53 -36 155l-52 182t-33 136q-6 27 -28 114q-5 14 -10 37l67 20l9 -33q23 -83 31 -122q12 -59 32.5 -134l41.5 -147l11 -37l20 -71l31 65q17 39 56 146q35 101 64 165q-16 79 -23 153l69 8q10 -106 34 -196.5t73 -237.5l15 -44l30 -89q10 26 27 85q25 84 62 226l44 158
q8 32 15 56l12 42zM377 861q27 -25 59 -48.5t50 -30.5q7 -3 23 -7q24 -7 43 -15l-32 -54q-8 4 -32 11q-4 1 -11 3t-16 6q-29 11 -68.5 39.5t-64.5 53.5z" />
    <glyph glyph-name="X" unicode="X" horiz-adv-x="616" 
d="M566 66q16 -20 28 -45l-62 -36q-7 14 -26 38l-16 21q-44 60 -128 165q-10 12 -30 40l-15 21l-55 -72q-35 -46 -92 -140l-11 -20q-23 -44 -42 -62l-49 57q12 12 31 46q4 6 6.5 11l4.5 9q58 97 96 147q20 28 62 82q-17 19 -27 35q-21 31 -42 69.5l-26 47.5q-9 18 -29 54
q-6 13 -25 37q-26 37 -36 56l62 37q5 -12 24 -36q4 -5 15.5 -21.5t20.5 -33.5q10 -17 28 -51q37 -72 66 -115q8 -12 15 -19q67 88 105 152q9 17 23 33.5t19 21.5q18 21 26.5 33t12.5 25l67 -26q-9 -26 -23.5 -46.5t-37.5 -48.5q-21 -23 -27 -33q-42 -70 -116 -168
q1 -1 7 -10l15 -20l14.5 -19.5l16.5 -22.5q85 -105 130 -168z" />
    <glyph glyph-name="Y" unicode="Y" horiz-adv-x="546" 
d="M551 603q-15 -15 -24 -34t-19 -49q-17 -46 -29 -68q-13 -26 -45 -75l-25 -37l-22 -39l-34 -57q-2 -24 -4 -36q-2 -15 -1 -21q0 -23 4 -75q6 -74 6 -113h-70q0 34 -6 106q-2 25 -4 79q-1 15 2 31t3 23l43 6l-21 16h-25l-57 91q-20 32 -31 48q-47 72 -66 108l-19 43
q-11 27 -18.5 41t-20.5 27l50 56q18 -18 29.5 -39.5t25.5 -55.5q9 -23 15 -34q23 -42 59 -96l36 -56l38 -62l28 50q9 15 17 26.5t14 21.5q26 39 37 60q10 18 23 55q15 41 28 67t33 47z" />
    <glyph glyph-name="Yacute" unicode="&#xdd;" horiz-adv-x="546" 
d="M551 603q-15 -15 -24 -34t-19 -49q-17 -46 -29 -68q-13 -26 -45 -75l-25 -37l-22 -39l-34 -57q-2 -24 -4 -36q-2 -15 -1 -21q0 -23 4 -75q6 -74 6 -113h-70q0 34 -6 106q-2 25 -4 79q-1 15 2 31t3 23l43 6l-21 16h-25l-57 91q-20 32 -31 48q-47 72 -66 108l-19 43
q-11 27 -18.5 41t-20.5 27l50 56q18 -18 29.5 -39.5t25.5 -55.5q9 -23 15 -34q23 -42 59 -96l36 -56l38 -62l28 50q9 15 17 26.5t14 21.5q26 39 37 60q10 18 23 55q15 41 28 67t33 47zM456 770q6 0 -5 -6t-25 -11q-11 -4 -30 -14q-39 -18 -65.5 -27.5t-55.5 -9.5v60
q17 0 34.5 6.5t49.5 21.5q13 7 41 19q4 2 20.5 11.5t35.5 9.5v-60z" />
    <glyph glyph-name="Ycircumflex" unicode="&#x176;" horiz-adv-x="546" 
d="M551 603q-15 -15 -24 -34t-19 -49q-17 -46 -29 -68q-13 -26 -45 -75l-25 -37l-22 -39l-34 -57q-2 -24 -4 -36q-2 -15 -1 -21q0 -23 4 -75q6 -74 6 -113h-70q0 34 -6 106q-2 25 -4 79q-1 15 2 31t3 23l43 6l-21 16h-25l-57 91q-20 32 -31 48q-47 72 -66 108l-19 43
q-11 27 -18.5 41t-20.5 27l50 56q18 -18 29.5 -39.5t25.5 -55.5q9 -23 15 -34q23 -42 59 -96l36 -56l38 -62l28 50q9 15 17 26.5t14 21.5q26 39 37 60q10 18 23 55q15 41 28 67t33 47zM409 747v-52q-25 0 -87 64q-34 -34 -55 -48t-37 -14q-10 0 -22 6l25 44q-8 4 -8 9
q0 6 19 20q29 24 41 35q16 16 17 18q10 13 19 13t16 -9z" />
    <glyph glyph-name="Ydieresis" unicode="&#x178;" horiz-adv-x="546" 
d="M551 603q-15 -15 -24 -34t-19 -49q-17 -46 -29 -68q-13 -26 -45 -75l-25 -37l-22 -39l-34 -57q-2 -24 -4 -36q-2 -15 -1 -21q0 -23 4 -75q6 -74 6 -113h-70q0 34 -6 106q-2 25 -4 79q-1 15 2 31t3 23l43 6l-21 16h-25l-57 91q-20 32 -31 48q-47 72 -66 108l-19 43
q-11 27 -18.5 41t-20.5 27l50 56q18 -18 29.5 -39.5t25.5 -55.5q9 -23 15 -34q23 -42 59 -96l36 -56l38 -62l28 50q9 15 17 26.5t14 21.5q26 39 37 60q10 18 23 55q15 41 28 67t33 47zM268.5 792.5q14.5 -12.5 14.5 -36.5l-57 -47l-26 -1v96l26 1q28 0 42.5 -12.5zM445 738
l-10 -25q0 -11 -3 -11q-2 0 -9.5 10.5t-11.5 11.5q1 -1 -14.5 -3t-24.5 -3v79q6 0 18 2.5t21 2.5t14 -1q17 -5 24.5 -13.5t7.5 -24.5l-16 -35zM438 712q0 1 -3 1l6 15q-3 -10 -3 -16z" />
    <glyph glyph-name="Ygrave" unicode="&#x1ef2;" horiz-adv-x="546" 
d="M551 603q-15 -15 -24 -34t-19 -49q-17 -46 -29 -68q-13 -26 -45 -75l-25 -37l-22 -39l-34 -57q-2 -24 -4 -36q-2 -15 -1 -21q0 -23 4 -75q6 -74 6 -113h-70q0 34 -6 106q-2 25 -4 79q-1 15 2 31t3 23l43 6l-21 16h-25l-57 91q-20 32 -31 48q-47 72 -66 108l-19 43
q-11 27 -18.5 41t-20.5 27l50 56q18 -18 29.5 -39.5t25.5 -55.5q9 -23 15 -34q23 -42 59 -96l36 -56l38 -62l28 50q9 15 17 26.5t14 21.5q26 39 37 60q10 18 23 55q15 41 28 67t33 47zM220 841q27 -25 59 -48.5t50 -30.5q7 -3 23 -7q24 -7 43 -15l-32 -54q-8 4 -32 11
q-4 1 -11 3t-16 6q-29 11 -68.5 39.5t-64.5 53.5z" />
    <glyph glyph-name="Z" unicode="Z" horiz-adv-x="639" 
d="M1263 -221q0 -16 -3 -25l1 -1q-11 -42 -51.5 -67.5t-94.5 -25.5q-145 0 -353 108q-4 2 -9.5 4.5l-12.5 5.5q-34 17 -56.5 30.5t-43.5 30.5q-26 21 -90 60q-20 11 -49 30q-7 4 -21 14q-53 34 -90 53t-79 30q-34 9 -71 9q-45 0 -73.5 -5t-57.5 -24q-4 -2 -36.5 -21
t-44.5 -19l-10 49l-32 -22l-1 13q0 37 27 68t48 48t25 20q58 49 108 106t118 142q33 41 35 44q22 25 61 61q50 46 68 71l-31 -1q-32 0 -58 5q-7 1 -50.5 8.5t-83.5 7.5h-19.5t-24.5 -4q-22 -9 -31.5 -22t-9.5 -34v-13l4 -29q0 -3 0.5 -4.5t0.5 -2.5l-1 -1q-1 1 -3 3.5
t-7 6.5l-31 -46q-4 4 -11 9t-11 10t-5 13q-3 14 -3 40q-3 52 17.5 80.5t66.5 51.5q23 12 67 12q70 0 145 -16q25 -4 88 -4q5 0 17 5t20 4h1h3q17 17 36 28q9 5 16.5 11t13 8.5t13.5 2.5l12 -18q1 0 1.5 -0.5l0.5 -0.5l24 -10q3 -9 3 -13v-5q2 -20 2 -26q0 -32 -15.5 -40.5
t-43.5 -8.5q-14 0 -34 -5l-8 -15q-16 -31 -37 -54.5t-57 -57.5q-37 -33 -56 -57q-3 -3 -40 -49q-71 -88 -119 -142t-106 -103q1 0 -6 -5q53 17 113 17q46 0 85 -9q51 -11 101 -36t114 -66q24 -17 48 -30q66 -38 98 -65q20 -17 45 -31t62 -32q77 -37 122 -56.5t97.5 -34.5
t102.5 -15q28 0 55.5 16.5t27.5 32.5v9q-10 19 -13 31l66 19q1 -4 6 -16t7 -24q1 -6 1 -16zM610 677v-1l1 1h-1z" />
    <glyph glyph-name="Zacute" unicode="&#x179;" horiz-adv-x="639" 
d="M1263 -221q0 -16 -3 -25l1 -1q-11 -42 -51.5 -67.5t-94.5 -25.5q-145 0 -353 108q-4 2 -9.5 4.5l-12.5 5.5q-34 17 -56.5 30.5t-43.5 30.5q-26 21 -90 60q-20 11 -49 30q-7 4 -21 14q-53 34 -90 53t-79 30q-34 9 -71 9q-45 0 -73.5 -5t-57.5 -24q-4 -2 -36.5 -21
t-44.5 -19l-10 49l-32 -22l-1 13q0 37 27 68t48 48t25 20q58 49 108 106t118 142q33 41 35 44q22 25 61 61q50 46 68 71l-31 -1q-32 0 -58 5q-7 1 -50.5 8.5t-83.5 7.5h-19.5t-24.5 -4q-22 -9 -31.5 -22t-9.5 -34v-13l4 -29q0 -3 0.5 -4.5t0.5 -2.5l-1 -1q-1 1 -3 3.5
t-7 6.5l-31 -46q-4 4 -11 9t-11 10t-5 13q-3 14 -3 40q-3 52 17.5 80.5t66.5 51.5q23 12 67 12q70 0 145 -16q25 -4 88 -4q5 0 17 5t20 4h1h3q17 17 36 28q9 5 16.5 11t13 8.5t13.5 2.5l12 -18q1 0 1.5 -0.5l0.5 -0.5l24 -10q3 -9 3 -13v-5q2 -20 2 -26q0 -32 -15.5 -40.5
t-43.5 -8.5q-14 0 -34 -5l-8 -15q-16 -31 -37 -54.5t-57 -57.5q-37 -33 -56 -57q-3 -3 -40 -49q-71 -88 -119 -142t-106 -103q1 0 -6 -5q53 17 113 17q46 0 85 -9q51 -11 101 -36t114 -66q24 -17 48 -30q66 -38 98 -65q20 -17 45 -31t62 -32q77 -37 122 -56.5t97.5 -34.5
t102.5 -15q28 0 55.5 16.5t27.5 32.5v9q-10 19 -13 31l66 19q1 -4 6 -16t7 -24q1 -6 1 -16zM610 677v-1l1 1h-1zM510 790q6 0 -5 -6t-25 -11q-11 -4 -30 -14q-39 -18 -65.5 -27.5t-55.5 -9.5v60q17 0 34.5 6.5t49.5 21.5q13 7 41 19q4 2 20.5 11.5t35.5 9.5v-60z" />
    <glyph glyph-name="Zcaron" unicode="&#x17d;" horiz-adv-x="639" 
d="M1263 -221q0 -16 -3 -25l1 -1q-11 -42 -51.5 -67.5t-94.5 -25.5q-145 0 -353 108q-4 2 -9.5 4.5l-12.5 5.5q-34 17 -56.5 30.5t-43.5 30.5q-26 21 -90 60q-20 11 -49 30q-7 4 -21 14q-53 34 -90 53t-79 30q-34 9 -71 9q-45 0 -73.5 -5t-57.5 -24q-4 -2 -36.5 -21
t-44.5 -19l-10 49l-32 -22l-1 13q0 37 27 68t48 48t25 20q58 49 108 106t118 142q33 41 35 44q22 25 61 61q50 46 68 71l-31 -1q-32 0 -58 5q-7 1 -50.5 8.5t-83.5 7.5h-19.5t-24.5 -4q-22 -9 -31.5 -22t-9.5 -34v-13l4 -29q0 -3 0.5 -4.5t0.5 -2.5l-1 -1q-1 1 -3 3.5
t-7 6.5l-31 -46q-4 4 -11 9t-11 10t-5 13q-3 14 -3 40q-3 52 17.5 80.5t66.5 51.5q23 12 67 12q70 0 145 -16q25 -4 88 -4q5 0 17 5t20 4h1h3q17 17 36 28q9 5 16.5 11t13 8.5t13.5 2.5l12 -18q1 0 1.5 -0.5l0.5 -0.5l24 -10q3 -9 3 -13v-5q2 -20 2 -26q0 -32 -15.5 -40.5
t-43.5 -8.5q-14 0 -34 -5l-8 -15q-16 -31 -37 -54.5t-57 -57.5q-37 -33 -56 -57q-3 -3 -40 -49q-71 -88 -119 -142t-106 -103q1 0 -6 -5q53 17 113 17q46 0 85 -9q51 -11 101 -36t114 -66q24 -17 48 -30q66 -38 98 -65q20 -17 45 -31t62 -32q77 -37 122 -56.5t97.5 -34.5
t102.5 -15q28 0 55.5 16.5t27.5 32.5v9q-10 19 -13 31l66 19q1 -4 6 -16t7 -24q1 -6 1 -16zM610 677v-1l1 1h-1zM459 814l-72 -86q-7 -10 -16 -10q-8 0 -19 14l-6.5 6.5t-10.5 11.5q-20 19 -41 34q-8 7 -13.5 12.5t-5.5 8.5q0 5 8 8l-25 45q16 6 22 6q16 0 36.5 -14
t55.5 -48q62 64 87 64v-52z" />
    <glyph glyph-name="Zdotaccent" unicode="&#x17b;" horiz-adv-x="639" 
d="M1263 -221q0 -16 -3 -25l1 -1q-11 -42 -51.5 -67.5t-94.5 -25.5q-145 0 -353 108q-4 2 -9.5 4.5l-12.5 5.5q-34 17 -56.5 30.5t-43.5 30.5q-26 21 -90 60q-20 11 -49 30q-7 4 -21 14q-53 34 -90 53t-79 30q-34 9 -71 9q-45 0 -73.5 -5t-57.5 -24q-4 -2 -36.5 -21
t-44.5 -19l-10 49l-32 -22l-1 13q0 37 27 68t48 48t25 20q58 49 108 106t118 142q33 41 35 44q22 25 61 61q50 46 68 71l-31 -1q-32 0 -58 5q-7 1 -50.5 8.5t-83.5 7.5h-19.5t-24.5 -4q-22 -9 -31.5 -22t-9.5 -34v-13l4 -29q0 -3 0.5 -4.5t0.5 -2.5l-1 -1q-1 1 -3 3.5
t-7 6.5l-31 -46q-4 4 -11 9t-11 10t-5 13q-3 14 -3 40q-3 52 17.5 80.5t66.5 51.5q23 12 67 12q70 0 145 -16q25 -4 88 -4q5 0 17 5t20 4h1h3q17 17 36 28q9 5 16.5 11t13 8.5t13.5 2.5l12 -18q1 0 1.5 -0.5l0.5 -0.5l24 -10q3 -9 3 -13v-5q2 -20 2 -26q0 -32 -15.5 -40.5
t-43.5 -8.5q-14 0 -34 -5l-8 -15q-16 -31 -37 -54.5t-57 -57.5q-37 -33 -56 -57q-3 -3 -40 -49q-71 -88 -119 -142t-106 -103q1 0 -6 -5q53 17 113 17q46 0 85 -9q51 -11 101 -36t114 -66q24 -17 48 -30q66 -38 98 -65q20 -17 45 -31t62 -32q77 -37 122 -56.5t97.5 -34.5
t102.5 -15q28 0 55.5 16.5t27.5 32.5v9q-10 19 -13 31l66 19q1 -4 6 -16t7 -24q1 -6 1 -16zM610 677v-1l1 1h-1zM326 739l-1 21q0 26 13 43t43 32l57 -86q6 3 14 11q0 -3 1 -8t1 -13h-128z" />
    <glyph glyph-name="Q.ss01" horiz-adv-x="655" 
d="M1237 -179l-13 -20q-19 -19 -49 -36t-56 -24q-31 -8 -81 -8h-36h-186q-91 0 -178 19t-159 54q-25 13 -85 51q-43 30 -82 50q-42 -43 -69.5 -67t-50.5 -31q-24 -7 -41 -7q-33 0 -51.5 24.5t-18.5 67.5q0 22 5 32q17 36 56.5 54.5t94.5 18.5q32 0 56 -9l10 -3l19 17
q12 9 22 14.5t13 7.5q31 26 35 33q1 5 6 18.5t10 18.5q30 30 57 78t37 89q10 37 10 92q0 108 -34 164q-40 67 -125 67q-40 0 -103 -16q-13 -3 -39 -28.5t-48.5 -55.5t-27.5 -47q-1 -4 -1 -12q0 -12 4 -36q3 -19 27 -35t56 -16q24 0 36 4q11 4 25 13q4 2 14 6.5t10 2.5h54
q0 -29 -16 -46t-28 -21.5t-44 -13.5q-24 -7 -51 -7q-55 0 -92 27t-44 74q-5 30 -5 48q0 19 3 31q8 30 36.5 71t62 73.5t55.5 37.5q69 18 116 18q57 0 98 -24.5t73 -77.5q19 -31 30.5 -86t11.5 -115q0 -63 -11 -109q-13 -51 -45 -110.5t-64 -90.5q3 3 4 3v-1q0 -4 -13 -26
q-9 -15 -22 -28t-23 -22q-9 -8 -25 -17q17 -10 51 -32q50 -34 85 -52q64 -31 145.5 -48t167.5 -17h186h36q44 0 68 6q19 4 44.5 17t35.5 23zM243 -73h-6q-33 0 -65 -10.5t-37 -21.5v0v-1q0 -15 2 -17.5t12 -2.5q15 0 28 4q22 7 66 49z" />
    <glyph glyph-name="a" unicode="a" horiz-adv-x="507" 
d="M467.5 135.5q-2.5 -6.5 -5.5 -9.5q-5 -5 -12 -17.5t-12 -18.5q-1 -2 -11 -17q-23 -32 -38.5 -50.5t-32.5 -33.5q-16 -13 -32 -13q-10 -5 -15 -5q-9 0 -13 10q-7 12 -8 27t-1 41q0 50 9 107t25 135l8 39l8 50q-3 -4 -4.5 -7.5t-3.5 -6.5l-6 -27h-3q-1 0 -5 2
q-18 -33 -45 -77q-12 -21 -34 -65q-29 -58 -53 -94q-9 -14 -34 -45q-21 -29 -23 -32q-18 -26 -29.5 -37.5t-18.5 -11.5q-11 0 -22.5 30.5t-20 68t-8.5 50.5v31q0 64 5 96q6 40 23.5 94t44 100t58.5 62q10 5 23 5q25 0 54 -17t71 -47q19 40 19 50h2q30 1 46.5 2t25.5 1
q5 0 7.5 -1t2.5 -4q0 -1 0.5 -3.5t0.5 -10.5q0 -11 -1 -17v0q-2 -10 -3.5 -22t-4.5 -23q-5 -21 -11 -65l-8 -44l-8 -45q-14 -66 -22 -112.5t-10 -87.5q13 13 53 68q3 4 12 18.5l17 26.5h3l23 -36h20q0 -5 -2.5 -11.5zM267 380q-27 26 -48 41t-38 15q-3 0 -3 14q0 10 1 12
q-35 -20 -60 -90t-33 -129q-5 -32 -5 -69.5v-45.5h-1q5 -12 10 -41q10 14 17.5 23.5t12.5 16.5q15 19 18 24q23 34 55 96l30 57zM93 55v0h-1h1z" />
    <glyph glyph-name="aacute" unicode="&#xe1;" horiz-adv-x="507" 
d="M467.5 135.5q-2.5 -6.5 -5.5 -9.5q-5 -5 -12 -17.5t-12 -18.5q-1 -2 -11 -17q-23 -32 -38.5 -50.5t-32.5 -33.5q-16 -13 -32 -13q-10 -5 -15 -5q-9 0 -13 10q-7 12 -8 27t-1 41q0 50 9 107t25 135l8 39l8 50q-3 -4 -4.5 -7.5t-3.5 -6.5l-6 -27h-3q-1 0 -5 2
q-18 -33 -45 -77q-12 -21 -34 -65q-29 -58 -53 -94q-9 -14 -34 -45q-21 -29 -23 -32q-18 -26 -29.5 -37.5t-18.5 -11.5q-11 0 -22.5 30.5t-20 68t-8.5 50.5v31q0 64 5 96q6 40 23.5 94t44 100t58.5 62q10 5 23 5q25 0 54 -17t71 -47q19 40 19 50h2q30 1 46.5 2t25.5 1
q5 0 7.5 -1t2.5 -4q0 -1 0.5 -3.5t0.5 -10.5q0 -11 -1 -17v0q-2 -10 -3.5 -22t-4.5 -23q-5 -21 -11 -65l-8 -44l-8 -45q-14 -66 -22 -112.5t-10 -87.5q13 13 53 68q3 4 12 18.5l17 26.5h3l23 -36h20q0 -5 -2.5 -11.5zM267 380q-27 26 -48 41t-38 15q-3 0 -3 14q0 10 1 12
q-35 -20 -60 -90t-33 -129q-5 -32 -5 -69.5v-45.5h-1q5 -12 10 -41q10 14 17.5 23.5t12.5 16.5q15 19 18 24q23 34 55 96l30 57zM93 55v0h-1h1zM422 753q0 -27 -32 -64.5t-73.5 -66t-67.5 -28.5v70q8 0 63.5 42t55.5 47h54z" />
    <glyph glyph-name="abreve" unicode="&#x103;" horiz-adv-x="507" 
d="M467.5 135.5q-2.5 -6.5 -5.5 -9.5q-5 -5 -12 -17.5t-12 -18.5q-1 -2 -11 -17q-23 -32 -38.5 -50.5t-32.5 -33.5q-16 -13 -32 -13q-10 -5 -15 -5q-9 0 -13 10q-7 12 -8 27t-1 41q0 50 9 107t25 135l8 39l8 50q-3 -4 -4.5 -7.5t-3.5 -6.5l-6 -27h-3q-1 0 -5 2
q-18 -33 -45 -77q-12 -21 -34 -65q-29 -58 -53 -94q-9 -14 -34 -45q-21 -29 -23 -32q-18 -26 -29.5 -37.5t-18.5 -11.5q-11 0 -22.5 30.5t-20 68t-8.5 50.5v31q0 64 5 96q6 40 23.5 94t44 100t58.5 62q10 5 23 5q25 0 54 -17t71 -47q19 40 19 50h2q30 1 46.5 2t25.5 1
q5 0 7.5 -1t2.5 -4q0 -1 0.5 -3.5t0.5 -10.5q0 -11 -1 -17v0q-2 -10 -3.5 -22t-4.5 -23q-5 -21 -11 -65l-8 -44l-8 -45q-14 -66 -22 -112.5t-10 -87.5q13 13 53 68q3 4 12 18.5l17 26.5h3l23 -36h20q0 -5 -2.5 -11.5zM267 380q-27 26 -48 41t-38 15q-3 0 -3 14q0 10 1 12
q-35 -20 -60 -90t-33 -129q-5 -32 -5 -69.5v-45.5h-1q5 -12 10 -41q10 14 17.5 23.5t12.5 16.5q15 19 18 24q23 34 55 96l30 57zM93 55v0h-1h1zM414 696l21 -7q-15 -24 -24.5 -37.5t-25.5 -29.5q-22 -22 -50 -34t-60 -12q-73 0 -108 39.5t-35 119.5h54q0 -51 19 -74t70 -23
q18 0 39 11.5t33 23.5q16 16 24 26t18 28q1 17 7.5 29t17.5 12v-72z" />
    <glyph glyph-name="acircumflex" unicode="&#xe2;" horiz-adv-x="507" 
d="M467.5 135.5q-2.5 -6.5 -5.5 -9.5q-5 -5 -12 -17.5t-12 -18.5q-1 -2 -11 -17q-23 -32 -38.5 -50.5t-32.5 -33.5q-16 -13 -32 -13q-10 -5 -15 -5q-9 0 -13 10q-7 12 -8 27t-1 41q0 50 9 107t25 135l8 39l8 50q-3 -4 -4.5 -7.5t-3.5 -6.5l-6 -27h-3q-1 0 -5 2
q-18 -33 -45 -77q-12 -21 -34 -65q-29 -58 -53 -94q-9 -14 -34 -45q-21 -29 -23 -32q-18 -26 -29.5 -37.5t-18.5 -11.5q-11 0 -22.5 30.5t-20 68t-8.5 50.5v31q0 64 5 96q6 40 23.5 94t44 100t58.5 62q10 5 23 5q25 0 54 -17t71 -47q19 40 19 50h2q30 1 46.5 2t25.5 1
q5 0 7.5 -1t2.5 -4q0 -1 0.5 -3.5t0.5 -10.5q0 -11 -1 -17v0q-2 -10 -3.5 -22t-4.5 -23q-5 -21 -11 -65l-8 -44l-8 -45q-14 -66 -22 -112.5t-10 -87.5q13 13 53 68q3 4 12 18.5l17 26.5h3l23 -36h20q0 -5 -2.5 -11.5zM267 380q-27 26 -48 41t-38 15q-3 0 -3 14q0 10 1 12
q-35 -20 -60 -90t-33 -129q-5 -32 -5 -69.5v-45.5h-1q5 -12 10 -41q10 14 17.5 23.5t12.5 16.5q15 19 18 24q23 34 55 96l30 57zM93 55v0h-1h1zM402 587h-50q0 82 -20 141q-3 8 -3 18.5v13.5q-8 -7 -15.5 -20.5t-9.5 -17.5q-3 -6 -12 -16.5t-14 -15.5l-20 -21
q-21 -25 -29 -38t-15 -37l-48 22q13 41 24 58.5t30 39.5l30 34q6 6 14 16q3 4 17 27.5t24 29.5l10 10.5t24 9.5q18 0 29.5 -17.5t11.5 -40.5v-19l-1 17q1 -6 0.5 -14t-0.5 -12q0 -15 3 -22q20 -58 20 -146z" />
    <glyph glyph-name="adieresis" unicode="&#xe4;" horiz-adv-x="507" 
d="M467.5 135.5q-2.5 -6.5 -5.5 -9.5q-5 -5 -12 -17.5t-12 -18.5q-1 -2 -11 -17q-23 -32 -38.5 -50.5t-32.5 -33.5q-16 -13 -32 -13q-10 -5 -15 -5q-9 0 -13 10q-7 12 -8 27t-1 41q0 50 9 107t25 135l8 39l8 50q-3 -4 -4.5 -7.5t-3.5 -6.5l-6 -27h-3q-1 0 -5 2
q-18 -33 -45 -77q-12 -21 -34 -65q-29 -58 -53 -94q-9 -14 -34 -45q-21 -29 -23 -32q-18 -26 -29.5 -37.5t-18.5 -11.5q-11 0 -22.5 30.5t-20 68t-8.5 50.5v31q0 64 5 96q6 40 23.5 94t44 100t58.5 62q10 5 23 5q25 0 54 -17t71 -47q19 40 19 50h2q30 1 46.5 2t25.5 1
q5 0 7.5 -1t2.5 -4q0 -1 0.5 -3.5t0.5 -10.5q0 -11 -1 -17v0q-2 -10 -3.5 -22t-4.5 -23q-5 -21 -11 -65l-8 -44l-8 -45q-14 -66 -22 -112.5t-10 -87.5q13 13 53 68q3 4 12 18.5l17 26.5h3l23 -36h20q0 -5 -2.5 -11.5zM267 380q-27 26 -48 41t-38 15q-3 0 -3 14q0 10 1 12
q-35 -20 -60 -90t-33 -129q-5 -32 -5 -69.5v-45.5h-1q5 -12 10 -41q10 14 17.5 23.5t12.5 16.5q15 19 18 24q23 34 55 96l30 57zM93 55v0h-1h1zM141 612q0 33 10.5 57t24.5 38t11 8l57 -52q-13 -23 -25.5 -36t-12.5 -15h-65zM318 612q0 33 10.5 57t24.5 38t11 8l57 -52
q-13 -23 -25.5 -36t-12.5 -15h-65z" />
    <glyph glyph-name="agrave" unicode="&#xe0;" horiz-adv-x="507" 
d="M467.5 135.5q-2.5 -6.5 -5.5 -9.5q-5 -5 -12 -17.5t-12 -18.5q-1 -2 -11 -17q-23 -32 -38.5 -50.5t-32.5 -33.5q-16 -13 -32 -13q-10 -5 -15 -5q-9 0 -13 10q-7 12 -8 27t-1 41q0 50 9 107t25 135l8 39l8 50q-3 -4 -4.5 -7.5t-3.5 -6.5l-6 -27h-3q-1 0 -5 2
q-18 -33 -45 -77q-12 -21 -34 -65q-29 -58 -53 -94q-9 -14 -34 -45q-21 -29 -23 -32q-18 -26 -29.5 -37.5t-18.5 -11.5q-11 0 -22.5 30.5t-20 68t-8.5 50.5v31q0 64 5 96q6 40 23.5 94t44 100t58.5 62q10 5 23 5q25 0 54 -17t71 -47q19 40 19 50h2q30 1 46.5 2t25.5 1
q5 0 7.5 -1t2.5 -4q0 -1 0.5 -3.5t0.5 -10.5q0 -11 -1 -17v0q-2 -10 -3.5 -22t-4.5 -23q-5 -21 -11 -65l-8 -44l-8 -45q-14 -66 -22 -112.5t-10 -87.5q13 13 53 68q3 4 12 18.5l17 26.5h3l23 -36h20q0 -5 -2.5 -11.5zM267 380q-27 26 -48 41t-38 15q-3 0 -3 14q0 10 1 12
q-35 -20 -60 -90t-33 -129q-5 -32 -5 -69.5v-45.5h-1q5 -12 10 -41q10 14 17.5 23.5t12.5 16.5q15 19 18 24q23 34 55 96l30 57zM93 55v0h-1h1zM295 566q-42 41 -78.5 103t-36.5 95h54q0 -10 36 -62.5t63 -79.5z" />
    <glyph glyph-name="amacron" unicode="&#x101;" horiz-adv-x="507" 
d="M467.5 135.5q-2.5 -6.5 -5.5 -9.5q-5 -5 -12 -17.5t-12 -18.5q-1 -2 -11 -17q-23 -32 -38.5 -50.5t-32.5 -33.5q-16 -13 -32 -13q-10 -5 -15 -5q-9 0 -13 10q-7 12 -8 27t-1 41q0 50 9 107t25 135l8 39l8 50q-3 -4 -4.5 -7.5t-3.5 -6.5l-6 -27h-3q-1 0 -5 2
q-18 -33 -45 -77q-12 -21 -34 -65q-29 -58 -53 -94q-9 -14 -34 -45q-21 -29 -23 -32q-18 -26 -29.5 -37.5t-18.5 -11.5q-11 0 -22.5 30.5t-20 68t-8.5 50.5v31q0 64 5 96q6 40 23.5 94t44 100t58.5 62q10 5 23 5q25 0 54 -17t71 -47q19 40 19 50h2q30 1 46.5 2t25.5 1
q5 0 7.5 -1t2.5 -4q0 -1 0.5 -3.5t0.5 -10.5q0 -11 -1 -17v0q-2 -10 -3.5 -22t-4.5 -23q-5 -21 -11 -65l-8 -44l-8 -45q-14 -66 -22 -112.5t-10 -87.5q13 13 53 68q3 4 12 18.5l17 26.5h3l23 -36h20q0 -5 -2.5 -11.5zM267 380q-27 26 -48 41t-38 15q-3 0 -3 14q0 10 1 12
q-35 -20 -60 -90t-33 -129q-5 -32 -5 -69.5v-45.5h-1q5 -12 10 -41q10 14 17.5 23.5t12.5 16.5q15 19 18 24q23 34 55 96l30 57zM93 55v0h-1h1zM375 600q-31 -4 -66 -4q-25 0 -44 1t-32 2q-52 4 -84 4v62q49 -6 94 -6q25 0 77 2q42 2 65 2z" />
    <glyph glyph-name="aogonek" unicode="&#x105;" horiz-adv-x="507" 
d="M467.5 135.5q-2.5 -6.5 -5.5 -9.5q-5 -5 -12 -17.5t-12 -18.5q-1 -2 -11 -17q-23 -32 -38.5 -50.5t-32.5 -33.5q-16 -13 -32 -13q-13 -7 -19 -4q-12 -16 -19 -38t-7 -44q0 -11 1 -16q16 -16 32 -26q8 -5 16.5 -7.5t13.5 -1.5q5 2 15 10.5t19 14.5l32 -58q-7 -5 -20.5 -16
t-25.5 -17t-25 -6q-23 0 -55 21q-48 32 -55 73q-2 16 -2 29q0 44 17 78.5t45 52.5v28q0 50 9 107t25 135l8 39l8 50q-3 -4 -4.5 -7.5t-3.5 -6.5l-6 -27h-3q-1 0 -5 2q-18 -33 -45 -77q-12 -21 -34 -65q-29 -58 -53 -94q-9 -14 -34 -45q-21 -29 -23 -32q-18 -26 -29.5 -37.5
t-18.5 -11.5q-11 0 -22.5 30.5t-20 68t-8.5 50.5v31q0 64 5 96q6 40 23.5 94t44 100t58.5 62q10 5 23 5q25 0 54 -17t71 -47q19 40 19 50h2q30 1 46.5 2t25.5 1q5 0 7.5 -1t2.5 -4q0 -1 0.5 -3.5t0.5 -10.5q0 -11 -1 -17v0q-2 -10 -3.5 -22t-4.5 -23q-5 -21 -11 -65l-8 -44
l-8 -45q-14 -66 -22 -112.5t-10 -87.5q13 13 53 68q3 4 12 18.5l17 26.5h3l23 -36h20q0 -5 -2.5 -11.5zM267 380q-27 26 -48 41t-38 15q-3 0 -3 14q0 10 1 12q-35 -20 -60 -90t-33 -129q-5 -32 -5 -69.5v-45.5h-1q5 -12 10 -41q10 14 17.5 23.5t12.5 16.5q15 19 18 24
q23 34 55 96l30 57zM93 55v0h-1h1z" />
    <glyph glyph-name="aring" unicode="&#xe5;" horiz-adv-x="507" 
d="M467.5 135.5q-2.5 -6.5 -5.5 -9.5q-5 -5 -12 -17.5t-12 -18.5q-1 -2 -11 -17q-23 -32 -38.5 -50.5t-32.5 -33.5q-16 -13 -32 -13q-10 -5 -15 -5q-9 0 -13 10q-7 12 -8 27t-1 41q0 50 9 107t25 135l8 39l8 50q-3 -4 -4.5 -7.5t-3.5 -6.5l-6 -27h-3q-1 0 -5 2
q-18 -33 -45 -77q-12 -21 -34 -65q-29 -58 -53 -94q-9 -14 -34 -45q-21 -29 -23 -32q-18 -26 -29.5 -37.5t-18.5 -11.5q-11 0 -22.5 30.5t-20 68t-8.5 50.5v31q0 64 5 96q6 40 23.5 94t44 100t58.5 62q10 5 23 5q25 0 54 -17t71 -47q19 40 19 50h2q30 1 46.5 2t25.5 1
q5 0 7.5 -1t2.5 -4q0 -1 0.5 -3.5t0.5 -10.5q0 -11 -1 -17v0q-2 -10 -3.5 -22t-4.5 -23q-5 -21 -11 -65l-8 -44l-8 -45q-14 -66 -22 -112.5t-10 -87.5q13 13 53 68q3 4 12 18.5l17 26.5h3l23 -36h20q0 -5 -2.5 -11.5zM267 380q-27 26 -48 41t-38 15q-3 0 -3 14q0 10 1 12
q-35 -20 -60 -90t-33 -129q-5 -32 -5 -69.5v-45.5h-1q5 -12 10 -41q10 14 17.5 23.5t12.5 16.5q15 19 18 24q23 34 55 96l30 57zM93 55v0h-1h1zM382 725.5q7 -13.5 7 -38.5q0 -33 -16.5 -60t-42.5 -43t-54 -16l-7 40l-5 -32q-47 8 -77 34.5t-30 71.5q0 56 35 87t90 31
q26 0 44 -11t37 -34q12 -16 19 -29.5zM314 651q21 19 21 36q0 7 -7.5 19l-10.5 17q-6 9 -14 13t-21 4q-30 0 -50.5 -17t-20.5 -41q0 -17 17.5 -29.5t44.5 -17.5l-1 -7q21 4 42 23z" />
    <glyph glyph-name="atilde" unicode="&#xe3;" horiz-adv-x="507" 
d="M467.5 135.5q-2.5 -6.5 -5.5 -9.5q-5 -5 -12 -17.5t-12 -18.5q-1 -2 -11 -17q-23 -32 -38.5 -50.5t-32.5 -33.5q-16 -13 -32 -13q-10 -5 -15 -5q-9 0 -13 10q-7 12 -8 27t-1 41q0 50 9 107t25 135l8 39l8 50q-3 -4 -4.5 -7.5t-3.5 -6.5l-6 -27h-3q-1 0 -5 2
q-18 -33 -45 -77q-12 -21 -34 -65q-29 -58 -53 -94q-9 -14 -34 -45q-21 -29 -23 -32q-18 -26 -29.5 -37.5t-18.5 -11.5q-11 0 -22.5 30.5t-20 68t-8.5 50.5v31q0 64 5 96q6 40 23.5 94t44 100t58.5 62q10 5 23 5q25 0 54 -17t71 -47q19 40 19 50h2q30 1 46.5 2t25.5 1
q5 0 7.5 -1t2.5 -4q0 -1 0.5 -3.5t0.5 -10.5q0 -11 -1 -17v0q-2 -10 -3.5 -22t-4.5 -23q-5 -21 -11 -65l-8 -44l-8 -45q-14 -66 -22 -112.5t-10 -87.5q13 13 53 68q3 4 12 18.5l17 26.5h3l23 -36h20q0 -5 -2.5 -11.5zM267 380q-27 26 -48 41t-38 15q-3 0 -3 14q0 10 1 12
q-35 -20 -60 -90t-33 -129q-5 -32 -5 -69.5v-45.5h-1q5 -12 10 -41q10 14 17.5 23.5t12.5 16.5q15 19 18 24q23 34 55 96l30 57zM93 55v0h-1h1zM466 726q0 -33 -18.5 -63.5t-48.5 -49.5t-62 -19q-5 0 -19 2q-16 3 -33 16t-40 35q-24 22 -30 25q-10 5 -23 5q-30 0 -46 -33
q-4 -10 -10 -10q-4 0 -6 3t-2 7l-44 -10q0 17 6.5 29t7.5 13q17 35 41.5 54t52.5 19q24 0 49 -14q17 -9 41 -35q16 -16 25 -23t22 -10q1 -1 3.5 -6t4.5 -5q16 0 33.5 11.5t29.5 28.5t12 30h54z" />
    <glyph glyph-name="ae" unicode="&#xe6;" horiz-adv-x="640" 
d="M544 135l44 -40q-12 -20 -49 -54q-55 -45 -93 -45q-33 0 -59 35.5t-51 106.5l-14 45q-22 -2 -36 -2v80h14q-6 19 -13 44q-22 -38 -47 -72q-22 -30 -34 -51t-19 -32q-69 -126 -100 -150q-16 -12 -31 -12q-18 0 -29 19t-11 50q0 19 3.5 36t3.5 19q0 78 6 115l3 21
q4 42 13 82q5 24 36 65t70.5 75t69.5 42l45 -34q1 -1 4 -5.5t9 -12.5l17 -26q4 7 4 11h50q0 -29 -27 -79q9 -24 19 -61q5 23 12 41q29 63 67 113q17 21 41 38.5t41 20.5q6 1 17 1q40 0 65 -11t29 -32q2 -16 2 -24q0 -48 -29 -97t-72 -85.5t-83 -51.5l-59 -22q3 -7 5.5 -15
l5.5 -17q17 -50 29.5 -69t32.5 -19q30 0 61 27q29 24 37 32zM266 478v0v0zM400 314q-8 -20 -10 -31l25 10q52 19 95 61t53 80q-17 5 -43 5h-8q-15 -3 -30.5 -13t-21.5 -17q-42 -53 -60 -95zM262 376l-10 23l-13 13l-13 20q-36 -13 -81 -53.5t-51 -66.5q-5 -21 -9.5 -51.5
l-6.5 -44.5q-5 -34 -5 -104q0 -8 -5 -38q30 30 79 121l16 28l75 116l17 26z" />
    <glyph glyph-name="b" unicode="b" horiz-adv-x="507" 
d="M499 393q0 -30 -7 -60.5t-8 -35.5q-12 -57 -51.5 -134.5t-93.5 -134t-109 -56.5q-20 0 -38 6t-47 18l-22 10q-5 2 -16 4t-18 6h-2l-1 17h1l-5 5v0v0l-2 1l-7 10l7 21q7 20 9.5 45t3.5 30q4 40 9 61q19 90 32 162q10 62 26 138l25 123l-48 -1l-53 -2h-2v81h2q13 0 25 1
l72 1l52 -20h1l6 -60l-1 -11l-25 -128l-26 -135q-16 -89 -24 -125q3 6 20 38l69 120t59 87q10 12 15.5 20t8.5 13q13 18 18 22.5t13 0.5l21 -8q36 -13 59.5 -27.5t39.5 -44.5q12 -22 12 -58zM436 335q9 43 9 58v10l-6 10q-4 7 -17 13.5t-49 19.5l-78 -113.5t-64 -104.5
q-21 -38 -36 -71q-11 -28 -25 -45.5t-29 -23.5q0 -4 -1 -6l3 -2h1q8 -3 25 -10.5t32 -12t29 -4.5q43 0 85.5 45t74 107t41.5 109q2 11 5 21z" />
    <glyph glyph-name="c" unicode="c" horiz-adv-x="382" 
d="M346 416q0 -14 -6 -32t-6 -23h-54q0 29 9 51q-9 10 -32 25q-14 11 -39 11q-26 0 -51 -18t-41 -48q-39 -77 -39 -159l1 -31q0 -2 7 -29q6 -18 12 -47l4 -47q5 5 13 5t19 -7q12 -6 32 -6q33 0 59 25v0l19 17t16 15q14 11 16 14h3l41 -47q-13 -18 -31.5 -34.5t-26.5 -24.5
q-50 -46 -96 -46q-31 0 -67 22q-20 13 -29 21t-15 19q-7 11 -8 30.5t-2 24.5l-9.5 36t-10.5 46q-2 36 -2 44q0 51 12.5 103.5t33.5 92.5q27 51 64 80t76 29q36 0 71 -25q33 -23 52 -61q5 -11 5 -26z" />
    <glyph glyph-name="cacute" unicode="&#x107;" horiz-adv-x="382" 
d="M346 416q0 -14 -6 -32t-6 -23h-54q0 29 9 51q-9 10 -32 25q-14 11 -39 11q-26 0 -51 -18t-41 -48q-39 -77 -39 -159l1 -31q0 -2 7 -29q6 -18 12 -47l4 -47q5 5 13 5t19 -7q12 -6 32 -6q33 0 59 25v0l19 17t16 15q14 11 16 14h3l41 -47q-13 -18 -31.5 -34.5t-26.5 -24.5
q-50 -46 -96 -46q-31 0 -67 22q-20 13 -29 21t-15 19q-7 11 -8 30.5t-2 24.5l-9.5 36t-10.5 46q-2 36 -2 44q0 51 12.5 103.5t33.5 92.5q27 51 64 80t76 29q36 0 71 -25q33 -23 52 -61q5 -11 5 -26zM395 743q0 -27 -32 -64.5t-73.5 -66t-67.5 -28.5v70q8 0 63.5 42t55.5 47
h54z" />
    <glyph glyph-name="ccaron" unicode="&#x10d;" horiz-adv-x="382" 
d="M346 416q0 -14 -6 -32t-6 -23h-54q0 29 9 51q-9 10 -32 25q-14 11 -39 11q-26 0 -51 -18t-41 -48q-39 -77 -39 -159l1 -31q0 -2 7 -29q6 -18 12 -47l4 -47q5 5 13 5t19 -7q12 -6 32 -6q33 0 59 25v0l19 17t16 15q14 11 16 14h3l41 -47q-13 -18 -31.5 -34.5t-26.5 -24.5
q-50 -46 -96 -46q-31 0 -67 22q-20 13 -29 21t-15 19q-7 11 -8 30.5t-2 24.5l-9.5 36t-10.5 46q-2 36 -2 44q0 51 12.5 103.5t33.5 92.5q27 51 64 80t76 29q36 0 71 -25q33 -23 52 -61q5 -11 5 -26zM405 791q-14 -40 -24.5 -57t-29.5 -41l-30 -34q-11 -11 -15 -16
q-2 -3 -16 -26.5t-24 -30.5l-10 -10.5t-24 -9.5q-18 0 -29.5 17.5t-11.5 40.5v19l1 -17q-1 6 -0.5 14t0.5 12q0 12 -3 22q-20 54 -20 146h50q0 -82 20 -141q4 -13 2 -32q8 7 15 20t10 18q6 9 27 32q14 14 19 21q21 24 29 37t16 38z" />
    <glyph glyph-name="ccedilla" unicode="&#xe7;" horiz-adv-x="382" 
d="M346 416q0 -14 -6 -32t-6 -23h-54q0 29 9 51q-9 10 -32 25q-14 11 -39 11q-26 0 -51 -18t-41 -48q-39 -77 -39 -159l1 -31q0 -2 7 -29q6 -18 12 -47l4 -47q5 5 13 5t19 -7q12 -6 32 -6q33 0 59 25v0l19 17t16 15q14 11 16 14h3l41 -47q-13 -18 -31.5 -34.5t-26.5 -24.5
q-50 -46 -96 -46h-1q-2 -5 -5 -16.5t-6 -16.5l-1 -3q3 1 8 1q43 0 61.5 -19.5t18.5 -57.5q0 -14 -6 -38q-9 -31 -51 -47t-105 -16q-20 0 -35 6q-17 8 -25 14t-14 21l50 21q0 -1 5 -2.5t6 -1.5l-1 1q1 1 5 0.5t9 -0.5l104 17q4 13 4 25q0 6 -8.5 11.5t-17.5 5.5q-13 0 -25 -2
q-19 -5 -34 11.5t-15 41.5q0 12 6 26l12 28l3 7q-3 1 -9 5q-20 13 -29 21t-15 19q-7 11 -8 30.5t-2 24.5l-9.5 36t-10.5 46q-2 36 -2 44q0 51 12.5 103.5t33.5 92.5q27 51 64 80t76 29q36 0 71 -25q33 -23 52 -61q5 -11 5 -26z" />
    <glyph glyph-name="cdotaccent" unicode="&#x10b;" horiz-adv-x="382" 
d="M346 416q0 -14 -6 -32t-6 -23h-54q0 29 9 51q-9 10 -32 25q-14 11 -39 11q-26 0 -51 -18t-41 -48q-39 -77 -39 -159l1 -31q0 -2 7 -29q6 -18 12 -47l4 -47q5 5 13 5t19 -7q12 -6 32 -6q33 0 59 25v0l19 17t16 15q14 11 16 14h3l41 -47q-13 -18 -31.5 -34.5t-26.5 -24.5
q-50 -46 -96 -46q-31 0 -67 22q-20 13 -29 21t-15 19q-7 11 -8 30.5t-2 24.5l-9.5 36t-10.5 46q-2 36 -2 44q0 51 12.5 103.5t33.5 92.5q27 51 64 80t76 29q36 0 71 -25q33 -23 52 -61q5 -11 5 -26zM272 626l20 -10q-12 -18 -23.5 -25.5t-29.5 -7.5q-26 0 -48 19.5t-22 41.5
q0 20 18.5 32.5t46.5 12.5q17 0 32 -3q2 -1 22 -2.5t38 -12.5t18 -32h-72v-13z" />
    <glyph glyph-name="d" unicode="d" horiz-adv-x="523" 
d="M485 140q-23 -25 -64 -74l-41.5 -48t-31.5 -33q-20 -2 -31.5 18.5t-11.5 60.5q0 26 3.5 50t3.5 28l12 96q-9 -18 -20 -35t-13 -21l-22 -45q-28 -61 -50.5 -100t-50.5 -66h-1h-2q-19 0 -40 42l-60 113v0q-30 55 -30 128q0 31 7 64t20 61q12 26 37 57l14 18v0q33 47 60 67
q5 5 18 5q15 0 36.5 -8t56.5 -23q17 -8 31.5 -14t20.5 -6h2v-81h-2q-17 0 -69 25q-21 10 -42.5 18t-32.5 9q-11 -8 -20 -19t-21 -29l-24 -30l-16 -23q-12 -26 -16.5 -46.5t-4.5 -44.5t4 -41.5t13 -36.5q21 -42 36 -69l21 -40q22 30 38.5 66t20.5 44q7 16 23 48q21 44 34 62
t13 4h38q22 141 58 277q0 -2 20 67h-81q-4 -3 -9 -3q-12 0 -12 19q2 2 -5 16t-7 22q0 20 33 26q15 3 32 3l33 -1q22 -2 31 -2h1h2l9 -20h-1q18 -4 26 -13.5t8 -25.5q0 -14 -5.5 -36.5t-14.5 -49.5l-7 -22q-17 -56 -27 -110.5t-21 -134.5q-19 -130 -28 -178q-3 -12 -5 -36
l48 56t38 41h3z" />
    <glyph glyph-name="eth" unicode="&#xf0;" horiz-adv-x="525" 
d="M447 612q45 -78 45 -192q0 -75 -13.5 -142t-44.5 -112l-47 -67t-71.5 -84.5t-57.5 -29.5q-22 -2 -50 3.5t-57 19.5q-50 25 -72.5 52t-28.5 56t-7 82q-1 7 -1 21l-1 51q0 84 20 129q22 51 65 74t99 23q22 0 36 -3t32 -14q39 -22 66.5 -39t46.5 -34l-36 -59
q-20 18 -82.5 48.5t-72.5 30.5q-25 0 -59.5 -17t-45.5 -42q-15 -34 -15 -97l1 -49l1 -25q1 -40 4.5 -56t18.5 -28.5t55 -31.5q25 -13 64 -13q13 0 19 1q18 1 63.5 49.5t64.5 85.5q52 99 52 217q0 35 -15.5 77t-43.5 80q-50 -25 -85 -53l-34 63q18 15 67 46q-35 30 -72 45
l21 74q74 -32 124 -80q47 23 83 44l28 -68q-20 -12 -64 -36z" />
    <glyph glyph-name="dcaron" unicode="&#x10f;" horiz-adv-x="523" 
d="M485 140q-23 -25 -64 -74l-41.5 -48t-31.5 -33q-20 -2 -31.5 18.5t-11.5 60.5q0 26 3.5 50t3.5 28l12 96q-9 -18 -20 -35t-13 -21l-22 -45q-28 -61 -50.5 -100t-50.5 -66h-1h-2q-19 0 -40 42l-60 113v0q-30 55 -30 128q0 31 7 64t20 61q12 26 37 57l14 18v0q33 47 60 67
q5 5 18 5q15 0 36.5 -8t56.5 -23q17 -8 31.5 -14t20.5 -6h2v-81h-2q-17 0 -69 25q-21 10 -42.5 18t-32.5 9q-11 -8 -20 -19t-21 -29l-24 -30l-16 -23q-12 -26 -16.5 -46.5t-4.5 -44.5t4 -41.5t13 -36.5q21 -42 36 -69l21 -40q22 30 38.5 66t20.5 44q7 16 23 48q21 44 34 62
t13 4h38q22 141 58 277q0 -2 20 67h-81q-4 -3 -9 -3q-12 0 -12 19q2 2 -5 16t-7 22q0 20 33 26q15 3 32 3l33 -1q22 -2 31 -2h1h2l9 -20h-1q18 -4 26 -13.5t8 -25.5q0 -14 -5.5 -36.5t-14.5 -49.5l-7 -22q-17 -56 -27 -110.5t-21 -134.5q-19 -130 -28 -178q-3 -12 -5 -36
l48 56t38 41h3zM170 -199.5q-22 -29.5 -55 -53.5l-38 48q29 21 37.5 34t9.5 14l-2 3l-11 30q-1 2 -3 7t-4.5 8t-6.5 7l45 38q10 -12 20 -39t12 -31l11 -21q7 -15 -15 -44.5z" />
    <glyph glyph-name="dcroat" unicode="&#x111;" horiz-adv-x="523" 
d="M602 594v-62l-81 -1q-23 0 -33 1q-17 1 -49 7q-15 -53 -24 -102.5t-21 -133.5q-19 -130 -28 -178q-3 -12 -5 -36l48 56t38 41h3l35 -46q-23 -25 -64 -74l-41.5 -48t-31.5 -33q-20 -2 -31.5 18.5t-11.5 60.5q0 26 3.5 50t3.5 28l12 96q-9 -18 -20 -35t-13 -21l-22 -45
q-28 -61 -50.5 -100t-50.5 -66h-1h-2q-19 0 -40 42l-60 113v0q-30 55 -30 128q0 31 7 64t20 61q12 26 37 57l14 18v0q33 47 60 67q5 5 18 5q15 0 36.5 -8t56.5 -23q17 -8 31.5 -14t20.5 -6h2v-81h-2q-17 0 -69 25q-21 10 -42.5 18t-32.5 9q-11 -8 -20 -19t-21 -29l-24 -30
l-16 -23q-12 -26 -16.5 -46.5t-4.5 -44.5t4 -41.5t13 -36.5q21 -42 36 -69l21 -40q22 30 38.5 66t20.5 44q7 16 23 48q21 44 34 62t13 4h38q18 114 48 236q-11 -4 -20 -5q-18 -3 -35 -3l-41 1v62l41 -1q14 0 26 2q11 1 24 8q16 6 24 8l11 36h-81q-4 -3 -9 -3q-12 0 -12 19
q2 2 -5 16t-7 22q0 20 33 26q15 3 32 3l33 -1q22 -2 31 -2h1h2l9 -20h-1q18 -4 26 -13.5t8 -25.5q0 -20 -12 -58q24 -4 34 -4q8 -1 30 -1z" />
    <glyph glyph-name="e" unicode="e" horiz-adv-x="405" 
d="M246 267q-51 -37 -120 -75l-20 -9q0 -18 2 -29.5t7 -22.5q-1 -5 16.5 -22.5t37.5 -32.5l8 -6q35 -5 51 -5h18l63 72l42 -51l-74 -86h1q-13 -16 -50 -16q-24 0 -47 5t-34 13q-18 13 -40 36.5t-33 42.5l-2 1q-15 27 -20 80q-22 -8 -32 -8h-2v80h2q2 0 36 12q10 79 38.5 156
t60.5 106q7 6 16.5 10t27.5 9q17 3 31 3q29 0 59.5 -25.5t61.5 -62.5q20 -21 20 -39q0 -4 -2 -12q-6 -15 -16.5 -25l-12.5 -12q-43 -50 -94 -87zM142 388q-19 -55 -29 -119q64 30 102 56t83 80l1 2q-15 17 -33.5 30t-35.5 13q-19 0 -23 -2q-2 -1 -5 -1q-9 0 -13 6t-4 12
q-24 -22 -43 -77z" />
    <glyph glyph-name="eacute" unicode="&#xe9;" horiz-adv-x="405" 
d="M246 267q-51 -37 -120 -75l-20 -9q0 -18 2 -29.5t7 -22.5q-1 -5 16.5 -22.5t37.5 -32.5l8 -6q35 -5 51 -5h18l63 72l42 -51l-74 -86h1q-13 -16 -50 -16q-24 0 -47 5t-34 13q-18 13 -40 36.5t-33 42.5l-2 1q-15 27 -20 80q-22 -8 -32 -8h-2v80h2q2 0 36 12q10 79 38.5 156
t60.5 106q7 6 16.5 10t27.5 9q17 3 31 3q29 0 59.5 -25.5t61.5 -62.5q20 -21 20 -39q0 -4 -2 -12q-6 -15 -16.5 -25l-12.5 -12q-43 -50 -94 -87zM142 388q-19 -55 -29 -119q64 30 102 56t83 80l1 2q-15 17 -33.5 30t-35.5 13q-19 0 -23 -2q-2 -1 -5 -1q-9 0 -13 6t-4 12
q-24 -22 -43 -77zM392 758q0 -27 -32 -64.5t-73.5 -66t-67.5 -28.5v70q8 0 63.5 42t55.5 47h54z" />
    <glyph glyph-name="ecaron" unicode="&#x11b;" horiz-adv-x="405" 
d="M246 267q-51 -37 -120 -75l-20 -9q0 -18 2 -29.5t7 -22.5q-1 -5 16.5 -22.5t37.5 -32.5l8 -6q35 -5 51 -5h18l63 72l42 -51l-74 -86h1q-13 -16 -50 -16q-24 0 -47 5t-34 13q-18 13 -40 36.5t-33 42.5l-2 1q-15 27 -20 80q-22 -8 -32 -8h-2v80h2q2 0 36 12q10 79 38.5 156
t60.5 106q7 6 16.5 10t27.5 9q17 3 31 3q29 0 59.5 -25.5t61.5 -62.5q20 -21 20 -39q0 -4 -2 -12q-6 -15 -16.5 -25l-12.5 -12q-43 -50 -94 -87zM142 388q-19 -55 -29 -119q64 30 102 56t83 80l1 2q-15 17 -33.5 30t-35.5 13q-19 0 -23 -2q-2 -1 -5 -1q-9 0 -13 6t-4 12
q-24 -22 -43 -77zM401 806q-14 -40 -24.5 -57t-29.5 -41l-30 -34q-11 -11 -15 -16q-2 -3 -16 -26.5t-24 -30.5l-10 -10.5t-24 -9.5q-18 0 -29.5 17.5t-11.5 40.5v19l1 -17q-1 6 -0.5 14t0.5 12q0 12 -3 22q-20 54 -20 146h50q0 -82 20 -141q4 -13 2 -32q8 7 15 20t10 18
q6 9 27 32q14 14 19 21q21 24 29 37t16 38z" />
    <glyph glyph-name="ecircumflex" unicode="&#xea;" horiz-adv-x="405" 
d="M246 267q-51 -37 -120 -75l-20 -9q0 -18 2 -29.5t7 -22.5q-1 -5 16.5 -22.5t37.5 -32.5l8 -6q35 -5 51 -5h18l63 72l42 -51l-74 -86h1q-13 -16 -50 -16q-24 0 -47 5t-34 13q-18 13 -40 36.5t-33 42.5l-2 1q-15 27 -20 80q-22 -8 -32 -8h-2v80h2q2 0 36 12q10 79 38.5 156
t60.5 106q7 6 16.5 10t27.5 9q17 3 31 3q29 0 59.5 -25.5t61.5 -62.5q20 -21 20 -39q0 -4 -2 -12q-6 -15 -16.5 -25l-12.5 -12q-43 -50 -94 -87zM142 388q-19 -55 -29 -119q64 30 102 56t83 80l1 2q-15 17 -33.5 30t-35.5 13q-19 0 -23 -2q-2 -1 -5 -1q-9 0 -13 6t-4 12
q-24 -22 -43 -77zM371 592h-50q0 82 -20 141q-3 8 -3 18.5v13.5q-8 -7 -15.5 -20.5t-9.5 -17.5q-3 -6 -12 -16.5t-14 -15.5l-20 -21q-21 -25 -29 -38t-15 -37l-48 22q13 41 24 58.5t30 39.5l30 34q6 6 14 16q3 4 17 27.5t24 29.5l10 10.5t24 9.5q18 0 29.5 -17.5t11.5 -40.5
v-19l-1 17q1 -6 0.5 -14t-0.5 -12q0 -15 3 -22q20 -58 20 -146z" />
    <glyph glyph-name="edieresis" unicode="&#xeb;" horiz-adv-x="405" 
d="M246 267q-51 -37 -120 -75l-20 -9q0 -18 2 -29.5t7 -22.5q-1 -5 16.5 -22.5t37.5 -32.5l8 -6q35 -5 51 -5h18l63 72l42 -51l-74 -86h1q-13 -16 -50 -16q-24 0 -47 5t-34 13q-18 13 -40 36.5t-33 42.5l-2 1q-15 27 -20 80q-22 -8 -32 -8h-2v80h2q2 0 36 12q10 79 38.5 156
t60.5 106q7 6 16.5 10t27.5 9q17 3 31 3q29 0 59.5 -25.5t61.5 -62.5q20 -21 20 -39q0 -4 -2 -12q-6 -15 -16.5 -25l-12.5 -12q-43 -50 -94 -87zM142 388q-19 -55 -29 -119q64 30 102 56t83 80l1 2q-15 17 -33.5 30t-35.5 13q-19 0 -23 -2q-2 -1 -5 -1q-9 0 -13 6t-4 12
q-24 -22 -43 -77zM111 617q0 33 10.5 57t24.5 38t11 8l57 -52q-13 -23 -25.5 -36t-12.5 -15h-65zM288 617q0 33 10.5 57t24.5 38t11 8l57 -52q-13 -23 -25.5 -36t-12.5 -15h-65z" />
    <glyph glyph-name="edotaccent" unicode="&#x117;" horiz-adv-x="405" 
d="M246 267q-51 -37 -120 -75l-20 -9q0 -18 2 -29.5t7 -22.5q-1 -5 16.5 -22.5t37.5 -32.5l8 -6q35 -5 51 -5h18l63 72l42 -51l-74 -86h1q-13 -16 -50 -16q-24 0 -47 5t-34 13q-18 13 -40 36.5t-33 42.5l-2 1q-15 27 -20 80q-22 -8 -32 -8h-2v80h2q2 0 36 12q10 79 38.5 156
t60.5 106q7 6 16.5 10t27.5 9q17 3 31 3q29 0 59.5 -25.5t61.5 -62.5q20 -21 20 -39q0 -4 -2 -12q-6 -15 -16.5 -25l-12.5 -12q-43 -50 -94 -87zM142 388q-19 -55 -29 -119q64 30 102 56t83 80l1 2q-15 17 -33.5 30t-35.5 13q-19 0 -23 -2q-2 -1 -5 -1q-9 0 -13 6t-4 12
q-24 -22 -43 -77zM268 641l20 -10q-12 -18 -23.5 -25.5t-29.5 -7.5q-26 0 -48 19.5t-22 41.5q0 20 18.5 32.5t46.5 12.5q17 0 32 -3q2 -1 22 -2.5t38 -12.5t18 -32h-72v-13z" />
    <glyph glyph-name="egrave" unicode="&#xe8;" horiz-adv-x="405" 
d="M246 267q-51 -37 -120 -75l-20 -9q0 -18 2 -29.5t7 -22.5q-1 -5 16.5 -22.5t37.5 -32.5l8 -6q35 -5 51 -5h18l63 72l42 -51l-74 -86h1q-13 -16 -50 -16q-24 0 -47 5t-34 13q-18 13 -40 36.5t-33 42.5l-2 1q-15 27 -20 80q-22 -8 -32 -8h-2v80h2q2 0 36 12q10 79 38.5 156
t60.5 106q7 6 16.5 10t27.5 9q17 3 31 3q29 0 59.5 -25.5t61.5 -62.5q20 -21 20 -39q0 -4 -2 -12q-6 -15 -16.5 -25l-12.5 -12q-43 -50 -94 -87zM142 388q-19 -55 -29 -119q64 30 102 56t83 80l1 2q-15 17 -33.5 30t-35.5 13q-19 0 -23 -2q-2 -1 -5 -1q-9 0 -13 6t-4 12
q-24 -22 -43 -77zM265 571q-42 41 -78.5 103t-36.5 95h54q0 -10 36 -62.5t63 -79.5z" />
    <glyph glyph-name="emacron" unicode="&#x113;" horiz-adv-x="405" 
d="M246 267q-51 -37 -120 -75l-20 -9q0 -18 2 -29.5t7 -22.5q-1 -5 16.5 -22.5t37.5 -32.5l8 -6q35 -5 51 -5h18l63 72l42 -51l-74 -86h1q-13 -16 -50 -16q-24 0 -47 5t-34 13q-18 13 -40 36.5t-33 42.5l-2 1q-15 27 -20 80q-22 -8 -32 -8h-2v80h2q2 0 36 12q10 79 38.5 156
t60.5 106q7 6 16.5 10t27.5 9q17 3 31 3q29 0 59.5 -25.5t61.5 -62.5q20 -21 20 -39q0 -4 -2 -12q-6 -15 -16.5 -25l-12.5 -12q-43 -50 -94 -87zM142 388q-19 -55 -29 -119q64 30 102 56t83 80l1 2q-15 17 -33.5 30t-35.5 13q-19 0 -23 -2q-2 -1 -5 -1q-9 0 -13 6t-4 12
q-24 -22 -43 -77zM344 605q-31 -4 -66 -4q-25 0 -44 1t-32 2q-52 4 -84 4v62q49 -6 94 -6q25 0 77 2q42 2 65 2z" />
    <glyph glyph-name="eogonek" unicode="&#x119;" horiz-adv-x="405" 
d="M246 267q-51 -37 -120 -75l-20 -9q0 -18 2 -29.5t7 -22.5q-1 -5 16.5 -22.5t37.5 -32.5l8 -6q35 -5 51 -5h18l63 72l42 -51l-74 -86h1q-10 -12 -32 -15q-15 -16 -23.5 -40t-8.5 -50q0 -11 1 -17q16 -15 32 -25q8 -6 16.5 -8.5t13.5 -0.5t15 10.5t19 14.5l31 -58
q-8 -6 -21 -17t-24.5 -17t-24.5 -6q-24 0 -55 22q-48 32 -55 72q-2 9 -2 30q0 55 25 93q-26 6 -38 14q-18 13 -40 36.5t-33 42.5l-2 1q-15 27 -20 80q-22 -8 -32 -8h-2v80h2q2 0 36 12q10 79 38.5 156t60.5 106q7 6 16.5 10t27.5 9q17 3 31 3q29 0 59.5 -25.5t61.5 -62.5
q20 -21 20 -39q0 -4 -2 -12q-6 -15 -16.5 -25l-12.5 -12q-43 -50 -94 -87zM142 388q-19 -55 -29 -119q64 30 102 56t83 80l1 2q-15 17 -33.5 30t-35.5 13q-19 0 -23 -2q-2 -1 -5 -1q-9 0 -13 6t-4 12q-24 -22 -43 -77z" />
    <glyph glyph-name="f" unicode="f" horiz-adv-x="360" 
d="M466 664v-80h-2q-88 0 -198 48q-9 3 -11 4q-4 -26 -12 -48.5t-10 -28.5l-12 -52q118 2 177 2h2v-70h-2q-54 0 -160 -2l-36 -1l-16 -72q-15 -89 -23 -157q-9 -65 -14 -97q-12 -88 -34 -166l-5 -25q-11 -57 -29 -93t-59 -36q-27 0 -82 26q-23 11 -53 37l33 61h3
q12 -11 40 -25q39 -19 59 -19q14 0 19.5 10t10.5 39q2 7 4.5 18.5t6.5 27.5q22 84 33 157l13 97q15 108 24 159q5 32 12 57h-68h-2v71h2h85q7 24 19 72q6 24 10 35q11 33 12 50q2 18 2 23q0 6 -1 9t-4 6q-9 6 -9 16q0 16 16 16q8 0 27 -7q34 -12 53 -20q100 -42 177 -42h2z
" />
    <glyph glyph-name="g" unicode="g" horiz-adv-x="498" 
d="M476 452q5 -38 5 -77q0 -24 -1 -32q-25 -259 -79 -361q-4 -7 -29 -56t-80.5 -84t-133.5 -45l-29 -5q-51 -7 -68 -7q-5 0 -23 2q-54 6 -89.5 44.5t-35.5 92.5h55q0 -20 22.5 -36.5t54.5 -20.5q4 -1 16 -1q17 0 37.5 3t26.5 4l26 4q65 8 102.5 27.5t55 41.5t41.5 64
q33 57 48.5 140.5t27.5 199.5l1 25q0 14 -2 40q-8 -24 -29 -54l-76.5 -106t-66.5 -80l-33 -32l-25 -25.5t-30 -34.5q-12 -17 -42 -48.5t-51 -31.5q-9 0 -15 6q-16 16 -16 75q0 48 8 99q12 77 26 135.5t43 114.5t75 82q7 4 16 4q28 0 64 -18.5t39 -20.5q7 -4 20.5 -10
t24.5 -12.5t17 -14.5q4 12 4 40v4v9q0 21 15.5 34t35.5 13q19 0 31.5 -10.5t12.5 -30.5q0 -23 3 -50zM281 310q29 38 71 98q17 23 21 32l-39 -46q6 -8 -6 -4.5t-41 18.5q-14 8 -38.5 19t-39.5 11h1q3 2 3 3q-30 -19 -49.5 -50t-33 -82.5t-27.5 -137.5q-6 -45 -7 -69
q15 15 26 30q32 42 71 79q11 10 20 20q39 41 68 79z" />
    <glyph glyph-name="gbreve" unicode="&#x11f;" horiz-adv-x="498" 
d="M476 452q5 -38 5 -77q0 -24 -1 -32q-25 -259 -79 -361q-4 -7 -29 -56t-80.5 -84t-133.5 -45l-29 -5q-51 -7 -68 -7q-5 0 -23 2q-54 6 -89.5 44.5t-35.5 92.5h55q0 -20 22.5 -36.5t54.5 -20.5q4 -1 16 -1q17 0 37.5 3t26.5 4l26 4q65 8 102.5 27.5t55 41.5t41.5 64
q33 57 48.5 140.5t27.5 199.5l1 25q0 14 -2 40q-8 -24 -29 -54l-76.5 -106t-66.5 -80l-33 -32l-25 -25.5t-30 -34.5q-12 -17 -42 -48.5t-51 -31.5q-9 0 -15 6q-16 16 -16 75q0 48 8 99q12 77 26 135.5t43 114.5t75 82q7 4 16 4q28 0 64 -18.5t39 -20.5q7 -4 20.5 -10
t24.5 -12.5t17 -14.5q4 12 4 40v4v9q0 21 15.5 34t35.5 13q19 0 31.5 -10.5t12.5 -30.5q0 -23 3 -50zM281 310q29 38 71 98q17 23 21 32l-39 -46q6 -8 -6 -4.5t-41 18.5q-14 8 -38.5 19t-39.5 11h1q3 2 3 3q-30 -19 -49.5 -50t-33 -82.5t-27.5 -137.5q-6 -45 -7 -69
q15 15 26 30q32 42 71 79q11 10 20 20q39 41 68 79zM465 696l21 -7q-15 -24 -24.5 -37.5t-25.5 -29.5q-22 -22 -50 -34t-60 -12q-73 0 -108 39.5t-35 119.5h54q0 -51 19 -74t70 -23q18 0 39 11.5t33 23.5q16 16 24 26t18 28q1 17 7.5 29t17.5 12v-72z" />
    <glyph glyph-name="uni0123" unicode="&#x123;" horiz-adv-x="498" 
d="M476 452q5 -38 5 -77q0 -24 -1 -32q-25 -259 -79 -361q-4 -7 -29 -56t-80.5 -84t-133.5 -45l-29 -5q-51 -7 -68 -7q-5 0 -23 2q-54 6 -89.5 44.5t-35.5 92.5h55q0 -20 22.5 -36.5t54.5 -20.5q4 -1 16 -1q17 0 37.5 3t26.5 4l26 4q65 8 102.5 27.5t55 41.5t41.5 64
q33 57 48.5 140.5t27.5 199.5l1 25q0 14 -2 40q-8 -24 -29 -54l-76.5 -106t-66.5 -80l-33 -32l-25 -25.5t-30 -34.5q-12 -17 -42 -48.5t-51 -31.5q-9 0 -15 6q-16 16 -16 75q0 48 8 99q12 77 26 135.5t43 114.5t75 82q7 4 16 4q28 0 64 -18.5t39 -20.5q7 -4 20.5 -10
t24.5 -12.5t17 -14.5q4 12 4 40v4v9q0 21 15.5 34t35.5 13q19 0 31.5 -10.5t12.5 -30.5q0 -23 3 -50zM281 310q29 38 71 98q17 23 21 32l-39 -46q6 -8 -6 -4.5t-41 18.5q-14 8 -38.5 19t-39.5 11h1q3 2 3 3q-30 -19 -49.5 -50t-33 -82.5t-27.5 -137.5q-6 -45 -7 -69
q15 15 26 30q32 42 71 79q11 10 20 20q39 41 68 79zM180 -372q0 -21 -21.5 -56.5t-50.5 -64.5l-38 64q28 28 36.5 45t10.5 19l-2 5q-6 19 -11 39q-3 10 -6 16t-8 14l45 50q11 -17 21 -53t11 -40q0 -1 11 -28q2 -6 2 -10z" />
    <glyph glyph-name="gdotaccent" unicode="&#x121;" horiz-adv-x="498" 
d="M476 452q5 -38 5 -77q0 -24 -1 -32q-25 -259 -79 -361q-4 -7 -29 -56t-80.5 -84t-133.5 -45l-29 -5q-51 -7 -68 -7q-5 0 -23 2q-54 6 -89.5 44.5t-35.5 92.5h55q0 -20 22.5 -36.5t54.5 -20.5q4 -1 16 -1q17 0 37.5 3t26.5 4l26 4q65 8 102.5 27.5t55 41.5t41.5 64
q33 57 48.5 140.5t27.5 199.5l1 25q0 14 -2 40q-8 -24 -29 -54l-76.5 -106t-66.5 -80l-33 -32l-25 -25.5t-30 -34.5q-12 -17 -42 -48.5t-51 -31.5q-9 0 -15 6q-16 16 -16 75q0 48 8 99q12 77 26 135.5t43 114.5t75 82q7 4 16 4q28 0 64 -18.5t39 -20.5q7 -4 20.5 -10
t24.5 -12.5t17 -14.5q4 12 4 40v4v9q0 21 15.5 34t35.5 13q19 0 31.5 -10.5t12.5 -30.5q0 -23 3 -50zM281 310q29 38 71 98q17 23 21 32l-39 -46q6 -8 -6 -4.5t-41 18.5q-14 8 -38.5 19t-39.5 11h1q3 2 3 3q-30 -19 -49.5 -50t-33 -82.5t-27.5 -137.5q-6 -45 -7 -69
q15 15 26 30q32 42 71 79q11 10 20 20q39 41 68 79zM350 636l20 -10q-12 -18 -23.5 -25.5t-29.5 -7.5q-26 0 -48 19.5t-22 41.5q0 20 18.5 32.5t46.5 12.5q17 0 32 -3q2 -1 22 -2.5t38 -12.5t18 -32h-72v-13z" />
    <glyph glyph-name="h" unicode="h" horiz-adv-x="525" 
d="M483 401q15 -48 15 -103q0 -58 -10 -100t-33 -79q-5 -8 -18 -36q-28 -60 -43 -75q-17 -19 -26.5 -25t-26.5 -6q-25 0 -50 23t-44 62v0l46 35h3q7 -15 21 -27t24 -12q8 0 13 5q12 20 20.5 35.5t14.5 25.5l18 35q22 38 29 67t7 72q0 85 -41 126q-2 2 -8 10t-18.5 14.5
t-29.5 6.5q-5 0 -63.5 -88.5t-98.5 -157.5l-37 -65l-8 -15l-7 -35l-9 -53q-7 -47 -18.5 -71.5t-26.5 -24.5q-21 0 -41 49q-6 15 -6 29q0 21 11.5 47.5t45.5 92.5q6 24 8 40l14 74l32 148l21 91q4 18 10 56l11 56l-23 1q-14 0 -38 -2q-13 -1 -39 -1h-2v80h2q12 0 36 2
q14 1 41 1q22 0 43 -3q17 -1 27.5 -20t10.5 -44q0 -11 -3 -22l-12 -65l-11 -58l-29 -129l-13 -59q74 119 116.5 173.5t61.5 51.5q32 -5 51 -19t28 -24.5t11 -13.5q26 -28 41 -76z" />
    <glyph glyph-name="hbar" unicode="&#x127;" horiz-adv-x="525" 
d="M483 401q15 -48 15 -103q0 -58 -10 -100t-33 -79q-5 -8 -18 -36q-28 -60 -43 -75q-17 -19 -26.5 -25t-26.5 -6q-25 0 -50 23t-44 62v0l46 35h3q7 -15 21 -27t24 -12q8 0 13 5q12 20 20.5 35.5t14.5 25.5l18 35q22 38 29 67t7 72q0 85 -41 126q-2 2 -8 10t-18.5 14.5
t-29.5 6.5q-5 0 -63.5 -88.5t-98.5 -157.5l-37 -65l-8 -15l-7 -35l-9 -53q-7 -47 -18.5 -71.5t-26.5 -24.5q-21 0 -41 49q-6 15 -6 29q0 21 11.5 47.5t45.5 92.5q6 24 8 40l14 74l32 148l21 91q2 12 4 19h-5q-9 0 -33 -4q-22 -4 -33 -4q-10 -1 -33 -1l-81 1v62l81 -1
q22 0 30 1q9 0 16.5 1t13.5 2q20 5 39 5l16 -1l6 32l-23 1q-14 0 -38 -2q-13 -1 -39 -1h-2v80h2q12 0 36 2q14 1 41 1q22 0 43 -3q17 -1 27.5 -20t10.5 -44q0 -11 -3 -22l-8 -42h3q12 -2 26 -2l41 1v-62l-41 -1q-17 0 -35 3q-3 0 -5 1l-4 -21l-29 -129l-13 -59
q74 119 116.5 173.5t61.5 51.5q32 -5 51 -19t28 -24.5t11 -13.5q26 -28 41 -76z" />
    <glyph glyph-name="i" unicode="i" horiz-adv-x="230" 
d="M238 718v-98h-2q-14 0 -22.5 -3.5t-22.5 -11.5q-7 -5 -20 -12h-3l-28 87h1l22 12q23 13 38 19.5t35 6.5h2zM185 497q0 -15 -12 -56q4 0 0 -1l-16 -56q-19 -67 -29.5 -108t-20.5 -89l-9 -43l-8 -32q-3 -9 -7 -27q12 6 32 15t30 16l27 -68q-23 -16 -68 -36l-18 -8
q-17 -14 -31 -14q-28 0 -28 57q0 30 7.5 60t8.5 35l5 20l10 44l22 95.5t28 104.5l3 11q-32 -11 -58 -11v81q18 0 33.5 4t43.5 15l19.5 8.5t17.5 5.5t12 -6q6 -6 6 -17z" />
    <glyph glyph-name="dotlessi" unicode="&#x131;" horiz-adv-x="228" 
d="M171 436q-3 -14 -7.5 -27.5t-8.5 -28.5q-18 -62 -28.5 -104.5t-20.5 -90.5l-9 -42l-8 -32q-2 -6 -7 -26l29 13t33 17l26 -68q-22 -14 -42.5 -23.5t-24.5 -11.5l-18 -8q-17 -14 -31 -14q-27 0 -27 56q0 39 16 94l5 20l9 44q12 53 22.5 95t27.5 103l3 10q-33 -10 -58 -10
v80q18 0 33 4t44 15q10 4 21 9t15 5q5 0 12 -6q6 -6 6 -17q0 -14 -12 -55q2 -1 0 -1z" />
    <glyph glyph-name="iacute" unicode="&#xed;" horiz-adv-x="228" 
d="M171 436q-3 -14 -7.5 -27.5t-8.5 -28.5q-18 -62 -28.5 -104.5t-20.5 -90.5l-9 -42l-8 -32q-2 -6 -7 -26l29 13t33 17l26 -68q-22 -14 -42.5 -23.5t-24.5 -11.5l-18 -8q-17 -14 -31 -14q-27 0 -27 56q0 39 16 94l5 20l9 44q12 53 22.5 95t27.5 103l3 10q-33 -10 -58 -10
v80q18 0 33 4t44 15q10 4 21 9t15 5q5 0 12 -6q6 -6 6 -17q0 -14 -12 -55q2 -1 0 -1zM316 753q0 -27 -32 -64.5t-73.5 -66t-67.5 -28.5v70q8 0 63.5 42t55.5 47h54z" />
    <glyph glyph-name="icircumflex" unicode="&#xee;" horiz-adv-x="228" 
d="M171 436q-3 -14 -7.5 -27.5t-8.5 -28.5q-18 -62 -28.5 -104.5t-20.5 -90.5l-9 -42l-8 -32q-2 -6 -7 -26l29 13t33 17l26 -68q-22 -14 -42.5 -23.5t-24.5 -11.5l-18 -8q-17 -14 -31 -14q-27 0 -27 56q0 39 16 94l5 20l9 44q12 53 22.5 95t27.5 103l3 10q-33 -10 -58 -10
v80q18 0 33 4t44 15q10 4 21 9t15 5q5 0 12 -6q6 -6 6 -17q0 -14 -12 -55q2 -1 0 -1zM295 587h-50q0 82 -20 141q-3 8 -3 18.5v13.5q-8 -7 -15.5 -20.5t-9.5 -17.5q-3 -6 -12 -16.5t-14 -15.5l-20 -21q-21 -25 -29 -38t-15 -37l-48 22q13 41 24 58.5t30 39.5l30 34
q6 6 14 16q3 4 17 27.5t24 29.5l10 10.5t24 9.5q18 0 29.5 -17.5t11.5 -40.5v-19l-1 17q1 -6 0.5 -14t-0.5 -12q0 -15 3 -22q20 -58 20 -146z" />
    <glyph glyph-name="idieresis" unicode="&#xef;" horiz-adv-x="228" 
d="M171 436q-3 -14 -7.5 -27.5t-8.5 -28.5q-18 -62 -28.5 -104.5t-20.5 -90.5l-9 -42l-8 -32q-2 -6 -7 -26l29 13t33 17l26 -68q-22 -14 -42.5 -23.5t-24.5 -11.5l-18 -8q-17 -14 -31 -14q-27 0 -27 56q0 39 16 94l5 20l9 44q12 53 22.5 95t27.5 103l3 10q-33 -10 -58 -10
v80q18 0 33 4t44 15q10 4 21 9t15 5q5 0 12 -6q6 -6 6 -17q0 -14 -12 -55q2 -1 0 -1zM35 612q0 33 10.5 57t24.5 38t11 8l57 -52q-13 -23 -25.5 -36t-12.5 -15h-65zM212 612q0 33 10.5 57t24.5 38t11 8l57 -52q-13 -23 -25.5 -36t-12.5 -15h-65z" />
    <glyph glyph-name="i.loclTRK" horiz-adv-x="228" 
d="M171 436q-3 -14 -7.5 -27.5t-8.5 -28.5q-18 -62 -28.5 -104.5t-20.5 -90.5l-9 -42l-8 -32q-2 -6 -7 -26l29 13t33 17l26 -68q-22 -14 -42.5 -23.5t-24.5 -11.5l-18 -8q-17 -14 -31 -14q-27 0 -27 56q0 39 16 94l5 20l9 44q12 53 22.5 95t27.5 103l3 10q-33 -10 -58 -10
v80q18 0 33 4t44 15q10 4 21 9t15 5q5 0 12 -6q6 -6 6 -17q0 -14 -12 -55q2 -1 0 -1zM192 636l20 -10q-12 -18 -23.5 -25.5t-29.5 -7.5q-26 0 -48 19.5t-22 41.5q0 20 18.5 32.5t46.5 12.5q17 0 32 -3q2 -1 22 -2.5t38 -12.5t18 -32h-72v-13z" />
    <glyph glyph-name="igrave" unicode="&#xec;" horiz-adv-x="228" 
d="M171 436q-3 -14 -7.5 -27.5t-8.5 -28.5q-18 -62 -28.5 -104.5t-20.5 -90.5l-9 -42l-8 -32q-2 -6 -7 -26l29 13t33 17l26 -68q-22 -14 -42.5 -23.5t-24.5 -11.5l-18 -8q-17 -14 -31 -14q-27 0 -27 56q0 39 16 94l5 20l9 44q12 53 22.5 95t27.5 103l3 10q-33 -10 -58 -10
v80q18 0 33 4t44 15q10 4 21 9t15 5q5 0 12 -6q6 -6 6 -17q0 -14 -12 -55q2 -1 0 -1zM189 566q-42 41 -78.5 103t-36.5 95h54q0 -10 36 -62.5t63 -79.5z" />
    <glyph glyph-name="ij" unicode="&#x133;" horiz-adv-x="394" 
d="M413 686l-18 -93h-2q-8 2 -15.5 8t-9.5 7q-6 5 -12.5 9t-11.5 4h-2v98h2q19 0 42.5 -16t25.5 -17h1zM142 593l-28 87h1l22 12q23 13 38 19.5t35 6.5h2v-98h-2q-14 0 -22.5 -3.5t-22.5 -11.5q-7 -5 -20 -12h-3zM364 348q0 -13 1 -24l1 -61q0 -27 -2 -41q-4 -24 -10.5 -41
t-7.5 -21q-2 -8 -8 -24q-2 -7 -4.5 -23t-6.5 -27q-43 -101 -86 -170q-4 -6 -12.5 -24.5t-18.5 -26.5q-44 -40 -71 -62t-57 -37l-24 65q30 14 54 34l62 54q8 7 11.5 16.5t9.5 19.5q43 67 82 159q3 8 4 18.5t5 24.5l13 37q9 24 12 41q1 4 1 28l-1 58q-1 12 -1 27q0 29 1 44
q-17 -24 -27 -41q-16 -27 -40 -79q-52 -107 -95.5 -177.5t-90.5 -92.5q-10 -5 -17 -5q-29 0 -29 61q0 20 5 31.5t5 12.5q4 43 5 62l5 57q10 95 49 189q0 2 2 6q-15 -5 -31 -5v72q12 0 36 13q16 9 28 13.5t27 4.5q11 0 16 -4t5 -14q0 -18 -11 -50l-22 -63q-20 -49 -30 -87.5
t-15 -81.5l-5 -59q-1 -20 -5 -55q30 33 58 84t63 123q25 53 41 80q5 10 11 20t11 20q38 65 52.5 85t28.5 20q25 0 25 -47l-1 -37zM102 473v1q-2 0 -4 -5.5t0 -10.5l3 11z" />
    <glyph glyph-name="imacron" unicode="&#x12b;" horiz-adv-x="228" 
d="M171 436q-3 -14 -7.5 -27.5t-8.5 -28.5q-18 -62 -28.5 -104.5t-20.5 -90.5l-9 -42l-8 -32q-2 -6 -7 -26l29 13t33 17l26 -68q-22 -14 -42.5 -23.5t-24.5 -11.5l-18 -8q-17 -14 -31 -14q-27 0 -27 56q0 39 16 94l5 20l9 44q12 53 22.5 95t27.5 103l3 10q-33 -10 -58 -10
v80q18 0 33 4t44 15q10 4 21 9t15 5q5 0 12 -6q6 -6 6 -17q0 -14 -12 -55q2 -1 0 -1zM268 600q-31 -4 -66 -4q-25 0 -44 1t-32 2q-52 4 -84 4v62q49 -6 94 -6q25 0 77 2q42 2 65 2z" />
    <glyph glyph-name="iogonek" unicode="&#x12f;" horiz-adv-x="230" 
d="M238 718v-98h-2q-14 0 -22.5 -3.5t-22.5 -11.5q-7 -5 -20 -12h-3l-28 87h1l22 12q23 13 38 19.5t35 6.5h2zM185 497q0 -15 -12 -56q4 0 0 -1l-16 -56q-19 -67 -29.5 -108t-20.5 -89l-9 -43l-8 -32q-3 -9 -7 -27q12 6 32 15t30 16l27 -68q-23 -15 -45 -25.5t-29 -13.5v0
h-1l-11 -5q-9 -7 -19 -11q-16 -16 -25.5 -41.5t-9.5 -51.5q0 -11 1 -16q17 -16 32 -26q8 -6 16.5 -8.5t13.5 -0.5q6 2 15 10t19 15l32 -58q-8 -6 -21 -17t-25 -17t-25 -6q-22 0 -55 22q-48 33 -55 73q-2 16 -2 29q0 39 13.5 70.5t37.5 52.5q-2 12 -2 24q0 30 7.5 60t8.5 35
l5 20l10 44l22 95.5t28 104.5l3 11q-32 -11 -58 -11v81q18 0 33.5 4t43.5 15l19.5 8.5t17.5 5.5t12 -6q6 -6 6 -17z" />
    <glyph glyph-name="j" unicode="j" horiz-adv-x="226" 
d="M249 686l-17 -93h-3q-8 2 -15.5 8t-9.5 7q-15 13 -24 13h-2v98h2q21 0 44 -16t24 -17h1zM211.5 474q9.5 -37 9.5 -78q0 -33 -3 -33q-4 0 -5 39l-2 -19q-6 -40 -22 -112l-9 -38l-21 -91q-11 -46 -17 -77q-6 -28 -8 -38q-13 -66 -29 -106.5t-59 -76t-125 -58.5h-2l-14 78h1
q70 19 103.5 43t47 55.5t27.5 98.5l4 22l19 83q6 23 20 84q1 3 10 44q15 70 21 103q4 21 5 23v16v3.5t1 0.5q-9 3 -24.5 -4.5t-37.5 -22.5q-34 -21 -43 -21h-2v81h2q2 0 21.5 13.5t41 23.5t41.5 10q5 0 17 -2q22 -7 31.5 -44z" />
    <glyph glyph-name="k" unicode="k" horiz-adv-x="533" 
d="M494 56l-28 -68h-3q-30 20 -56 48t-67 79q-22 28 -44 53q-3 3 -7 9.5t-6 10.5l-6 -3q-2 -1 -16.5 -10t-31.5 -9q-29 0 -29 49q0 14 3 23q-33 -44 -61 -90q-18 -27 -27 -44t-25 -52q0 -30 -3.5 -46t-11.5 -25q-13 -15 -27 -15q-13 0 -21.5 13.5t-8.5 33.5q0 23 9 42l13 28
q14 73 21.5 106t20.5 81l15 60q24 92 39 155q10 37 31 130l-35 -15q-26 -12 -39 -17h-2l-17 77h2q9 3 46 19q12 7 28 12q24 11 27 13q19 13 30 13q9 0 21 -10q7 -4 7 -32q0 -26 -7 -39.5t-7 -14.5q-13 -82 -32 -156l-39 -155l-15 -59q34 50 68 92t83 96q41 44 68 61t59 16
q14 0 22.5 -14t11.5 -30.5t2 -24.5h3q3 -13 3 -36q0 -20 -2 -40q-1 -41 -32 -80.5t-82 -69.5l-1 -1l37 -45q33 -41 59.5 -69.5t58.5 -49.5h1zM229 272l4 2h-1q12 11 17 13.5t15 2.5q12 0 27 -11l21 12q38 22 62 44t25 39q0 11 1 20t1 17q0 5 -2 17h1q-6 3 -11 3
q-11 0 -25.5 -11t-37.5 -36q-65 -71 -97 -112z" />
    <glyph glyph-name="uni0137" unicode="&#x137;" horiz-adv-x="533" 
d="M494 56l-28 -68h-3q-30 20 -56 48t-67 79q-22 28 -44 53q-3 3 -7 9.5t-6 10.5l-6 -3q-2 -1 -16.5 -10t-31.5 -9q-29 0 -29 49q0 14 3 23q-33 -44 -61 -90q-18 -27 -27 -44t-25 -52q0 -30 -3.5 -46t-11.5 -25q-13 -15 -27 -15q-13 0 -21.5 13.5t-8.5 33.5q0 23 9 42l13 28
q14 73 21.5 106t20.5 81l15 60q24 92 39 155q10 37 31 130l-35 -15q-26 -12 -39 -17h-2l-17 77h2q9 3 46 19q12 7 28 12q24 11 27 13q19 13 30 13q9 0 21 -10q7 -4 7 -32q0 -26 -7 -39.5t-7 -14.5q-13 -82 -32 -156l-39 -155l-15 -59q34 50 68 92t83 96q41 44 68 61t59 16
q14 0 22.5 -14t11.5 -30.5t2 -24.5h3q3 -13 3 -36q0 -20 -2 -40q-1 -41 -32 -80.5t-82 -69.5l-1 -1l37 -45q33 -41 59.5 -69.5t58.5 -49.5h1zM229 272l4 2h-1q12 11 17 13.5t15 2.5q12 0 27 -11l21 12q38 22 62 44t25 39q0 11 1 20t1 17q0 5 -2 17h1q-6 3 -11 3
q-11 0 -25.5 -11t-37.5 -36q-65 -71 -97 -112zM325 -162q0 -21 -21.5 -56.5t-50.5 -64.5l-38 64q28 28 36.5 45t10.5 19l-2 5q-6 19 -11 39q-3 10 -6 16t-8 14l45 50q11 -17 21 -53t11 -40q0 -1 11 -28q2 -6 2 -10z" />
    <glyph glyph-name="l" unicode="l" horiz-adv-x="268" 
d="M231 88h-2q-9 -3 -34 -28q-32 -32 -61.5 -51.5t-66.5 -19.5q-7 0 -25 2q-13 2 -19 17t-6 47l1 24q5 41 16 102q8 44 11 65q11 76 24.5 131.5t38.5 135.5l10 35l16 53q-37 -20 -57 -20h-2v81h2q15 0 52 22l17 10.5l12 7.5q41 17 51 32q0 -1 -4 -10t-4 -34l1 -25
q0 -37 -31 -140q-6 -15 -9 -30q-27 -86 -40 -139t-23 -121q-3 -27 -13 -77q-2 -13 -7 -40t-7 -47v-1q26 1 40.5 11.5t30.5 30.5q16 19 30 31t38 21h2z" />
    <glyph glyph-name="lacute" unicode="&#x13a;" horiz-adv-x="268" 
d="M231 88h-2q-9 -3 -34 -28q-32 -32 -61.5 -51.5t-66.5 -19.5q-7 0 -25 2q-13 2 -19 17t-6 47l1 24q5 41 16 102q8 44 11 65q11 76 24.5 131.5t38.5 135.5l10 35l16 53q-37 -20 -57 -20h-2v81h2q15 0 52 22l17 10.5l12 7.5q41 17 51 32q0 -1 -4 -10t-4 -34l1 -25
q0 -37 -31 -140q-6 -15 -9 -30q-27 -86 -40 -139t-23 -121q-3 -27 -13 -77q-2 -13 -7 -40t-7 -47v-1q26 1 40.5 11.5t30.5 30.5q16 19 30 31t38 21h2zM333 834q6 0 -5 -6t-25 -11q-11 -4 -30 -14q-39 -18 -65.5 -27.5t-55.5 -9.5v60q17 0 34.5 6.5t49.5 21.5q13 7 41 19
q4 2 20.5 11.5t35.5 9.5v-60z" />
    <glyph glyph-name="lcaron" unicode="&#x13e;" horiz-adv-x="268" 
d="M330 706q-4 -20 -14 -48l-16 -42q-4 -8 -8 -20q-2 -6 -7 -32t-12 -35q-1 -1 -5.5 -13t-19.5 -17q-1 -1 -16 19t-19 24q-7 -3 0.5 10.5t13.5 21.5q7 9 9.5 25.5t3.5 22.5q2 11 14 39l11 26q11 30 14 45.5t2 41.5l52 -5q1 -43 -3 -63zM213 164l18 -76h-2q-9 -3 -34 -28
q-32 -32 -61.5 -51.5t-66.5 -19.5q-7 0 -25 2q-13 2 -19 17t-6 47l1 24q5 41 16 102q8 44 11 65q11 76 24.5 131.5t38.5 135.5l10 35l16 53q-37 -20 -57 -20h-2v81h2q15 0 52 22l17 10.5l12 7.5q41 17 51 32q0 -1 -4 -10t-4 -34l1 -25q0 -37 -31 -140q-6 -15 -9 -30
q-27 -86 -40 -139t-23 -121q-3 -27 -13 -77q-2 -13 -7 -40t-7 -47v-1q26 1 40.5 11.5t30.5 30.5q16 19 30 31t38 21h2z" />
    <glyph glyph-name="uni013C" unicode="&#x13c;" horiz-adv-x="268" 
d="M231 88h-2q-9 -3 -34 -28q-32 -32 -61.5 -51.5t-66.5 -19.5q-7 0 -25 2q-13 2 -19 17t-6 47l1 24q5 41 16 102q8 44 11 65q11 76 24.5 131.5t38.5 135.5l10 35l16 53q-37 -20 -57 -20h-2v81h2q15 0 52 22l17 10.5l12 7.5q41 17 51 32q0 -1 -4 -10t-4 -34l1 -25
q0 -37 -31 -140q-6 -15 -9 -30q-27 -86 -40 -139t-23 -121q-3 -27 -13 -77q-2 -13 -7 -40t-7 -47v-1q26 1 40.5 11.5t30.5 30.5q16 19 30 31t38 21h2zM126 -189.5q-22 -29.5 -55 -53.5l-38 48q29 21 37.5 34t9.5 14l-2 3l-11 30q-1 2 -3 7t-4.5 8t-6.5 7l45 38
q10 -12 20 -39t12 -31l11 -21q7 -15 -15 -44.5z" />
    <glyph glyph-name="ldot" unicode="&#x140;" horiz-adv-x="261" 
d="M231 88h-2q-9 -3 -34 -28q-32 -32 -61.5 -51.5t-66.5 -19.5q-7 0 -25 2q-13 2 -19 17t-6 47l1 24q5 41 16 102q8 44 11 65q11 76 24.5 131.5t38.5 135.5l10 35l16 53q-37 -20 -57 -20h-2v81h2q15 0 52 22l17 10.5l12 7.5q41 17 51 32q0 -1 -4 -10t-4 -34l1 -25
q0 -37 -31 -140q-6 -15 -9 -30q-27 -86 -40 -139t-23 -121q-3 -27 -13 -77q-2 -13 -7 -40t-7 -47v-1q26 1 40.5 11.5t30.5 30.5q16 19 30 31t38 21h2zM195 315q-14 14 -28 40l63 57q-2 6 12.5 -9t26.5 -41.5t12 -62.5h-72q0 2 -14 16z" />
    <glyph glyph-name="lslash" unicode="&#x142;" horiz-adv-x="268" 
d="M213 164l18 -76h-2q-9 -3 -34 -28q-32 -32 -61.5 -51.5t-66.5 -19.5q-7 0 -25 2q-13 2 -19 17t-6 47l1 24q5 41 16 102q8 44 11 65l12 73q-8 -5 -26 -17.5t-33 -20t-27 -7.5l-10 52q7 0 19.5 7.5t25.5 17.5q33 25 48 30q6 2 18 4q11 49 36 128l10 35l16 53
q-37 -20 -57 -20h-2v81h2q15 0 52 22l17 10.5l12 7.5q41 17 51 32q0 -1 -4 -10t-4 -34l1 -25q0 -37 -31 -140q-6 -15 -9 -30q-22 -68 -30 -101q10 2 15 4l48.5 23.5t60.5 21.5l10 -52q-6 0 -40.5 -16.5l-48.5 -23.5q-20 -8 -59 -12q-10 -46 -19 -104q-3 -27 -13 -77
q-2 -13 -7 -40t-7 -47v-1q26 1 40.5 11.5t30.5 30.5q16 19 30 31t38 21h2z" />
    <glyph glyph-name="m" unicode="m" horiz-adv-x="885" 
d="M836 67q-55 -55 -132 -81q-8 -2 -14 -4.5l-11 -4.5q-19 -8 -27 -8q-12 0 -24 15q-3 5 -5.5 14.5t-2.5 16.5q0 20 8 33l8 33q8 38 14 54q27 71 43.5 123t25.5 103q2 8 2 11q0 8 -3 18t-4 15h2q-73 23 -71 49q-14 -21 -17 -27q-21 -34 -40 -74l-10 -20q-27 -52 -53 -119
l-21 -52l-14 -34q-7 -29 -10 -38q-3 -13 -21 -55q-2 -4 -2 -6q-5 -14 -6 -11q-25 -51 -37 -51q-14 0 -14 57q0 -1 3 23q2 17 11 40l18 52q13 82 17.5 126t4.5 103l1 37q0 22 -3 30.5t-8.5 15t-9.5 12.5q-3 -12 -10 -23t-13 -15q-26 -45 -42 -77q-30 -58 -51 -89l-30 -44
q-25 -38 -33.5 -49t-15.5 -13l-63 -85l-18 -25q-11 -14 -15 -22l-2 -4q-3 -11 -7 -20q-12 -22 -24 -22q-16 0 -26 48h-2l1 4v3v0q3 9 4 11q1 7 3.5 22t6.5 26q35 127 90 285l11 32q6 15 19 57q-20 -5 -39 -16l-35 -21t-21 -14l-68 -47l-25 70l3 3l61 43q13 8 18 12
q39 25 68.5 39t59.5 14q17 0 32 -5q21 -6 35.5 -9.5t14.5 -5.5q0 -1 -16.5 -15t-31.5 -59q-15 -47 -17 -64t-2.5 -18.5t-5.5 1.5q-6 -25 -18 -50q-19 -54 -44 -132l13 18q28 35 44 44l30 53q16 25 54 94q22 44 42 76q16 26 35 45t28 19q37 1 57 -34t20 -99l-1 -37v-41l21 43
l15 30q29 55 37 69q3 5 29 44q14 23 27 23q12 0 22 -19q6 4 15 4q26 0 53.5 -23t40.5 -76q6 -25 6 -61q-7 -64 -24.5 -121t-46.5 -127q-8 -21 -14 -50q34 11 63 27.5t46 34.5h3z" />
    <glyph glyph-name="n" unicode="n" horiz-adv-x="508" 
d="M464 155q-15 -31 -33 -58.5t-25 -29.5q-1 -22 -14.5 -33.5t-53.5 -30.5l-32 -17q-6 -3 -12 -3q-12 0 -21 11.5t-9 26.5q0 10 6 22l12.5 22t6.5 12q7 29 27 89q15 43 35 89q21 48 30.5 80t9.5 76q0 3 -3 7t-8.5 8.5l-10.5 8.5q-7 -9 -46 -56q-71 -80 -102.5 -120.5
t-68.5 -105.5q-7 -14 -17.5 -31l-15.5 -25l-27 -45q-4 -9 -8 -15.5t-5 -10.5q-2 -10 -2 -15v0q-1 -14 -10 -21.5t-19 -7.5t-17.5 7.5t-7.5 21.5v5v1l-1 9q0 6 1 10l3 12q4 24 12 49.5t10 33.5q20 64 46.5 135.5l51.5 134.5q7 16 17 47h-1q-7 -5 -37 -35q-71 -71 -89 -71h-2
v60h2q1 0 35 34q52 52 61 58l17 12q17 12 30.5 19.5t21.5 7.5q10 0 21 -12q12 -11 12 -30q0 -13 -4.5 -25.5t-8.5 -16.5h1l-8 -30.5t-16 -46.5l-46 -116q31 53 61 93.5t70 83.5l23.5 29t36.5 41.5t27 18.5h2l20 -15q3 -3 18 -16t25 -34t10 -46q0 -62 -12.5 -105.5
t-37.5 -99.5q-16 -36 -28 -67q-5 -15 -8.5 -28t-6.5 -22l2 -4q7 21 25.5 54t34 53t15.5 7h50q0 -13 -15 -44z" />
    <glyph glyph-name="nacute" unicode="&#x144;" horiz-adv-x="508" 
d="M464 155q-15 -31 -33 -58.5t-25 -29.5q-1 -22 -14.5 -33.5t-53.5 -30.5l-32 -17q-6 -3 -12 -3q-12 0 -21 11.5t-9 26.5q0 10 6 22l12.5 22t6.5 12q7 29 27 89q15 43 35 89q21 48 30.5 80t9.5 76q0 3 -3 7t-8.5 8.5l-10.5 8.5q-7 -9 -46 -56q-71 -80 -102.5 -120.5
t-68.5 -105.5q-7 -14 -17.5 -31l-15.5 -25l-27 -45q-4 -9 -8 -15.5t-5 -10.5q-2 -10 -2 -15v0q-1 -14 -10 -21.5t-19 -7.5t-17.5 7.5t-7.5 21.5v5v1l-1 9q0 6 1 10l3 12q4 24 12 49.5t10 33.5q20 64 46.5 135.5l51.5 134.5q7 16 17 47h-1q-7 -5 -37 -35q-71 -71 -89 -71h-2
v60h2q1 0 35 34q52 52 61 58l17 12q17 12 30.5 19.5t21.5 7.5q10 0 21 -12q12 -11 12 -30q0 -13 -4.5 -25.5t-8.5 -16.5h1l-8 -30.5t-16 -46.5l-46 -116q31 53 61 93.5t70 83.5l23.5 29t36.5 41.5t27 18.5h2l20 -15q3 -3 18 -16t25 -34t10 -46q0 -62 -12.5 -105.5
t-37.5 -99.5q-16 -36 -28 -67q-5 -15 -8.5 -28t-6.5 -22l2 -4q7 21 25.5 54t34 53t15.5 7h50q0 -13 -15 -44zM496 758q0 -27 -32 -64.5t-73.5 -66t-67.5 -28.5v70q8 0 63.5 42t55.5 47h54z" />
    <glyph glyph-name="ncaron" unicode="&#x148;" horiz-adv-x="508" 
d="M464 155q-15 -31 -33 -58.5t-25 -29.5q-1 -22 -14.5 -33.5t-53.5 -30.5l-32 -17q-6 -3 -12 -3q-12 0 -21 11.5t-9 26.5q0 10 6 22l12.5 22t6.5 12q7 29 27 89q15 43 35 89q21 48 30.5 80t9.5 76q0 3 -3 7t-8.5 8.5l-10.5 8.5q-7 -9 -46 -56q-71 -80 -102.5 -120.5
t-68.5 -105.5q-7 -14 -17.5 -31l-15.5 -25l-27 -45q-4 -9 -8 -15.5t-5 -10.5q-2 -10 -2 -15v0q-1 -14 -10 -21.5t-19 -7.5t-17.5 7.5t-7.5 21.5v5v1l-1 9q0 6 1 10l3 12q4 24 12 49.5t10 33.5q20 64 46.5 135.5l51.5 134.5q7 16 17 47h-1q-7 -5 -37 -35q-71 -71 -89 -71h-2
v60h2q1 0 35 34q52 52 61 58l17 12q17 12 30.5 19.5t21.5 7.5q10 0 21 -12q12 -11 12 -30q0 -13 -4.5 -25.5t-8.5 -16.5h1l-8 -30.5t-16 -46.5l-46 -116q31 53 61 93.5t70 83.5l23.5 29t36.5 41.5t27 18.5h2l20 -15q3 -3 18 -16t25 -34t10 -46q0 -62 -12.5 -105.5
t-37.5 -99.5q-16 -36 -28 -67q-5 -15 -8.5 -28t-6.5 -22l2 -4q7 21 25.5 54t34 53t15.5 7h50q0 -13 -15 -44zM505 806q-14 -40 -24.5 -57t-29.5 -41l-30 -34q-11 -11 -15 -16q-2 -3 -16 -26.5t-24 -30.5l-10 -10.5t-24 -9.5q-18 0 -29.5 17.5t-11.5 40.5v19l1 -17
q-1 6 -0.5 14t0.5 12q0 12 -3 22q-20 54 -20 146h50q0 -82 20 -141q4 -13 2 -32q8 7 15 20t10 18q6 9 27 32q14 14 19 21q21 24 29 37t16 38z" />
    <glyph glyph-name="uni0146" unicode="&#x146;" horiz-adv-x="508" 
d="M464 155q-15 -31 -33 -58.5t-25 -29.5q-1 -22 -14.5 -33.5t-53.5 -30.5l-32 -17q-6 -3 -12 -3q-12 0 -21 11.5t-9 26.5q0 10 6 22l12.5 22t6.5 12q7 29 27 89q15 43 35 89q21 48 30.5 80t9.5 76q0 3 -3 7t-8.5 8.5l-10.5 8.5q-7 -9 -46 -56q-71 -80 -102.5 -120.5
t-68.5 -105.5q-7 -14 -17.5 -31l-15.5 -25l-27 -45q-4 -9 -8 -15.5t-5 -10.5q-2 -10 -2 -15v0q-1 -14 -10 -21.5t-19 -7.5t-17.5 7.5t-7.5 21.5v5v1l-1 9q0 6 1 10l3 12q4 24 12 49.5t10 33.5q20 64 46.5 135.5l51.5 134.5q7 16 17 47h-1q-7 -5 -37 -35q-71 -71 -89 -71h-2
v60h2q1 0 35 34q52 52 61 58l17 12q17 12 30.5 19.5t21.5 7.5q10 0 21 -12q12 -11 12 -30q0 -13 -4.5 -25.5t-8.5 -16.5h1l-8 -30.5t-16 -46.5l-46 -116q31 53 61 93.5t70 83.5l23.5 29t36.5 41.5t27 18.5h2l20 -15q3 -3 18 -16t25 -34t10 -46q0 -62 -12.5 -105.5
t-37.5 -99.5q-16 -36 -28 -67q-5 -15 -8.5 -28t-6.5 -22l2 -4q7 21 25.5 54t34 53t15.5 7h50q0 -13 -15 -44zM215 -162q0 -21 -21.5 -56.5t-50.5 -64.5l-38 64q28 28 36.5 45t10.5 19l-2 5q-6 19 -11 39q-3 10 -6 16t-8 14l45 50q11 -17 21 -53t11 -40q0 -1 11 -28
q2 -6 2 -10z" />
    <glyph glyph-name="eng" unicode="&#x14b;" horiz-adv-x="485" 
d="M410 491q15 -13 25 -34t10 -46q0 -62 -12.5 -105.5t-37.5 -99.5q-16 -36 -28 -67q-10 -32 -14 -48l-12 -39q-7 -21 -14 -32.5t-8 -13.5h-4l-24 -79q-2 -7 -5.5 -25t-10.5 -33t-18 -26q-22 -22 -64.5 -43.5t-64.5 -21.5v72q17 0 50 18t41 26q8 7 9.5 10.5t3.5 12.5l3 12.5
t5 17.5q10 36 28 93q7 23 14.5 34t8.5 12q8 29 25 80q15 43 35 89q21 48 30.5 80t9.5 76q0 3 -3 7t-8.5 8.5l-10.5 8.5q-7 -9 -46 -56q-71 -80 -102.5 -120.5t-68.5 -105.5q-7 -14 -17.5 -31l-15.5 -25l-27 -45q-4 -9 -8 -15.5t-5 -10.5q-2 -10 -2 -15v0q-1 -14 -10 -21.5
t-19 -7.5t-17.5 7.5t-7.5 21.5v5v1l-1 9q0 6 1 10l3 12q4 24 12 49.5t10 33.5q20 64 46.5 135.5l51.5 134.5q7 16 17 47h-1q-7 -5 -37 -35q-71 -71 -89 -71h-2v60h2q1 0 35 34q52 52 61 58l17 12q17 12 30.5 19.5t21.5 7.5q10 0 21 -12q12 -11 12 -30q0 -13 -4.5 -25.5
t-8.5 -16.5h1l-8 -30.5t-16 -46.5l-46 -116q31 53 61 93.5t70 83.5l23.5 29t36.5 41.5t27 18.5h2l20 -15q3 -3 18 -16zM316 8q2 6 2 7z" />
    <glyph glyph-name="ntilde" unicode="&#xf1;" horiz-adv-x="508" 
d="M464 155q-15 -31 -33 -58.5t-25 -29.5q-1 -22 -14.5 -33.5t-53.5 -30.5l-32 -17q-6 -3 -12 -3q-12 0 -21 11.5t-9 26.5q0 10 6 22l12.5 22t6.5 12q7 29 27 89q15 43 35 89q21 48 30.5 80t9.5 76q0 3 -3 7t-8.5 8.5l-10.5 8.5q-7 -9 -46 -56q-71 -80 -102.5 -120.5
t-68.5 -105.5q-7 -14 -17.5 -31l-15.5 -25l-27 -45q-4 -9 -8 -15.5t-5 -10.5q-2 -10 -2 -15v0q-1 -14 -10 -21.5t-19 -7.5t-17.5 7.5t-7.5 21.5v5v1l-1 9q0 6 1 10l3 12q4 24 12 49.5t10 33.5q20 64 46.5 135.5l51.5 134.5q7 16 17 47h-1q-7 -5 -37 -35q-71 -71 -89 -71h-2
v60h2q1 0 35 34q52 52 61 58l17 12q17 12 30.5 19.5t21.5 7.5q10 0 21 -12q12 -11 12 -30q0 -13 -4.5 -25.5t-8.5 -16.5h1l-8 -30.5t-16 -46.5l-46 -116q31 53 61 93.5t70 83.5l23.5 29t36.5 41.5t27 18.5h2l20 -15q3 -3 18 -16t25 -34t10 -46q0 -62 -12.5 -105.5
t-37.5 -99.5q-16 -36 -28 -67q-5 -15 -8.5 -28t-6.5 -22l2 -4q7 21 25.5 54t34 53t15.5 7h50q0 -13 -15 -44zM540 731q0 -33 -18.5 -63.5t-48.5 -49.5t-62 -19q-5 0 -19 2q-16 3 -33 16t-40 35q-24 22 -30 25q-10 5 -23 5q-30 0 -46 -33q-4 -10 -10 -10q-4 0 -6 3t-2 7
l-44 -10q0 17 6.5 29t7.5 13q17 35 41.5 54t52.5 19q24 0 49 -14q17 -9 41 -35q16 -16 25 -23t22 -10q1 -1 3.5 -6t4.5 -5q16 0 33.5 11.5t29.5 28.5t12 30h54z" />
    <glyph glyph-name="o" unicode="o" horiz-adv-x="381" 
d="M362 475q0 -9 -2 -27l-3 -23q-2 -28 -6 -62t-5 -47l-3 -24l-6.5 -57t-16.5 -91q14 18 18 18q6 0 -11.5 -34.5t-45.5 -75t-53 -62.5q-9 -8 -14 -10t-14 -2l-84 1q-8 4 -15.5 6.5t-12.5 4.5q-30 11 -47 21t-25.5 26.5t-8.5 42.5q0 57 28 141q3 7 15 52q20 68 38.5 112
t52.5 80v0q-11 5 -11 8t8.5 7t22.5 9q32 12 69 17t88 5h2l-2 -20l20 21h1q23 0 23 -37zM237 109l16 17q13 21 21.5 57.5t15.5 111.5q1 17 5 51q6 56 8 79v5q-85 0 -128 -17l2 -1h1q-32 -34 -48.5 -73.5t-33.5 -102.5l-10 -34q-2 -9 -11.5 -44t-12.5 -65v-11q0 -13 8 -18
q2 0 16 -2t36 -2l68 -1h6q16 25 41 50z" />
    <glyph glyph-name="oacute" unicode="&#xf3;" horiz-adv-x="381" 
d="M362 475q0 -9 -2 -27l-3 -23q-2 -28 -6 -62t-5 -47l-3 -24l-6.5 -57t-16.5 -91q14 18 18 18q6 0 -11.5 -34.5t-45.5 -75t-53 -62.5q-9 -8 -14 -10t-14 -2l-84 1q-8 4 -15.5 6.5t-12.5 4.5q-30 11 -47 21t-25.5 26.5t-8.5 42.5q0 57 28 141q3 7 15 52q20 68 38.5 112
t52.5 80v0q-11 5 -11 8t8.5 7t22.5 9q32 12 69 17t88 5h2l-2 -20l20 21h1q23 0 23 -37zM237 109l16 17q13 21 21.5 57.5t15.5 111.5q1 17 5 51q6 56 8 79v5q-85 0 -128 -17l2 -1h1q-32 -34 -48.5 -73.5t-33.5 -102.5l-10 -34q-2 -9 -11.5 -44t-12.5 -65v-11q0 -13 8 -18
q2 0 16 -2t36 -2l68 -1h6q16 25 41 50zM428 758q0 -27 -32 -64.5t-73.5 -66t-67.5 -28.5v70q8 0 63.5 42t55.5 47h54z" />
    <glyph glyph-name="ocircumflex" unicode="&#xf4;" horiz-adv-x="381" 
d="M362 475q0 -9 -2 -27l-3 -23q-2 -28 -6 -62t-5 -47l-3 -24l-6.5 -57t-16.5 -91q14 18 18 18q6 0 -11.5 -34.5t-45.5 -75t-53 -62.5q-9 -8 -14 -10t-14 -2l-84 1q-8 4 -15.5 6.5t-12.5 4.5q-30 11 -47 21t-25.5 26.5t-8.5 42.5q0 57 28 141q3 7 15 52q20 68 38.5 112
t52.5 80v0q-11 5 -11 8t8.5 7t22.5 9q32 12 69 17t88 5h2l-2 -20l20 21h1q23 0 23 -37zM237 109l16 17q13 21 21.5 57.5t15.5 111.5q1 17 5 51q6 56 8 79v5q-85 0 -128 -17l2 -1h1q-32 -34 -48.5 -73.5t-33.5 -102.5l-10 -34q-2 -9 -11.5 -44t-12.5 -65v-11q0 -13 8 -18
q2 0 16 -2t36 -2l68 -1h6q16 25 41 50zM407 592h-50q0 82 -20 141q-3 8 -3 18.5v13.5q-8 -7 -15.5 -20.5t-9.5 -17.5q-3 -6 -12 -16.5t-14 -15.5l-20 -21q-21 -25 -29 -38t-15 -37l-48 22q13 41 24 58.5t30 39.5l30 34q6 6 14 16q3 4 17 27.5t24 29.5l10 10.5t24 9.5
q18 0 29.5 -17.5t11.5 -40.5v-19l-1 17q1 -6 0.5 -14t-0.5 -12q0 -15 3 -22q20 -58 20 -146z" />
    <glyph glyph-name="odieresis" unicode="&#xf6;" horiz-adv-x="381" 
d="M362 475q0 -9 -2 -27l-3 -23q-2 -28 -6 -62t-5 -47l-3 -24l-6.5 -57t-16.5 -91q14 18 18 18q6 0 -11.5 -34.5t-45.5 -75t-53 -62.5q-9 -8 -14 -10t-14 -2l-84 1q-8 4 -15.5 6.5t-12.5 4.5q-30 11 -47 21t-25.5 26.5t-8.5 42.5q0 57 28 141q3 7 15 52q20 68 38.5 112
t52.5 80v0q-11 5 -11 8t8.5 7t22.5 9q32 12 69 17t88 5h2l-2 -20l20 21h1q23 0 23 -37zM237 109l16 17q13 21 21.5 57.5t15.5 111.5q1 17 5 51q6 56 8 79v5q-85 0 -128 -17l2 -1h1q-32 -34 -48.5 -73.5t-33.5 -102.5l-10 -34q-2 -9 -11.5 -44t-12.5 -65v-11q0 -13 8 -18
q2 0 16 -2t36 -2l68 -1h6q16 25 41 50zM147 617q0 33 10.5 57t24.5 38t11 8l57 -52q-13 -23 -25.5 -36t-12.5 -15h-65zM324 617q0 33 10.5 57t24.5 38t11 8l57 -52q-13 -23 -25.5 -36t-12.5 -15h-65z" />
    <glyph glyph-name="ograve" unicode="&#xf2;" horiz-adv-x="381" 
d="M362 475q0 -9 -2 -27l-3 -23q-2 -28 -6 -62t-5 -47l-3 -24l-6.5 -57t-16.5 -91q14 18 18 18q6 0 -11.5 -34.5t-45.5 -75t-53 -62.5q-9 -8 -14 -10t-14 -2l-84 1q-8 4 -15.5 6.5t-12.5 4.5q-30 11 -47 21t-25.5 26.5t-8.5 42.5q0 57 28 141q3 7 15 52q20 68 38.5 112
t52.5 80v0q-11 5 -11 8t8.5 7t22.5 9q32 12 69 17t88 5h2l-2 -20l20 21h1q23 0 23 -37zM237 109l16 17q13 21 21.5 57.5t15.5 111.5q1 17 5 51q6 56 8 79v5q-85 0 -128 -17l2 -1h1q-32 -34 -48.5 -73.5t-33.5 -102.5l-10 -34q-2 -9 -11.5 -44t-12.5 -65v-11q0 -13 8 -18
q2 0 16 -2t36 -2l68 -1h6q16 25 41 50zM301 571q-42 41 -78.5 103t-36.5 95h54q0 -10 36 -62.5t63 -79.5z" />
    <glyph glyph-name="ohungarumlaut" unicode="&#x151;" horiz-adv-x="381" 
d="M362 475q0 -9 -2 -27l-3 -23q-2 -28 -6 -62t-5 -47l-3 -24l-6.5 -57t-16.5 -91q14 18 18 18q6 0 -11.5 -34.5t-45.5 -75t-53 -62.5q-9 -8 -14 -10t-14 -2l-84 1q-8 4 -15.5 6.5t-12.5 4.5q-30 11 -47 21t-25.5 26.5t-8.5 42.5q0 57 28 141q3 7 15 52q20 68 38.5 112
t52.5 80v0q-11 5 -11 8t8.5 7t22.5 9q32 12 69 17t88 5h2l-2 -20l20 21h1q23 0 23 -37zM237 109l16 17q13 21 21.5 57.5t15.5 111.5q1 17 5 51q6 56 8 79v5q-85 0 -128 -17l2 -1h1q-32 -34 -48.5 -73.5t-33.5 -102.5l-10 -34q-2 -9 -11.5 -44t-12.5 -65v-11q0 -13 8 -18
q2 0 16 -2t36 -2l68 -1h6q16 25 41 50zM504 758q0 -27 -32 -64.5t-73.5 -66t-67.5 -28.5v70q8 0 63.5 42t55.5 47h54zM332 758q0 -27 -32 -64.5t-73.5 -66t-67.5 -28.5v70q8 0 63.5 42t55.5 47h54z" />
    <glyph glyph-name="omacron" unicode="&#x14d;" horiz-adv-x="381" 
d="M362 475q0 -9 -2 -27l-3 -23q-2 -28 -6 -62t-5 -47l-3 -24l-6.5 -57t-16.5 -91q14 18 18 18q6 0 -11.5 -34.5t-45.5 -75t-53 -62.5q-9 -8 -14 -10t-14 -2l-84 1q-8 4 -15.5 6.5t-12.5 4.5q-30 11 -47 21t-25.5 26.5t-8.5 42.5q0 57 28 141q3 7 15 52q20 68 38.5 112
t52.5 80v0q-11 5 -11 8t8.5 7t22.5 9q32 12 69 17t88 5h2l-2 -20l20 21h1q23 0 23 -37zM237 109l16 17q13 21 21.5 57.5t15.5 111.5q1 17 5 51q6 56 8 79v5q-85 0 -128 -17l2 -1h1q-32 -34 -48.5 -73.5t-33.5 -102.5l-10 -34q-2 -9 -11.5 -44t-12.5 -65v-11q0 -13 8 -18
q2 0 16 -2t36 -2l68 -1h6q16 25 41 50zM380 605q-31 -4 -66 -4q-25 0 -44 1t-32 2q-52 4 -84 4v62q49 -6 94 -6q25 0 77 2q42 2 65 2z" />
    <glyph glyph-name="oslash" unicode="&#xf8;" horiz-adv-x="448" 
d="M472 579l-10 -62q-8 0 -28.5 -26.5l-57.5 -77.5q-2 -33 -10 -97l-3 -24l-6.5 -57t-16.5 -91q14 18 18 18q6 0 -11.5 -34.5t-45.5 -75t-53 -62.5q-9 -8 -14 -10t-14 -2l-84 1q-11 5 -22 9t-23 9q-44 -86 -84 -134l-31 37q37 45 75 118q-24 21 -24 62q0 57 28 141
q3 7 15 52q20 68 38.5 112t52.5 80v0q-11 5 -11 8t8.5 7t22.5 9q32 12 69 17t88 5h2l-2 -20l20 21h1q13 0 19 -12q64 79 94 79zM82 81q30 66 62 112q22 33 51 71l57 72l57 72q3 3 6 8t8 11v3q-85 0 -128 -17l2 -1h1q-31 -33 -47 -71.5t-35 -104.5l-10 -34q-2 -9 -11.5 -44
t-12.5 -65v-12zM257 109l16 17q13 21 21.5 57.5t15.5 111.5l3 32q-26 -32 -38 -48q-75 -95 -97 -126q-25 -37 -54 -93h18l68 -1h6q16 25 41 50z" />
    <glyph glyph-name="otilde" unicode="&#xf5;" horiz-adv-x="381" 
d="M362 475q0 -9 -2 -27l-3 -23q-2 -28 -6 -62t-5 -47l-3 -24l-6.5 -57t-16.5 -91q14 18 18 18q6 0 -11.5 -34.5t-45.5 -75t-53 -62.5q-9 -8 -14 -10t-14 -2l-84 1q-8 4 -15.5 6.5t-12.5 4.5q-30 11 -47 21t-25.5 26.5t-8.5 42.5q0 57 28 141q3 7 15 52q20 68 38.5 112
t52.5 80v0q-11 5 -11 8t8.5 7t22.5 9q32 12 69 17t88 5h2l-2 -20l20 21h1q23 0 23 -37zM237 109l16 17q13 21 21.5 57.5t15.5 111.5q1 17 5 51q6 56 8 79v5q-85 0 -128 -17l2 -1h1q-32 -34 -48.5 -73.5t-33.5 -102.5l-10 -34q-2 -9 -11.5 -44t-12.5 -65v-11q0 -13 8 -18
q2 0 16 -2t36 -2l68 -1h6q16 25 41 50zM472 731q0 -33 -18.5 -63.5t-48.5 -49.5t-62 -19q-5 0 -19 2q-16 3 -33 16t-40 35q-24 22 -30 25q-10 5 -23 5q-30 0 -46 -33q-4 -10 -10 -10q-4 0 -6 3t-2 7l-44 -10q0 17 6.5 29t7.5 13q17 35 41.5 54t52.5 19q24 0 49 -14
q17 -9 41 -35q16 -16 25 -23t22 -10q1 -1 3.5 -6t4.5 -5q16 0 33.5 11.5t29.5 28.5t12 30h54z" />
    <glyph glyph-name="oe" unicode="&#x153;" horiz-adv-x="625" 
d="M327 178q0 -11 2 -23q7 7 9 7l1 -3q0 -5 -6 -19l3 -9q-1 -5 16.5 -22.5t37.5 -32.5l8 -6q35 -5 51 -5h18l63 72l42 -51l-74 -86h1q-13 -16 -50 -16q-24 0 -47 5t-34 13q-16 12 -37 34t-34 41q-36 -60 -69 -87q-9 -8 -14 -10t-14 -2l-84 1q-8 4 -15.5 6.5t-12.5 4.5
q-30 11 -47 21t-25.5 26.5t-8.5 42.5q0 57 28 141q3 7 15 52q20 68 38.5 112t52.5 80v0q-11 5 -11 8t8.5 7t22.5 9q32 12 69 17t88 5h2l-2 -20l20 21h1q18 0 22 -21q8 12 15 17q7 6 16.5 10t27.5 9q17 3 31 3q29 0 59.5 -25.5t61.5 -62.5q20 -21 20 -39q0 -4 -2 -12
q-6 -15 -16.5 -25l-12.5 -12q-43 -50 -94 -87t-120 -75q-11 -6 -19 -8zM349 341l-6 -49l-2 -19q58 28 96 54t81 78l2 2q-14 17 -33.5 30t-35.5 13q-19 0 -23 -2q-2 -1 -5 -1q-9 0 -13.5 6t-3.5 12q-33 -32 -57 -124zM237 109l16 17q12 24 15 35q-21 -7 -27 -7h-2v80h2
q2 0 36 12q4 38 16 86q8 65 10 93v5q-85 0 -128 -17l2 -1h1q-32 -34 -48.5 -73.5t-33.5 -102.5l-10 -34q-2 -9 -11.5 -44t-12.5 -65v-11q0 -13 8 -18q2 0 16 -2t36 -2l68 -1h6q16 25 41 50z" />
    <glyph glyph-name="p" unicode="p" horiz-adv-x="403" 
d="M398.5 513.5q3.5 -13.5 3.5 -52.5q0 -92 -34 -208q-19 -63 -61.5 -138t-68.5 -91q-21 -13 -46.5 -20.5t-62.5 -10.5q-14 -78 -20 -125.5t-6 -99.5h-54q0 55 6 106.5t17 116.5h-21h-31h-2v81h2h31h35l6 41q10 69 19 117.5t24 92.5l9 29l-32 -15q-12 -10 -22 -20
q-19 -19 -35 -30.5t-31 -11.5h-2v81h2q9 0 18.5 6t20.5 15.5t18 14.5q38 28 99 62l34 83q23 56 35 76.5t13 24.5h3l48 -22h2q-8 -29 -29.5 -69.5t-22.5 -43.5l-4 -8v0q5 2 25.5 13.5t41.5 18.5t36 7q8 0 20 -3q13 -4 16.5 -17.5zM268 173q36 66 48 104q30 101 31 169
l-132 -61q-7 -19 -14 -41l-15 -46q-14 -44 -23 -89.5t-17 -106.5q-2 -16 -4 -26q47 4 67 16q23 15 59 81z" />
    <glyph glyph-name="thorn" unicode="&#xfe;" horiz-adv-x="403" 
d="M398.5 513.5q3.5 -13.5 3.5 -52.5q0 -92 -34 -208q-19 -63 -61.5 -138t-68.5 -91q-21 -13 -46.5 -20.5t-62.5 -10.5q-14 -78 -20 -125.5t-6 -99.5h-54q0 55 6 106.5t17 116.5h-21h-31h-2v81h2h31h35l6 41q10 69 19 117.5t24 92.5l9 29l-32 -15q-12 -10 -22 -20
q-19 -19 -35 -30.5t-31 -11.5h-2v81h2q9 0 18.5 6t20.5 15.5t18 14.5q39 29 102 63q22 56 31 82q50 150 63.5 179.5t14.5 31.5h3l48 -22h2q-6 -22 -37 -106t-45 -117l-4 -8v0q5 2 25.5 13.5t41.5 18.5t36 7q8 0 20 -3q13 -4 16.5 -17.5zM268 173q36 66 48 104q30 101 31 169
l-132 -61q-7 -19 -14 -41l-15 -46q-14 -44 -23 -89.5t-17 -106.5q-2 -16 -4 -26q47 4 67 16q23 15 59 81z" />
    <glyph glyph-name="q" unicode="q" horiz-adv-x="457" 
d="M411 453q10 0 16.5 -8t6.5 -22q0 -17 -10 -37l-1 -4v0v0q-4 -8 -7.5 -18t-5.5 -15l-42 -106q-17 -43 -26.5 -85.5t-20.5 -106.5q-15 -81 -24 -117q-15 -53 -24 -74q28 -2 43 -2h2v-61h-2q-26 0 -52 3q-32 2 -50 2h-43h-47q-2 20 -5.5 36t-3.5 22t7 6q4 0 17.5 -1.5
t31.5 -1.5h33l-2 2q3 7 8.5 13.5t9.5 9.5q14 26 24 67q14 50 27 130l12 63q-48 -62 -115 -106q-89 -58 -126 -58q-32 0 -32 72q0 39 7 102q14 112 52 193.5t103 139.5q25 22 40 30.5t31 8.5q13 0 28.5 -7.5t51.5 -31.5q23 -16 46 -24h2l2 -22l-21 -53h-3q-66 40 -82 48.5
t-24 8.5t-15 -3.5t-20 -15.5q-61 -54 -94.5 -119t-43.5 -167q0 -9 -2 -28.5t-3 -46.5l41.5 22.5t32.5 18.5q45 31 75.5 63t51 62.5t54.5 88.5l22 39l12 24q20 42 30 51q14 15 27 15z" />
    <glyph glyph-name="r" unicode="r" horiz-adv-x="403" 
d="M417 411l-51 2q-13 -5 -32 -31t-65 -97q-20 -30 -43 -60l-29 -38q-46 -60 -60 -83l-54 -69l-4 -18h-1q0 -20 -9 -37t-21 -17h-1l-54 20h-1v1q-1 2 -1 7q-1 14 8 30t22 33t14 20l16 61l14 53q7 30 24 79q3 9 6 19l6 20l9 32l14 48q-55 -48 -64 -52h-2l-23 72h1
q9 4 30.5 22l53.5 47q34 30 56 40q9 5 16 5t11.5 -4t9.5 -11.5t8 -11.5q11 -16 11 -27q0 -10 -7 -14t-12 -1q-17 -33 -29 -67q-12 -32 -23 -75l-4 -13.5t-3 -11.5q-9 -32 -18 -57q-6 -13 -9 -27q28 38 42 55q41 54 54 74q43 67 73 109.5t52 50.5q26 8 38 8q15 0 43 -9h2z
" />
    <glyph glyph-name="racute" unicode="&#x155;" horiz-adv-x="403" 
d="M417 411l-51 2q-13 -5 -32 -31t-65 -97q-20 -30 -43 -60l-29 -38q-46 -60 -60 -83l-54 -69l-4 -18h-1q0 -20 -9 -37t-21 -17h-1l-54 20h-1v1q-1 2 -1 7q-1 14 8 30t22 33t14 20l16 61l14 53q7 30 24 79q3 9 6 19l6 20l9 32l14 48q-55 -48 -64 -52h-2l-23 72h1
q9 4 30.5 22l53.5 47q34 30 56 40q9 5 16 5t11.5 -4t9.5 -11.5t8 -11.5q11 -16 11 -27q0 -10 -7 -14t-12 -1q-17 -33 -29 -67q-12 -32 -23 -75l-4 -13.5t-3 -11.5q-9 -32 -18 -57q-6 -13 -9 -27q28 38 42 55q41 54 54 74q43 67 73 109.5t52 50.5q26 8 38 8q15 0 43 -9h2z
M455 748q0 -27 -32 -64.5t-73.5 -66t-67.5 -28.5v70q8 0 63.5 42t55.5 47h54z" />
    <glyph glyph-name="rcaron" unicode="&#x159;" horiz-adv-x="403" 
d="M417 411l-51 2q-13 -5 -32 -31t-65 -97q-20 -30 -43 -60l-29 -38q-46 -60 -60 -83l-54 -69l-4 -18h-1q0 -20 -9 -37t-21 -17h-1l-54 20h-1v1q-1 2 -1 7q-1 14 8 30t22 33t14 20l16 61l14 53q7 30 24 79q3 9 6 19l6 20l9 32l14 48q-55 -48 -64 -52h-2l-23 72h1
q9 4 30.5 22l53.5 47q34 30 56 40q9 5 16 5t11.5 -4t9.5 -11.5t8 -11.5q11 -16 11 -27q0 -10 -7 -14t-12 -1q-17 -33 -29 -67q-12 -32 -23 -75l-4 -13.5t-3 -11.5q-9 -32 -18 -57q-6 -13 -9 -27q28 38 42 55q41 54 54 74q43 67 73 109.5t52 50.5q26 8 38 8q15 0 43 -9h2z
M464 796q-14 -40 -24.5 -57t-29.5 -41l-30 -34q-11 -11 -15 -16q-2 -3 -16 -26.5t-24 -30.5l-10 -10.5t-24 -9.5q-18 0 -29.5 17.5t-11.5 40.5v19l1 -17q-1 6 -0.5 14t0.5 12q0 12 -3 22q-20 54 -20 146h50q0 -82 20 -141q4 -13 2 -32q8 7 15 20t10 18q6 9 27 32
q14 14 19 21q21 24 29 37t16 38z" />
    <glyph glyph-name="uni0157" unicode="&#x157;" horiz-adv-x="403" 
d="M417 411l-51 2q-13 -5 -32 -31t-65 -97q-20 -30 -43 -60l-29 -38q-46 -60 -60 -83l-54 -69l-4 -18h-1q0 -20 -9 -37t-21 -17h-1l-54 20h-1v1q-1 2 -1 7q-1 14 8 30t22 33t14 20l16 61l14 53q7 30 24 79q3 9 6 19l6 20l9 32l14 48q-55 -48 -64 -52h-2l-23 72h1
q9 4 30.5 22l53.5 47q34 30 56 40q9 5 16 5t11.5 -4t9.5 -11.5t8 -11.5q11 -16 11 -27q0 -10 -7 -14t-12 -1q-17 -33 -29 -67q-12 -32 -23 -75l-4 -13.5t-3 -11.5q-9 -32 -18 -57q-6 -13 -9 -27q28 38 42 55q41 54 54 74q43 67 73 109.5t52 50.5q26 8 38 8q15 0 43 -9h2z
M138 -189.5q-22 -29.5 -55 -53.5l-38 48q29 21 37.5 34t9.5 14l-2 3l-11 30q-1 2 -3 7t-4.5 8t-6.5 7l45 38q10 -12 20 -39t12 -31l11 -21q7 -15 -15 -44.5z" />
    <glyph glyph-name="s" unicode="s" horiz-adv-x="327" 
d="M332 399q-7 -11 -19 -11h-2l-21 30h1q-8 3 -11 8t-5.5 8t-11.5 3q-6 0 -18.5 0.5t-20 -12.5l-19.5 -35q-10 -19 -10 -42t10 -91q4 -27 7.5 -57t3.5 -53q0 -46 -11 -74q-16 -38 -28 -60.5t-32 -28.5q-13 -4 -25 -4q-30 0 -59.5 16.5t-49 43.5t-20.5 56h53l73 -35h8
q6 2 8.5 6t6.5 14l13 28q9 18 9 37q0 24 -10 90q-1 6 -6 43t-5 69q0 57 15 84q4 8 14 31.5t31.5 39t57.5 15.5q17 0 36 -14.5t31.5 -35.5t12.5 -39q0 -19 -7 -30z" />
    <glyph glyph-name="sacute" unicode="&#x15b;" horiz-adv-x="327" 
d="M332 399q-7 -11 -19 -11h-2l-21 30h1q-8 3 -11 8t-5.5 8t-11.5 3q-6 0 -18.5 0.5t-20 -12.5l-19.5 -35q-10 -19 -10 -42t10 -91q4 -27 7.5 -57t3.5 -53q0 -46 -11 -74q-16 -38 -28 -60.5t-32 -28.5q-13 -4 -25 -4q-30 0 -59.5 16.5t-49 43.5t-20.5 56h53l73 -35h8
q6 2 8.5 6t6.5 14l13 28q9 18 9 37q0 24 -10 90q-1 6 -6 43t-5 69q0 57 15 84q4 8 14 31.5t31.5 39t57.5 15.5q17 0 36 -14.5t31.5 -35.5t12.5 -39q0 -19 -7 -30zM429 753q0 -27 -32 -64.5t-73.5 -66t-67.5 -28.5v70q8 0 63.5 42t55.5 47h54z" />
    <glyph glyph-name="scaron" unicode="&#x161;" horiz-adv-x="327" 
d="M332 399q-7 -11 -19 -11h-2l-21 30h1q-8 3 -11 8t-5.5 8t-11.5 3q-6 0 -18.5 0.5t-20 -12.5l-19.5 -35q-10 -19 -10 -42t10 -91q4 -27 7.5 -57t3.5 -53q0 -46 -11 -74q-16 -38 -28 -60.5t-32 -28.5q-13 -4 -25 -4q-30 0 -59.5 16.5t-49 43.5t-20.5 56h53l73 -35h8
q6 2 8.5 6t6.5 14l13 28q9 18 9 37q0 24 -10 90q-1 6 -6 43t-5 69q0 57 15 84q4 8 14 31.5t31.5 39t57.5 15.5q17 0 36 -14.5t31.5 -35.5t12.5 -39q0 -19 -7 -30zM439 801q-14 -40 -24.5 -57t-29.5 -41l-30 -34q-11 -11 -15 -16q-2 -3 -16 -26.5t-24 -30.5l-10 -10.5
t-24 -9.5q-18 0 -29.5 17.5t-11.5 40.5v19l1 -17q-1 6 -0.5 14t0.5 12q0 12 -3 22q-20 54 -20 146h50q0 -82 20 -141q4 -13 2 -32q8 7 15 20t10 18q6 9 27 32q14 14 19 21q21 24 29 37t16 38z" />
    <glyph glyph-name="scedilla" unicode="&#x15f;" horiz-adv-x="327" 
d="M332 399q-7 -11 -19 -11h-2l-21 30h1q-8 3 -11 8t-5.5 8t-11.5 3q-6 0 -18.5 0.5t-20 -12.5l-19.5 -35q-10 -19 -10 -42t10 -91q4 -27 7.5 -57t3.5 -53q0 -46 -11 -74q-16 -38 -28 -60.5t-32 -28.5q-13 -4 -25 -4h-8q-5 -21 -10 -33l-1 -3q2 1 8 1q42 0 60.5 -19.5
t18.5 -57.5q0 -18 -5 -38q-9 -31 -51 -47t-105 -16q-21 0 -36 6q-17 9 -25 15t-14 20l50 21l12 -4l-2 1q1 1 5.5 0.5t9.5 -0.5l104 17q3 10 3 25q0 6 -8.5 11.5t-16.5 5.5q-12 0 -26 -2q-18 -5 -33 12t-15 41q0 11 5 26l13 28q2 6 4 9q-28 16 -46.5 42.5t-19.5 54.5h53
l73 -35h8q6 2 8.5 6t6.5 14l13 28q9 18 9 37q0 24 -10 90q-1 6 -6 43t-5 69q0 57 15 84q4 8 14 31.5t31.5 39t57.5 15.5q17 0 36 -14.5t31.5 -35.5t12.5 -39q0 -19 -7 -30z" />
    <glyph glyph-name="uni0219" unicode="&#x219;" horiz-adv-x="327" 
d="M332 399q-7 -11 -19 -11h-2l-21 30h1q-8 3 -11 8t-5.5 8t-11.5 3q-6 0 -18.5 0.5t-20 -12.5l-19.5 -35q-10 -19 -10 -42t10 -91q4 -27 7.5 -57t3.5 -53q0 -46 -11 -74q-16 -38 -28 -60.5t-32 -28.5q-13 -4 -25 -4q-30 0 -59.5 16.5t-49 43.5t-20.5 56h53l73 -35h8
q6 2 8.5 6t6.5 14l13 28q9 18 9 37q0 24 -10 90q-1 6 -6 43t-5 69q0 57 15 84q4 8 14 31.5t31.5 39t57.5 15.5q17 0 36 -14.5t31.5 -35.5t12.5 -39q0 -19 -7 -30zM95 -199.5q-22 -29.5 -55 -53.5l-38 48q29 21 37.5 34t9.5 14l-2 3l-11 30q-1 2 -3 7t-4.5 8t-6.5 7l45 38
q10 -12 20 -39t12 -31l11 -21q7 -15 -15 -44.5z" />
    <glyph glyph-name="germandbls" unicode="&#xdf;" horiz-adv-x="425" 
d="M389.5 163q2.5 -17 0.5 -18.5t-2 2.5l1 -21q0 -21 -13 -44q-13 -25 -50.5 -47.5t-66.5 -22.5q-11 0 -18 4q-22 8 -34 23t-21 41q-2 6 -7 15t-5 15q0 7 6 15l44 -15l10 -4l3 -12h4q7 0 18 -4q-1 0 -1 1t1 1q10 0 40.5 12t32.5 15q7 13 7 7q0 2 -0.5 5t-0.5 9l-11 63
q-2 5 -18 27q-22 31 -37 60t-24 69q-2 8 -2 24q0 76 37.5 99t38.5 24l14 23q0 29 -4 42.5t-15 20.5t-36 12q-1 0 -8.5 0.5t-37.5 0.5l-43 -98q-11 -33 -17 -65.5t-13 -87.5q-2 -22 -4 -32l-9 -77q-14 -114 -25.5 -186t-33.5 -141q-21 -65 -34 -93t-29 -33q-10 -3 -21 -3
q-35 0 -65 29t-38 71l49 15q2 -12 24.5 -25.5t35.5 -9.5q11 3 19.5 35.5t10.5 37.5q22 67 33 134.5t25 180.5l9 75l4 36q8 63 14 96.5t18 68.5q3 8 18.5 55t41 72t60.5 25q12 0 26 -3q46 -10 70.5 -47t24.5 -96q0 -51 -24 -83q-12 -15 -34 -31q-16 -12 -24 -21.5t-8 -20.5
q0 -4 1 -7q3 -19 11.5 -34.5t25.5 -40.5q16 -23 26 -40.5t15 -36.5q12 -44 14.5 -61z" />
    <glyph glyph-name="t" unicode="t" horiz-adv-x="322" 
d="M320 451v-61h-2l-150 1q-17 -37 -18 -41q-26 -58 -47 -142.5t-21 -134.5v-1q14 6 50 28q14 9 25 15t11 1h50q0 -20 -27 -50.5t-62.5 -53.5t-58.5 -23q-30 0 -39 45q-3 17 -3 39q0 65 22.5 161.5t44.5 147.5l5 10h-46h-2v61h2l71 -1l35 85.5t23 56.5h59q0 -24 -48 -143
h124h2z" />
    <glyph glyph-name="tbar" unicode="&#x167;" horiz-adv-x="340" 
d="M320 451v-61h-2l-150 1q-17 -37 -18 -41q-2 -4 -4 -10q12 1 36 1q32 0 66 -3l10 -63l-65 1q-48 2 -70 2q-18 -55 -29.5 -112t-11.5 -93v-1q14 6 50 28q14 9 25 15t11 1h50q0 -20 -27 -50.5t-62.5 -53.5t-58.5 -23q-30 0 -39 45q-3 17 -3 39q0 77 32 203q-12 0 -21.5 -1
t-16.5 -2v62q20 0 56 2l17 45l5 10h-46h-2v61h2l71 -1l35 85.5t23 56.5h59q0 -24 -48 -143h124h2z" />
    <glyph glyph-name="tcaron" unicode="&#x165;" horiz-adv-x="322" 
d="M320 451v-61h-2l-150 1q-17 -37 -18 -41q-26 -58 -47 -142.5t-21 -134.5v-1q14 6 50 28q14 9 25 15t11 1h50q0 -20 -27 -50.5t-62.5 -53.5t-58.5 -23q-30 0 -39 45q-3 17 -3 39q0 65 22.5 161.5t44.5 147.5l5 10h-46h-2v61h2l71 -1l35 85.5t23 56.5h59q0 -24 -48 -143
h124h2zM440 634q0 -27 -32 -64.5t-73.5 -66t-67.5 -28.5v70q8 0 63.5 42t55.5 47h54z" />
    <glyph glyph-name="uni0163" unicode="&#x163;" horiz-adv-x="322" 
d="M320 451v-61h-2l-150 1q-17 -37 -18 -41q-26 -58 -47 -142.5t-21 -134.5v-1q14 6 50 28q14 9 25 15t11 1h50q0 -17 -20.5 -42t-50 -48t-54.5 -32q-6 -26 -11 -37l-1 -3q2 1 8 1q42 0 60.5 -19.5t18.5 -57.5q0 -18 -5 -38q-9 -31 -51 -47t-105 -16q-22 0 -35 6
q-18 8 -26 14t-14 21l50 21l12 -4l-2 1q1 1 5.5 0.5t9.5 -0.5l104 17q3 10 3 25q0 7 -8 12t-17 5q-13 0 -25 -2q-19 -5 -34 11.5t-15 41.5q0 11 5 26l13 28q1 2 2 5t3 6q-4 9 -7 23q-3 17 -3 39q0 65 22.5 161.5t44.5 147.5l5 10h-46h-2v61h2l71 -1l35 85.5t23 56.5h59
q0 -24 -48 -143h124h2z" />
    <glyph glyph-name="uni021B" unicode="&#x21b;" horiz-adv-x="322" 
d="M320 451v-61h-2l-150 1q-17 -37 -18 -41q-26 -58 -47 -142.5t-21 -134.5v-1q14 6 50 28q14 9 25 15t11 1h50q0 -20 -27 -50.5t-62.5 -53.5t-58.5 -23q-30 0 -39 45q-3 17 -3 39q0 65 22.5 161.5t44.5 147.5l5 10h-46h-2v61h2l71 -1l35 85.5t23 56.5h59q0 -24 -48 -143
h124h2zM75 -189.5q-22 -29.5 -55 -53.5l-38 48q29 21 37.5 34t9.5 14l-2 3l-11 30q-1 2 -3 7t-4.5 8t-6.5 7l45 38q10 -12 20 -39t12 -31l11 -21q7 -15 -15 -44.5z" />
    <glyph glyph-name="u" unicode="u" horiz-adv-x="573" 
d="M550 227q-29 -131 -155 -218q-57 -33 -81 -33q-8 0 -10 5v0q-15 10 -15 53q0 20 3 41.5t5 25.5l12 54q-68 -87 -126 -120l-120 -45q-10 0 -15 2t-12.5 7.5t-13.5 9.5h-1v26v7q0 -2 13 42l17 61q11 41 24.5 74.5t36.5 84.5q31 63 46 109l4 9q-42 -41 -68 -59.5t-27 -7.5
l-38 -9h-2q0 23 7.5 34t41.5 39q38 32 57 50l1 1q17 16 36.5 31.5l27.5 21.5q14 10 19 15h3l36 -41l-74 -180l-79 -192q-7 -30 -13 -49q20 6 42 16t30 15q53 34 105.5 95.5t110.5 159.5l18 31q24 49 38 73l3 7h1v0q-1 27 4 42t28 15q13 0 21.5 -17.5t6.5 -38.5
q-2 -20 -39 -92l-22 -39l-8 -17q-28 -63 -46 -114.5t-30 -107.5q6 -14 6 -33q7 4 7 7h1q57 39 88 78.5t40 87.5h3l50 -17h2z" />
    <glyph glyph-name="uacute" unicode="&#xfa;" horiz-adv-x="573" 
d="M550 227q-29 -131 -155 -218q-57 -33 -81 -33q-8 0 -10 5v0q-15 10 -15 53q0 20 3 41.5t5 25.5l12 54q-68 -87 -126 -120l-120 -45q-10 0 -15 2t-12.5 7.5t-13.5 9.5h-1v26v7q0 -2 13 42l17 61q11 41 24.5 74.5t36.5 84.5q31 63 46 109l4 9q-42 -41 -68 -59.5t-27 -7.5
l-38 -9h-2q0 23 7.5 34t41.5 39q38 32 57 50l1 1q17 16 36.5 31.5l27.5 21.5q14 10 19 15h3l36 -41l-74 -180l-79 -192q-7 -30 -13 -49q20 6 42 16t30 15q53 34 105.5 95.5t110.5 159.5l18 31q24 49 38 73l3 7h1v0q-1 27 4 42t28 15q13 0 21.5 -17.5t6.5 -38.5
q-2 -20 -39 -92l-22 -39l-8 -17q-28 -63 -46 -114.5t-30 -107.5q6 -14 6 -33q7 4 7 7h1q57 39 88 78.5t40 87.5h3l50 -17h2zM516 748q0 -27 -32 -64.5t-73.5 -66t-67.5 -28.5v70q8 0 63.5 42t55.5 47h54z" />
    <glyph glyph-name="ucircumflex" unicode="&#xfb;" horiz-adv-x="573" 
d="M550 227q-29 -131 -155 -218q-57 -33 -81 -33q-8 0 -10 5v0q-15 10 -15 53q0 20 3 41.5t5 25.5l12 54q-68 -87 -126 -120l-120 -45q-10 0 -15 2t-12.5 7.5t-13.5 9.5h-1v26v7q0 -2 13 42l17 61q11 41 24.5 74.5t36.5 84.5q31 63 46 109l4 9q-42 -41 -68 -59.5t-27 -7.5
l-38 -9h-2q0 23 7.5 34t41.5 39q38 32 57 50l1 1q17 16 36.5 31.5l27.5 21.5q14 10 19 15h3l36 -41l-74 -180l-79 -192q-7 -30 -13 -49q20 6 42 16t30 15q53 34 105.5 95.5t110.5 159.5l18 31q24 49 38 73l3 7h1v0q-1 27 4 42t28 15q13 0 21.5 -17.5t6.5 -38.5
q-2 -20 -39 -92l-22 -39l-8 -17q-28 -63 -46 -114.5t-30 -107.5q6 -14 6 -33q7 4 7 7h1q57 39 88 78.5t40 87.5h3l50 -17h2zM495 582h-50q0 82 -20 141q-3 8 -3 18.5v13.5q-8 -7 -15.5 -20.5t-9.5 -17.5q-3 -6 -12 -16.5t-14 -15.5l-20 -21q-21 -25 -29 -38t-15 -37l-48 22
q13 41 24 58.5t30 39.5l30 34q6 6 14 16q3 4 17 27.5t24 29.5l10 10.5t24 9.5q18 0 29.5 -17.5t11.5 -40.5v-19l-1 17q1 -6 0.5 -14t-0.5 -12q0 -15 3 -22q20 -58 20 -146z" />
    <glyph glyph-name="udieresis" unicode="&#xfc;" horiz-adv-x="573" 
d="M550 227q-29 -131 -155 -218q-57 -33 -81 -33q-8 0 -10 5v0q-15 10 -15 53q0 20 3 41.5t5 25.5l12 54q-68 -87 -126 -120l-120 -45q-10 0 -15 2t-12.5 7.5t-13.5 9.5h-1v26v7q0 -2 13 42l17 61q11 41 24.5 74.5t36.5 84.5q31 63 46 109l4 9q-42 -41 -68 -59.5t-27 -7.5
l-38 -9h-2q0 23 7.5 34t41.5 39q38 32 57 50l1 1q17 16 36.5 31.5l27.5 21.5q14 10 19 15h3l36 -41l-74 -180l-79 -192q-7 -30 -13 -49q20 6 42 16t30 15q53 34 105.5 95.5t110.5 159.5l18 31q24 49 38 73l3 7h1v0q-1 27 4 42t28 15q13 0 21.5 -17.5t6.5 -38.5
q-2 -20 -39 -92l-22 -39l-8 -17q-28 -63 -46 -114.5t-30 -107.5q6 -14 6 -33q7 4 7 7h1q57 39 88 78.5t40 87.5h3l50 -17h2zM235 607q0 33 10.5 57t24.5 38t11 8l57 -52q-13 -23 -25.5 -36t-12.5 -15h-65zM412 607q0 33 10.5 57t24.5 38t11 8l57 -52q-13 -23 -25.5 -36
t-12.5 -15h-65z" />
    <glyph glyph-name="ugrave" unicode="&#xf9;" horiz-adv-x="573" 
d="M550 227q-29 -131 -155 -218q-57 -33 -81 -33q-8 0 -10 5v0q-15 10 -15 53q0 20 3 41.5t5 25.5l12 54q-68 -87 -126 -120l-120 -45q-10 0 -15 2t-12.5 7.5t-13.5 9.5h-1v26v7q0 -2 13 42l17 61q11 41 24.5 74.5t36.5 84.5q31 63 46 109l4 9q-42 -41 -68 -59.5t-27 -7.5
l-38 -9h-2q0 23 7.5 34t41.5 39q38 32 57 50l1 1q17 16 36.5 31.5l27.5 21.5q14 10 19 15h3l36 -41l-74 -180l-79 -192q-7 -30 -13 -49q20 6 42 16t30 15q53 34 105.5 95.5t110.5 159.5l18 31q24 49 38 73l3 7h1v0q-1 27 4 42t28 15q13 0 21.5 -17.5t6.5 -38.5
q-2 -20 -39 -92l-22 -39l-8 -17q-28 -63 -46 -114.5t-30 -107.5q6 -14 6 -33q7 4 7 7h1q57 39 88 78.5t40 87.5h3l50 -17h2zM389 561q-42 41 -78.5 103t-36.5 95h54q0 -10 36 -62.5t63 -79.5z" />
    <glyph glyph-name="uhungarumlaut" unicode="&#x171;" horiz-adv-x="573" 
d="M550 227q-29 -131 -155 -218q-57 -33 -81 -33q-8 0 -10 5v0q-15 10 -15 53q0 20 3 41.5t5 25.5l12 54q-68 -87 -126 -120l-120 -45q-10 0 -15 2t-12.5 7.5t-13.5 9.5h-1v26v7q0 -2 13 42l17 61q11 41 24.5 74.5t36.5 84.5q31 63 46 109l4 9q-42 -41 -68 -59.5t-27 -7.5
l-38 -9h-2q0 23 7.5 34t41.5 39q38 32 57 50l1 1q17 16 36.5 31.5l27.5 21.5q14 10 19 15h3l36 -41l-74 -180l-79 -192q-7 -30 -13 -49q20 6 42 16t30 15q53 34 105.5 95.5t110.5 159.5l18 31q24 49 38 73l3 7h1v0q-1 27 4 42t28 15q13 0 21.5 -17.5t6.5 -38.5
q-2 -20 -39 -92l-22 -39l-8 -17q-28 -63 -46 -114.5t-30 -107.5q6 -14 6 -33q7 4 7 7h1q57 39 88 78.5t40 87.5h3l50 -17h2zM592 748q0 -27 -32 -64.5t-73.5 -66t-67.5 -28.5v70q8 0 63.5 42t55.5 47h54zM420 748q0 -27 -32 -64.5t-73.5 -66t-67.5 -28.5v70q8 0 63.5 42
t55.5 47h54z" />
    <glyph glyph-name="umacron" unicode="&#x16b;" horiz-adv-x="573" 
d="M550 227q-29 -131 -155 -218q-57 -33 -81 -33q-8 0 -10 5v0q-15 10 -15 53q0 20 3 41.5t5 25.5l12 54q-68 -87 -126 -120l-120 -45q-10 0 -15 2t-12.5 7.5t-13.5 9.5h-1v26v7q0 -2 13 42l17 61q11 41 24.5 74.5t36.5 84.5q31 63 46 109l4 9q-42 -41 -68 -59.5t-27 -7.5
l-38 -9h-2q0 23 7.5 34t41.5 39q38 32 57 50l1 1q17 16 36.5 31.5l27.5 21.5q14 10 19 15h3l36 -41l-74 -180l-79 -192q-7 -30 -13 -49q20 6 42 16t30 15q53 34 105.5 95.5t110.5 159.5l18 31q24 49 38 73l3 7h1v0q-1 27 4 42t28 15q13 0 21.5 -17.5t6.5 -38.5
q-2 -20 -39 -92l-22 -39l-8 -17q-28 -63 -46 -114.5t-30 -107.5q6 -14 6 -33q7 4 7 7h1q57 39 88 78.5t40 87.5h3l50 -17h2zM468 595q-31 -4 -66 -4q-25 0 -44 1t-32 2q-52 4 -84 4v62q49 -6 94 -6q25 0 77 2q42 2 65 2z" />
    <glyph glyph-name="uogonek" unicode="&#x173;" horiz-adv-x="573" 
d="M395 9l-17 -10v0h-2q-12 -8 -24 -12q-18 -14 -29 -41t-11 -56q0 -5 2 -17q16 -15 31 -25q8 -6 16.5 -8.5t13.5 -0.5q6 2 15 10t19 15l32 -58q-8 -6 -21 -17t-25 -17t-25 -6q-22 0 -55 22q-46 31 -55 72q-2 18 -2 30q0 64 36 107q-5 13 -5 37q0 20 3 41.5t5 25.5l12 54
q-68 -87 -126 -120l-120 -45q-10 0 -15 2t-12.5 7.5t-13.5 9.5h-1v26v7q0 -2 13 42l17 61q11 41 24.5 74.5t36.5 84.5q31 63 46 109l4 9q-42 -41 -68 -59.5t-27 -7.5l-38 -9h-2q0 23 7.5 34t41.5 39q38 32 57 50l1 1q17 16 36.5 31.5l27.5 21.5q14 10 19 15h3l36 -41
l-74 -180l-79 -192q-7 -30 -13 -49q20 6 42 16t30 15q53 34 105.5 95.5t110.5 159.5l18 31q24 49 38 73l3 7h1v0q-1 27 4 42t28 15q13 0 21.5 -17.5t6.5 -38.5q-2 -20 -39 -92l-22 -39l-8 -17q-28 -63 -46 -114.5t-30 -107.5q6 -14 6 -33q7 4 7 7h1q57 39 88 78.5t40 87.5h3
l50 -17h2q-29 -131 -155 -218z" />
    <glyph glyph-name="uring" unicode="&#x16f;" horiz-adv-x="573" 
d="M550 227q-29 -131 -155 -218q-57 -33 -81 -33q-8 0 -10 5v0q-15 10 -15 53q0 20 3 41.5t5 25.5l12 54q-68 -87 -126 -120l-120 -45q-10 0 -15 2t-12.5 7.5t-13.5 9.5h-1v26v7q0 -2 13 42l17 61q11 41 24.5 74.5t36.5 84.5q31 63 46 109l4 9q-42 -41 -68 -59.5t-27 -7.5
l-38 -9h-2q0 23 7.5 34t41.5 39q38 32 57 50l1 1q17 16 36.5 31.5l27.5 21.5q14 10 19 15h3l36 -41l-74 -180l-79 -192q-7 -30 -13 -49q20 6 42 16t30 15q53 34 105.5 95.5t110.5 159.5l18 31q24 49 38 73l3 7h1v0q-1 27 4 42t28 15q13 0 21.5 -17.5t6.5 -38.5
q-2 -20 -39 -92l-22 -39l-8 -17q-28 -63 -46 -114.5t-30 -107.5q6 -14 6 -33q7 4 7 7h1q57 39 88 78.5t40 87.5h3l50 -17h2zM475 720.5q7 -13.5 7 -38.5q0 -33 -16.5 -60t-42.5 -43t-54 -16l-7 40l-5 -32q-47 8 -77 34.5t-30 71.5q0 56 35 87t90 31q26 0 44 -11t37 -34
q12 -16 19 -29.5zM407 646q21 19 21 36q0 7 -7.5 19l-10.5 17q-6 9 -14 13t-21 4q-30 0 -50.5 -17t-20.5 -41q0 -17 17.5 -29.5t44.5 -17.5l-1 -7q21 4 42 23z" />
    <glyph glyph-name="v" unicode="v" horiz-adv-x="493" 
d="M477 337q0 -27 -8.5 -57t-27.5 -70q-28 -56 -54 -91t-58 -58h-1v-1h1q-5 -3 -34.5 -23.5t-61.5 -36t-50 -15.5q-17 0 -26 11t-9 31q0 14 5.5 24.5t10.5 12.5q5 8 11 16t7 11q11 25 21 53q1 4 3.5 12t5.5 13q21 57 21 109q0 31 -6.5 57t-21.5 54l-11.5 22t-20.5 23t-32 7
q-27 0 -31 -4h-1q-24 -6 -28 -6q-13 -17 -16.5 -36t-3.5 -71h-54q0 45 2 72.5t13.5 58t38.5 48.5q11 7 39 13q17 6 41 6q31 0 49.5 -10.5t29 -26.5t33.5 -57q16 -30 25 -69.5t9 -80.5q0 -35 -6.5 -71.5t-18.5 -66.5q-4 -10 -8 -22t-9 -25q37 21 53 35h1q31 22 51.5 48
t41.5 69q18 37 24.5 56.5t6.5 35.5q0 15 -5.5 33t-18.5 48v0q-4 10 -7 22t-7 18q-2 -7 -7 -7q-7 0 -17 14l36 58q-3 3 0 3.5t10 -4.5t15 -15q9 -11 16.5 -30t9.5 -25h-1v0h2q28 -65 28 -115z" />
    <glyph glyph-name="w" unicode="w" horiz-adv-x="717" 
d="M712 410q0 -49 -23 -127t-42 -112q-16 -27 -42 -59q-61 -73 -106 -102l-42 -26q-20 -13 -36 -13q-22 0 -22 29q0 10 1 16q4 20 11 36t18 37q2 4 6.5 12t5.5 13q28 90 28 158q0 26 -3 56q-3 27 -23 61q-5 -140 -71 -228l-39.5 -50.5t-36.5 -39.5q-20 -17 -31 -23
q-5 -12 -20.5 -28.5t-32.5 -27.5q-16 -10 -27 -10q-10 0 -16 8t-6 20q0 24 18 49h-1q5 3 11 19.5t8 20.5q4 15 11 29q26 51 31 85q4 32 4 51q0 116 -59 166q-20 17 -46 17q-32 0 -57 -28.5t-25 -66.5h-54q0 45 19 85.5t50.5 65.5t66.5 25q22 0 41 -8.5t41 -27.5
q35 -31 56 -92t21 -136q0 -42 -5 -65l-6 -47q8 9 16 21.5t11 16.5l13 19q31 43 45.5 85t15.5 105l1 35v10q-5 8 -9.5 21t-4.5 25q0 49 21 49q18 0 38 -35v0q16 -13 26 -28q28 -42 42 -74.5t18 -65.5q3 -31 3 -64q0 -36 -7.5 -84t-21.5 -93q32 25 67 68q21 23 37 47
q20 33 39.5 98.5t19.5 101.5q0 -21 1 -21v7q0 15 -3 24q-7 19 -23 37.5t-38 32.5h-1l28 68h2q27 -17 49.5 -47t34.5 -64q4 -11 4 -37z" />
    <glyph glyph-name="wacute" unicode="&#x1e83;" horiz-adv-x="717" 
d="M712 410q0 -49 -23 -127t-42 -112q-16 -27 -42 -59q-61 -73 -106 -102l-42 -26q-20 -13 -36 -13q-22 0 -22 29q0 10 1 16q4 20 11 36t18 37q2 4 6.5 12t5.5 13q28 90 28 158q0 26 -3 56q-3 27 -23 61q-5 -140 -71 -228l-39.5 -50.5t-36.5 -39.5q-20 -17 -31 -23
q-5 -12 -20.5 -28.5t-32.5 -27.5q-16 -10 -27 -10q-10 0 -16 8t-6 20q0 24 18 49h-1q5 3 11 19.5t8 20.5q4 15 11 29q26 51 31 85q4 32 4 51q0 116 -59 166q-20 17 -46 17q-32 0 -57 -28.5t-25 -66.5h-54q0 45 19 85.5t50.5 65.5t66.5 25q22 0 41 -8.5t41 -27.5
q35 -31 56 -92t21 -136q0 -42 -5 -65l-6 -47q8 9 16 21.5t11 16.5l13 19q31 43 45.5 85t15.5 105l1 35v10q-5 8 -9.5 21t-4.5 25q0 49 21 49q18 0 38 -35v0q16 -13 26 -28q28 -42 42 -74.5t18 -65.5q3 -31 3 -64q0 -36 -7.5 -84t-21.5 -93q32 25 67 68q21 23 37 47
q20 33 39.5 98.5t19.5 101.5q0 -21 1 -21v7q0 15 -3 24q-7 19 -23 37.5t-38 32.5h-1l28 68h2q27 -17 49.5 -47t34.5 -64q4 -11 4 -37zM576 748q0 -27 -32 -64.5t-73.5 -66t-67.5 -28.5v70q8 0 63.5 42t55.5 47h54z" />
    <glyph glyph-name="wcircumflex" unicode="&#x175;" horiz-adv-x="717" 
d="M712 410q0 -49 -23 -127t-42 -112q-16 -27 -42 -59q-61 -73 -106 -102l-42 -26q-20 -13 -36 -13q-22 0 -22 29q0 10 1 16q4 20 11 36t18 37q2 4 6.5 12t5.5 13q28 90 28 158q0 26 -3 56q-3 27 -23 61q-5 -140 -71 -228l-39.5 -50.5t-36.5 -39.5q-20 -17 -31 -23
q-5 -12 -20.5 -28.5t-32.5 -27.5q-16 -10 -27 -10q-10 0 -16 8t-6 20q0 24 18 49h-1q5 3 11 19.5t8 20.5q4 15 11 29q26 51 31 85q4 32 4 51q0 116 -59 166q-20 17 -46 17q-32 0 -57 -28.5t-25 -66.5h-54q0 45 19 85.5t50.5 65.5t66.5 25q22 0 41 -8.5t41 -27.5
q35 -31 56 -92t21 -136q0 -42 -5 -65l-6 -47q8 9 16 21.5t11 16.5l13 19q31 43 45.5 85t15.5 105l1 35v10q-5 8 -9.5 21t-4.5 25q0 49 21 49q18 0 38 -35v0q16 -13 26 -28q28 -42 42 -74.5t18 -65.5q3 -31 3 -64q0 -36 -7.5 -84t-21.5 -93q32 25 67 68q21 23 37 47
q20 33 39.5 98.5t19.5 101.5q0 -21 1 -21v7q0 15 -3 24q-7 19 -23 37.5t-38 32.5h-1l28 68h2q27 -17 49.5 -47t34.5 -64q4 -11 4 -37zM556 582h-50q0 82 -20 141q-3 8 -3 18.5v13.5q-8 -7 -15.5 -20.5t-9.5 -17.5q-3 -6 -12 -16.5t-14 -15.5l-20 -21q-21 -25 -29 -38
t-15 -37l-48 22q13 41 24 58.5t30 39.5l30 34q6 6 14 16q3 4 17 27.5t24 29.5l10 10.5t24 9.5q18 0 29.5 -17.5t11.5 -40.5v-19l-1 17q1 -6 0.5 -14t-0.5 -12q0 -15 3 -22q20 -58 20 -146z" />
    <glyph glyph-name="wdieresis" unicode="&#x1e85;" horiz-adv-x="717" 
d="M712 410q0 -49 -23 -127t-42 -112q-16 -27 -42 -59q-61 -73 -106 -102l-42 -26q-20 -13 -36 -13q-22 0 -22 29q0 10 1 16q4 20 11 36t18 37q2 4 6.5 12t5.5 13q28 90 28 158q0 26 -3 56q-3 27 -23 61q-5 -140 -71 -228l-39.5 -50.5t-36.5 -39.5q-20 -17 -31 -23
q-5 -12 -20.5 -28.5t-32.5 -27.5q-16 -10 -27 -10q-10 0 -16 8t-6 20q0 24 18 49h-1q5 3 11 19.5t8 20.5q4 15 11 29q26 51 31 85q4 32 4 51q0 116 -59 166q-20 17 -46 17q-32 0 -57 -28.5t-25 -66.5h-54q0 45 19 85.5t50.5 65.5t66.5 25q22 0 41 -8.5t41 -27.5
q35 -31 56 -92t21 -136q0 -42 -5 -65l-6 -47q8 9 16 21.5t11 16.5l13 19q31 43 45.5 85t15.5 105l1 35v10q-5 8 -9.5 21t-4.5 25q0 49 21 49q18 0 38 -35v0q16 -13 26 -28q28 -42 42 -74.5t18 -65.5q3 -31 3 -64q0 -36 -7.5 -84t-21.5 -93q32 25 67 68q21 23 37 47
q20 33 39.5 98.5t19.5 101.5q0 -21 1 -21v7q0 15 -3 24q-7 19 -23 37.5t-38 32.5h-1l28 68h2q27 -17 49.5 -47t34.5 -64q4 -11 4 -37zM296 607q0 33 10.5 57t24.5 38t11 8l57 -52q-13 -23 -25.5 -36t-12.5 -15h-65zM473 607q0 33 10.5 57t24.5 38t11 8l57 -52
q-13 -23 -25.5 -36t-12.5 -15h-65z" />
    <glyph glyph-name="wgrave" unicode="&#x1e81;" horiz-adv-x="717" 
d="M712 410q0 -49 -23 -127t-42 -112q-16 -27 -42 -59q-61 -73 -106 -102l-42 -26q-20 -13 -36 -13q-22 0 -22 29q0 10 1 16q4 20 11 36t18 37q2 4 6.5 12t5.5 13q28 90 28 158q0 26 -3 56q-3 27 -23 61q-5 -140 -71 -228l-39.5 -50.5t-36.5 -39.5q-20 -17 -31 -23
q-5 -12 -20.5 -28.5t-32.5 -27.5q-16 -10 -27 -10q-10 0 -16 8t-6 20q0 24 18 49h-1q5 3 11 19.5t8 20.5q4 15 11 29q26 51 31 85q4 32 4 51q0 116 -59 166q-20 17 -46 17q-32 0 -57 -28.5t-25 -66.5h-54q0 45 19 85.5t50.5 65.5t66.5 25q22 0 41 -8.5t41 -27.5
q35 -31 56 -92t21 -136q0 -42 -5 -65l-6 -47q8 9 16 21.5t11 16.5l13 19q31 43 45.5 85t15.5 105l1 35v10q-5 8 -9.5 21t-4.5 25q0 49 21 49q18 0 38 -35v0q16 -13 26 -28q28 -42 42 -74.5t18 -65.5q3 -31 3 -64q0 -36 -7.5 -84t-21.5 -93q32 25 67 68q21 23 37 47
q20 33 39.5 98.5t19.5 101.5q0 -21 1 -21v7q0 15 -3 24q-7 19 -23 37.5t-38 32.5h-1l28 68h2q27 -17 49.5 -47t34.5 -64q4 -11 4 -37zM449 561q-42 41 -78.5 103t-36.5 95h54q0 -10 36 -62.5t63 -79.5z" />
    <glyph glyph-name="x" unicode="x" horiz-adv-x="578" 
d="M578 463v-81h-2q-16 0 -24 8.5t-14 22.5q-5 11 -9 16t-11 5h-3q-1 0 -3 -1t-5 -3q-135 -117 -182 -174q11 -32 35 -96q7 -19 8 -22l8 -21t13 -28.5t16 -23.5q3 -2 12 -2q18 0 33 23.5t15 49.5q1 0 1 2l-2 11v0l47 28h3q6 -12 6 -41q0 -37 -15 -73t-39 -58.5t-49 -22.5
q-17 0 -30 8.5t-27 28.5q-11 14 -19.5 33t-18.5 48l-12 30l-26 67l-24 -37.5t-40 -54.5q-29 -37 -45 -51l-23 -23q-17 -17 -28 -24q-11 -9 -19 -12.5t-19 -3.5q-39 0 -60.5 29t-21.5 82q0 7 3 52q2 20 2 26h54q0 -11 -2 -39q-1 -7 -2 -16.5t-1 -22.5q0 -21 4 -25.5t24 -4.5
h3q4 0 6 1t3 5h1q10 8 21.5 18.5t17.5 15.5q19 17 48 55q25 30 52 75l20 31l-21 64.5l-24 73.5q-3 9 -6 21.5t-8 20.5q-16 -6 -40 -36.5t-26 -32.5q-8 -8 -19 -20t-16 -12q-3 0 -3 9h-51q0 17 10.5 33.5t21.5 28t15 14.5q3 3 40 50t71 47q9 0 13.5 -2t10.5 -10
q11 -8 18.5 -25.5t13 -35t7.5 -24.5q8 -21 36 -108q43 50 113 111q8 9 17 17q37 39 60 50v0q15 8 27 8q19 0 33 -12t21.5 -26t3.5 -14h2z" />
    <glyph glyph-name="y" unicode="y" horiz-adv-x="457" 
d="M449.5 379.5q-13.5 -81.5 -30.5 -140.5q-14 -49 -51.5 -119.5t-76.5 -130.5v-16q0 -16 -2 -23q-1 -13 -8.5 -19.5t-17.5 -6.5q-7 0 -17 5l-12.5 -14t-8.5 -10q-12 -13 -20 -23q-9 -11 -20 -30q-12 -21 -21 -31q-42 -50 -96 -94v0q-38 -33 -107 -53.5t-144 -20.5h-20
q-58 5 -91 41q-15 12 -23.5 31.5t-8.5 38.5q0 17 6.5 28.5t18.5 14.5h2l40 -53q-2 -4 19 -11.5t37 -8.5h20q58 0 125 16.5t90 37.5h2v1h-1q67 57 89 84q6 7 22 31q7 15 18 29l38 43q17 18 23 27l12 17l5 20q13 49 13 103q0 81 -21.5 152.5t-61.5 123.5q-14 19 -33 32t-31 13
q-19 0 -29 -25.5t-10 -74.5h-55q0 47 13.5 86t37.5 62t53 23q46 0 97 -67q43 -56 69 -144.5t26 -180.5l-1 -9q46 82 60 127v0q22 79 22 246h2l29 -10l41 19h2q0 -55 -13.5 -136.5z" />
    <glyph glyph-name="yacute" unicode="&#xfd;" horiz-adv-x="457" 
d="M449.5 379.5q-13.5 -81.5 -30.5 -140.5q-14 -49 -51.5 -119.5t-76.5 -130.5v-16q0 -16 -2 -23q-1 -13 -8.5 -19.5t-17.5 -6.5q-7 0 -17 5l-12.5 -14t-8.5 -10q-12 -13 -20 -23q-9 -11 -20 -30q-12 -21 -21 -31q-42 -50 -96 -94v0q-38 -33 -107 -53.5t-144 -20.5h-20
q-58 5 -91 41q-15 12 -23.5 31.5t-8.5 38.5q0 17 6.5 28.5t18.5 14.5h2l40 -53q-2 -4 19 -11.5t37 -8.5h20q58 0 125 16.5t90 37.5h2v1h-1q67 57 89 84q6 7 22 31q7 15 18 29l38 43q17 18 23 27l12 17l5 20q13 49 13 103q0 81 -21.5 152.5t-61.5 123.5q-14 19 -33 32t-31 13
q-19 0 -29 -25.5t-10 -74.5h-55q0 47 13.5 86t37.5 62t53 23q46 0 97 -67q43 -56 69 -144.5t26 -180.5l-1 -9q46 82 60 127v0q22 79 22 246h2l29 -10l41 19h2q0 -55 -13.5 -136.5zM444 751q0 -27 -32 -64.5t-73.5 -66t-67.5 -28.5v70q8 0 63.5 42t55.5 47h54z" />
    <glyph glyph-name="ycircumflex" unicode="&#x177;" horiz-adv-x="457" 
d="M449.5 379.5q-13.5 -81.5 -30.5 -140.5q-14 -49 -51.5 -119.5t-76.5 -130.5v-16q0 -16 -2 -23q-1 -13 -8.5 -19.5t-17.5 -6.5q-7 0 -17 5l-12.5 -14t-8.5 -10q-12 -13 -20 -23q-9 -11 -20 -30q-12 -21 -21 -31q-42 -50 -96 -94v0q-38 -33 -107 -53.5t-144 -20.5h-20
q-58 5 -91 41q-15 12 -23.5 31.5t-8.5 38.5q0 17 6.5 28.5t18.5 14.5h2l40 -53q-2 -4 19 -11.5t37 -8.5h20q58 0 125 16.5t90 37.5h2v1h-1q67 57 89 84q6 7 22 31q7 15 18 29l38 43q17 18 23 27l12 17l5 20q13 49 13 103q0 81 -21.5 152.5t-61.5 123.5q-14 19 -33 32t-31 13
q-19 0 -29 -25.5t-10 -74.5h-55q0 47 13.5 86t37.5 62t53 23q46 0 97 -67q43 -56 69 -144.5t26 -180.5l-1 -9q46 82 60 127v0q22 79 22 246h2l29 -10l41 19h2q0 -55 -13.5 -136.5zM423 585h-50q0 82 -20 141q-3 8 -3 18.5v13.5q-8 -7 -15.5 -20.5t-9.5 -17.5
q-3 -6 -12 -16.5t-14 -15.5l-20 -21q-21 -25 -29 -38t-15 -37l-48 22q13 41 24 58.5t30 39.5l30 34q6 6 14 16q3 4 17 27.5t24 29.5l10 10.5t24 9.5q18 0 29.5 -17.5t11.5 -40.5v-19l-1 17q1 -6 0.5 -14t-0.5 -12q0 -15 3 -22q20 -58 20 -146z" />
    <glyph glyph-name="ydieresis" unicode="&#xff;" horiz-adv-x="457" 
d="M449.5 379.5q-13.5 -81.5 -30.5 -140.5q-14 -49 -51.5 -119.5t-76.5 -130.5v-16q0 -16 -2 -23q-1 -13 -8.5 -19.5t-17.5 -6.5q-7 0 -17 5l-12.5 -14t-8.5 -10q-12 -13 -20 -23q-9 -11 -20 -30q-12 -21 -21 -31q-42 -50 -96 -94v0q-38 -33 -107 -53.5t-144 -20.5h-20
q-58 5 -91 41q-15 12 -23.5 31.5t-8.5 38.5q0 17 6.5 28.5t18.5 14.5h2l40 -53q-2 -4 19 -11.5t37 -8.5h20q58 0 125 16.5t90 37.5h2v1h-1q67 57 89 84q6 7 22 31q7 15 18 29l38 43q17 18 23 27l12 17l5 20q13 49 13 103q0 81 -21.5 152.5t-61.5 123.5q-14 19 -33 32t-31 13
q-19 0 -29 -25.5t-10 -74.5h-55q0 47 13.5 86t37.5 62t53 23q46 0 97 -67q43 -56 69 -144.5t26 -180.5l-1 -9q46 82 60 127v0q22 79 22 246h2l29 -10l41 19h2q0 -55 -13.5 -136.5zM163 610q0 33 10.5 57t24.5 38t11 8l57 -52q-13 -23 -25.5 -36t-12.5 -15h-65zM340 610
q0 33 10.5 57t24.5 38t11 8l57 -52q-13 -23 -25.5 -36t-12.5 -15h-65z" />
    <glyph glyph-name="ygrave" unicode="&#x1ef3;" horiz-adv-x="457" 
d="M449.5 379.5q-13.5 -81.5 -30.5 -140.5q-14 -49 -51.5 -119.5t-76.5 -130.5v-16q0 -16 -2 -23q-1 -13 -8.5 -19.5t-17.5 -6.5q-7 0 -17 5l-12.5 -14t-8.5 -10q-12 -13 -20 -23q-9 -11 -20 -30q-12 -21 -21 -31q-42 -50 -96 -94v0q-38 -33 -107 -53.5t-144 -20.5h-20
q-58 5 -91 41q-15 12 -23.5 31.5t-8.5 38.5q0 17 6.5 28.5t18.5 14.5h2l40 -53q-2 -4 19 -11.5t37 -8.5h20q58 0 125 16.5t90 37.5h2v1h-1q67 57 89 84q6 7 22 31q7 15 18 29l38 43q17 18 23 27l12 17l5 20q13 49 13 103q0 81 -21.5 152.5t-61.5 123.5q-14 19 -33 32t-31 13
q-19 0 -29 -25.5t-10 -74.5h-55q0 47 13.5 86t37.5 62t53 23q46 0 97 -67q43 -56 69 -144.5t26 -180.5l-1 -9q46 82 60 127v0q22 79 22 246h2l29 -10l41 19h2q0 -55 -13.5 -136.5zM317 564q-42 41 -78.5 103t-36.5 95h54q0 -10 36 -62.5t63 -79.5z" />
    <glyph glyph-name="z" unicode="z" horiz-adv-x="515" 
d="M590 -409q-15 -17 -33 -30.5t-28 -15.5q-10 -1 -32 -1q-63 0 -109.5 21.5t-74.5 62.5q-66 100 -74 275q-1 10 1 40q2 24 2 32v7h-1q-3 6 -6 13.5l-7 17.5q-10 26 -17 39h4l-13 26q-1 -1 -4 -1q-15 0 -42 -12l-26 -25.5t-32 -28.5q-28 -24 -54 -43q-10 -10 -15.5 -13.5
t-13.5 -3.5h-1l-30 37q1 19 16 43t39 44h1q46 37 92 62q30 28 33 30h2v1h-1q17 15 42 34q39 30 57 47q55 56 93 103q-43 19 -86.5 45t-69.5 48q-12 11 -26 21.5t-30 19.5l-4 1q-2 -1 -11 -14h-2v0h2q-28 -41 -28 -55q0 -6 2 -12l3 -9q10 -22 10 -52h-54q0 7 -5 19
q-10 22 -10 54q0 46 37 100v0q4 6 12.5 20.5t18 22.5t22.5 8q5 0 20 -5q18 -8 32.5 -19.5l45.5 -37.5q17 -15 72 -46.5t97 -45.5q24 36 39 61q2 4 16.5 30t32.5 46t31 18v0q16 -3 22.5 -23t6.5 -60q0 -23 -15 -58.5t-36.5 -64.5t-38.5 -34q-11 -4 -18 -4q-10 0 -24 3
q-46 -63 -119 -137q-23 -23 -63 -55q4 -4 5 -7q6 -7 15 -42q5 -10 15 -34q6 -18 15 -36v0q6 -12 6 -43q0 -17 -2 -43q-1 -10 -1 -22q4 -80 19 -135.5t46 -101.5q13 -20 54 -34t85 -14q22 0 26 1q5 2 14 8t12 10h3z" />
    <glyph glyph-name="zacute" unicode="&#x17a;" horiz-adv-x="515" 
d="M590 -409q-15 -17 -33 -30.5t-28 -15.5q-10 -1 -32 -1q-63 0 -109.5 21.5t-74.5 62.5q-66 100 -74 275q-1 10 1 40q2 24 2 32v7h-1q-3 6 -6 13.5l-7 17.5q-10 26 -17 39h4l-13 26q-1 -1 -4 -1q-15 0 -42 -12l-26 -25.5t-32 -28.5q-28 -24 -54 -43q-10 -10 -15.5 -13.5
t-13.5 -3.5h-1l-30 37q1 19 16 43t39 44h1q46 37 92 62q30 28 33 30h2v1h-1q17 15 42 34q39 30 57 47q55 56 93 103q-43 19 -86.5 45t-69.5 48q-12 11 -26 21.5t-30 19.5l-4 1q-2 -1 -11 -14h-2v0h2q-28 -41 -28 -55q0 -6 2 -12l3 -9q10 -22 10 -52h-54q0 7 -5 19
q-10 22 -10 54q0 46 37 100v0q4 6 12.5 20.5t18 22.5t22.5 8q5 0 20 -5q18 -8 32.5 -19.5l45.5 -37.5q17 -15 72 -46.5t97 -45.5q24 36 39 61q2 4 16.5 30t32.5 46t31 18v0q16 -3 22.5 -23t6.5 -60q0 -23 -15 -58.5t-36.5 -64.5t-38.5 -34q-11 -4 -18 -4q-10 0 -24 3
q-46 -63 -119 -137q-23 -23 -63 -55q4 -4 5 -7q6 -7 15 -42q5 -10 15 -34q6 -18 15 -36v0q6 -12 6 -43q0 -17 -2 -43q-1 -10 -1 -22q4 -80 19 -135.5t46 -101.5q13 -20 54 -34t85 -14q22 0 26 1q5 2 14 8t12 10h3zM487 752q0 -27 -32 -64.5t-73.5 -66t-67.5 -28.5v70
q8 0 63.5 42t55.5 47h54z" />
    <glyph glyph-name="zcaron" unicode="&#x17e;" horiz-adv-x="515" 
d="M590 -409q-15 -17 -33 -30.5t-28 -15.5q-10 -1 -32 -1q-63 0 -109.5 21.5t-74.5 62.5q-66 100 -74 275q-1 10 1 40q2 24 2 32v7h-1q-3 6 -6 13.5l-7 17.5q-10 26 -17 39h4l-13 26q-1 -1 -4 -1q-15 0 -42 -12l-26 -25.5t-32 -28.5q-28 -24 -54 -43q-10 -10 -15.5 -13.5
t-13.5 -3.5h-1l-30 37q1 19 16 43t39 44h1q46 37 92 62q30 28 33 30h2v1h-1q17 15 42 34q39 30 57 47q55 56 93 103q-43 19 -86.5 45t-69.5 48q-12 11 -26 21.5t-30 19.5l-4 1q-2 -1 -11 -14h-2v0h2q-28 -41 -28 -55q0 -6 2 -12l3 -9q10 -22 10 -52h-54q0 7 -5 19
q-10 22 -10 54q0 46 37 100v0q4 6 12.5 20.5t18 22.5t22.5 8q5 0 20 -5q18 -8 32.5 -19.5l45.5 -37.5q17 -15 72 -46.5t97 -45.5q24 36 39 61q2 4 16.5 30t32.5 46t31 18v0q16 -3 22.5 -23t6.5 -60q0 -23 -15 -58.5t-36.5 -64.5t-38.5 -34q-11 -4 -18 -4q-10 0 -24 3
q-46 -63 -119 -137q-23 -23 -63 -55q4 -4 5 -7q6 -7 15 -42q5 -10 15 -34q6 -18 15 -36v0q6 -12 6 -43q0 -17 -2 -43q-1 -10 -1 -22q4 -80 19 -135.5t46 -101.5q13 -20 54 -34t85 -14q22 0 26 1q5 2 14 8t12 10h3zM497 800q-14 -40 -24.5 -57t-29.5 -41l-30 -34
q-11 -11 -15 -16q-2 -3 -16 -26.5t-24 -30.5l-10 -10.5t-24 -9.5q-18 0 -29.5 17.5t-11.5 40.5v19l1 -17q-1 6 -0.5 14t0.5 12q0 12 -3 22q-20 54 -20 146h50q0 -82 20 -141q4 -13 2 -32q8 7 15 20t10 18q6 9 27 32q14 14 19 21q21 24 29 37t16 38z" />
    <glyph glyph-name="zdotaccent" unicode="&#x17c;" horiz-adv-x="515" 
d="M590 -409q-15 -17 -33 -30.5t-28 -15.5q-10 -1 -32 -1q-63 0 -109.5 21.5t-74.5 62.5q-66 100 -74 275q-1 10 1 40q2 24 2 32v7h-1q-3 6 -6 13.5l-7 17.5q-10 26 -17 39h4l-13 26q-1 -1 -4 -1q-15 0 -42 -12l-26 -25.5t-32 -28.5q-28 -24 -54 -43q-10 -10 -15.5 -13.5
t-13.5 -3.5h-1l-30 37q1 19 16 43t39 44h1q46 37 92 62q30 28 33 30h2v1h-1q17 15 42 34q39 30 57 47q55 56 93 103q-43 19 -86.5 45t-69.5 48q-12 11 -26 21.5t-30 19.5l-4 1q-2 -1 -11 -14h-2v0h2q-28 -41 -28 -55q0 -6 2 -12l3 -9q10 -22 10 -52h-54q0 7 -5 19
q-10 22 -10 54q0 46 37 100v0q4 6 12.5 20.5t18 22.5t22.5 8q5 0 20 -5q18 -8 32.5 -19.5l45.5 -37.5q17 -15 72 -46.5t97 -45.5q24 36 39 61q2 4 16.5 30t32.5 46t31 18v0q16 -3 22.5 -23t6.5 -60q0 -23 -15 -58.5t-36.5 -64.5t-38.5 -34q-11 -4 -18 -4q-10 0 -24 3
q-46 -63 -119 -137q-23 -23 -63 -55q4 -4 5 -7q6 -7 15 -42q5 -10 15 -34q6 -18 15 -36v0q6 -12 6 -43q0 -17 -2 -43q-1 -10 -1 -22q4 -80 19 -135.5t46 -101.5q13 -20 54 -34t85 -14q22 0 26 1q5 2 14 8t12 10h3zM364 635l20 -10q-12 -18 -23.5 -25.5t-29.5 -7.5
q-26 0 -48 19.5t-22 41.5q0 20 18.5 32.5t46.5 12.5q17 0 32 -3q2 -1 22 -2.5t38 -12.5t18 -32h-72v-13z" />
    <glyph glyph-name="a_x" horiz-adv-x="1111" 
d="M1076 156q0 -27 -38 -70q-5 -5 -13 -15q-2 -2 -12.5 -14.5t-22.5 -19.5q-85 -50 -144 -50q-49 0 -82 36q-21 23 -28.5 70.5t-11.5 102.5q-63 -118 -107 -179q-21 -28 -42 -46t-48 -36q-14 -10 -21 -14q-76 -59 -129.5 -89.5t-107.5 -46t-132 -22.5q-83 -9 -131 -9
q-77 0 -128 18t-94 61l38 56q57 -55 184 -55q50 0 126 8q78 8 131.5 24t99.5 42.5t111 75.5l30 22q27 18 43.5 31t25.5 26q29 41 54.5 85l59.5 107l23 41q-8 41 -20.5 76.5t-33.5 73.5q-6 0 -13 -10q-34 -45 -60 -99q-70 -146 -173 -275q-16 -19 -46 -43t-49 -24q-9 0 -16 7
q-7 6 -7 111q0 63 10 129l-98 -119q-14 -17 -32.5 -33l-35.5 -30l-31 -25l-16 -17l-15.5 -16t-25.5 -17l-4 -1q-12 0 -15 24q-3 21 -3 47l1 48q2 28 2 40q1 185 100 359q5 8 9 8q3 0 8 -2.5t12 -4.5t16 -4t18 -5q80 -24 140 -82q19 41 19 64h20l12 19l19 -19h3v-3l23 -22
q-42 -62 -62 -156t-20 -182q0 -7 2 -19q17 15 19 18q55 69 94.5 129.5t72.5 130.5q37 76 66 113q33 45 57 45q19 0 38 -31q38 -62 58 -128q43 71 88 101.5t119 40.5q6 1 14 1q47 0 69 -49q15 -30 15 -43q0 -11 -8 -14l-55 22q-2 4 -6 4h-15q-6 0 -7 -1q-67 -8 -102.5 -30.5
t-67.5 -76.5q-18 -30 -26 -45q5 -35 6 -76q3 -56 8.5 -85.5t18.5 -42.5q3 -4 15.5 -7t26.5 -3q24 0 55 10.5t62 28.5q11 6 15 9.5t7 8.5q6 10 12 16l28 -9l48 36q3 -6 3 -11zM140 427h1h-1zM263 296q36 46 59 94l-25 -37q-19 19 -51.5 36t-68.5 28l-22 5
q-36 -70 -53.5 -137.5t-18.5 -142.5l-1 -37q26 22 39 32q34 29 41 36z" />
    <glyph glyph-name="fl" unicode="&#xfb02;" horiz-adv-x="647" 
d="M613 115q0 -29 -29.5 -60t-73 -51.5t-80.5 -20.5q-54 0 -65 74q-1 5 -1 25q0 35 8.5 69t23.5 75q2 7 5 14t5 15l35 123l45 156q3 10 33 100l-21 -1q-15 0 -33.5 2t-26.5 3q-29 4 -46 5q-11 0 -34 3q-72 7 -95 7q-13 0 -18 -24t-8 -71q-1 -9 -2.5 -27.5t-3.5 -29.5
q0 -4 -2 -12q56 8 93.5 12t74.5 4v-70q-58 0 -155 -15l-22 -3q-7 -76 -15 -124q-13 -69 -28 -135l-21 -108q-15 -73 -29 -133.5t-25 -73.5q-20 -24 -23 -27q-7 -9 -11.5 -13.5t-11.5 -5.5q-20 -3 -32 -3q-91 0 -121 98l52 26q5 -15 23.5 -24.5t45.5 -9.5q11 0 23 2
q2 0 7.5 6.5t6.5 9.5q8 9 22 68.5t20 95.5q5 32 25 126q17 77 23 117q9 50 15 101q-47 -5 -84 -5v70q30 0 92 6q2 20 4 31q0 5 2 27q6 78 22 131t61 53q22 0 94 -7l38 -4l157 -8l28 -31q2 -6 2 -15q0 -22 -8 -48t-24 -69l-12 -33l-48 -164l-32 -114q-10 -34 -15 -77.5
t-5 -80.5q0 -8 1 -13l-1 1q0 3 10 3q19 0 40.5 11t50.5 30q8 6 14 10t6 1h54z" />
    <glyph glyph-name="k_y" horiz-adv-x="837" 
d="M797.5 208.5q-35.5 -132.5 -101.5 -219.5q-21 -28 -47 -54q-17 -35 -31.5 -50.5t-31.5 -15.5v1q-37 -39 -100 -85q-23 -36 -37 -43q-9 -4 -16 -8t-13 -7q-4 -2 -19 -11t-30 -12q-88 -22 -140 -22q-42 0 -75 11t-62 35q-16 13 -24 23.5t-14 26.5l51 24q1 -2 7.5 -7
t13.5 -11q36 -30 103 -30q49 0 126 20q16 3 42 19q24 14 28 15q10 5 34.5 20t23.5 16l67 81q13 15 57 59l2 4q25 58 35 93.5t10 69.5q0 40 -12 83q-21 82 -49 125t-83 69q-21 10 -51 10q-18 0 -65 -7q-31 -5 -42.5 -11t-21.5 -17q-15 -17 -33 -28q-12 -8 -30 -28
q-13 -15 -21 -21q-18 -15 -32 -29h27l31 -46l19 -29q33 -53 58.5 -89t56.5 -67q20 -20 66 -48q21 -12 21 -36l-48 -26q-42 24 -77 59q-30 30 -55 66l-64 97l-22 34q-2 3 -15 21t-20 38q-14 -18 -27 -42q-23 -39 -51 -82q-9 -41 -31 -114q-14 -44 -24.5 -64t-23.5 -20
q-10 0 -22 12q-7 7 -11.5 22.5t-4.5 31.5q0 15 3.5 34.5t8.5 30.5q18 38 56 101q13 56 17 99q13 104 22 169t23 129l12 46q-34 -30 -66 -30v72q13 0 22.5 7.5t22.5 23.5q16 18 27.5 27.5t30.5 13.5q16 2 25 -8t9 -32q0 -6 -2 -20q-6 -34 -17 -75l-11 -41
q-13 -58 -21.5 -115.5t-19.5 -146.5q34 50 73 82q9 7 23 23q16 17 28 26q30 19 45 33q18 13 30 19.5t45 18.5q33 11 66 11q45 0 89 -23q65 -34 98.5 -91t57.5 -146q14 -49 14 -102q0 -16 -1 -25q70 150 70 374h54q0 -159 -35.5 -291.5zM157 691q0 2 -1 -1t-1 -7l2 7v1z" />
    <glyph glyph-name="s_p" horiz-adv-x="734" 
d="M728 408q0 -61 -23 -123t-71 -139l-18 -30q-24 -42 -38 -60q-45 -55 -90 -74q-27 -10 -56 -10h-2l-3 -36q-9 -114 -15 -158l-53 11q8 56 14 152l3 40q-50 15 -80 59l45 40q11 -17 42 -27q9 69 27.5 133.5t50.5 152.5l3 9q-57 -39 -60 -45l-49 32q12 23 49 52t91 58
q6 23 17 53q3 6 32 74l14 30q-105 0 -186 10l-35 6q-40 7 -70 7l-20 1q-9 1 -27 1q-15 0 -38 -4q-1 -2 -2.5 -4t-1.5 -7q0 -17 11.5 -42.5t29.5 -48.5q15 5 28 5q32 0 55 -18t31 -49q2 -10 2 -14q0 -17 -10 -27.5t-26 -10.5v0l-13 -1q-36 0 -74 32q-17 -21 -23 -54
q-4 -17 -4 -44q0 -30 8 -90l5 -38.5t4 -60.5q0 -48 -11 -79q-7 -21 -21 -39t-29 -27q-28 -18 -47 -18q-18 0 -31 10t-24 23.5l-16 19.5q-12 12 -21.5 26.5t-9.5 37.5h54q0 2 1 2q2 -1 5.5 -5.5t11.5 -13.5l13 -15t9.5 -10t7.5 -3q8 0 19 7q20 11 27 29q8 26 8 55
q0 26 -4 59.5t-5 42.5q-8 64 -8 87q0 31 5 58q9 52 35 87q-24 35 -40.5 77t-16.5 70l46 57q14 1 32 2.5t32 2.5q30 3 43 3q25 0 77 -8q21 -4 35 -5q76 -10 180 -10q17 0 37 6q8 16 28 50q4 7 11 22t13.5 25.5t14.5 11.5q5 1 14 1t14 -1q15 -4 24.5 -22t9.5 -43
q0 -19 -5 -35.5t-13 -22.5q-37 -31 -79 -48l-18 -39q-4 -11 -22 -49l-20 -45l50 26q21 11 34 14.5t29 3.5q-12 0 -1.5 1t17.5 -4.5t12 -21.5q-1 1 -1 3l0.5 0.5l0.5 0.5q2 -1 4.5 -7t5.5 -16q9 -41 9 -77zM658 482v0v0zM666 468l1 -5q0 -1 1 -1zM679.5 456q1.5 0 2 0.5
t-0.5 0.5h-6q3 -1 4.5 -1zM654 308.5q20 49.5 20 99.5q0 21 -5 48q-11 -1 -27 -10q-24 -11 -83 -43l-21 -12q-16 -52 -26 -77q-57 -131 -76 -270q21 2 33 6q37 14 67 52q14 17 38 58l15 24q45 75 65 124.5z" />
    </font>
</defs>
</svg>
