<?xml version="1.0" encoding="UTF-8"?>
<svg width="1210px" height="526px" viewBox="0 0 1210 526" version="1.1" xmlns="http://www.w3.org/2000/svg" xmlns:xlink="http://www.w3.org/1999/xlink">
    <!-- Generator: Sketch 56.3 (81716) - https://sketch.com -->
    <title>Desktop HD Copy 4</title>
    <desc>Created with Sketch.</desc>
    <g id="Page-1" stroke="none" stroke-width="1" fill="none" fill-rule="evenodd">
        <g id="Desktop-HD-Copy-4" transform="translate(-117.000000, -2585.000000)">
            <rect fill="#2E3561" x="0" y="0" width="1440" height="3922"></rect>
            <rect id="Rectangle-Copy-2" fill="#FFFFFF" x="0" y="871" width="1440" height="2543"></rect>
            <g id="Group-4" transform="translate(110.000000, 1811.000000)" fill="#46693E">
                <g id="Group-355-Copy" transform="translate(6.000000, 774.000000)">
                    <polygon id="Fill-1" points="0 526 1211 526 1211 0 0 0"></polygon>
                </g>
            </g>
            <g id="Group-9" transform="translate(241.000000, 2776.000000)" stroke="#F9F1D5">
                <path d="M143.397173,86.6554929 C142.576733,85.8415201 141.614786,85.1948224 140.506816,84.718387 C139.395835,84.240458 138.217111,84 136.964623,84 C135.709124,84 134.530401,84.240458 133.42243,84.718387 C132.312955,85.1948224 131.361546,85.8415201 130.568203,86.6554929 C129.771849,87.4694656 129.1441,88.4238301 128.687965,89.5230667 C128.22882,90.6237969 128,91.7932293 128,93.0358447 C128,94.3277464 128.22882,95.5121142 128.687965,96.5859608 C129.1441,97.6627946 129.771849,98.6081978 130.568203,99.4191835 C131.361546,100.233156 132.312955,100.867906 133.42243,101.320445 C134.530401,101.774477 135.709124,102 136.964623,102 C138.217111,102 139.395835,101.774477 140.506816,101.320445 C141.614786,100.867906 142.576733,100.233156 143.397173,99.4191835 C144.217613,98.6081978 144.854395,97.6627946 145.31354,96.5859608 C145.769675,95.5121142 146,94.3277464 146,93.0358447 C146,91.7932293 145.769675,90.6237969 145.31354,89.5230667 C144.854395,88.4238301 144.217613,87.4694656 143.397173,86.6554929 Z" id="Stroke-1"></path>
                <path d="M9.46658861,102 C10.649494,102 11.7641549,101.773003 12.811993,101.319008 C13.8584093,100.865013 14.7669148,100.23181 15.5417747,99.4179043 C16.3166346,98.6084792 16.9180396,97.661661 17.3516768,96.5849166 C17.7824705,95.5096656 18,94.3268896 18,93.0365884 C18,91.7940762 17.7824705,90.6232473 17.3516768,89.5241019 C16.9180396,88.423463 16.3166346,87.4691778 15.5417747,86.656766 C14.7669148,85.8413673 13.8584093,85.1947233 12.811993,84.7183274 C11.7641549,84.2404381 10.649494,84 9.46658861,84 C8.28226144,84 7.16760057,84.2404381 6.12118424,84.7183274 C5.07334616,85.1947233 4.17479301,85.8413673 3.4255248,86.656766 C2.67341306,87.4691778 2.0805386,88.423463 1.64974492,89.5241019 C1.21610772,90.6232473 1,91.7940762 1,93.0365884 C1,94.3268896 1.21610772,95.5096656 1.64974492,96.5849166 C2.0805386,97.661661 2.67341306,98.6084792 3.4255248,99.4179043 C4.17479301,100.23181 5.07334616,100.865013 6.12118424,101.319008 C7.16760057,101.773003 8.28226144,102 9.46658861,102 Z" id="Stroke-3"></path>
                <path d="M128.00037,146.015675 C114.858184,160.970809 94.4371172,170.833016 73.5,170.833016 C52.5628828,170.833016 33.774076,160.955397 20.6333157,146 C20.6290391,145.996059 20.6233369,146.043696 20.6176346,146.043696 L6,146.043696 C21.1108765,168.008437 45.7045407,183 73.5,183 C101.295459,183 125.890549,168.008437 141,146.043696 L126.383791,146.043696 C126.378089,146.043696 128.004646,146.011471 128.00037,146.015675 Z" id="Stroke-5"></path>
                <path d="M73.0484094,12.0495716 C82.2433539,12.0495716 91.3927366,13.9628337 99.1567553,17.5860917 L99.1567553,87.771257 L46.7478497,87.771257 L46.7478497,43.200493 L34.1314973,43.200493 L34.1314973,143 L46.7478497,143 L46.7478497,97.4598119 L99.1567553,97.4598119 L99.1567553,143 L111.773108,143 L111.773108,25.2263474 C120.508163,31.1310213 127.406507,38.3562156 132.812701,47.0767679 L146,47.0767679 C131.908584,18.9776843 104.501726,0 73,0 C41.4968501,0 14.0914162,18.9776843 0,47.0767679 L13.1872989,47.0767679 C26.0570888,27.6982366 48.0805329,12.0495716 73.0484094,12.0495716 Z" id="Stroke-7"></path>
            </g>
            <g id="Group-9-Copy" transform="translate(444.000000, 2593.000000)" stroke="#F9F1D5">
                <path d="M143.397173,86.6554929 C142.576733,85.8415201 141.614786,85.1948224 140.506816,84.718387 C139.395835,84.240458 138.217111,84 136.964623,84 C135.709124,84 134.530401,84.240458 133.42243,84.718387 C132.312955,85.1948224 131.361546,85.8415201 130.568203,86.6554929 C129.771849,87.4694656 129.1441,88.4238301 128.687965,89.5230667 C128.22882,90.6237969 128,91.7932293 128,93.0358447 C128,94.3277464 128.22882,95.5121142 128.687965,96.5859608 C129.1441,97.6627946 129.771849,98.6081978 130.568203,99.4191835 C131.361546,100.233156 132.312955,100.867906 133.42243,101.320445 C134.530401,101.774477 135.709124,102 136.964623,102 C138.217111,102 139.395835,101.774477 140.506816,101.320445 C141.614786,100.867906 142.576733,100.233156 143.397173,99.4191835 C144.217613,98.6081978 144.854395,97.6627946 145.31354,96.5859608 C145.769675,95.5121142 146,94.3277464 146,93.0358447 C146,91.7932293 145.769675,90.6237969 145.31354,89.5230667 C144.854395,88.4238301 144.217613,87.4694656 143.397173,86.6554929 Z" id="Stroke-1"></path>
                <path d="M9.46658861,102 C10.649494,102 11.7641549,101.773003 12.811993,101.319008 C13.8584093,100.865013 14.7669148,100.23181 15.5417747,99.4179043 C16.3166346,98.6084792 16.9180396,97.661661 17.3516768,96.5849166 C17.7824705,95.5096656 18,94.3268896 18,93.0365884 C18,91.7940762 17.7824705,90.6232473 17.3516768,89.5241019 C16.9180396,88.423463 16.3166346,87.4691778 15.5417747,86.656766 C14.7669148,85.8413673 13.8584093,85.1947233 12.811993,84.7183274 C11.7641549,84.2404381 10.649494,84 9.46658861,84 C8.28226144,84 7.16760057,84.2404381 6.12118424,84.7183274 C5.07334616,85.1947233 4.17479301,85.8413673 3.4255248,86.656766 C2.67341306,87.4691778 2.0805386,88.423463 1.64974492,89.5241019 C1.21610772,90.6232473 1,91.7940762 1,93.0365884 C1,94.3268896 1.21610772,95.5096656 1.64974492,96.5849166 C2.0805386,97.661661 2.67341306,98.6084792 3.4255248,99.4179043 C4.17479301,100.23181 5.07334616,100.865013 6.12118424,101.319008 C7.16760057,101.773003 8.28226144,102 9.46658861,102 Z" id="Stroke-3"></path>
                <path d="M128.00037,146.015675 C114.858184,160.970809 94.4371172,170.833016 73.5,170.833016 C52.5628828,170.833016 33.774076,160.955397 20.6333157,146 C20.6290391,145.996059 20.6233369,146.043696 20.6176346,146.043696 L6,146.043696 C21.1108765,168.008437 45.7045407,183 73.5,183 C101.295459,183 125.890549,168.008437 141,146.043696 L126.383791,146.043696 C126.378089,146.043696 128.004646,146.011471 128.00037,146.015675 Z" id="Stroke-5"></path>
                <path d="M73.0484094,12.0495716 C82.2433539,12.0495716 91.3927366,13.9628337 99.1567553,17.5860917 L99.1567553,87.771257 L46.7478497,87.771257 L46.7478497,43.200493 L34.1314973,43.200493 L34.1314973,143 L46.7478497,143 L46.7478497,97.4598119 L99.1567553,97.4598119 L99.1567553,143 L111.773108,143 L111.773108,25.2263474 C120.508163,31.1310213 127.406507,38.3562156 132.812701,47.0767679 L146,47.0767679 C131.908584,18.9776843 104.501726,0 73,0 C41.4968501,0 14.0914162,18.9776843 0,47.0767679 L13.1872989,47.0767679 C26.0570888,27.6982366 48.0805329,12.0495716 73.0484094,12.0495716 Z" id="Stroke-7"></path>
            </g>
            <g id="Group-9-Copy-4" transform="translate(850.000000, 2593.000000)" stroke="#F9F1D5">
                <path d="M143.397173,86.6554929 C142.576733,85.8415201 141.614786,85.1948224 140.506816,84.718387 C139.395835,84.240458 138.217111,84 136.964623,84 C135.709124,84 134.530401,84.240458 133.42243,84.718387 C132.312955,85.1948224 131.361546,85.8415201 130.568203,86.6554929 C129.771849,87.4694656 129.1441,88.4238301 128.687965,89.5230667 C128.22882,90.6237969 128,91.7932293 128,93.0358447 C128,94.3277464 128.22882,95.5121142 128.687965,96.5859608 C129.1441,97.6627946 129.771849,98.6081978 130.568203,99.4191835 C131.361546,100.233156 132.312955,100.867906 133.42243,101.320445 C134.530401,101.774477 135.709124,102 136.964623,102 C138.217111,102 139.395835,101.774477 140.506816,101.320445 C141.614786,100.867906 142.576733,100.233156 143.397173,99.4191835 C144.217613,98.6081978 144.854395,97.6627946 145.31354,96.5859608 C145.769675,95.5121142 146,94.3277464 146,93.0358447 C146,91.7932293 145.769675,90.6237969 145.31354,89.5230667 C144.854395,88.4238301 144.217613,87.4694656 143.397173,86.6554929 Z" id="Stroke-1"></path>
                <path d="M9.46658861,102 C10.649494,102 11.7641549,101.773003 12.811993,101.319008 C13.8584093,100.865013 14.7669148,100.23181 15.5417747,99.4179043 C16.3166346,98.6084792 16.9180396,97.661661 17.3516768,96.5849166 C17.7824705,95.5096656 18,94.3268896 18,93.0365884 C18,91.7940762 17.7824705,90.6232473 17.3516768,89.5241019 C16.9180396,88.423463 16.3166346,87.4691778 15.5417747,86.656766 C14.7669148,85.8413673 13.8584093,85.1947233 12.811993,84.7183274 C11.7641549,84.2404381 10.649494,84 9.46658861,84 C8.28226144,84 7.16760057,84.2404381 6.12118424,84.7183274 C5.07334616,85.1947233 4.17479301,85.8413673 3.4255248,86.656766 C2.67341306,87.4691778 2.0805386,88.423463 1.64974492,89.5241019 C1.21610772,90.6232473 1,91.7940762 1,93.0365884 C1,94.3268896 1.21610772,95.5096656 1.64974492,96.5849166 C2.0805386,97.661661 2.67341306,98.6084792 3.4255248,99.4179043 C4.17479301,100.23181 5.07334616,100.865013 6.12118424,101.319008 C7.16760057,101.773003 8.28226144,102 9.46658861,102 Z" id="Stroke-3"></path>
                <path d="M128.00037,146.015675 C114.858184,160.970809 94.4371172,170.833016 73.5,170.833016 C52.5628828,170.833016 33.774076,160.955397 20.6333157,146 C20.6290391,145.996059 20.6233369,146.043696 20.6176346,146.043696 L6,146.043696 C21.1108765,168.008437 45.7045407,183 73.5,183 C101.295459,183 125.890549,168.008437 141,146.043696 L126.383791,146.043696 C126.378089,146.043696 128.004646,146.011471 128.00037,146.015675 Z" id="Stroke-5"></path>
                <path d="M73.0484094,12.0495716 C82.2433539,12.0495716 91.3927366,13.9628337 99.1567553,17.5860917 L99.1567553,87.771257 L46.7478497,87.771257 L46.7478497,43.200493 L34.1314973,43.200493 L34.1314973,143 L46.7478497,143 L46.7478497,97.4598119 L99.1567553,97.4598119 L99.1567553,143 L111.773108,143 L111.773108,25.2263474 C120.508163,31.1310213 127.406507,38.3562156 132.812701,47.0767679 L146,47.0767679 C131.908584,18.9776843 104.501726,0 73,0 C41.4968501,0 14.0914162,18.9776843 0,47.0767679 L13.1872989,47.0767679 C26.0570888,27.6982366 48.0805329,12.0495716 73.0484094,12.0495716 Z" id="Stroke-7"></path>
            </g>
            <g id="Group-9-Copy-7" transform="translate(1256.000000, 2593.000000)" stroke="#F9F1D5">
                <path d="M9.46658861,102 C10.649494,102 11.7641549,101.773003 12.811993,101.319008 C13.8584093,100.865013 14.7669148,100.23181 15.5417747,99.4179043 C16.3166346,98.6084792 16.9180396,97.661661 17.3516768,96.5849166 C17.7824705,95.5096656 18,94.3268896 18,93.0365884 C18,91.7940762 17.7824705,90.6232473 17.3516768,89.5241019 C16.9180396,88.423463 16.3166346,87.4691778 15.5417747,86.656766 C14.7669148,85.8413673 13.8584093,85.1947233 12.811993,84.7183274 C11.7641549,84.2404381 10.649494,84 9.46658861,84 C8.28226144,84 7.16760057,84.2404381 6.12118424,84.7183274 C5.07334616,85.1947233 4.17479301,85.8413673 3.4255248,86.656766 C2.67341306,87.4691778 2.0805386,88.423463 1.64974492,89.5241019 C1.21610772,90.6232473 1,91.7940762 1,93.0365884 C1,94.3268896 1.21610772,95.5096656 1.64974492,96.5849166 C2.0805386,97.661661 2.67341306,98.6084792 3.4255248,99.4179043 C4.17479301,100.23181 5.07334616,100.865013 6.12118424,101.319008 C7.16760057,101.773003 8.28226144,102 9.46658861,102 Z" id="Stroke-3"></path>
                <path d="M128.00037,146.015675 C114.858184,160.970809 94.4371172,170.833016 73.5,170.833016 C52.5628828,170.833016 33.774076,160.955397 20.6333157,146 C20.6290391,145.996059 20.6233369,146.043696 20.6176346,146.043696 L6,146.043696 C21.1108765,168.008437 45.7045407,183 73.5,183 C101.295459,183 125.890549,168.008437 141,146.043696 L126.383791,146.043696 C126.378089,146.043696 128.004646,146.011471 128.00037,146.015675 Z" id="Stroke-5"></path>
                <path d="M73.0484094,12.0495716 C82.2433539,12.0495716 91.3927366,13.9628337 99.1567553,17.5860917 L99.1567553,87.771257 L46.7478497,87.771257 L46.7478497,43.200493 L34.1314973,43.200493 L34.1314973,143 L46.7478497,143 L46.7478497,97.4598119 L99.1567553,97.4598119 L99.1567553,143 L111.773108,143 L111.773108,25.2263474 C120.508163,31.1310213 127.406507,38.3562156 132.812701,47.0767679 L146,47.0767679 C131.908584,18.9776843 104.501726,0 73,0 C41.4968501,0 14.0914162,18.9776843 0,47.0767679 L13.1872989,47.0767679 C26.0570888,27.6982366 48.0805329,12.0495716 73.0484094,12.0495716 Z" id="Stroke-7"></path>
            </g>
            <g id="Group-9-Copy-8" transform="translate(38.000000, 2593.000000)" stroke="#F9F1D5">
                <path d="M143.397173,86.6554929 C142.576733,85.8415201 141.614786,85.1948224 140.506816,84.718387 C139.395835,84.240458 138.217111,84 136.964623,84 C135.709124,84 134.530401,84.240458 133.42243,84.718387 C132.312955,85.1948224 131.361546,85.8415201 130.568203,86.6554929 C129.771849,87.4694656 129.1441,88.4238301 128.687965,89.5230667 C128.22882,90.6237969 128,91.7932293 128,93.0358447 C128,94.3277464 128.22882,95.5121142 128.687965,96.5859608 C129.1441,97.6627946 129.771849,98.6081978 130.568203,99.4191835 C131.361546,100.233156 132.312955,100.867906 133.42243,101.320445 C134.530401,101.774477 135.709124,102 136.964623,102 C138.217111,102 139.395835,101.774477 140.506816,101.320445 C141.614786,100.867906 142.576733,100.233156 143.397173,99.4191835 C144.217613,98.6081978 144.854395,97.6627946 145.31354,96.5859608 C145.769675,95.5121142 146,94.3277464 146,93.0358447 C146,91.7932293 145.769675,90.6237969 145.31354,89.5230667 C144.854395,88.4238301 144.217613,87.4694656 143.397173,86.6554929 Z" id="Stroke-1"></path>
                <path d="M128.00037,146.015675 C114.858184,160.970809 94.4371172,170.833016 73.5,170.833016 C52.5628828,170.833016 33.774076,160.955397 20.6333157,146 C20.6290391,145.996059 20.6233369,146.043696 20.6176346,146.043696 L6,146.043696 C21.1108765,168.008437 45.7045407,183 73.5,183 C101.295459,183 125.890549,168.008437 141,146.043696 L126.383791,146.043696 C126.378089,146.043696 128.004646,146.011471 128.00037,146.015675 Z" id="Stroke-5"></path>
                <path d="M73.0484094,12.0495716 C82.2433539,12.0495716 91.3927366,13.9628337 99.1567553,17.5860917 L99.1567553,87.771257 L46.7478497,87.771257 L46.7478497,43.200493 L34.1314973,43.200493 L34.1314973,143 L46.7478497,143 L46.7478497,97.4598119 L99.1567553,97.4598119 L99.1567553,143 L111.773108,143 L111.773108,25.2263474 C120.508163,31.1310213 127.406507,38.3562156 132.812701,47.0767679 L146,47.0767679 C131.908584,18.9776843 104.501726,0 73,0 C41.4968501,0 14.0914162,18.9776843 0,47.0767679 L13.1872989,47.0767679 C26.0570888,27.6982366 48.0805329,12.0495716 73.0484094,12.0495716 Z" id="Stroke-7"></path>
            </g>
            <g id="Group-9-Copy-9" transform="translate(38.000000, 2959.000000)" stroke="#F9F1D5">
                <path d="M143.397173,86.6554929 C142.576733,85.8415201 141.614786,85.1948224 140.506816,84.718387 C139.395835,84.240458 138.217111,84 136.964623,84 C135.709124,84 134.530401,84.240458 133.42243,84.718387 C132.312955,85.1948224 131.361546,85.8415201 130.568203,86.6554929 C129.771849,87.4694656 129.1441,88.4238301 128.687965,89.5230667 C128.22882,90.6237969 128,91.7932293 128,93.0358447 C128,94.3277464 128.22882,95.5121142 128.687965,96.5859608 C129.1441,97.6627946 129.771849,98.6081978 130.568203,99.4191835 C131.361546,100.233156 132.312955,100.867906 133.42243,101.320445 C134.530401,101.774477 135.709124,102 136.964623,102 C138.217111,102 139.395835,101.774477 140.506816,101.320445 C141.614786,100.867906 142.576733,100.233156 143.397173,99.4191835 C144.217613,98.6081978 144.854395,97.6627946 145.31354,96.5859608 C145.769675,95.5121142 146,94.3277464 146,93.0358447 C146,91.7932293 145.769675,90.6237969 145.31354,89.5230667 C144.854395,88.4238301 144.217613,87.4694656 143.397173,86.6554929 Z" id="Stroke-1"></path>
                <path d="M128.00037,146.015675 C114.858184,160.970809 94.4371172,170.833016 73.5,170.833016 C52.5628828,170.833016 33.774076,160.955397 20.6333157,146 C20.6290391,145.996059 20.6233369,146.043696 20.6176346,146.043696 L6,146.043696 C21.1108765,168.008437 45.7045407,183 73.5,183 C101.295459,183 125.890549,168.008437 141,146.043696 L126.383791,146.043696 C126.378089,146.043696 128.004646,146.011471 128.00037,146.015675 Z" id="Stroke-5"></path>
                <path d="M73.0484094,12.0495716 C82.2433539,12.0495716 91.3927366,13.9628337 99.1567553,17.5860917 L99.1567553,87.771257 L46.7478497,87.771257 L46.7478497,43.200493 L34.1314973,43.200493 L34.1314973,143 L46.7478497,143 L46.7478497,97.4598119 L99.1567553,97.4598119 L99.1567553,143 L111.773108,143 L111.773108,25.2263474 C120.508163,31.1310213 127.406507,38.3562156 132.812701,47.0767679 L146,47.0767679 C131.908584,18.9776843 104.501726,0 73,0 C41.4968501,0 14.0914162,18.9776843 0,47.0767679 L13.1872989,47.0767679 C26.0570888,27.6982366 48.0805329,12.0495716 73.0484094,12.0495716 Z" id="Stroke-7"></path>
            </g>
            <g id="Group-9-Copy-2" transform="translate(647.000000, 2776.000000)" stroke="#F9F1D5">
                <path d="M143.397173,86.6554929 C142.576733,85.8415201 141.614786,85.1948224 140.506816,84.718387 C139.395835,84.240458 138.217111,84 136.964623,84 C135.709124,84 134.530401,84.240458 133.42243,84.718387 C132.312955,85.1948224 131.361546,85.8415201 130.568203,86.6554929 C129.771849,87.4694656 129.1441,88.4238301 128.687965,89.5230667 C128.22882,90.6237969 128,91.7932293 128,93.0358447 C128,94.3277464 128.22882,95.5121142 128.687965,96.5859608 C129.1441,97.6627946 129.771849,98.6081978 130.568203,99.4191835 C131.361546,100.233156 132.312955,100.867906 133.42243,101.320445 C134.530401,101.774477 135.709124,102 136.964623,102 C138.217111,102 139.395835,101.774477 140.506816,101.320445 C141.614786,100.867906 142.576733,100.233156 143.397173,99.4191835 C144.217613,98.6081978 144.854395,97.6627946 145.31354,96.5859608 C145.769675,95.5121142 146,94.3277464 146,93.0358447 C146,91.7932293 145.769675,90.6237969 145.31354,89.5230667 C144.854395,88.4238301 144.217613,87.4694656 143.397173,86.6554929 Z" id="Stroke-1"></path>
                <path d="M9.46658861,102 C10.649494,102 11.7641549,101.773003 12.811993,101.319008 C13.8584093,100.865013 14.7669148,100.23181 15.5417747,99.4179043 C16.3166346,98.6084792 16.9180396,97.661661 17.3516768,96.5849166 C17.7824705,95.5096656 18,94.3268896 18,93.0365884 C18,91.7940762 17.7824705,90.6232473 17.3516768,89.5241019 C16.9180396,88.423463 16.3166346,87.4691778 15.5417747,86.656766 C14.7669148,85.8413673 13.8584093,85.1947233 12.811993,84.7183274 C11.7641549,84.2404381 10.649494,84 9.46658861,84 C8.28226144,84 7.16760057,84.2404381 6.12118424,84.7183274 C5.07334616,85.1947233 4.17479301,85.8413673 3.4255248,86.656766 C2.67341306,87.4691778 2.0805386,88.423463 1.64974492,89.5241019 C1.21610772,90.6232473 1,91.7940762 1,93.0365884 C1,94.3268896 1.21610772,95.5096656 1.64974492,96.5849166 C2.0805386,97.661661 2.67341306,98.6084792 3.4255248,99.4179043 C4.17479301,100.23181 5.07334616,100.865013 6.12118424,101.319008 C7.16760057,101.773003 8.28226144,102 9.46658861,102 Z" id="Stroke-3"></path>
                <path d="M128.00037,146.015675 C114.858184,160.970809 94.4371172,170.833016 73.5,170.833016 C52.5628828,170.833016 33.774076,160.955397 20.6333157,146 C20.6290391,145.996059 20.6233369,146.043696 20.6176346,146.043696 L6,146.043696 C21.1108765,168.008437 45.7045407,183 73.5,183 C101.295459,183 125.890549,168.008437 141,146.043696 L126.383791,146.043696 C126.378089,146.043696 128.004646,146.011471 128.00037,146.015675 Z" id="Stroke-5"></path>
                <path d="M73.0484094,12.0495716 C82.2433539,12.0495716 91.3927366,13.9628337 99.1567553,17.5860917 L99.1567553,87.771257 L46.7478497,87.771257 L46.7478497,43.200493 L34.1314973,43.200493 L34.1314973,143 L46.7478497,143 L46.7478497,97.4598119 L99.1567553,97.4598119 L99.1567553,143 L111.773108,143 L111.773108,25.2263474 C120.508163,31.1310213 127.406507,38.3562156 132.812701,47.0767679 L146,47.0767679 C131.908584,18.9776843 104.501726,0 73,0 C41.4968501,0 14.0914162,18.9776843 0,47.0767679 L13.1872989,47.0767679 C26.0570888,27.6982366 48.0805329,12.0495716 73.0484094,12.0495716 Z" id="Stroke-7"></path>
            </g>
            <g id="Group-9-Copy-5" transform="translate(1053.000000, 2776.000000)" stroke="#F9F1D5">
                <path d="M143.397173,86.6554929 C142.576733,85.8415201 141.614786,85.1948224 140.506816,84.718387 C139.395835,84.240458 138.217111,84 136.964623,84 C135.709124,84 134.530401,84.240458 133.42243,84.718387 C132.312955,85.1948224 131.361546,85.8415201 130.568203,86.6554929 C129.771849,87.4694656 129.1441,88.4238301 128.687965,89.5230667 C128.22882,90.6237969 128,91.7932293 128,93.0358447 C128,94.3277464 128.22882,95.5121142 128.687965,96.5859608 C129.1441,97.6627946 129.771849,98.6081978 130.568203,99.4191835 C131.361546,100.233156 132.312955,100.867906 133.42243,101.320445 C134.530401,101.774477 135.709124,102 136.964623,102 C138.217111,102 139.395835,101.774477 140.506816,101.320445 C141.614786,100.867906 142.576733,100.233156 143.397173,99.4191835 C144.217613,98.6081978 144.854395,97.6627946 145.31354,96.5859608 C145.769675,95.5121142 146,94.3277464 146,93.0358447 C146,91.7932293 145.769675,90.6237969 145.31354,89.5230667 C144.854395,88.4238301 144.217613,87.4694656 143.397173,86.6554929 Z" id="Stroke-1"></path>
                <path d="M9.46658861,102 C10.649494,102 11.7641549,101.773003 12.811993,101.319008 C13.8584093,100.865013 14.7669148,100.23181 15.5417747,99.4179043 C16.3166346,98.6084792 16.9180396,97.661661 17.3516768,96.5849166 C17.7824705,95.5096656 18,94.3268896 18,93.0365884 C18,91.7940762 17.7824705,90.6232473 17.3516768,89.5241019 C16.9180396,88.423463 16.3166346,87.4691778 15.5417747,86.656766 C14.7669148,85.8413673 13.8584093,85.1947233 12.811993,84.7183274 C11.7641549,84.2404381 10.649494,84 9.46658861,84 C8.28226144,84 7.16760057,84.2404381 6.12118424,84.7183274 C5.07334616,85.1947233 4.17479301,85.8413673 3.4255248,86.656766 C2.67341306,87.4691778 2.0805386,88.423463 1.64974492,89.5241019 C1.21610772,90.6232473 1,91.7940762 1,93.0365884 C1,94.3268896 1.21610772,95.5096656 1.64974492,96.5849166 C2.0805386,97.661661 2.67341306,98.6084792 3.4255248,99.4179043 C4.17479301,100.23181 5.07334616,100.865013 6.12118424,101.319008 C7.16760057,101.773003 8.28226144,102 9.46658861,102 Z" id="Stroke-3"></path>
                <path d="M128.00037,146.015675 C114.858184,160.970809 94.4371172,170.833016 73.5,170.833016 C52.5628828,170.833016 33.774076,160.955397 20.6333157,146 C20.6290391,145.996059 20.6233369,146.043696 20.6176346,146.043696 L6,146.043696 C21.1108765,168.008437 45.7045407,183 73.5,183 C101.295459,183 125.890549,168.008437 141,146.043696 L126.383791,146.043696 C126.378089,146.043696 128.004646,146.011471 128.00037,146.015675 Z" id="Stroke-5"></path>
                <path d="M73.0484094,12.0495716 C82.2433539,12.0495716 91.3927366,13.9628337 99.1567553,17.5860917 L99.1567553,87.771257 L46.7478497,87.771257 L46.7478497,43.200493 L34.1314973,43.200493 L34.1314973,143 L46.7478497,143 L46.7478497,97.4598119 L99.1567553,97.4598119 L99.1567553,143 L111.773108,143 L111.773108,25.2263474 C120.508163,31.1310213 127.406507,38.3562156 132.812701,47.0767679 L146,47.0767679 C131.908584,18.9776843 104.501726,0 73,0 C41.4968501,0 14.0914162,18.9776843 0,47.0767679 L13.1872989,47.0767679 C26.0570888,27.6982366 48.0805329,12.0495716 73.0484094,12.0495716 Z" id="Stroke-7"></path>
            </g>
            <g id="Group-9-Copy-10" transform="translate(1256.000000, 2959.000000)" stroke="#F9F1D5">
                <path d="M9.46658861,102 C10.649494,102 11.7641549,101.773003 12.811993,101.319008 C13.8584093,100.865013 14.7669148,100.23181 15.5417747,99.4179043 C16.3166346,98.6084792 16.9180396,97.661661 17.3516768,96.5849166 C17.7824705,95.5096656 18,94.3268896 18,93.0365884 C18,91.7940762 17.7824705,90.6232473 17.3516768,89.5241019 C16.9180396,88.423463 16.3166346,87.4691778 15.5417747,86.656766 C14.7669148,85.8413673 13.8584093,85.1947233 12.811993,84.7183274 C11.7641549,84.2404381 10.649494,84 9.46658861,84 C8.28226144,84 7.16760057,84.2404381 6.12118424,84.7183274 C5.07334616,85.1947233 4.17479301,85.8413673 3.4255248,86.656766 C2.67341306,87.4691778 2.0805386,88.423463 1.64974492,89.5241019 C1.21610772,90.6232473 1,91.7940762 1,93.0365884 C1,94.3268896 1.21610772,95.5096656 1.64974492,96.5849166 C2.0805386,97.661661 2.67341306,98.6084792 3.4255248,99.4179043 C4.17479301,100.23181 5.07334616,100.865013 6.12118424,101.319008 C7.16760057,101.773003 8.28226144,102 9.46658861,102 Z" id="Stroke-3"></path>
                <path d="M128.00037,146.015675 C114.858184,160.970809 94.4371172,170.833016 73.5,170.833016 C52.5628828,170.833016 33.774076,160.955397 20.6333157,146 C20.6290391,145.996059 20.6233369,146.043696 20.6176346,146.043696 L6,146.043696 C21.1108765,168.008437 45.7045407,183 73.5,183 C101.295459,183 125.890549,168.008437 141,146.043696 L126.383791,146.043696 C126.378089,146.043696 128.004646,146.011471 128.00037,146.015675 Z" id="Stroke-5"></path>
                <path d="M73.0484094,12.0495716 C82.2433539,12.0495716 91.3927366,13.9628337 99.1567553,17.5860917 L99.1567553,87.771257 L46.7478497,87.771257 L46.7478497,43.200493 L34.1314973,43.200493 L34.1314973,143 L46.7478497,143 L46.7478497,97.4598119 L99.1567553,97.4598119 L99.1567553,143 L111.773108,143 L111.773108,25.2263474 C120.508163,31.1310213 127.406507,38.3562156 132.812701,47.0767679 L146,47.0767679 C131.908584,18.9776843 104.501726,0 73,0 C41.4968501,0 14.0914162,18.9776843 0,47.0767679 L13.1872989,47.0767679 C26.0570888,27.6982366 48.0805329,12.0495716 73.0484094,12.0495716 Z" id="Stroke-7"></path>
            </g>
            <g id="Group-9-Copy-3" transform="translate(444.000000, 2959.000000)" stroke="#F9F1D5">
                <path d="M143.397173,86.6554929 C142.576733,85.8415201 141.614786,85.1948224 140.506816,84.718387 C139.395835,84.240458 138.217111,84 136.964623,84 C135.709124,84 134.530401,84.240458 133.42243,84.718387 C132.312955,85.1948224 131.361546,85.8415201 130.568203,86.6554929 C129.771849,87.4694656 129.1441,88.4238301 128.687965,89.5230667 C128.22882,90.6237969 128,91.7932293 128,93.0358447 C128,94.3277464 128.22882,95.5121142 128.687965,96.5859608 C129.1441,97.6627946 129.771849,98.6081978 130.568203,99.4191835 C131.361546,100.233156 132.312955,100.867906 133.42243,101.320445 C134.530401,101.774477 135.709124,102 136.964623,102 C138.217111,102 139.395835,101.774477 140.506816,101.320445 C141.614786,100.867906 142.576733,100.233156 143.397173,99.4191835 C144.217613,98.6081978 144.854395,97.6627946 145.31354,96.5859608 C145.769675,95.5121142 146,94.3277464 146,93.0358447 C146,91.7932293 145.769675,90.6237969 145.31354,89.5230667 C144.854395,88.4238301 144.217613,87.4694656 143.397173,86.6554929 Z" id="Stroke-1"></path>
                <path d="M9.46658861,102 C10.649494,102 11.7641549,101.773003 12.811993,101.319008 C13.8584093,100.865013 14.7669148,100.23181 15.5417747,99.4179043 C16.3166346,98.6084792 16.9180396,97.661661 17.3516768,96.5849166 C17.7824705,95.5096656 18,94.3268896 18,93.0365884 C18,91.7940762 17.7824705,90.6232473 17.3516768,89.5241019 C16.9180396,88.423463 16.3166346,87.4691778 15.5417747,86.656766 C14.7669148,85.8413673 13.8584093,85.1947233 12.811993,84.7183274 C11.7641549,84.2404381 10.649494,84 9.46658861,84 C8.28226144,84 7.16760057,84.2404381 6.12118424,84.7183274 C5.07334616,85.1947233 4.17479301,85.8413673 3.4255248,86.656766 C2.67341306,87.4691778 2.0805386,88.423463 1.64974492,89.5241019 C1.21610772,90.6232473 1,91.7940762 1,93.0365884 C1,94.3268896 1.21610772,95.5096656 1.64974492,96.5849166 C2.0805386,97.661661 2.67341306,98.6084792 3.4255248,99.4179043 C4.17479301,100.23181 5.07334616,100.865013 6.12118424,101.319008 C7.16760057,101.773003 8.28226144,102 9.46658861,102 Z" id="Stroke-3"></path>
                <path d="M128.00037,146.015675 C114.858184,160.970809 94.4371172,170.833016 73.5,170.833016 C52.5628828,170.833016 33.774076,160.955397 20.6333157,146 C20.6290391,145.996059 20.6233369,146.043696 20.6176346,146.043696 L6,146.043696 C21.1108765,168.008437 45.7045407,183 73.5,183 C101.295459,183 125.890549,168.008437 141,146.043696 L126.383791,146.043696 C126.378089,146.043696 128.004646,146.011471 128.00037,146.015675 Z" id="Stroke-5"></path>
                <path d="M73.0484094,12.0495716 C82.2433539,12.0495716 91.3927366,13.9628337 99.1567553,17.5860917 L99.1567553,87.771257 L46.7478497,87.771257 L46.7478497,43.200493 L34.1314973,43.200493 L34.1314973,143 L46.7478497,143 L46.7478497,97.4598119 L99.1567553,97.4598119 L99.1567553,143 L111.773108,143 L111.773108,25.2263474 C120.508163,31.1310213 127.406507,38.3562156 132.812701,47.0767679 L146,47.0767679 C131.908584,18.9776843 104.501726,0 73,0 C41.4968501,0 14.0914162,18.9776843 0,47.0767679 L13.1872989,47.0767679 C26.0570888,27.6982366 48.0805329,12.0495716 73.0484094,12.0495716 Z" id="Stroke-7"></path>
            </g>
            <g id="Group-9-Copy-6" transform="translate(850.000000, 2959.000000)" stroke="#F9F1D5">
                <path d="M143.397173,86.6554929 C142.576733,85.8415201 141.614786,85.1948224 140.506816,84.718387 C139.395835,84.240458 138.217111,84 136.964623,84 C135.709124,84 134.530401,84.240458 133.42243,84.718387 C132.312955,85.1948224 131.361546,85.8415201 130.568203,86.6554929 C129.771849,87.4694656 129.1441,88.4238301 128.687965,89.5230667 C128.22882,90.6237969 128,91.7932293 128,93.0358447 C128,94.3277464 128.22882,95.5121142 128.687965,96.5859608 C129.1441,97.6627946 129.771849,98.6081978 130.568203,99.4191835 C131.361546,100.233156 132.312955,100.867906 133.42243,101.320445 C134.530401,101.774477 135.709124,102 136.964623,102 C138.217111,102 139.395835,101.774477 140.506816,101.320445 C141.614786,100.867906 142.576733,100.233156 143.397173,99.4191835 C144.217613,98.6081978 144.854395,97.6627946 145.31354,96.5859608 C145.769675,95.5121142 146,94.3277464 146,93.0358447 C146,91.7932293 145.769675,90.6237969 145.31354,89.5230667 C144.854395,88.4238301 144.217613,87.4694656 143.397173,86.6554929 Z" id="Stroke-1"></path>
                <path d="M9.46658861,102 C10.649494,102 11.7641549,101.773003 12.811993,101.319008 C13.8584093,100.865013 14.7669148,100.23181 15.5417747,99.4179043 C16.3166346,98.6084792 16.9180396,97.661661 17.3516768,96.5849166 C17.7824705,95.5096656 18,94.3268896 18,93.0365884 C18,91.7940762 17.7824705,90.6232473 17.3516768,89.5241019 C16.9180396,88.423463 16.3166346,87.4691778 15.5417747,86.656766 C14.7669148,85.8413673 13.8584093,85.1947233 12.811993,84.7183274 C11.7641549,84.2404381 10.649494,84 9.46658861,84 C8.28226144,84 7.16760057,84.2404381 6.12118424,84.7183274 C5.07334616,85.1947233 4.17479301,85.8413673 3.4255248,86.656766 C2.67341306,87.4691778 2.0805386,88.423463 1.64974492,89.5241019 C1.21610772,90.6232473 1,91.7940762 1,93.0365884 C1,94.3268896 1.21610772,95.5096656 1.64974492,96.5849166 C2.0805386,97.661661 2.67341306,98.6084792 3.4255248,99.4179043 C4.17479301,100.23181 5.07334616,100.865013 6.12118424,101.319008 C7.16760057,101.773003 8.28226144,102 9.46658861,102 Z" id="Stroke-3"></path>
                <path d="M128.00037,146.015675 C114.858184,160.970809 94.4371172,170.833016 73.5,170.833016 C52.5628828,170.833016 33.774076,160.955397 20.6333157,146 C20.6290391,145.996059 20.6233369,146.043696 20.6176346,146.043696 L6,146.043696 C21.1108765,168.008437 45.7045407,183 73.5,183 C101.295459,183 125.890549,168.008437 141,146.043696 L126.383791,146.043696 C126.378089,146.043696 128.004646,146.011471 128.00037,146.015675 Z" id="Stroke-5"></path>
                <path d="M73.0484094,12.0495716 C82.2433539,12.0495716 91.3927366,13.9628337 99.1567553,17.5860917 L99.1567553,87.771257 L46.7478497,87.771257 L46.7478497,43.200493 L34.1314973,43.200493 L34.1314973,143 L46.7478497,143 L46.7478497,97.4598119 L99.1567553,97.4598119 L99.1567553,143 L111.773108,143 L111.773108,25.2263474 C120.508163,31.1310213 127.406507,38.3562156 132.812701,47.0767679 L146,47.0767679 C131.908584,18.9776843 104.501726,0 73,0 C41.4968501,0 14.0914162,18.9776843 0,47.0767679 L13.1872989,47.0767679 C26.0570888,27.6982366 48.0805329,12.0495716 73.0484094,12.0495716 Z" id="Stroke-7"></path>
            </g>
        </g>
    </g>
</svg>