<?xml version="1.0" encoding="UTF-8"?>
<svg width="187px" height="53px" viewBox="0 0 187 53" version="1.1" xmlns="http://www.w3.org/2000/svg" xmlns:xlink="http://www.w3.org/1999/xlink">
    <!-- Generator: Sketch 56.3 (81716) - https://sketch.com -->
    <title>Loads</title>
    <desc>Created with Sketch.</desc>
    <g id="Page-1" stroke="none" stroke-width="1" fill="none" fill-rule="evenodd">
        <g id="Artboard" transform="translate(-146.000000, -101.000000)" fill-rule="nonzero" stroke="#FFFFFF">
            <path d="M184.8,136.58 L184.03,151.7 L147,151.7 L151.2,144.28 L151.2,111.03 L147,103.75 L165.62,103.75 L160.3,111.1 L160.3,148.55 L174.86,148.55 L184.1,136.58 L184.8,136.58 Z M223.3,133.01 C223.3,142.04 217.21,152.54 204.19,152.54 C194.25,152.54 189,144.49 189,136.09 C189,127.06 195.09,116.56 208.11,116.56 C218.05,116.56 223.3,124.61 223.3,133.01 Z M204.33,119.22 C198.52,119.22 197.89,125.52 197.89,129.72 C197.89,140.64 201.88,149.88 208.04,149.88 C213.22,149.88 214.55,143.02 214.55,139.38 C214.55,128.46 210.49,119.22 204.33,119.22 Z M248.22,151.7 L248.22,145.82 C245.56,148.41 240.66,152.4 236.04,152.4 C231.21,152.4 227.64,150.02 227.64,144.35 C227.64,137.21 236.11,133.57 248.22,129.3 C248.22,123.7 248.08,119.36 242.34,119.36 C236.74,119.36 233.38,123.28 229.81,128.6 L229.32,128.6 L229.32,117.4 L258.16,117.4 L256.62,123.42 L256.62,147.15 L256.69,147.15 L261.87,151.7 L248.22,151.7 Z M248.22,143.93 L248.22,131.26 C237.23,135.67 236.88,138.68 236.88,142.04 C236.88,145.4 239.19,146.87 242.13,146.87 C244.3,146.87 246.47,145.75 248.22,143.93 Z M290.08,152.33 L290.08,145.47 C287.98,149.11 284.76,152.4 279.37,152.4 C270.2,152.4 265.72,144.35 265.72,135.95 C265.72,126.92 271.46,117.4 284.2,117.4 L290.08,117.4 L290.08,111.38 L285.32,105.99 L298.48,102 L298.48,146.8 L303.66,151.7 L290.08,152.33 Z M290.08,142.95 L290.08,124.12 C287.98,121.88 285.11,119.85 281.47,119.85 C275.31,119.85 274.05,125.38 274.05,129.58 C274.05,140.5 278.88,144.7 284.83,144.7 C287.28,144.7 288.75,144 290.08,142.95 Z M306.81,138.47 L307.37,138.47 C309.19,144.49 314.72,149.74 320.46,149.74 C323.33,149.74 325.71,148.34 325.71,145.19 C325.71,136.93 307.16,140.99 307.16,127.13 C307.16,121.95 311.71,117.4 318.85,117.4 L326.55,117.4 L329.14,115.93 L329.14,127.55 L328.72,127.48 C326.2,122.93 322,119.57 317.52,119.64 C314.58,119.71 312.9,121.53 312.9,124.26 C312.9,131.47 332.08,128.32 332.08,141.13 C332.08,149.25 323.89,152.4 318.36,152.4 C314.86,152.4 310.1,151.91 307.44,150.79 L306.81,138.47 Z" id="Loads"></path>
        </g>
    </g>
</svg>